<?xml version="1.0" encoding="utf-8"?>
<!-- Generator: Adobe Illustrator 26.0.0, SVG Export Plug-In . SVG Version: 6.00 Build 0)  -->
<svg version="1.1" id="Capa_1" xmlns="http://www.w3.org/2000/svg" xmlns:xlink="http://www.w3.org/1999/xlink" x="0px" y="0px"
	 viewBox="0 0 57.7 83.8" style="enable-background:new 0 0 57.7 83.8;" xml:space="preserve">
<style type="text/css">
	.st0{fill:#F089A6;}
</style>
<path id="XMLID_665_" class="st0" d="M22.9,37.3c-6.8,9.7-4.3,23.5,6.7,36.8c0.7-3-2.5-6.1,0.2-8.7c0.5,0.1,1,0,1.1,0.1
	c2.1,4.3,4.2,8.6,6.1,12.9c0.6,1.5-0.1,3.1-1.9,3.2c-3.7,0.1-7.5,0.3-11.8-1.3c1.7-1.3,2.8-2.2,3.7-2.9c-2.9-4.1-6-8-8.4-12.3
	c-5.6-10.1-6.1-20.4,0-30.6c1-1.6,0.8-2.8,0.2-4.4c-2.4-6.8-1.7-13.3,2.4-19.3c1.5-2.2,3.2-4.5,7.2-4c-4.1,2.9-6.1,6.5-7,10.8
	c-0.8,4.2-0.9,8.2,1.2,12c3.8-0.8,7.4-1.9,11-2c3.6-0.1,7.4,0.4,10.8,1.4c3.5,1.1,5.2,4.3,4.9,7.4c-0.3,3.2-2.6,5.6-6.3,6.3
	c-5.9,1.2-11.5-0.1-16.6-3.1C25.2,38.9,24,38.1,22.9,37.3z M25.7,34.3c4.9,4,9.9,5.3,15.4,4.6c1.8-0.2,3.6-0.7,3.7-3
	c0.1-1.9-1.5-2.8-3.1-3.2C36.6,31.4,31.5,31.8,25.7,34.3z"/>
</svg>
