<?xml version="1.0" encoding="utf-8"?>
<!-- Generator: Adobe Illustrator 26.0.0, SVG Export Plug-In . SVG Version: 6.00 Build 0)  -->
<svg version="1.1" id="Capa_1" xmlns="http://www.w3.org/2000/svg" xmlns:xlink="http://www.w3.org/1999/xlink" x="0px" y="0px"
	 viewBox="0 0 64.9 65.2" style="enable-background:new 0 0 64.9 65.2;" xml:space="preserve">
<style type="text/css">
	.st0{fill:#5E5356;}
</style>
<path id="XMLID_520_" class="st0" d="M10.6,5.9c1.4,2.9,3.6,2.2,5.8,1.9c2-0.4,3.9-0.9,6.3-0.7c-2.1,1.7-4.2,3.3-6.3,5
	c-5.4,4.4-9.7,9.5-11.7,16.3c-5,16.4,12,34.7,30.7,32.7c11.7-1.3,19.9-7.3,25.9-15.8c0.4-0.6,0.5-1.4,0-2.7
	c-0.7,0.7-1.5,1.4-2.2,2.2C53.8,50.3,47.6,54.7,39.8,57c-5,1.5-10.4,1.5-15.8-0.5C11.9,51.9,5,38.3,9.3,28.2
	c3.1-7.1,8.6-12.1,15.1-16.7c0.8,3.7-2.5,6.8,0.4,11.4c1-3.4,1.7-6.2,2.6-8.9c0.8-2.3,1.8-4.6,2.6-6.9c0.9-2.4,0.1-4-2.7-4.3
	c-2.7-0.3-5.5,0-8,0.5C16.4,3.9,13.8,4.9,10.6,5.9z"/>
</svg>
