<?xml version="1.0" encoding="utf-8"?>
<!-- Generator: Adobe Illustrator 26.0.0, SVG Export Plug-In . SVG Version: 6.00 Build 0)  -->
<svg version="1.1" id="Capa_1" xmlns="http://www.w3.org/2000/svg" xmlns:xlink="http://www.w3.org/1999/xlink" x="0px" y="0px"
	 viewBox="0 0 59.7 99.6" style="enable-background:new 0 0 59.7 99.6;" xml:space="preserve">
<style type="text/css">
	.st0{fill:#635C5F;}
</style>
<path id="XMLID_562_" class="st0" d="M29.6,8.8c-2.2,0.7-3.5,0.7-4,1.3c-1.9,2.4-3.8,4.8-5.1,7.5c-3.3,7.3-4.1,15.1-3.6,23.1
	c0.9,13.5,5.4,26,11.3,38.1c0.6,1.3,1.2,2.6,1.8,3.9c0,0.1-0.1,0.3-0.3,0.6c-2.1-0.8-4.3-1.8-6.5-2.5c-1.2-0.4-2.6-0.6-3.8-0.3
	c-0.8,0.1-1.9,1.1-2,1.8c-0.1,0.9,0.4,2.1,1,2.9c0.4,0.6,1.3,0.8,2.1,1.1c5.8,2.3,11.5,4.7,17.4,6.9c5,1.9,6.9,0.4,7.2-4.7
	c0.4-5.3,1-10.5,1.5-15.8c0.1-1.6,0.1-3.3,0.1-5.1c-4.5,1.3-4.5,1.3-8.1,17.2c-5.3-7.8-8.5-15.9-11.4-24.1
	c-2.9-8.2-4.4-16.7-4.6-25.5C22.5,26.2,25.4,17.9,29.6,8.8z"/>
</svg>
