<svg id="Capa_1" data-name="Capa 1" xmlns="http://www.w3.org/2000/svg" viewBox="0 0 97.72 15.4"><defs><style>.cls-1{fill:#1d1d1b;}</style></defs><path class="cls-1" d="M1.78,1.34H8.49v.42H7.28v7l.18,0,6.2-6.91H11.93V1.34h3.85v.42H14.46L10.67,6,16,16.33h1.19v.41H10.08v-.41h1l-3.63-7-.2,0v7H8.49v.41H1.78v-.41H3V1.76H1.78Z" transform="translate(-1.78 -1.34)"/><path class="cls-1" d="M17.84,1.34H29.28L29.5,5.7h-.39a7.84,7.84,0,0,0-1.94-3.05,4.59,4.59,0,0,0-3-.82h-.77v6.8h.75a2.23,2.23,0,0,0,1.74-.79,4.47,4.47,0,0,0,1-2.1h.33v6.52h-.38A5.25,5.25,0,0,0,25.8,9.9,2.42,2.42,0,0,0,24,9.2h-.53v7.06h.84a5.11,5.11,0,0,0,3.44-1.21A6.12,6.12,0,0,0,29.66,12h.44l-.18,4.79H17.84v-.48h1.3V1.83h-1.3Z" transform="translate(-1.78 -1.34)"/><path class="cls-1" d="M31.57,1.34H43l.22,4.36h-.39A8,8,0,0,0,40.9,2.65a4.63,4.63,0,0,0-3-.82h-.77v6.8h.75a2.23,2.23,0,0,0,1.74-.79,4.57,4.57,0,0,0,1-2.1H41v6.52h-.38A5.15,5.15,0,0,0,39.52,9.9a2.4,2.4,0,0,0-1.83-.7h-.53v7.06H38a5.13,5.13,0,0,0,3.44-1.21,6.26,6.26,0,0,0,2-3.1h.44l-.18,4.79H31.57v-.48h1.3V1.83h-1.3Z" transform="translate(-1.78 -1.34)"/><path class="cls-1" d="M45.17,1.34h6.47a10,10,0,0,1,5,1,3.64,3.64,0,0,1,1.62,3.42,3.86,3.86,0,0,1-2,3.76,11.51,11.51,0,0,1-5.17.95h-.17v5.9h2.75v.41H45.17v-.41H46.6V1.76H45.17Zm5.72.42V10h.46a1.92,1.92,0,0,0,1.83-.9,6.42,6.42,0,0,0,.5-2.93v-1a5.29,5.29,0,0,0-.47-2.62,1.89,1.89,0,0,0-1.73-.75Z" transform="translate(-1.78 -1.34)"/><path class="cls-1" d="M70.42,1.34v.49L63.91,16.24h.75A5.25,5.25,0,0,0,68.15,15a7.05,7.05,0,0,0,2.16-3.59h.4l-.26,5.36H59.18v-.41l6.58-14.5h-.9a4.42,4.42,0,0,0-3,.86A11,11,0,0,0,59.6,6.21h-.4l.33-4.87Z" transform="translate(-1.78 -1.34)"/><path class="cls-1" d="M72.05,1.34H83.49l.22,4.36h-.39a8,8,0,0,0-1.94-3.05,4.63,4.63,0,0,0-3-.82h-.77v6.8h.75a2.23,2.23,0,0,0,1.74-.79,4.56,4.56,0,0,0,1-2.1h.34v6.52h-.38A5.15,5.15,0,0,0,80,9.9a2.4,2.4,0,0,0-1.83-.7h-.53v7.06h.84a5.13,5.13,0,0,0,3.44-1.21A6.17,6.17,0,0,0,83.86,12h.44l-.17,4.79H72.05v-.48h1.3V1.83h-1.3Z" transform="translate(-1.78 -1.34)"/><path class="cls-1" d="M98.3,1.76v15H95.22L87.67,2.51V16.33h1.21v.41h-3v-.41h1.21V1.76H85.87V1.34h6.07L97.7,12.39V1.76H96.49V1.34h3v.42Z" transform="translate(-1.78 -1.34)"/></svg>