<?xml version="1.0" encoding="utf-8"?>
<!-- Generator: Adobe Illustrator 26.0.0, SVG Export Plug-In . SVG Version: 6.00 Build 0)  -->
<svg version="1.1" id="Capa_1" xmlns="http://www.w3.org/2000/svg" xmlns:xlink="http://www.w3.org/1999/xlink" x="0px" y="0px"
	 viewBox="0 0 326.4 296.1" style="enable-background:new 0 0 326.4 296.1;" xml:space="preserve">
<style type="text/css">
	.st0{fill:#A3999B;}
	.st1{fill:#5F4A4E;}
	.st2{fill:#EC628F;}
	.st3{fill:#EBF0F2;}
	.st4{fill:#919EA8;}
	.st5{fill:#444E58;}
	.st6{fill:#F087A7;}
	.st7{fill:#CDB491;}
</style>
<g>
	<ellipse class="st0" cx="171.6" cy="273.3" rx="147" ry="17"/>
	<path class="st1" d="M263.2,263.1c-7.5,0-13.7,5.6-14.6,12.8h29.2C276.8,268.7,270.7,263.1,263.2,263.1z"/>
	<g>
		<g>
			<path class="st2" d="M86.1,250.5H42.6c-1.4,0-2.6,1.2-2.6,2.6c0,1.4,1.2,2.6,2.6,2.6h43.4c1.4,0,2.6-1.2,2.6-2.6
				C88.7,251.7,87.5,250.5,86.1,250.5z"/>
			<path class="st2" d="M67.9,213.6c-0.2-0.6-0.7-0.9-1.3-0.9h-5c-0.6,0-1.1,0.4-1.3,0.9l-14,40.1h36.2L67.9,213.6z"/>
		</g>
		<polygon class="st2" points="57.6,221 55.4,227.4 72.9,227.4 70.6,221 		"/>
		<polygon class="st2" points="52,237.2 49.8,243.5 78.8,243.5 76.5,237.2 		"/>
	</g>
	<rect x="268.2" y="63.8" class="st3" width="13.6" height="212.3"/>
	<rect x="277.2" y="63.8" class="st4" width="4.6" height="212.3"/>
	<g>
		<path class="st2" d="M85.4,114.3h-8.5c-0.5,0-1-0.4-1-1c0-3.7-3.1-6.8-6.8-6.8c-1.9,0-3.7,0.8-5,2.2c-0.3,0.3-0.7,0.4-1.1,0.3
			c-0.4-0.1-0.6-0.5-0.7-0.9c-0.5-5.6-5.1-9.9-10.8-9.9c-5.9,0-10.7,4.8-10.8,10.6c0,0.5-0.3,0.9-0.8,1c-0.4,0.1-0.9-0.1-1.1-0.5
			c-1.6-3.2-4.8-5.2-8.3-5.2c-5.1,0-9.2,4.1-9.3,9.2c0,0.5-0.5,1-1,1h-7.5c-0.6,0-1-0.4-1-1c0-0.6,0.4-1,1-1h6.6
			c0.6-5.7,5.4-10.2,11.2-10.2c3.4,0,6.5,1.5,8.6,4c1.4-5.6,6.5-9.8,12.5-9.8c6.1,0,11.2,4.1,12.5,9.9c1.5-1,3.2-1.6,5.1-1.6
			c4.5,0,8.2,3.4,8.8,7.7h7.5c0.6,0,1,0.4,1,1C86.4,113.8,85.9,114.3,85.4,114.3z"/>
	</g>
	<path class="st1" d="M83.2,258.4c-7.5,0-13.7,5.6-14.6,12.8h29.2C96.8,264,90.7,258.4,83.2,258.4z"/>
	<rect x="67.4" y="63.8" class="st3" width="13.6" height="212.3"/>
	<rect x="76.4" y="63.8" class="st4" width="4.6" height="212.3"/>
	<rect x="51.6" y="73.2" class="st3" width="247.9" height="120.3"/>
	<g>
		<path class="st5" d="M83.3,122.4c-0.4,0-0.7-0.1-0.9-0.4s-0.3-0.5-0.3-0.9c0-0.4,0.1-0.7,0.3-0.9c0.2-0.2,0.5-0.4,0.9-0.4
			s0.7,0.1,1,0.4c0.2,0.2,0.3,0.6,0.3,1c0,0.4-0.1,0.7-0.4,0.9C84,122.3,83.7,122.4,83.3,122.4z M83.2,124.4V123h0.4v1.4
			c0,1,0.2,2.1,0.6,3.4c0.4,1.3,0.6,2.2,0.6,2.7c0,0.9-0.4,1.4-1.3,1.4c-0.4,0-0.7-0.1-1-0.3c-0.3-0.2-0.4-0.6-0.4-1
			c0-0.5,0.2-1.4,0.5-2.7S83.2,125.4,83.2,124.4z"/>
		<path class="st5" d="M86.8,116.2h4.9c1.7,0,2.9,0.2,3.8,0.7c0.8,0.5,1.2,1.4,1.2,2.6c0,1.4-0.5,2.3-1.5,2.9
			c-0.9,0.5-2.2,0.7-3.9,0.7h-0.1v4.5h2.1v0.3h-6.4v-0.3h1.1v-11.1h-1.1V116.2z M91.1,116.6v6.3h0.4c0.7,0,1.1-0.2,1.4-0.7
			c0.3-0.5,0.4-1.2,0.4-2.2v-0.8c0-0.9-0.1-1.6-0.4-2c-0.2-0.4-0.7-0.6-1.3-0.6H91.1z"/>
		<path class="st5" d="M100.7,124h0.5v-1.3c0-1.1-0.1-1.8-0.2-2.1c-0.1-0.4-0.3-0.5-0.7-0.5c-0.2,0-0.4,0.1-0.5,0.2
			c-0.2,0.1-0.2,0.3-0.2,0.4s0,0.4,0.1,0.6h0.4c0.1,0.2,0.1,0.5,0.1,0.8s-0.1,0.6-0.4,0.9c-0.3,0.2-0.6,0.4-1.1,0.4
			c-1,0-1.4-0.5-1.4-1.4c0-1.4,1.2-2.1,3.5-2.1c1.3,0,2.2,0.2,2.8,0.7c0.5,0.5,0.8,1.3,0.8,2.5v3.4c0,0.6,0.2,0.9,0.5,0.9
			c0.4,0,0.6-0.6,0.7-1.7l0.3,0c0,1-0.2,1.7-0.6,2c-0.3,0.4-0.9,0.6-1.6,0.6c-1.3,0-2.1-0.4-2.3-1.2c-0.1,0.4-0.4,0.7-0.7,0.9
			s-0.7,0.3-1.3,0.3c-1.7,0-2.5-0.7-2.5-2c0-0.8,0.3-1.3,0.9-1.6C98.4,124.2,99.4,124,100.7,124z M99.7,118.8l1.1-3.2l0.8-0.2
			c0.3-0.1,0.6,0,0.8,0.1s0.3,0.4,0.3,0.7c0,0.3-0.2,0.6-0.5,0.8l-2.2,1.9L99.7,118.8z M100.1,127.2c0.1,0.2,0.2,0.3,0.4,0.3
			c0.2,0,0.3-0.1,0.5-0.4c0.2-0.3,0.2-0.7,0.2-1.2v-1.6h-0.1c-0.7,0-1,0.5-1,1.5v0.3C100,126.7,100.1,127,100.1,127.2z"/>
		<path class="st5" d="M112.5,119.1l0.5-0.3c0.1-0.3-0.1-0.5-0.4-0.5c-0.5,0-0.7,0.4-0.7,1.1c0,0.3,0,0.6,0.1,1
			c0.8,0.6,1.3,1.3,1.3,2.2c0,0.9-0.3,1.6-0.9,2.1c-0.6,0.5-1.4,0.7-2.5,0.7c-0.4,0-0.9,0-1.4-0.1c-0.5,0.3-0.7,0.5-0.7,0.7
			s0.4,0.2,1.1,0.2h1.7c2.5,0,3.8,0.9,3.8,2.7c0,1-0.4,1.8-1.1,2.3c-0.8,0.6-2,0.9-3.6,0.9c-2.8,0-4.1-0.6-4.1-1.8
			c0-0.6,0.4-1.1,1.3-1.3l1,0.5c-0.1,0.3-0.1,0.6-0.1,0.9c0,1,0.7,1.4,2.1,1.4c0.9,0,1.5-0.2,2-0.5c0.5-0.3,0.7-0.7,0.7-1.2
			s-0.1-0.8-0.4-1c-0.3-0.2-0.9-0.2-1.7-0.2h-1.6c-0.9,0-1.6-0.2-1.9-0.5c-0.4-0.3-0.6-0.7-0.6-1.1c0-0.4,0.1-0.8,0.4-1.1
			c0.3-0.3,0.8-0.7,1.5-1.1c-1.3-0.4-1.9-1.2-1.9-2.5c0-0.8,0.3-1.5,0.9-2c0.6-0.5,1.5-0.8,2.7-0.8c0.7,0,1.3,0.1,1.9,0.4
			c-0.1-0.3-0.1-0.6-0.1-0.8c0-0.6,0.2-1.1,0.5-1.4c0.3-0.3,0.7-0.4,1.1-0.4c0.4,0,0.7,0.1,1,0.3c0.3,0.2,0.4,0.5,0.4,0.9
			c0,0.4-0.1,0.7-0.3,0.8s-0.4,0.3-0.7,0.3c-0.3,0-0.5-0.1-0.7-0.2C112.6,119.6,112.5,119.4,112.5,119.1z M109,122.3v0.9
			c0,0.7,0.1,1.3,0.2,1.5c0.1,0.3,0.3,0.4,0.6,0.4s0.5-0.1,0.6-0.4c0.1-0.3,0.2-0.8,0.2-1.6v-0.8c0-0.9-0.1-1.4-0.2-1.7
			c-0.1-0.3-0.3-0.4-0.6-0.4c-0.3,0-0.5,0.1-0.6,0.4C109,120.8,109,121.4,109,122.3z"/>
		<path class="st5" d="M114.5,120h4.1v7.7h0.9v0.3h-5v-0.3h0.9v-7.4h-1V120z M117,118.8c-0.6,0-1-0.2-1.3-0.5
			c-0.3-0.3-0.4-0.7-0.4-1.1c0-0.4,0.1-0.8,0.4-1.1c0.3-0.3,0.7-0.4,1.2-0.4c0.6,0,1,0.1,1.3,0.4s0.4,0.6,0.4,1.1s-0.1,0.9-0.4,1.2
			S117.6,118.8,117,118.8z"/>
		<path class="st5" d="M119.9,120h4v1.5c0.2-0.5,0.5-0.9,0.8-1.2c0.4-0.3,0.9-0.5,1.7-0.5c1.7,0,2.6,0.9,2.6,2.8v5h0.9v0.3h-4.7
			v-0.3h0.7v-5.4c0-0.7,0-1.1-0.1-1.3c-0.1-0.2-0.3-0.3-0.5-0.3c-0.4,0-0.7,0.2-0.9,0.7s-0.4,1-0.4,1.7v4.6h0.7v0.3h-4.8v-0.3h0.9
			v-7.4h-0.9V120z"/>
		<path class="st5" d="M134.2,124h0.5v-1.3c0-1.1-0.1-1.8-0.2-2.1c-0.1-0.4-0.3-0.5-0.7-0.5c-0.2,0-0.4,0.1-0.5,0.2
			c-0.2,0.1-0.2,0.3-0.2,0.4s0,0.4,0.1,0.6h0.4c0.1,0.2,0.1,0.5,0.1,0.8s-0.1,0.6-0.4,0.9c-0.3,0.2-0.6,0.4-1.1,0.4
			c-1,0-1.4-0.5-1.4-1.4c0-1.4,1.2-2.1,3.5-2.1c1.3,0,2.2,0.2,2.8,0.7c0.5,0.5,0.8,1.3,0.8,2.5v3.4c0,0.6,0.2,0.9,0.5,0.9
			c0.4,0,0.6-0.6,0.7-1.7l0.3,0c0,1-0.2,1.7-0.6,2c-0.3,0.4-0.9,0.6-1.6,0.6c-1.3,0-2.1-0.4-2.3-1.2c-0.1,0.4-0.4,0.7-0.7,0.9
			s-0.7,0.3-1.3,0.3c-1.7,0-2.5-0.7-2.5-2c0-0.8,0.3-1.3,0.9-1.6C131.9,124.2,132.9,124,134.2,124z M133.6,127.2
			c0.1,0.2,0.2,0.3,0.4,0.3c0.2,0,0.3-0.1,0.5-0.4c0.2-0.3,0.2-0.7,0.2-1.2v-1.6h-0.1c-0.7,0-1,0.5-1,1.5v0.3
			C133.5,126.7,133.5,127,133.6,127.2z"/>
		<path class="st5" d="M143.5,127c-0.7-0.7-1.1-1.8-1.1-3.1c0-1.3,0.4-2.3,1.2-3c0.8-0.7,1.8-1.1,3.1-1.1c2.5,0,3.7,1.3,3.6,3.8
			h-4.7v0.7c0,1.1,0.1,1.9,0.4,2.5c0.3,0.6,0.8,0.8,1.5,0.8c1.3,0,2.1-0.7,2.5-2.1l0.3,0.1c-0.2,0.8-0.6,1.4-1.1,1.9
			s-1.4,0.7-2.5,0.7C145.3,128.1,144.2,127.8,143.5,127z M145.7,123.3h1.7v-0.8c0-0.9-0.1-1.5-0.2-1.8c-0.1-0.3-0.3-0.5-0.6-0.5
			c-0.3,0-0.6,0.2-0.7,0.5c-0.2,0.4-0.2,1-0.2,1.8V123.3z"/>
		<path class="st5" d="M151,120h4v1.5c0.2-0.5,0.5-0.9,0.8-1.2c0.4-0.3,0.9-0.5,1.7-0.5c1.7,0,2.6,0.9,2.6,2.8v5h0.9v0.3h-4.7v-0.3
			h0.7v-5.4c0-0.7,0-1.1-0.1-1.3c-0.1-0.2-0.3-0.3-0.5-0.3c-0.4,0-0.7,0.2-0.9,0.7s-0.4,1-0.4,1.7v4.6h0.7v0.3H151v-0.3h0.9v-7.4
			H151V120z"/>
		<path class="st5" d="M169,120.1c-0.5,0-0.8,0.3-1.1,0.8c-0.2,0.5-0.3,1.4-0.3,2.7v0.9c0,1.1,0.1,1.9,0.4,2.4s0.7,0.7,1.4,0.7
			s1.2-0.2,1.6-0.7s0.6-1,0.8-1.5l0.3,0c-0.2,1-0.6,1.7-1.2,2.1c-0.6,0.4-1.4,0.7-2.4,0.7c-1.3,0-2.3-0.3-3-1c-0.7-0.7-1-1.7-1-3.1
			c0-1.3,0.4-2.4,1.2-3.1c0.8-0.7,1.9-1.1,3.3-1.1c1,0,1.8,0.2,2.3,0.6s0.8,0.9,0.8,1.4c0,0.6-0.1,1-0.4,1.3s-0.6,0.4-1,0.4
			c-0.4,0-0.8-0.1-1.1-0.4c-0.3-0.2-0.4-0.6-0.4-1c0-0.2,0-0.4,0.1-0.6h0.6c0.1-0.2,0.1-0.4,0.1-0.6
			C169.8,120.4,169.5,120.1,169,120.1z"/>
		<path class="st5" d="M173.6,127.1c-0.7-0.7-1.1-1.7-1.1-3.1s0.4-2.4,1.1-3.1c0.8-0.7,1.8-1.1,3.2-1.1s2.4,0.3,3.1,1
			c0.7,0.7,1,1.7,1,3c0,2.8-1.4,4.3-4.3,4.3C175.3,128.1,174.3,127.8,173.6,127.1z M177.8,124.7v-1.4c0-1.1-0.1-1.9-0.2-2.4
			c-0.1-0.5-0.4-0.7-0.8-0.7c-0.2,0-0.4,0.1-0.6,0.2c-0.2,0.1-0.3,0.4-0.3,0.7c-0.1,0.5-0.2,1.3-0.2,2.3v1.3c0,1.2,0,1.9,0.1,2.2
			c0.1,0.2,0.1,0.4,0.2,0.6c0.1,0.3,0.4,0.4,0.7,0.4c0.4,0,0.7-0.3,0.9-0.8C177.7,126.7,177.8,125.9,177.8,124.7z"/>
		<path class="st5" d="M181.5,120h4v1.5c0.2-0.5,0.5-0.9,0.8-1.2c0.4-0.3,0.9-0.5,1.7-0.5c1.7,0,2.6,0.9,2.6,2.8v5h0.9v0.3h-4.7
			v-0.3h0.7v-5.4c0-0.7,0-1.1-0.1-1.3c-0.1-0.2-0.3-0.3-0.5-0.3c-0.4,0-0.7,0.2-0.9,0.7s-0.4,1-0.4,1.7v4.6h0.7v0.3h-4.8v-0.3h0.9
			v-7.4h-0.9V120z"/>
		<path class="st5" d="M192.2,128.1v-3h0.2c0.3,1,0.7,1.7,1.2,2c0.5,0.4,1.1,0.6,1.8,0.6c1.1,0,1.7-0.4,1.7-1.1
			c0-0.3-0.1-0.5-0.4-0.7c-0.4-0.2-1-0.4-1.7-0.6c-0.8-0.2-1.4-0.5-1.9-0.8c-0.6-0.4-0.9-1-0.9-1.9s0.3-1.6,0.8-2.1
			c0.5-0.5,1.2-0.8,2.1-0.8c0.5,0,1.1,0.1,1.7,0.4c0.2,0.1,0.4,0.1,0.5,0.1s0.2,0,0.3-0.1c0.1-0.1,0.2-0.2,0.3-0.4h0.2v2.6h-0.2
			c-0.6-1.4-1.5-2.2-2.6-2.2c-0.5,0-0.9,0.1-1.2,0.3c-0.3,0.2-0.4,0.4-0.4,0.7c0,0.2,0,0.3,0.1,0.4c0.1,0.1,0.1,0.2,0.2,0.2
			c0,0,0.1,0.1,0.2,0.1c0.1,0.1,0.2,0.1,0.2,0.1c0.1,0,0.2,0.1,0.3,0.1c0.1,0,0.2,0.1,0.3,0.1c0.8,0.2,1.3,0.4,1.6,0.5
			c0.3,0.1,0.7,0.3,1,0.5c0.6,0.4,0.9,1.1,0.9,2c0,0.9-0.3,1.7-0.8,2.1c-0.6,0.5-1.3,0.7-2.3,0.7c-0.7,0-1.4-0.2-2-0.5
			c-0.1-0.1-0.2-0.1-0.3-0.1c-0.2,0-0.5,0.2-0.7,0.6H192.2z"/>
		<path class="st5" d="M199.7,125.6v-5.3h-0.9V120h0.9v-2.2l3.1-0.8v2.9h2.2v0.3h-2.2v5.6c0,0.5,0.1,0.9,0.2,1.2
			c0.1,0.2,0.3,0.4,0.7,0.4c0.3,0,0.6-0.2,0.9-0.5c0.3-0.3,0.4-0.8,0.5-1.4l0.3,0c-0.1,0.8-0.3,1.4-0.7,1.8c-0.4,0.5-1.1,0.7-2,0.7
			c-0.9,0-1.6-0.2-2.1-0.6C199.9,127.2,199.7,126.5,199.7,125.6z"/>
		<path class="st5" d="M211,120.5c-0.4,0-0.8,0.3-1.1,0.8s-0.5,1.2-0.5,1.9v4.5h1.2v0.3h-5.2v-0.3h0.9v-7.4h-0.9V120h4v1.6
			c0.1-0.6,0.4-1,0.8-1.3c0.4-0.3,0.9-0.5,1.4-0.5c0.5,0,1,0.1,1.3,0.4c0.3,0.3,0.5,0.7,0.5,1.3c0,0.5-0.1,1-0.4,1.2
			c-0.2,0.3-0.6,0.4-1.1,0.4c-0.5,0-0.9-0.2-1.1-0.5c-0.2-0.3-0.3-0.8-0.1-1.4h0.6C211.7,120.8,211.6,120.5,211,120.5z"/>
		<path class="st5" d="M223.4,128h-3.8l-0.2-1.2c-0.2,0.4-0.4,0.8-0.8,1s-0.9,0.4-1.6,0.4c-1.7,0-2.6-0.9-2.6-2.8v-5h-0.9V120h4v5.7
			c0,0.7,0,1.1,0.1,1.3c0.1,0.2,0.3,0.3,0.6,0.3c0.3,0,0.5-0.2,0.8-0.5c0.2-0.3,0.3-0.8,0.3-1.4v-5.1h-0.8V120h3.9v7.7h0.9V128z"/>
		<path class="st5" d="M228.5,120.1c-0.5,0-0.8,0.3-1.1,0.8c-0.2,0.5-0.3,1.4-0.3,2.7v0.9c0,1.1,0.1,1.9,0.4,2.4
			c0.2,0.5,0.7,0.7,1.4,0.7s1.2-0.2,1.6-0.7s0.6-1,0.8-1.5l0.3,0c-0.2,1-0.6,1.7-1.2,2.1c-0.6,0.4-1.4,0.7-2.4,0.7
			c-1.3,0-2.3-0.3-3-1s-1-1.7-1-3.1c0-1.3,0.4-2.4,1.2-3.1c0.8-0.7,1.9-1.1,3.3-1.1c1,0,1.8,0.2,2.3,0.6s0.8,0.9,0.8,1.4
			c0,0.6-0.1,1-0.4,1.3s-0.6,0.4-1,0.4c-0.4,0-0.8-0.1-1.1-0.4s-0.4-0.6-0.4-1c0-0.2,0-0.4,0.1-0.6h0.6c0.1-0.2,0.1-0.4,0.1-0.6
			C229.3,120.4,229,120.1,228.5,120.1z"/>
		<path class="st5" d="M236.5,120.1c-0.5,0-0.8,0.3-1.1,0.8c-0.2,0.5-0.3,1.4-0.3,2.7v0.9c0,1.1,0.1,1.9,0.4,2.4
			c0.2,0.5,0.7,0.7,1.4,0.7s1.2-0.2,1.6-0.7s0.6-1,0.8-1.5l0.3,0c-0.2,1-0.6,1.7-1.2,2.1c-0.6,0.4-1.4,0.7-2.4,0.7
			c-1.3,0-2.3-0.3-3-1s-1-1.7-1-3.1c0-1.3,0.4-2.4,1.2-3.1c0.8-0.7,1.9-1.1,3.3-1.1c1,0,1.8,0.2,2.3,0.6s0.8,0.9,0.8,1.4
			c0,0.6-0.1,1-0.4,1.3s-0.6,0.4-1,0.4c-0.4,0-0.8-0.1-1.1-0.4s-0.4-0.6-0.4-1c0-0.2,0-0.4,0.1-0.6h0.6c0.1-0.2,0.1-0.4,0.1-0.6
			C237.4,120.4,237.1,120.1,236.5,120.1z"/>
		<path class="st5" d="M239.9,120h4.1v7.7h0.9v0.3h-5v-0.3h0.9v-7.4h-1V120z M242.4,118.8c-0.6,0-1-0.2-1.3-0.5
			c-0.3-0.3-0.4-0.7-0.4-1.1c0-0.4,0.1-0.8,0.4-1.1c0.3-0.3,0.7-0.4,1.2-0.4c0.6,0,1,0.1,1.3,0.4s0.4,0.6,0.4,1.1s-0.1,0.9-0.4,1.2
			S243,118.8,242.4,118.8z"/>
		<path class="st5" d="M246.5,127.1c-0.7-0.7-1.1-1.7-1.1-3.1s0.4-2.4,1.1-3.1s1.8-1.1,3.2-1.1c1.4,0,2.4,0.3,3.1,1
			c0.7,0.7,1,1.7,1,3c0,2.8-1.4,4.3-4.2,4.3C248.2,128.1,247.2,127.8,246.5,127.1z M248.5,118.8l1.1-3.2l0.8-0.2
			c0.3-0.1,0.6,0,0.8,0.1c0.2,0.2,0.3,0.4,0.3,0.7c0,0.3-0.2,0.6-0.5,0.8l-2.2,1.9L248.5,118.8z M250.7,124.7v-1.4
			c0-1.1-0.1-1.9-0.2-2.4c-0.1-0.5-0.4-0.7-0.8-0.7c-0.2,0-0.4,0.1-0.6,0.2c-0.2,0.1-0.3,0.4-0.3,0.7c-0.1,0.5-0.2,1.3-0.2,2.3v1.3
			c0,1.2,0,1.9,0.1,2.2c0.1,0.2,0.1,0.4,0.2,0.6c0.1,0.3,0.4,0.4,0.7,0.4c0.4,0,0.7-0.3,0.9-0.8
			C250.6,126.7,250.7,125.9,250.7,124.7z"/>
		<path class="st5" d="M254.4,120h4v1.5c0.2-0.5,0.5-0.9,0.8-1.2c0.4-0.3,0.9-0.5,1.7-0.5c1.7,0,2.6,0.9,2.6,2.8v5h0.9v0.3h-4.7
			v-0.3h0.7v-5.4c0-0.7,0-1.1-0.1-1.3c-0.1-0.2-0.2-0.3-0.5-0.3c-0.4,0-0.7,0.2-0.9,0.7s-0.4,1-0.4,1.7v4.6h0.7v0.3h-4.8v-0.3h0.9
			v-7.4h-0.9V120z"/>
		<path class="st5" d="M267.6,128.1c-0.4,0-0.7-0.1-0.9-0.4c-0.2-0.2-0.3-0.5-0.3-0.9c0-0.4,0.1-0.7,0.3-0.9s0.5-0.4,0.9-0.4
			s0.7,0.1,0.9,0.3s0.4,0.5,0.4,0.9c0,0.4-0.1,0.7-0.3,1C268.3,128,268,128.1,267.6,128.1z M267.5,125v-1.4c0-1-0.2-2.1-0.5-3.4
			c-0.4-1.3-0.5-2.2-0.5-2.7s0.1-0.8,0.4-1s0.6-0.3,1-0.3c0.8,0,1.3,0.5,1.3,1.4c0,0.5-0.2,1.4-0.6,2.7s-0.6,2.4-0.6,3.4v1.4H267.5z
			"/>
	</g>
	<g>
		<g>
			<path class="st6" d="M135.6,285.9H83.9c-1.7,0-3.1,1.4-3.1,3.1s1.4,3.1,3.1,3.1h51.7c1.7,0,3.1-1.4,3.1-3.1
				S137.3,285.9,135.6,285.9z"/>
			<path class="st6" d="M113.9,242c-0.2-0.7-0.9-1.1-1.6-1.1h-5.9c-0.7,0-1.4,0.5-1.6,1.1l-16.7,47.7h43.2L113.9,242z"/>
		</g>
		<polygon class="st3" points="101.7,250.8 99.1,258.4 119.9,258.4 117.1,250.8 		"/>
		<polygon class="st3" points="95,270 92.4,277.6 126.9,277.6 124.1,270 		"/>
	</g>
	<g>
		<g>
			<path class="st6" d="M210.7,290.5l28-43.5c0.9-1.4,0.5-3.3-0.9-4.3c-1.4-0.9-3.3-0.5-4.3,0.9l-28,43.5c-0.9,1.4-0.5,3.3,0.9,4.3
				C207.8,292.3,209.7,291.9,210.7,290.5z"/>
			<path class="st6" d="M259.3,296.1c0.7,0.2,1.4-0.1,1.8-0.7l3.2-5c0.4-0.6,0.4-1.4-0.1-1.9l-31.1-39.8l-23.4,36.3L259.3,296.1z"/>
		</g>
		<polygon class="st3" points="258.5,281 253.6,274.8 242.3,292.2 250.1,294 		"/>
		<polygon class="st3" points="246,265 241.1,258.7 222.4,287.7 230.2,289.5 		"/>
	</g>
	<g>
		<rect x="51.6" y="73.2" class="st6" width="247.9" height="18.5"/>
		<polygon class="st3" points="59,73.2 51.6,83.6 51.6,91.7 58.6,91.7 71.8,73.2 		"/>
		<polygon class="st3" points="85.1,91.7 98.3,73.2 85.5,73.2 72.2,91.7 		"/>
		<polygon class="st3" points="111.6,91.7 124.8,73.2 112,73.2 98.7,91.7 		"/>
		<polygon class="st3" points="138.1,91.7 151.3,73.2 138.5,73.2 125.2,91.7 		"/>
		<polygon class="st3" points="164.6,91.7 177.8,73.2 165,73.2 151.7,91.7 		"/>
		<polygon class="st3" points="191.1,91.7 204.3,73.2 191.5,73.2 178.2,91.7 		"/>
		<polygon class="st3" points="217.6,91.7 230.8,73.2 217.9,73.2 204.7,91.7 		"/>
		<polygon class="st3" points="244.1,91.7 257.3,73.2 244.4,73.2 231.2,91.7 		"/>
		<polygon class="st3" points="270.6,91.7 283.8,73.2 270.9,73.2 257.7,91.7 		"/>
		<polygon class="st3" points="297.1,91.7 299.4,88.4 299.4,73.2 297.4,73.2 284.2,91.7 		"/>
	</g>
	<g>
		<rect x="51.6" y="175.4" class="st6" width="247.9" height="18.5"/>
		<polygon class="st3" points="59,175.4 51.6,185.7 51.6,193.8 58.6,193.8 71.8,175.4 		"/>
		<polygon class="st3" points="85.1,193.8 98.3,175.4 85.5,175.4 72.2,193.8 		"/>
		<polygon class="st3" points="111.6,193.8 124.8,175.4 112,175.4 98.7,193.8 		"/>
		<polygon class="st3" points="138.1,193.8 151.3,175.4 138.5,175.4 125.2,193.8 		"/>
		<polygon class="st3" points="164.6,193.8 177.8,175.4 165,175.4 151.7,193.8 		"/>
		<polygon class="st3" points="191.1,193.8 204.3,175.4 191.5,175.4 178.2,193.8 		"/>
		<polygon class="st3" points="217.6,193.8 230.8,175.4 217.9,175.4 204.7,193.8 		"/>
		<polygon class="st3" points="244.1,193.8 257.3,175.4 244.4,175.4 231.2,193.8 		"/>
		<polygon class="st3" points="270.6,193.8 283.8,175.4 270.9,175.4 257.7,193.8 		"/>
		<polygon class="st3" points="297.1,193.8 299.4,190.5 299.4,175.4 297.4,175.4 284.2,193.8 		"/>
	</g>
	<rect x="295" y="73.2" class="st4" width="4.9" height="120.6"/>
	<path class="st7" d="M67.6,263.3c-9.3,0-17,7-18.2,16h36.3C84.6,270.3,76.9,263.3,67.6,263.3z"/>
	<path class="st7" d="M276.9,269.3c-9.3,0-17,7-18.2,16h36.3C293.9,276.3,286.2,269.3,276.9,269.3z"/>
	<path class="st7" d="M48.5,266.4c-7.5,0-13.7,5.6-14.6,12.8h29.2C62.2,272,56,266.4,48.5,266.4z"/>
	<g>
		<path class="st2" d="M261.4,58.3h-27.5c-0.5,0-1-0.4-1-1c0-5.1-4.2-9.2-9.3-9.2c-3.6,0-6.8,2-8.3,5.2c-0.2,0.4-0.7,0.6-1.1,0.5
			c-0.5-0.1-0.8-0.5-0.8-1c-0.1-5.9-5-10.6-10.8-10.6c-5.7,0-10.3,4.3-10.8,9.9c0,0.4-0.3,0.7-0.7,0.9c-0.4,0.1-0.8,0-1.1-0.3
			c-1.3-1.4-3.1-2.2-5-2.2c-3.7,0-6.8,3-6.8,6.8c0,0.5-0.5,1-1,1h-8.5c-0.6,0-1-0.4-1-1c0-0.6,0.4-1,1-1h7.5
			c0.5-4.3,4.3-7.7,8.8-7.7c1.8,0,3.6,0.6,5.1,1.6c1.3-5.7,6.4-9.9,12.5-9.9c6,0,11.1,4.2,12.5,9.8c2.1-2.5,5.2-4,8.6-4
			c5.8,0,10.7,4.5,11.2,10.2h26.6c0.6,0,1,0.4,1,1C262.4,57.8,261.9,58.3,261.4,58.3z"/>
	</g>
	<g>
		<path class="st2" d="M152,28.2h-21.3c-0.5,0-1-0.4-1-1c-0.1-7.7-6.4-14-14.1-14c-5.4,0-10.3,3-12.7,7.9c-0.2,0.4-0.7,0.6-1.1,0.5
			c-0.5-0.1-0.8-0.5-0.8-1c-0.2-8.8-7.5-16-16.4-16c-8.6,0-15.6,6.4-16.3,14.9c0,0.4-0.3,0.7-0.7,0.9c-0.4,0.1-0.8,0-1.1-0.3
			c-2-2.2-4.8-3.4-7.7-3.4c-5.7,0-10.4,4.6-10.5,10.4c0,0.5-0.5,1-1,1H34.9c-0.6,0-1-0.4-1-1c0-0.6,0.4-1,1-1h11.5
			c0.6-6.3,6-11.4,12.4-11.4c2.8,0,5.5,1,7.7,2.7c1.7-8.6,9.1-14.8,18-14.8c8.9,0,16.4,6.5,18.1,15c3-4,7.7-6.5,12.9-6.5
			c8.5,0,15.5,6.6,16.1,15H152c0.6,0,1,0.4,1,1C153,27.8,152.6,28.2,152,28.2z"/>
	</g>
	<path class="st6" d="M300.6,46.7L300.6,46.7c-16.4-7.9-36.2-1.1-44.1,15.3l-0.2,0.3l59.5,28.8l0.2-0.3
		C323.9,74.4,317,54.6,300.6,46.7z"/>
	<path class="st2" d="M307.4,43.9l-9-4.3c-3.8-1.9-8.5,0-9.9,4l-10.7,29.2l16.3,7.9l16.3-26.5C312.7,50.6,311.3,45.8,307.4,43.9z"/>
	<path class="st2" d="M319.1,90.2l-64.1-31c-1.8-0.9-3.9-0.1-4.8,1.7c-0.9,1.8-0.1,3.9,1.7,4.8l64.1,31c1.8,0.9,3.9,0.1,4.8-1.7
		C321.6,93.2,320.8,91.1,319.1,90.2z"/>
</g>
</svg>
