<?xml version="1.0" encoding="utf-8"?>
<!-- Generator: Adobe Illustrator 26.0.0, SVG Export Plug-In . SVG Version: 6.00 Build 0)  -->
<svg version="1.1" id="Capa_1" xmlns="http://www.w3.org/2000/svg" xmlns:xlink="http://www.w3.org/1999/xlink" x="0px" y="0px"
	 viewBox="0 0 222.1 142.7" style="enable-background:new 0 0 222.1 142.7;" xml:space="preserve">
<style type="text/css">
	.st0{fill:#AB5A3A;}
	.st1{fill:#CDA16B;}
	.st2{fill:#D7724A;}
	.st3{fill:#F8C5C8;}
	.st4{fill:none;stroke:#7D3D27;stroke-width:0.9518;stroke-miterlimit:10;}
</style>
<path class="st0" d="M69.9,48.5c0,0,15,31.8,17.2,43.2c1.3,6.8,0,27.8,0,27.8c0,7.1-5.8,12.9-12.9,12.9l0,0c0,0,1.3-29.4-1.8-38.5
	C68.3,81.6,42.9,51,42.9,51L69.9,48.5z"/>
<path class="st0" d="M141.5,49.7c0,0,15,31.8,17.2,43.2c1.3,6.8,0,27.8,0,27.8c0,7.1-5.8,12.9-12.9,12.9l0,0c0,0,1.3-29.4-1.8-38.5
	c-4.1-12.3-29.5-42.9-29.5-42.9L141.5,49.7z"/>
<path class="st1" d="M188.7,79.9l-6.9-2.1l24.2-14c-5.7-7.1-15.4-9.4-23.7-5.7l-11.6,5.2c-5.9,2.6-12.2,4-18.6,4.1L5.9,69.6
	c0,9.7,7.9,17.6,17.6,17.6h130.2c6.3,0,12.5-1.4,18.1-3.9l15.6,4.8h32.8v-8.1H188.7z"/>
<path class="st2" d="M162.4,11.8c0.6-2,0.9-4.1-0.4-4.6c-2.4-0.9-6.1,3.2-6.1,3.2l0.7-5.8c0.2-1.2-0.9-2.1-2.1-1.9
	c-4.7,1-7.3,4.5-8.7,7.6c-6.8,0.7-12.9,3-18,6.4c-2.7-0.7-5.5-1.1-8.4-1.1H54.7c-16.9,0-30.9,12.8-32.6,29.3
	c-1.9,1.6-3.6,3.8-4.8,6.5c-2.8,6.7-1.3,13.7,3.4,15.7l1.8-4.3c5.4,13.5,19.2,21.8,27.8,37.3c4.7,8.4,1.8,38.5,1.8,38.5
	c7.1,0,12.9-5.8,12.9-12.9c0,0,1.3-21,0-27.8c-0.7-3.9-3-10.1-5.6-16.7h50.7c5.4,7.5,10.3,15.2,11.9,20c3.1,9.1,1.8,38.5,1.8,38.5
	l0,0c7.1,0,12.9-5.8,12.9-12.9c0,0,1.3-21,0-27.8c-0.9-4.5-3.7-12-6.8-19.6c5.9-2,11-5.5,14.9-10.2c1.9,0.3,3.8,0.4,5.8,0.4
	c19.8,0,35.9-13.4,35.9-29.9C186.4,27,176.4,15.9,162.4,11.8z"/>
<ellipse class="st3" cx="150.5" cy="43.2" rx="23.9" ry="19.9"/>
<path class="st0" d="M169.6,51.2l-11-3.1c-2.6-0.7-4.4-3.1-4.4-5.8v0c0-3.3,2.7-6.1,6.1-6.1h11.4c4.6,0,8.2,4.1,7.5,8.7l0,0
	C178.6,49.5,174,52.5,169.6,51.2z"/>
<path class="st0" d="M122.7,45c0.7,4.6,5.2,7.5,9.6,6.3l11-3.1c2.6-0.7,4.4-3.1,4.4-5.8v0c0-3.3-2.7-6.1-6.1-6.1h-11.4
	C125.6,36.3,122.1,40.4,122.7,45L122.7,45z"/>
<path class="st4" d="M144.2,40.9c0,1.8-1.4,3.2-3.2,3.2c-1.8,0-3.2-1.4-3.2-3.2"/>
<path class="st4" d="M163.7,40.9c0,1.8-1.4,3.2-3.2,3.2c-1.8,0-3.2-1.4-3.2-3.2"/>
<path class="st0" d="M155.8,50.2c0-1.3-2-2.3-4.6-2.3c-2.5,0-4.6,1-4.6,2.3c0,0.7,0.6,1.3,1.6,1.8c0.6,0.3,1.1,0.7,1.4,1.3
	c0.3,0.6,0.9,1,1.6,1c0.7,0,1.3-0.4,1.6-1c0.3-0.6,0.8-1.1,1.4-1.3C155.2,51.5,155.8,50.9,155.8,50.2z"/>
</svg>
