<?xml version="1.0" encoding="utf-8"?>
<!-- Generator: Adobe Illustrator 26.0.0, SVG Export Plug-In . SVG Version: 6.00 Build 0)  -->
<svg version="1.1" id="Capa_1" xmlns="http://www.w3.org/2000/svg" xmlns:xlink="http://www.w3.org/1999/xlink" x="0px" y="0px"
	 viewBox="0 0 188.9 62.2" style="enable-background:new 0 0 188.9 62.2;" xml:space="preserve">
<style type="text/css">
	.st0{fill:#86849A;}
	.st1{clip-path:url(#SVGID_00000041989501038017012660000009853857178731109302_);}
	.st2{fill:#FAE8AA;}
	.st3{fill:#FFDBD7;}
	.st4{fill:#FBD039;}
	.st5{fill:#D1C4D7;}
	.st6{fill:#9DC8CE;}
	.st7{fill:#FDFFEC;}
</style>
<g>
	<g>
		<g>
			<g>
				<path class="st0" d="M179.7,4.5C173.4,3.7,28.6,5,14.4,5.2c4.6,2.3,5.9,10.3,3.1,15.3c-0.9,1.6-2.2,3.2-2.1,5.2c0,1,0.5,2,0.7,3
					c1,3.3,0.1,7.3-2,9.6c0.5-0.5-1.9,18.3-2.1,20.4c36.1,0.1,95.6-0.2,142.6,0.1c9.8,0.1,19.6,0.2,29.4,0.2
					c-0.5-7.9-5.1-8.4-5-13.2c0-0.8,0.5-1.5,0.9-2.1c1-1.4,2.2-2.7,2.8-4.4c0.6-1.7,0.5-4-0.7-5.2c-0.6-0.6-1.4-0.9-1.6-1.7
					c-0.3-0.8,0.1-1.8,0.4-2.6c0.9-2.3,1.1-5.1,0.5-7.6C180.1,15.6,184.9,5.2,179.7,4.5z"/>
			</g>
		</g>
	</g>
	<g>
		<defs>
			<path id="SVGID_1_" d="M179.7,4.5C173.4,3.7,28.6,5,14.4,5.2c4.6,2.3,5.9,10.3,3.1,15.3c-0.9,1.6-2.2,3.2-2.1,5.2
				c0,1,0.5,2,0.7,3c1,3.3,0.1,7.3-2,9.6c0.5-0.5-1.9,18.3-2.1,20.4c36.1,0.1,95.6-0.2,142.6,0.1c9.8,0.1,19.6,0.2,29.4,0.2
				c-0.5-7.9-5.1-8.4-5-13.2c0-0.8,0.5-1.5,0.9-2.1c1-1.4,2.2-2.7,2.8-4.4c0.6-1.7,0.5-4-0.7-5.2c-0.6-0.6-1.4-0.9-1.6-1.7
				c-0.3-0.8,0.1-1.8,0.4-2.6c0.9-2.3,1.1-5.1,0.5-7.6C180.1,15.6,184.9,5.2,179.7,4.5z"/>
		</defs>
		<clipPath id="SVGID_00000173132360042253410590000004070968576721677488_">
			<use xlink:href="#SVGID_1_"  style="overflow:visible;"/>
		</clipPath>
		<g style="clip-path:url(#SVGID_00000173132360042253410590000004070968576721677488_);">
			<g>
				<g>
					<path class="st2" d="M178.3,58.5c0.7-0.3,1.2-1,0.4-1.7c-0.6-0.6-1.9-0.2-1.9,0.7C176.9,58.5,177.7,58.7,178.3,58.5"/>
					<path class="st3" d="M195.7,29.6c0,0.2-2.2,0.6-3.3,0.9c-0.1,1.2-0.4,3.4-0.6,3.4c-0.2,0-0.6-2.2-0.9-3.3
						c-1.2-0.2-3.4-0.5-3.4-0.7c0-0.2,2.2-0.6,3.4-0.7c0.2-1.2,0.5-3.4,0.7-3.4c0.2,0,0.6,2.2,0.7,3.3
						C193.5,29.2,195.7,29.5,195.7,29.6z"/>
					<path class="st4" d="M183.8,68.4c0,0.1,1.6,0.4,2.4,0.5c0.1,0.8,0.4,2.4,0.5,2.4c0.1,0,0.4-1.6,0.5-2.4
						c0.8-0.2,2.4-0.5,2.4-0.6c0-0.1-1.6-0.3-2.4-0.4c-0.2-0.8-0.5-2.4-0.6-2.4c-0.1,0-0.3,1.6-0.4,2.4
						C185.4,68,183.8,68.2,183.8,68.4z"/>
					<g>
						<path class="st2" d="M165.1,73.1c-0.4-0.2-1.5-0.3-2-0.4l0,0c0.5-0.5,1.4-1.2,1.4-1.2s-0.2-1.2,0-1.8c0.3,0.1,1.4,0.8,1.4,0.8
							c0.1,0,1.1-0.6,1.6-0.6c-0.1,0.6-0.4,1.1-0.6,1.6c0.5,0.4,1.1,0.9,1.6,1.4c-0.4,0-1.9,0-1.9,0c0,0.1-0.6,1.3-0.8,1.5
							L165.1,73.1z"/>
					</g>
					<g>
						<path class="st5" d="M201.4,69.2c-0.5,0.8-1.4,1.5-1.8,2.4l0,0c0.6,0.1,3.2-0.2,3.3-0.2c0,0,1.2,1.8,2,2.5
							c0.2-0.9,0.4-2.8,0.5-3c0,0,2.6-0.9,3-1c-0.6-0.3-2.6-1.5-2.6-1.5c-0.1-0.2,0.2-2.4,0-3.4c-0.5,0.4-2.6,2.1-2.6,2.1
							s-1.9-0.4-2.7-0.6L201.4,69.2z"/>
					</g>
					<g>
						<path class="st3" d="M161.2,57.7c0.3,0.7,1.5,1.9,2,2.6l0,0c-1,0.1-2.9-0.1-2.9-0.1s-1,1.6-1.8,2.1c-0.2-0.3-0.8-2.4-0.8-2.4
							c-0.1-0.1-1.8-0.4-2.5-0.9c0.7-0.5,1.6-0.9,2.4-1.3c-0.2-1-0.3-2.3-0.4-3.3c0.5,0.4,2.2,2,2.2,2c0.1-0.1,2-0.9,2.5-1
							L161.2,57.7z"/>
					</g>
					<g>
						<path class="st5" d="M206.8,52.4c-0.4,0.2-1.1,1.1-1.4,1.5l0,0c-0.1-0.6-0.2-1.9-0.2-1.9s-1.1-0.5-1.5-0.9
							c0.2-0.2,1.5-0.7,1.5-0.7c0.1-0.1,0.1-1.2,0.3-1.7c0.4,0.4,0.7,0.9,1.1,1.4c0.6-0.2,1.4-0.4,2-0.6c-0.2,0.4-1,1.6-1,1.6
							c0.1,0,0.8,1.2,0.9,1.5L206.8,52.4z"/>
					</g>
					<g>
						<path class="st5" d="M170.6,34.3c0.4-0.2,1.2-1,1.6-1.4l0,0c0.1,0.6,0.1,1.9,0.1,1.9s1,0.6,1.4,1.1c-0.2,0.1-1.5,0.6-1.5,0.6
							c-0.1,0.1-0.2,1.2-0.5,1.6c-0.4-0.5-0.6-1-0.9-1.5c-0.6,0.1-1.4,0.3-2.1,0.4c0.3-0.4,1.2-1.5,1.2-1.5c-0.1,0-0.6-1.3-0.7-1.5
							L170.6,34.3z"/>
					</g>
					<g>
						<path class="st6" d="M182.8,43.7c0.6,0.6,1.2,1.4,1.7,2.1l0,0c-0.4,0.7-0.6,1.1-0.9,1.8l0,0c0.7-0.2,2-0.8,2.1-0.8
							c0,0,2,1.3,2.5,1.8c-0.2-0.5-0.7-2.7-0.7-2.7s1.8-1,2.1-1.3c-0.8-0.3-2.6-0.4-2.6-0.5c0-0.1-0.4-1.6-0.2-2
							c-0.4,0.6-1.3,1.7-1.4,1.8L182.8,43.7z"/>
					</g>
					<g>
						<path class="st7" d="M216.4,59.3c10.3,2.6,19.7-6.2,17.1-17.4c-1.9-9-13.1-18.3-27.9-7.8c10.8,2,17.9,12,11.9,22.9L216.4,59.3
							z"/>
					</g>
					<path class="st2" d="M234.8,68c0.7-0.3,1.2-1,0.4-1.7c-0.6-0.6-1.9-0.2-1.9,0.7C233.5,68.1,234.2,68.3,234.8,68"/>
					<g>
						<path class="st6" d="M156.9,32.4c-0.8,0.3-1.8,0.4-2.7,0.5l0,0c-0.5-0.7-0.7-1-1.2-1.6l0,0c-0.1,0.7-0.2,2.1-0.2,2.2
							c0,0-2.1,1.2-2.7,1.4c0.5,0.1,2.8,0.6,2.8,0.6s0.1,2,0.2,2.5c0.7-0.6,1.5-2.1,1.6-2.1c0.1,0,1.5,0.4,1.9,0.8
							c-0.3-0.6-0.9-1.9-1-2L156.9,32.4z"/>
					</g>
					<path class="st2" d="M199.8,38.8c0.5-0.2,0.9-0.8,0.3-1.3c-0.5-0.5-1.5-0.2-1.5,0.6C198.7,38.9,199.3,39,199.8,38.8"/>
					<g>
						<g>
							<path class="st7" d="M171.4,47.7c0.6,0,0.6-1,0-1C170.8,46.7,170.8,47.7,171.4,47.7L171.4,47.7z"/>
						</g>
					</g>
					<g>
						<g>
							<path class="st7" d="M194,58c0.6,0,0.6-1,0-1C193.3,57,193.3,58,194,58L194,58z"/>
						</g>
					</g>
					<g>
						<g>
							<path class="st7" d="M149.6,66.9c0.6,0,0.6-1,0-1C149,65.9,149,66.9,149.6,66.9L149.6,66.9z"/>
						</g>
					</g>
					<g>
						<g>
							<path class="st7" d="M142.9,27.5c0.6,0,0.6-1,0-1C142.2,26.5,142.2,27.5,142.9,27.5L142.9,27.5z"/>
						</g>
					</g>
					<g>
						<g>
							<path class="st7" d="M175.8,29.6c0.6,0,0.6-1,0-1C175.2,28.6,175.2,29.6,175.8,29.6L175.8,29.6z"/>
						</g>
					</g>
					<g>
						<g>
							<path class="st7" d="M153.9,50c0.6,0,0.6-1,0-1C153.3,49,153.3,50,153.9,50L153.9,50z"/>
						</g>
					</g>
					<g>
						<g>
							<path class="st7" d="M176.5,66.9c0.6,0,0.6-1,0-1C175.9,65.9,175.9,66.9,176.5,66.9L176.5,66.9z"/>
						</g>
					</g>
					<g>
						<g>
							<path class="st7" d="M212,43.6c0.6,0,0.6-1,0-1C211.4,42.6,211.4,43.6,212,43.6L212,43.6z"/>
						</g>
					</g>
					<g>
						<g>
							<path class="st7" d="M219.1,68.3c0.6,0,0.6-1,0-1C218.5,67.3,218.5,68.3,219.1,68.3L219.1,68.3z"/>
						</g>
					</g>
					<g>
						<g>
							<path class="st5" d="M178.9,33.2c0.6,0,0.6-1,0-1C178.3,32.2,178.3,33.2,178.9,33.2L178.9,33.2z"/>
						</g>
					</g>
					<g>
						<g>
							<path class="st7" d="M205.1,27.3c0.6,0,0.6-1,0-1C204.5,26.3,204.5,27.3,205.1,27.3L205.1,27.3z"/>
						</g>
					</g>
					<g>
						<g>
							<path class="st5" d="M151.9,46.6c0.6,0,0.6-1,0-1C151.2,45.6,151.2,46.6,151.9,46.6L151.9,46.6z"/>
						</g>
					</g>
					<g>
						<g>
							<path class="st7" d="M161.7,44.1c0.6,0,0.6-1,0-1C161.1,43.1,161.1,44.1,161.7,44.1L161.7,44.1z"/>
						</g>
					</g>
					<g>
						<g>
							<path class="st7" d="M203,61.2c0.6,0,0.6-1,0-1C202.4,60.2,202.4,61.2,203,61.2L203,61.2z"/>
						</g>
					</g>
				</g>
				<g>
					<path class="st2" d="M90.7,60.7c0.7-0.3,1.2-1,0.4-1.7c-0.6-0.6-1.9-0.2-1.9,0.7C89.3,60.8,90.1,61,90.7,60.7"/>
					<path class="st3" d="M108.1,31.9c0,0.2-2.2,0.6-3.3,0.9c-0.1,1.2-0.4,3.4-0.6,3.4c-0.2,0-0.6-2.2-0.9-3.3
						c-1.2-0.2-3.4-0.5-3.4-0.7c0-0.2,2.2-0.6,3.4-0.7c0.2-1.2,0.5-3.4,0.7-3.4c0.2,0,0.6,2.2,0.7,3.3
						C105.9,31.5,108.1,31.7,108.1,31.9z"/>
					<path class="st4" d="M96.2,70.6c0,0.1,1.6,0.4,2.4,0.5c0.1,0.8,0.4,2.4,0.5,2.4c0.1,0,0.4-1.6,0.5-2.4c0.8-0.2,2.4-0.5,2.4-0.6
						c0-0.1-1.6-0.3-2.4-0.4c-0.2-0.8-0.5-2.4-0.6-2.4c-0.1,0-0.3,1.6-0.4,2.4C97.7,70.2,96.2,70.5,96.2,70.6z"/>
					<g>
						<path class="st2" d="M77.5,75.3c-0.4-0.2-1.5-0.3-2-0.4l0,0c0.5-0.5,1.4-1.2,1.4-1.2s-0.2-1.2,0-1.8c0.3,0.1,1.4,0.8,1.4,0.8
							c0.1,0,1.1-0.6,1.6-0.6c-0.1,0.6-0.4,1.1-0.6,1.6c0.5,0.4,1.1,0.9,1.6,1.4c-0.4,0-1.9,0-1.9,0c0,0.1-0.6,1.3-0.8,1.5
							L77.5,75.3z"/>
					</g>
					<g>
						<path class="st5" d="M113.7,71.5c-0.5,0.8-1.4,1.5-1.8,2.4l0,0c0.6,0.1,3.2-0.2,3.3-0.2c0,0,1.2,1.8,2,2.5
							c0.2-0.9,0.4-2.8,0.5-3c0,0,2.6-0.9,3-1c-0.6-0.3-2.6-1.5-2.6-1.5c-0.1-0.2,0.2-2.4,0-3.4c-0.5,0.4-2.6,2.1-2.6,2.1
							s-1.9-0.4-2.7-0.6L113.7,71.5z"/>
					</g>
					<g>
						<path class="st3" d="M73.5,59.9c0.3,0.7,1.5,1.9,2,2.6l0,0c-1,0.1-2.9-0.1-2.9-0.1s-1,1.6-1.8,2.1c-0.2-0.3-0.8-2.4-0.8-2.4
							c-0.1-0.1-1.8-0.4-2.5-0.9c0.7-0.5,1.6-0.9,2.4-1.3c-0.2-1-0.3-2.3-0.4-3.3c0.5,0.4,2.2,2,2.2,2c0.1-0.1,2-0.9,2.5-1
							L73.5,59.9z"/>
					</g>
					<g>
						<path class="st5" d="M119.1,54.6c-0.4,0.2-1.1,1.1-1.4,1.5l0,0c-0.1-0.6-0.2-1.9-0.2-1.9s-1.1-0.5-1.5-0.9
							c0.2-0.2,1.5-0.7,1.5-0.7c0.1-0.1,0.1-1.2,0.3-1.7c0.4,0.4,0.7,0.9,1.1,1.4c0.6-0.2,1.4-0.4,2-0.6c-0.2,0.4-1,1.6-1,1.6
							c0.1,0,0.8,1.2,0.9,1.5L119.1,54.6z"/>
					</g>
					<g>
						<path class="st5" d="M83,36.5c0.4-0.2,1.2-1,1.6-1.4l0,0c0.1,0.6,0.1,1.9,0.1,1.9s1,0.6,1.4,1.1c-0.2,0.1-1.5,0.6-1.5,0.6
							c-0.1,0.1-0.2,1.2-0.5,1.6c-0.4-0.5-0.6-1-0.9-1.5c-0.6,0.1-1.4,0.3-2.1,0.4c0.3-0.4,1.2-1.5,1.2-1.5c-0.1,0-0.6-1.3-0.7-1.5
							L83,36.5z"/>
					</g>
					<g>
						<path class="st6" d="M95.1,46c0.6,0.6,1.2,1.4,1.7,2.1l0,0c-0.4,0.7-0.6,1.1-0.9,1.8l0,0c0.7-0.2,2-0.8,2.1-0.8
							c0,0,2,1.3,2.5,1.8c-0.2-0.5-0.7-2.7-0.7-2.7s1.8-1,2.1-1.3c-0.8-0.3-2.6-0.4-2.6-0.5c0-0.1-0.4-1.6-0.2-2
							c-0.4,0.6-1.3,1.7-1.4,1.8L95.1,46z"/>
					</g>
					<path class="st2" d="M147.2,70.3c0.7-0.3,1.2-1,0.4-1.7c-0.6-0.6-1.9-0.2-1.9,0.7C145.8,70.4,146.6,70.5,147.2,70.3"/>
					<g>
						<path class="st6" d="M69.3,34.7c-0.8,0.3-1.8,0.4-2.7,0.5l0,0c-0.5-0.7-0.7-1-1.2-1.6l0,0c-0.1,0.7-0.2,2.1-0.2,2.2
							c0,0-2.1,1.2-2.7,1.4c0.5,0.1,2.8,0.6,2.8,0.6s0.1,2,0.2,2.5c0.7-0.6,1.5-2.1,1.6-2.1c0.1,0,1.5,0.4,1.9,0.8
							c-0.3-0.6-0.9-1.9-1-2L69.3,34.7z"/>
					</g>
					<path class="st2" d="M112.2,41.1c0.5-0.2,0.9-0.8,0.3-1.3c-0.5-0.5-1.5-0.2-1.5,0.6C111.1,41.2,111.7,41.3,112.2,41.1"/>
					<g>
						<g>
							<path class="st7" d="M83.8,50c0.6,0,0.6-1,0-1C83.2,49,83.2,50,83.8,50L83.8,50z"/>
						</g>
					</g>
					<g>
						<g>
							<path class="st7" d="M106.3,60.3c0.6,0,0.6-1,0-1C105.7,59.3,105.7,60.3,106.3,60.3L106.3,60.3z"/>
						</g>
					</g>
					<g>
						<g>
							<path class="st7" d="M62,69.1c0.6,0,0.6-1,0-1C61.4,68.1,61.4,69.1,62,69.1L62,69.1z"/>
						</g>
					</g>
					<g>
						<g>
							<path class="st7" d="M88.2,31.9c0.6,0,0.6-1,0-1C87.5,30.9,87.5,31.9,88.2,31.9L88.2,31.9z"/>
						</g>
					</g>
					<g>
						<g>
							<path class="st7" d="M66.3,52.3c0.6,0,0.6-1,0-1C65.7,51.3,65.7,52.3,66.3,52.3L66.3,52.3z"/>
						</g>
					</g>
					<g>
						<g>
							<path class="st7" d="M88.9,69.2c0.6,0,0.6-1,0-1C88.3,68.2,88.3,69.2,88.9,69.2L88.9,69.2z"/>
						</g>
					</g>
					<g>
						<g>
							<path class="st7" d="M124.4,45.9c0.6,0,0.6-1,0-1C123.8,44.9,123.8,45.9,124.4,45.9L124.4,45.9z"/>
						</g>
					</g>
					<g>
						<g>
							<path class="st7" d="M131.5,70.6c0.6,0,0.6-1,0-1C130.9,69.6,130.9,70.6,131.5,70.6L131.5,70.6z"/>
						</g>
					</g>
					<g>
						<g>
							<path class="st5" d="M91.3,35.5c0.6,0,0.6-1,0-1C90.6,34.5,90.6,35.5,91.3,35.5L91.3,35.5z"/>
						</g>
					</g>
					<g>
						<g>
							<path class="st7" d="M117.5,29.6c0.6,0,0.6-1,0-1C116.9,28.6,116.9,29.6,117.5,29.6L117.5,29.6z"/>
						</g>
					</g>
					<g>
						<g>
							<path class="st5" d="M64.2,48.9c0.6,0,0.6-1,0-1C63.6,47.9,63.6,48.9,64.2,48.9L64.2,48.9z"/>
						</g>
					</g>
					<g>
						<g>
							<path class="st7" d="M74.1,46.4c0.6,0,0.6-1,0-1C73.5,45.4,73.5,46.4,74.1,46.4L74.1,46.4z"/>
						</g>
					</g>
					<g>
						<g>
							<path class="st7" d="M115.4,63.5c0.6,0,0.6-1,0-1C114.7,62.5,114.7,63.5,115.4,63.5L115.4,63.5z"/>
						</g>
					</g>
				</g>
				<g>
					<g>
						<path class="st2" d="M3,63c0.7-0.3,1.2-1,0.4-1.7c-0.6-0.6-1.9-0.2-1.9,0.7C1.7,63.1,2.4,63.3,3,63"/>
						<path class="st3" d="M20.4,34.2c0,0.2-2.2,0.6-3.3,0.9c-0.1,1.2-0.4,3.4-0.6,3.4c-0.2,0-0.6-2.2-0.9-3.3
							c-1.2-0.2-3.4-0.5-3.4-0.7c0-0.2,2.2-0.6,3.4-0.7c0.2-1.2,0.5-3.4,0.7-3.4c0.2,0,0.6,2.2,0.7,3.3C18.2,33.7,20.4,34,20.4,34.2
							z"/>
						<path class="st4" d="M8.6,72.9c0,0.1,1.6,0.4,2.4,0.5c0.1,0.8,0.4,2.4,0.5,2.4c0.1,0,0.4-1.6,0.5-2.4c0.8-0.2,2.4-0.5,2.4-0.6
							c0-0.1-1.6-0.3-2.4-0.4c-0.2-0.8-0.5-2.4-0.6-2.4c-0.1,0-0.3,1.6-0.4,2.4C10.1,72.5,8.5,72.8,8.6,72.9z"/>
						<g>
							<path class="st2" d="M-10.2,77.6c-0.4-0.2-1.5-0.3-2-0.4l0,0c0.5-0.5,1.4-1.2,1.4-1.2s-0.2-1.2,0-1.8
								c0.3,0.1,1.4,0.8,1.4,0.8c0.1,0,1.1-0.6,1.6-0.6C-8,75-8.2,75.6-8.4,76.1c0.5,0.4,1.1,0.9,1.6,1.4c-0.4,0-1.9,0-1.9,0
								c0,0.1-0.6,1.3-0.8,1.5L-10.2,77.6z"/>
						</g>
						<g>
							<path class="st5" d="M26.1,73.7c-0.5,0.8-1.4,1.5-1.8,2.4l0,0c0.6,0.1,3.2-0.2,3.3-0.2c0,0,1.2,1.8,2,2.5
								c0.2-0.9,0.4-2.8,0.5-3c0,0,2.6-0.9,3-1c-0.6-0.3-2.6-1.5-2.6-1.5c-0.1-0.2,0.2-2.4,0-3.4c-0.5,0.4-2.6,2.1-2.6,2.1
								s-1.9-0.4-2.7-0.6L26.1,73.7z"/>
						</g>
						<g>
							<path class="st3" d="M-14.1,62.2c0.3,0.7,1.5,1.9,2,2.6l0,0c-1,0.1-2.9-0.1-2.9-0.1s-1,1.6-1.8,2.1c-0.2-0.3-0.8-2.4-0.8-2.4
								c-0.1-0.1-1.8-0.4-2.5-0.9c0.7-0.5,1.6-0.9,2.4-1.3c-0.2-1-0.3-2.3-0.4-3.3c0.5,0.4,2.2,2,2.2,2c0.1-0.1,2-0.9,2.5-1
								L-14.1,62.2z"/>
						</g>
						<g>
							<path class="st5" d="M31.5,56.9c-0.4,0.2-1.1,1.1-1.4,1.5l0,0c-0.1-0.6-0.2-1.9-0.2-1.9s-1.1-0.5-1.5-0.9
								c0.2-0.2,1.5-0.7,1.5-0.7c0.1-0.1,0.1-1.2,0.3-1.7c0.4,0.4,0.7,0.9,1.1,1.4c0.6-0.2,1.4-0.4,2-0.6c-0.2,0.4-1,1.6-1,1.6
								c0.1,0,0.8,1.2,0.9,1.5L31.5,56.9z"/>
						</g>
						<g>
							<path class="st5" d="M-4.7,38.8c0.4-0.2,1.2-1,1.6-1.4l0,0C-3,38.1-3,39.3-3,39.3s1,0.6,1.4,1.1C-1.8,40.5-3.1,41-3.1,41
								c-0.1,0.1-0.2,1.2-0.5,1.6c-0.4-0.5-0.6-1-0.9-1.5c-0.6,0.1-1.4,0.3-2.1,0.4c0.3-0.4,1.2-1.5,1.2-1.5c-0.1,0-0.6-1.3-0.7-1.5
								L-4.7,38.8z"/>
						</g>
						<g>
							<path class="st6" d="M7.5,48.3c0.6,0.6,1.2,1.4,1.7,2.1l0,0c-0.4,0.7-0.6,1.1-0.9,1.8l0,0c0.7-0.2,2-0.8,2.1-0.8
								c0,0,2,1.3,2.5,1.8c-0.2-0.5-0.7-2.7-0.7-2.7s1.8-1,2.1-1.3c-0.8-0.3-2.6-0.4-2.6-0.5c0-0.1-0.4-1.6-0.2-2
								c-0.4,0.6-1.3,1.7-1.4,1.8L7.5,48.3z"/>
						</g>
						<path class="st2" d="M59.6,72.6c0.7-0.3,1.2-1,0.4-1.7c-0.6-0.6-1.9-0.2-1.9,0.7C58.2,72.6,59,72.8,59.6,72.6"/>
						<g>
							<path class="st6" d="M-18.3,37c-0.8,0.3-1.8,0.4-2.7,0.5l0,0c-0.5-0.7-0.7-1-1.2-1.6l0,0c-0.1,0.7-0.2,2.1-0.2,2.2
								c0,0-2.1,1.2-2.7,1.4c0.5,0.1,2.8,0.6,2.8,0.6s0.1,2,0.2,2.5c0.7-0.6,1.5-2.1,1.6-2.1c0.1,0,1.5,0.4,1.9,0.8
								c-0.3-0.6-0.9-1.9-1-2L-18.3,37z"/>
						</g>
						<path class="st2" d="M24.5,43.4c0.5-0.2,0.9-0.8,0.3-1.3c-0.5-0.5-1.5-0.2-1.5,0.6C23.5,43.4,24.1,43.6,24.5,43.4"/>
						<g>
							<g>
								<path class="st7" d="M-3.8,52.3c0.6,0,0.6-1,0-1C-4.5,51.3-4.5,52.3-3.8,52.3L-3.8,52.3z"/>
							</g>
						</g>
						<g>
							<g>
								<path class="st7" d="M18.7,62.6c0.6,0,0.6-1,0-1C18.1,61.6,18.1,62.6,18.7,62.6L18.7,62.6z"/>
							</g>
						</g>
						<g>
							<g>
								<path class="st7" d="M-25.6,71.4c0.6,0,0.6-1,0-1C-26.3,70.4-26.3,71.4-25.6,71.4L-25.6,71.4z"/>
							</g>
						</g>
						<g>
							<g>
								<path class="st7" d="M0.5,34.1c0.6,0,0.6-1,0-1C-0.1,33.1-0.1,34.1,0.5,34.1L0.5,34.1z"/>
							</g>
						</g>
						<g>
							<g>
								<path class="st7" d="M-21.3,54.6c0.6,0,0.6-1,0-1C-22,53.6-22,54.6-21.3,54.6L-21.3,54.6z"/>
							</g>
						</g>
						<g>
							<g>
								<path class="st7" d="M1.3,71.5c0.6,0,0.6-1,0-1C0.6,70.5,0.6,71.5,1.3,71.5L1.3,71.5z"/>
							</g>
						</g>
						<g>
							<g>
								<path class="st7" d="M36.8,48.1c0.6,0,0.6-1,0-1C36.1,47.1,36.1,48.1,36.8,48.1L36.8,48.1z"/>
							</g>
						</g>
						<g>
							<g>
								<path class="st7" d="M43.9,72.8c0.6,0,0.6-1,0-1C43.2,71.8,43.2,72.8,43.9,72.8L43.9,72.8z"/>
							</g>
						</g>
						<g>
							<g>
								<path class="st5" d="M3.6,37.8c0.6,0,0.6-1,0-1C3,36.8,3,37.8,3.6,37.8L3.6,37.8z"/>
							</g>
						</g>
						<g>
							<g>
								<path class="st7" d="M29.9,31.9c0.6,0,0.6-1,0-1C29.2,30.9,29.2,31.9,29.9,31.9L29.9,31.9z"/>
							</g>
						</g>
						<g>
							<g>
								<path class="st5" d="M-23.4,51.2c0.6,0,0.6-1,0-1C-24.1,50.2-24.1,51.2-23.4,51.2L-23.4,51.2z"/>
							</g>
						</g>
						<g>
							<g>
								<path class="st7" d="M-13.5,48.7c0.6,0,0.6-1,0-1C-14.2,47.7-14.2,48.7-13.5,48.7L-13.5,48.7z"/>
							</g>
						</g>
						<g>
							<g>
								<path class="st7" d="M27.8,65.8c0.6,0,0.6-1,0-1C27.1,64.8,27.1,65.8,27.8,65.8L27.8,65.8z"/>
							</g>
						</g>
					</g>
				</g>
			</g>
			<g>
				<g>
					<path class="st2" d="M29.5,5.4c-0.7,0.3-1.2,1-0.4,1.7c0.6,0.6,1.9,0.2,1.9-0.7C30.9,5.4,30.1,5.2,29.5,5.4"/>
					<path class="st4" d="M24-4.5c0-0.1-1.6-0.4-2.4-0.5c-0.1-0.8-0.4-2.4-0.5-2.4c-0.1,0-0.4,1.6-0.5,2.4c-0.8,0.2-2.4,0.5-2.4,0.6
						c0,0.1,1.6,0.3,2.4,0.4c0.2,0.8,0.5,2.4,0.6,2.4c0.1,0,0.3-1.6,0.4-2.4C22.5-4.1,24-4.3,24-4.5z"/>
					<g>
						<path class="st2" d="M42.7-9.2c0.4,0.2,1.5,0.3,2,0.4l0,0c-0.5,0.5-1.4,1.2-1.4,1.2s0.2,1.2,0,1.8C43.1-5.9,42-6.6,42-6.6
							c-0.1,0-1.1,0.6-1.6,0.6c0.1-0.6,0.4-1.1,0.6-1.6C40.5-8,39.9-8.6,39.4-9c0.4,0,1.9,0,1.9,0c0-0.1,0.6-1.3,0.8-1.5L42.7-9.2z"
							/>
					</g>
					<g>
						<path class="st5" d="M6.5-5.3C7-6.1,7.9-6.8,8.3-7.7l0,0C7.7-7.8,5.1-7.5,4.9-7.5c0,0-1.2-1.8-2-2.5C2.7-9.1,2.6-7.3,2.5-7
							c0,0-2.6,0.9-3,1c0.6,0.3,2.6,1.5,2.6,1.5c0.1,0.2-0.2,2.4,0,3.4c0.5-0.4,2.6-2.1,2.6-2.1s1.9,0.4,2.7,0.6L6.5-5.3z"/>
					</g>
					<g>
						<path class="st3" d="M46.7,6.2c-0.3-0.7-1.5-1.9-2-2.6l0,0c1-0.1,2.9,0.1,2.9,0.1s1-1.6,1.8-2.1c0.2,0.3,0.8,2.4,0.8,2.4
							c0.1,0.1,1.8,0.4,2.5,0.9c-0.7,0.5-1.6,0.9-2.4,1.3c0.2,1,0.3,2.3,0.4,3.3c-0.5-0.4-2.2-2-2.2-2c-0.1,0.1-2,0.9-2.5,1
							L46.7,6.2z"/>
					</g>
					<g>
						<path class="st5" d="M1.1,11.5c0.4-0.2,1.1-1.1,1.4-1.5l0,0c0.1,0.6,0.2,1.9,0.2,1.9s1.1,0.5,1.5,0.9
							c-0.2,0.2-1.5,0.7-1.5,0.7c-0.1,0.1-0.1,1.2-0.3,1.7c-0.4-0.4-0.7-0.9-1.1-1.4c-0.6,0.2-1.4,0.4-2,0.6c0.2-0.4,1-1.6,1-1.6
							c-0.1,0-0.8-1.2-0.9-1.5L1.1,11.5z"/>
					</g>
					<g>
						<path class="st5" d="M37.2,29.6c-0.4,0.2-1.2,1-1.6,1.4l0,0c-0.1-0.6-0.1-1.9-0.1-1.9s-1-0.6-1.4-1.1c0.2-0.1,1.5-0.6,1.5-0.6
							c0.1-0.1,0.2-1.2,0.5-1.6c0.4,0.5,0.6,1,0.9,1.5c0.6-0.1,1.4-0.3,2.1-0.4c-0.3,0.4-1.2,1.5-1.2,1.5c0.1,0,0.6,1.3,0.7,1.5
							L37.2,29.6z"/>
					</g>
					<g>
						<path class="st6" d="M25,20.2c-0.6-0.6-1.2-1.4-1.7-2.1l0,0c0.4-0.7,0.6-1.1,0.9-1.8l0,0c-0.7,0.2-2,0.8-2.1,0.8
							c0,0-2-1.3-2.5-1.8c0.2,0.5,0.7,2.7,0.7,2.7s-1.8,1-2.1,1.3c0.8,0.3,2.6,0.4,2.6,0.5c0,0.1,0.4,1.6,0.2,2
							c0.4-0.6,1.3-1.7,1.4-1.8L25,20.2z"/>
					</g>
					<g>
						<path class="st7" d="M-8.6,4.6c-10.3-2.6-19.7,6.2-17.1,17.4c1.9,9,13.1,18.3,27.9,7.8c-10.8-2-17.9-12-11.9-22.9L-8.6,4.6z"
							/>
					</g>
					<path class="st2" d="M-27-4.1c-0.7,0.3-1.2,1-0.4,1.7c0.6,0.6,1.9,0.2,1.9-0.7C-25.6-4.2-26.4-4.4-27-4.1"/>
					<g>
						<path class="st6" d="M50.9,31.5c0.8-0.3,1.8-0.4,2.7-0.5l0,0c0.5,0.7,0.7,1,1.2,1.6l0,0c0.1-0.7,0.2-2.1,0.2-2.2
							c0,0,2.1-1.2,2.7-1.4c-0.5-0.1-2.8-0.6-2.8-0.6s-0.1-2-0.2-2.5c-0.7,0.6-1.5,2.1-1.6,2.1c-0.1,0-1.5-0.4-1.9-0.8
							c0.3,0.6,0.9,1.9,1,2L50.9,31.5z"/>
					</g>
					<path class="st2" d="M8,25.1c-0.5,0.2-0.9,0.8-0.3,1.3c0.5,0.5,1.5,0.2,1.5-0.6C9.1,25,8.5,24.9,8,25.1"/>
					<g>
						<g>
							<path class="st7" d="M36.4,17.2c0.6,0,0.6-1,0-1C35.8,16.2,35.8,17.2,36.4,17.2L36.4,17.2z"/>
						</g>
					</g>
					<g>
						<g>
							<path class="st7" d="M13.9,6.9c0.6,0,0.6-1,0-1C13.2,5.9,13.2,6.9,13.9,6.9L13.9,6.9z"/>
						</g>
					</g>
					<g>
						<g>
							<path class="st7" d="M58.2-2c0.6,0,0.6-1,0-1C57.6-3,57.6-2,58.2-2L58.2-2z"/>
						</g>
					</g>
					<g>
						<g>
							<path class="st7" d="M53.9,14.9c0.6,0,0.6-1,0-1C53.2,13.9,53.2,14.9,53.9,14.9L53.9,14.9z"/>
						</g>
					</g>
					<g>
						<g>
							<path class="st7" d="M31.3-2c0.6,0,0.6-1,0-1C30.7-3,30.7-2,31.3-2L31.3-2z"/>
						</g>
					</g>
					<g>
						<g>
							<path class="st7" d="M-4.2,21.3c0.6,0,0.6-1,0-1C-4.8,20.3-4.8,21.3-4.2,21.3L-4.2,21.3z"/>
						</g>
					</g>
					<g>
						<g>
							<path class="st7" d="M-11.3-3.4c0.6,0,0.6-1,0-1C-12-4.4-12-3.4-11.3-3.4L-11.3-3.4z"/>
						</g>
					</g>
					<g>
						<g>
							<path class="st5" d="M56,18.3c0.6,0,0.6-1,0-1C55.3,17.3,55.3,18.3,56,18.3L56,18.3z"/>
						</g>
					</g>
					<g>
						<g>
							<path class="st7" d="M46.1,20.8c0.6,0,0.6-1,0-1C45.4,19.8,45.4,20.8,46.1,20.8L46.1,20.8z"/>
						</g>
					</g>
					<g>
						<g>
							<path class="st7" d="M4.8,3.7c0.6,0,0.6-1,0-1C4.2,2.7,4.2,3.7,4.8,3.7L4.8,3.7z"/>
						</g>
					</g>
				</g>
				<g>
					<path class="st2" d="M117.1,3.1c-0.7,0.3-1.2,1-0.4,1.7c0.6,0.6,1.9,0.2,1.9-0.7C118.5,3.1,117.8,2.9,117.1,3.1"/>
					<path class="st4" d="M111.6-6.7c0-0.1-1.6-0.4-2.4-0.5c-0.1-0.8-0.4-2.4-0.5-2.4c-0.1,0-0.4,1.6-0.5,2.4
						c-0.8,0.2-2.4,0.5-2.4,0.6c0,0.1,1.6,0.3,2.4,0.4c0.2,0.8,0.5,2.4,0.6,2.4c0.1,0,0.3-1.6,0.4-2.4
						C110.1-6.3,111.7-6.6,111.6-6.7z"/>
					<g>
						<path class="st2" d="M130.4-11.4c0.4,0.2,1.5,0.3,2,0.4l0,0c-0.5,0.5-1.4,1.2-1.4,1.2s0.2,1.2,0,1.8c-0.3-0.1-1.4-0.8-1.4-0.8
							c-0.1,0-1.1,0.6-1.6,0.6c0.1-0.6,0.4-1.1,0.6-1.6c-0.5-0.4-1.1-0.9-1.6-1.4c0.4,0,1.9,0,1.9,0c0-0.1,0.6-1.3,0.8-1.5
							L130.4-11.4z"/>
					</g>
					<g>
						<path class="st5" d="M94.1-7.6c0.5-0.8,1.4-1.5,1.8-2.4l0,0c-0.6-0.1-3.2,0.2-3.3,0.2c0,0-1.2-1.8-2-2.5
							c-0.2,0.9-0.4,2.8-0.5,3c0,0-2.6,0.9-3,1c0.6,0.3,2.6,1.5,2.6,1.5c0.1,0.2-0.2,2.4,0,3.4c0.5-0.4,2.6-2.1,2.6-2.1
							s1.9,0.4,2.7,0.6L94.1-7.6z"/>
					</g>
					<g>
						<path class="st3" d="M134.3,4c-0.3-0.7-1.5-1.9-2-2.6l0,0c1-0.1,2.9,0.1,2.9,0.1s1-1.6,1.8-2.1c0.2,0.3,0.8,2.4,0.8,2.4
							c0.1,0.1,1.8,0.4,2.5,0.9c-0.7,0.5-1.6,0.9-2.4,1.3c0.2,1,0.3,2.3,0.4,3.3c-0.5-0.4-2.2-2-2.2-2c-0.1,0.1-2,0.9-2.5,1L134.3,4
							z"/>
					</g>
					<g>
						<path class="st5" d="M88.7,9.3c0.4-0.2,1.1-1.1,1.4-1.5l0,0c0.1,0.6,0.2,1.9,0.2,1.9s1.1,0.5,1.5,0.9
							c-0.2,0.2-1.5,0.7-1.5,0.7c-0.1,0.1-0.1,1.2-0.3,1.7c-0.4-0.4-0.7-0.9-1.1-1.4c-0.6,0.2-1.4,0.4-2,0.6c0.2-0.4,1-1.6,1-1.6
							c-0.1,0-0.8-1.2-0.9-1.5L88.7,9.3z"/>
					</g>
					<g>
						<path class="st5" d="M124.9,27.4c-0.4,0.2-1.2,1-1.6,1.4l0,0c-0.1-0.6-0.1-1.9-0.1-1.9s-1-0.6-1.4-1.1
							c0.2-0.1,1.5-0.6,1.5-0.6c0.1-0.1,0.2-1.2,0.5-1.6c0.4,0.5,0.6,1,0.9,1.5c0.6-0.1,1.4-0.3,2.1-0.4c-0.3,0.4-1.2,1.5-1.2,1.5
							c0.1,0,0.6,1.3,0.7,1.5L124.9,27.4z"/>
					</g>
					<g>
						<path class="st6" d="M112.7,17.9c-0.6-0.6-1.2-1.4-1.7-2.1l0,0c0.4-0.7,0.6-1.1,0.9-1.8l0,0c-0.7,0.2-2,0.8-2.1,0.8
							c0,0-2-1.3-2.5-1.8c0.2,0.5,0.7,2.7,0.7,2.7s-1.8,1-2.1,1.3c0.8,0.3,2.6,0.4,2.6,0.5c0,0.1,0.4,1.6,0.2,2
							c0.4-0.6,1.3-1.7,1.4-1.8L112.7,17.9z"/>
					</g>
					<path class="st2" d="M60.6-6.4c-0.7,0.3-1.2,1-0.4,1.7c0.6,0.6,1.9,0.2,1.9-0.7C62-6.5,61.2-6.6,60.6-6.4"/>
					<g>
						<path class="st6" d="M138.5,29.2c0.8-0.3,1.8-0.4,2.7-0.5l0,0c0.5,0.7,0.7,1,1.2,1.6l0,0c0.1-0.7,0.2-2.1,0.2-2.2
							c0,0,2.1-1.2,2.7-1.4c-0.5-0.1-2.8-0.6-2.8-0.6s-0.1-2-0.2-2.5c-0.7,0.6-1.5,2.1-1.6,2.1c-0.1,0-1.5-0.4-1.9-0.8
							c0.3,0.6,0.9,1.9,1,2L138.5,29.2z"/>
					</g>
					<path class="st2" d="M95.7,22.8c-0.5,0.2-0.9,0.8-0.3,1.3c0.5,0.5,1.5,0.2,1.5-0.6C96.7,22.7,96.1,22.6,95.7,22.8"/>
					<g>
						<g>
							<path class="st7" d="M124,14.9c0.6,0,0.6-1,0-1C123.4,13.9,123.4,14.9,124,14.9L124,14.9z"/>
						</g>
					</g>
					<g>
						<g>
							<path class="st7" d="M101.5,4.6c0.6,0,0.6-1,0-1C100.8,3.6,100.8,4.6,101.5,4.6L101.5,4.6z"/>
						</g>
					</g>
					<g>
						<g>
							<path class="st7" d="M145.8-4.2c0.6,0,0.6-1,0-1C145.2-5.2,145.2-4.2,145.8-4.2L145.8-4.2z"/>
						</g>
					</g>
					<g>
						<g>
							<path class="st7" d="M141.5,12.6c0.6,0,0.6-1,0-1C140.9,11.6,140.9,12.6,141.5,12.6L141.5,12.6z"/>
						</g>
					</g>
					<g>
						<g>
							<path class="st7" d="M118.9-4.3c0.6,0,0.6-1,0-1C118.3-5.3,118.3-4.3,118.9-4.3L118.9-4.3z"/>
						</g>
					</g>
					<g>
						<g>
							<path class="st7" d="M83.4,19c0.6,0,0.6-1,0-1C82.8,18,82.8,19,83.4,19L83.4,19z"/>
						</g>
					</g>
					<g>
						<g>
							<path class="st7" d="M76.3-5.7c0.6,0,0.6-1,0-1C75.7-6.7,75.7-5.7,76.3-5.7L76.3-5.7z"/>
						</g>
					</g>
					<g>
						<g>
							<path class="st5" d="M143.6,16c0.6,0,0.6-1,0-1C143,15,143,16,143.6,16L143.6,16z"/>
						</g>
					</g>
					<g>
						<g>
							<path class="st7" d="M133.7,18.5c0.6,0,0.6-1,0-1C133.1,17.5,133.1,18.5,133.7,18.5L133.7,18.5z"/>
						</g>
					</g>
					<g>
						<g>
							<path class="st7" d="M92.4,1.4c0.6,0,0.6-1,0-1C91.8,0.4,91.8,1.4,92.4,1.4L92.4,1.4z"/>
						</g>
					</g>
				</g>
				<g>
					<g>
						<path class="st2" d="M204.8,0.9c-0.7,0.3-1.2,1-0.4,1.7c0.6,0.6,1.9,0.2,1.9-0.7C206.2,0.8,205.4,0.6,204.8,0.9"/>
						<path class="st4" d="M199.3-9c0-0.1-1.6-0.4-2.4-0.5c-0.1-0.8-0.4-2.4-0.5-2.4c-0.1,0-0.4,1.6-0.5,2.4
							c-0.8,0.2-2.4,0.5-2.4,0.6c0,0.1,1.6,0.3,2.4,0.4c0.2,0.8,0.5,2.4,0.6,2.4c0.1,0,0.3-1.6,0.4-2.4C197.7-8.6,199.3-8.9,199.3-9
							z"/>
						<g>
							<path class="st2" d="M218-13.7c0.4,0.2,1.5,0.3,2,0.4l0,0c-0.5,0.5-1.4,1.2-1.4,1.2s0.2,1.2,0,1.8c-0.3-0.1-1.4-0.8-1.4-0.8
								c-0.1,0-1.1,0.6-1.6,0.6c0.1-0.6,0.4-1.1,0.6-1.6c-0.5-0.4-1.1-0.9-1.6-1.4c0.4,0,1.9,0,1.9,0c0-0.1,0.6-1.3,0.8-1.5
								L218-13.7z"/>
						</g>
						<g>
							<path class="st5" d="M181.8-9.9c0.5-0.8,1.4-1.5,1.8-2.4l0,0c-0.6-0.1-3.2,0.2-3.3,0.2c0,0-1.2-1.8-2-2.5
								c-0.2,0.9-0.4,2.8-0.5,3c0,0-2.6,0.9-3,1c0.6,0.3,2.6,1.5,2.6,1.5c0.1,0.2-0.2,2.4,0,3.4c0.5-0.4,2.6-2.1,2.6-2.1
								s1.9,0.4,2.7,0.6L181.8-9.9z"/>
						</g>
						<g>
							<path class="st3" d="M221.9,1.7c-0.3-0.7-1.5-1.9-2-2.6l0,0c1-0.1,2.9,0.1,2.9,0.1s1-1.6,1.8-2.1c0.2,0.3,0.8,2.4,0.8,2.4
								c0.1,0.1,1.8,0.4,2.5,0.9c-0.7,0.5-1.6,0.9-2.4,1.3c0.2,1,0.3,2.3,0.4,3.3c-0.5-0.4-2.2-2-2.2-2c-0.1,0.1-2,0.9-2.5,1
								L221.9,1.7z"/>
						</g>
						<g>
							<path class="st5" d="M176.4,7c0.4-0.2,1.1-1.1,1.4-1.5l0,0c0.1,0.6,0.2,1.9,0.2,1.9s1.1,0.5,1.5,0.9
								c-0.2,0.2-1.5,0.7-1.5,0.7c-0.1,0.1-0.1,1.2-0.3,1.7c-0.4-0.4-0.7-0.9-1.1-1.4c-0.6,0.2-1.4,0.4-2,0.6c0.2-0.4,1-1.6,1-1.6
								c-0.1,0-0.8-1.2-0.9-1.5L176.4,7z"/>
						</g>
						<g>
							<path class="st5" d="M212.5,25.1c-0.4,0.2-1.2,1-1.6,1.4l0,0c-0.1-0.6-0.1-1.9-0.1-1.9s-1-0.6-1.4-1.1
								c0.2-0.1,1.5-0.6,1.5-0.6c0.1-0.1,0.2-1.2,0.5-1.6c0.4,0.5,0.6,1,0.9,1.5c0.6-0.1,1.4-0.3,2.1-0.4c-0.3,0.4-1.2,1.5-1.2,1.5
								c0.1,0,0.6,1.3,0.7,1.5L212.5,25.1z"/>
						</g>
						<g>
							<path class="st6" d="M200.3,15.6c-0.6-0.6-1.2-1.4-1.7-2.1l0,0c0.4-0.7,0.6-1.1,0.9-1.8l0,0c-0.7,0.2-2,0.8-2.1,0.8
								c0,0-2-1.3-2.5-1.8c0.2,0.5,0.7,2.7,0.7,2.7s-1.8,1-2.1,1.3c0.8,0.3,2.6,0.4,2.6,0.5c0,0.1,0.4,1.6,0.2,2
								c0.4-0.6,1.3-1.7,1.4-1.8L200.3,15.6z"/>
						</g>
						<path class="st2" d="M148.3-8.7c-0.7,0.3-1.2,1-0.4,1.7c0.6,0.6,1.9,0.2,1.9-0.7C149.6-8.7,148.9-8.9,148.3-8.7"/>
						<g>
							<path class="st6" d="M226.2,26.9c0.8-0.3,1.8-0.4,2.7-0.5l0,0c0.5,0.7,0.7,1,1.2,1.6l0,0c0.1-0.7,0.2-2.1,0.2-2.2
								c0,0,2.1-1.2,2.7-1.4c-0.5-0.1-2.8-0.6-2.8-0.6s-0.1-2-0.2-2.5c-0.7,0.6-1.5,2.1-1.6,2.1c-0.1,0-1.5-0.4-1.9-0.8
								c0.3,0.6,0.9,1.9,1,2L226.2,26.9z"/>
						</g>
						<path class="st2" d="M183.3,20.5c-0.5,0.2-0.9,0.8-0.3,1.3c0.5,0.5,1.5,0.2,1.5-0.6C184.4,20.5,183.8,20.3,183.3,20.5"/>
						<g>
							<g>
								<path class="st7" d="M211.7,12.6c0.6,0,0.6-1,0-1C211,11.6,211,12.6,211.7,12.6L211.7,12.6z"/>
							</g>
						</g>
						<g>
							<g>
								<path class="st7" d="M189.1,2.3c0.6,0,0.6-1,0-1C188.5,1.3,188.5,2.3,189.1,2.3L189.1,2.3z"/>
							</g>
						</g>
						<g>
							<g>
								<path class="st7" d="M233.5-6.5c0.6,0,0.6-1,0-1C232.8-7.5,232.8-6.5,233.5-6.5L233.5-6.5z"/>
							</g>
						</g>
						<g>
							<g>
								<path class="st7" d="M229.2,10.3c0.6,0,0.6-1,0-1C228.5,9.3,228.5,10.3,229.2,10.3L229.2,10.3z"/>
							</g>
						</g>
						<g>
							<g>
								<path class="st7" d="M206.6-6.6c0.6,0,0.6-1,0-1C205.9-7.6,205.9-6.6,206.6-6.6L206.6-6.6z"/>
							</g>
						</g>
						<g>
							<g>
								<path class="st7" d="M171.1,16.8c0.6,0,0.6-1,0-1C170.4,15.8,170.4,16.8,171.1,16.8L171.1,16.8z"/>
							</g>
						</g>
						<g>
							<g>
								<path class="st7" d="M164-8c0.6,0,0.6-1,0-1C163.3-9,163.3-8,164-8L164-8z"/>
							</g>
						</g>
						<g>
							<g>
								<path class="st5" d="M231.3,13.7c0.6,0,0.6-1,0-1C230.6,12.7,230.6,13.7,231.3,13.7L231.3,13.7z"/>
							</g>
						</g>
						<g>
							<g>
								<path class="st7" d="M221.4,16.2c0.6,0,0.6-1,0-1C220.7,15.2,220.7,16.2,221.4,16.2L221.4,16.2z"/>
							</g>
						</g>
						<g>
							<g>
								<path class="st7" d="M180.1-0.9c0.6,0,0.6-1,0-1C179.4-1.9,179.4-0.9,180.1-0.9L180.1-0.9z"/>
							</g>
						</g>
					</g>
				</g>
			</g>
		</g>
	</g>
</g>
</svg>
