<?xml version="1.0" encoding="utf-8"?>
<!-- Generator: Adobe Illustrator 26.0.0, SVG Export Plug-In . SVG Version: 6.00 Build 0)  -->
<svg version="1.1" id="Capa_1" xmlns="http://www.w3.org/2000/svg" xmlns:xlink="http://www.w3.org/1999/xlink" x="0px" y="0px"
	 viewBox="0 0 180.4 48.2" style="enable-background:new 0 0 180.4 48.2;" xml:space="preserve">
<style type="text/css">
	.st0{display:none;fill:none;}
	.st1{fill:#FFFFFF;}
	.st2{clip-path:url(#SVGID_00000146475061429717387140000005573853257826508984_);}
	.st3{fill:#FFD46D;}
	.st4{opacity:0.25;fill:#FFD46D;}
	.st5{fill:#131F36;}
	.st6{fill:#D7437E;}
	.st7{fill:#C06621;}
	.st8{fill:#459A95;}
	.st9{fill:#A0D0C6;}
	.st10{opacity:0.5;fill:#FFD46D;}
	.st11{fill:#CE93AE;}
</style>
<polygon class="st0" points="445.3,62.4 445.7,61.9 446,59.9 444.6,56.1 445.5,51.8 443.6,47.1 444.6,45.9 446.8,43.6 447.5,40.7 
	447.6,35.4 449.1,33.9 445.5,30.8 445.5,27.3 446,25.8 445.9,25.5 281.2,25.5 280.1,27.6 281.1,30.1 279.8,36.5 278.3,40.4 
	280.2,42.6 280.1,47.7 279,50.1 280.4,56.6 279.6,58.2 278.4,59.4 282.7,60.8 283.6,62.9 445.4,63.4 "/>
<path class="st1" d="M172.8,39.1l6.8,4.3c-21.8,0-156.7,0-177.8,0l6.8-4.3l-6.8-4.3l6.8-4.3l-6.8-4.3l6.8-4.3l-6.8-4.3l6.8-4.3
	L1.8,9c24.4,0,161.8,0,177.8,0l-6.8,4.3l6.8,4.3l-6.8,4.3l6.8,4.3l-6.8,4.3l6.8,4.3L172.8,39.1z"/>
<g>
	<defs>
		<path id="SVGID_1_" d="M172.8,39.1l6.8,4.3c-21.8,0-156.7,0-177.8,0l6.8-4.3l-6.8-4.3l6.8-4.3l-6.8-4.3l6.8-4.3l-6.8-4.3l6.8-4.3
			L1.8,9c24.4,0,161.8,0,177.8,0l-6.8,4.3l6.8,4.3l-6.8,4.3l6.8,4.3l-6.8,4.3l6.8,4.3L172.8,39.1z"/>
	</defs>
	<clipPath id="SVGID_00000048480727223238259010000008884964327393779382_">
		<use xlink:href="#SVGID_1_"  style="overflow:visible;"/>
	</clipPath>
	<g style="clip-path:url(#SVGID_00000048480727223238259010000008884964327393779382_);">
		<g>
			<g>
				<path class="st3" d="M-17.6,33.2c-1.2,2-3.8,3.4-4.1,5.9c-0.3,2.3-2.5,4.1-5,3.1c-1.5-0.6-1.6-1.5-2.6-2.2
					c-0.1-0.1-0.2-0.1-0.4-0.2c-1.6-0.8-2.9-0.2-5.9-2.2c-5.4-3.5-7.5-11.3-4.6-17.4c1.5-3.1,3.5-4.3,4.1-4.9c0.6-0.7,0-1.3,0.9-2.9
					c1.1-2,4-2.5,5.7-0.5c0.2,0.2,0.4,0.5,0.6,0.7c0.7,1.2,2.5,0.1,6.1,2.3c1.3,0.8,2.4,1.7,3.3,2.9C-15.8,22-14.9,28.4-17.6,33.2z"
					/>
				<path class="st4" d="M-17.6,33.2c-1.2,2-3.8,3.4-4.1,5.9c-0.3,2.3-2.5,4.1-5,3.1c-1.5-0.6-1.6-1.5-2.6-2.2
					c-0.1-0.1-0.2-0.1-0.4-0.2c0.1-1.4,0.7-2.4,1.6-3.3c1.8-2,3.7-2.1,6.3-4.2c2.3-1.8,2.8-5.1,2.4-8c-0.1-0.7-0.2-1.4-0.3-2.1
					c-0.2-1.4-0.2-2.8,0.1-4.2c0,0,0-0.1,0-0.2C-15.8,22-14.9,28.4-17.6,33.2z"/>
				<g>
					<path class="st1" d="M-27.4,26.3c-0.4,0.1-0.9,0.2-1.4,0.4c-0.5,0.1-1,0.3-1.4,0.4c-0.6,0.2-0.8,0.6-0.5,1.1
						c1.3,2.3,4.6,1.3,4.3-1.4C-26.4,26.4-26.8,26.1-27.4,26.3z"/>
					<path class="st5" d="M-32.5,27.2c0.1,0.5-0.2,1.1-0.7,1.2c-0.5,0.1-1.1-0.2-1.2-0.7c-0.1-0.5,0.1-1.1,0.7-1.2
						C-33.1,26.3-32.6,26.6-32.5,27.2z"/>
					<path class="st5" d="M-24.6,23.9c0.5-0.1,1,0.2,1.2,0.7c0.1,0.6-0.2,1.1-0.7,1.2c-0.5,0.2-1.1-0.2-1.2-0.7
						C-25.5,24.7-25.2,24.1-24.6,23.9z"/>
					<path class="st6" d="M-21,27.3c0.2,0.6-0.6,1.4-1.7,1.7c-1.1,0.3-2.1,0-2.3-0.6c-0.2-0.6,0.6-1.4,1.7-1.7
						C-22.2,26.4-21.2,26.7-21,27.3z"/>
					<path class="st6" d="M-31.1,30.1c0.2,0.6-0.6,1.4-1.7,1.7c-1.1,0.3-2.1,0-2.3-0.6s0.6-1.4,1.7-1.7
						C-32.3,29.2-31.3,29.5-31.1,30.1z"/>
				</g>
				<g>
					<path class="st7" d="M-31.3,11.6c-1,1.2-2.9,1.2-3.5,0.4c-0.2-0.2-0.3-0.5-0.4-0.7c-0.3-0.9-0.1-1.8,0.8-2.4
						c0.4-0.2,0.9-0.4,1.3-0.4c0.2,0,0.5,0,0.7,0.1C-30.9,9-30.7,10.9-31.3,11.6z"/>
				</g>
				<g>
					<path class="st1" d="M-35.1,18.1c-2.5,2.4-3.4,5.6-3.5,9C-39.7,23.9-38.4,19.6-35.1,18.1L-35.1,18.1z"/>
				</g>
			</g>
			<g>
				<path class="st8" d="M-15.9,15.5c-0.2,0.4-0.4,0.8-0.7,1.1c-1.5,1.9-4.6,3.1-8.5,2.3c-0.7-0.1-1.3-0.3-1.9-0.6
					c-3.1-1.3-5.9-4.3-5.4-7.5c0.1-1,1-1.9,2.3-2.1c1.3-0.3,3,0,5,1.2c2.7,1.5,3.5,3.7,8.7,5.1C-15.9,15.1-15.7,15.1-15.9,15.5z"/>
				<g>
					<path class="st9" d="M-18.8,16.2c-2,0.8-4.4,0.3-6-1.1c-1.7-1.2-2.8-3.1-4.8-3.7c1.1,0,2.1,0.5,2.9,1.1
						C-24.4,14.6-22.1,16.6-18.8,16.2L-18.8,16.2z"/>
				</g>
			</g>
		</g>
		<g>
			<g>
				<path class="st3" d="M-17.6,33.2c-1.2,2-3.8,3.4-4.1,5.9c-0.3,2.3-2.5,4.1-5,3.1c-1.5-0.6-1.6-1.5-2.6-2.2
					c-0.1-0.1-0.2-0.1-0.4-0.2c-1.6-0.8-2.9-0.2-5.9-2.2c-5.4-3.5-7.5-11.3-4.6-17.4c1.5-3.1,3.5-4.3,4.1-4.9c0.6-0.7,0-1.3,0.9-2.9
					c1.1-2,4-2.5,5.7-0.5c0.2,0.2,0.4,0.5,0.6,0.7c0.7,1.2,2.5,0.1,6.1,2.3c1.3,0.8,2.4,1.7,3.3,2.9C-15.8,22-14.9,28.4-17.6,33.2z"
					/>
				<path class="st10" d="M-17.6,33.2c-1.2,2-3.8,3.4-4.1,5.9c-0.3,2.3-2.5,4.1-5,3.1c-1.5-0.6-1.6-1.5-2.6-2.2
					c-0.1-0.1-0.2-0.1-0.4-0.2c0.1-1.4,0.7-2.4,1.6-3.3c1.8-2,3.7-2.1,6.3-4.2c2.3-1.8,2.8-5.1,2.4-8c-0.1-0.7-0.2-1.4-0.3-2.1
					c-0.2-1.4-0.2-2.8,0.1-4.2c0,0,0-0.1,0-0.2C-15.8,22-14.9,28.4-17.6,33.2z"/>
				<g>
					<path class="st1" d="M-27.4,26.3c-0.4,0.1-0.9,0.2-1.4,0.4c-0.5,0.1-1,0.3-1.4,0.4c-0.6,0.2-0.8,0.6-0.5,1.1
						c1.3,2.3,4.6,1.3,4.3-1.4C-26.4,26.4-26.8,26.1-27.4,26.3z"/>
					<path class="st5" d="M-32.5,27.2c0.1,0.5-0.2,1.1-0.7,1.2c-0.5,0.1-1.1-0.2-1.2-0.7c-0.1-0.5,0.1-1.1,0.7-1.2
						C-33.1,26.3-32.6,26.6-32.5,27.2z"/>
					<path class="st5" d="M-24.6,23.9c0.5-0.1,1,0.2,1.2,0.7c0.1,0.6-0.2,1.1-0.7,1.2c-0.5,0.2-1.1-0.2-1.2-0.7
						C-25.5,24.7-25.2,24.1-24.6,23.9z"/>
					<path class="st6" d="M-21,27.3c0.2,0.6-0.6,1.4-1.7,1.7c-1.1,0.3-2.1,0-2.3-0.6c-0.2-0.6,0.6-1.4,1.7-1.7
						C-22.2,26.4-21.2,26.7-21,27.3z"/>
					<path class="st6" d="M-31.1,30.1c0.2,0.6-0.6,1.4-1.7,1.7c-1.1,0.3-2.1,0-2.3-0.6s0.6-1.4,1.7-1.7
						C-32.3,29.2-31.3,29.5-31.1,30.1z"/>
				</g>
				<g>
					<path class="st7" d="M-31.3,11.6c-1,1.2-2.9,1.2-3.5,0.4c-0.2-0.2-0.3-0.5-0.4-0.7c-0.3-0.9-0.1-1.8,0.8-2.4
						c0.4-0.2,0.9-0.4,1.3-0.4c0.2,0,0.5,0,0.7,0.1C-30.9,9-30.7,10.9-31.3,11.6z"/>
				</g>
				<g>
					<path class="st1" d="M-35.1,18.1c-2.5,2.4-3.4,5.6-3.5,9C-39.7,23.9-38.4,19.6-35.1,18.1L-35.1,18.1z"/>
				</g>
			</g>
			<g>
				<path class="st8" d="M-15.9,15.5c-0.2,0.4-0.4,0.8-0.7,1.1c-1.5,1.9-4.6,3.1-8.5,2.3c-0.7-0.1-1.3-0.3-1.9-0.6
					c-3.1-1.3-5.9-4.3-5.4-7.5c0.1-1,1-1.9,2.3-2.1c1.3-0.3,3,0,5,1.2c2.7,1.5,3.5,3.7,8.7,5.1C-15.9,15.1-15.7,15.1-15.9,15.5z"/>
				<g>
					<path class="st9" d="M-18.8,16.2c-2,0.8-4.4,0.3-6-1.1c-1.7-1.2-2.8-3.1-4.8-3.7c1.1,0,2.1,0.5,2.9,1.1
						C-24.4,14.6-22.1,16.6-18.8,16.2L-18.8,16.2z"/>
				</g>
			</g>
		</g>
		<g>
			<g>
				<path class="st3" d="M12.3,49.5c-1.2,2-3.8,3.4-4.1,5.9c-0.3,2.3-2.5,4.1-5,3.1c-1.5-0.6-1.6-1.5-2.6-2.2
					c-0.1-0.1-0.2-0.1-0.4-0.2c-1.6-0.8-2.9-0.2-5.9-2.2c-5.4-3.5-7.5-11.3-4.6-17.4c1.5-3.1,3.5-4.3,4.1-4.9c0.6-0.7,0-1.3,0.9-2.9
					c1.1-2,4-2.5,5.7-0.5c0.2,0.2,0.4,0.5,0.6,0.7c0.7,1.2,2.5,0.1,6.1,2.3c1.3,0.8,2.4,1.7,3.3,2.9C14.1,38.4,15,44.8,12.3,49.5z"
					/>
				<path class="st10" d="M12.3,49.5c-1.2,2-3.8,3.4-4.1,5.9c-0.3,2.3-2.5,4.1-5,3.1c-1.5-0.6-1.6-1.5-2.6-2.2
					c-0.1-0.1-0.2-0.1-0.4-0.2c0.1-1.4,0.7-2.4,1.6-3.3c1.8-2,3.7-2.1,6.3-4.2c2.3-1.8,2.8-5.1,2.4-8c-0.1-0.7-0.2-1.4-0.3-2.1
					c-0.2-1.4-0.2-2.8,0.1-4.2c0,0,0-0.1,0-0.2C14.1,38.4,15,44.8,12.3,49.5z"/>
				<g>
					<path class="st5" d="M-2.6,43.5c0.1,0.5-0.2,1.1-0.7,1.2c-0.5,0.1-1.1-0.2-1.2-0.7c-0.1-0.5,0.1-1.1,0.7-1.2
						C-3.2,42.7-2.7,43-2.6,43.5z"/>
					<path class="st6" d="M-1.2,46.5c0.2,0.6-0.6,1.4-1.7,1.7c-1.1,0.3-2.1,0-2.3-0.6c-0.2-0.6,0.6-1.4,1.7-1.7
						C-2.4,45.6-1.4,45.8-1.2,46.5z"/>
				</g>
				<g>
					<path class="st7" d="M-1.4,28c-1,1.2-2.9,1.2-3.5,0.4c-0.2-0.2-0.3-0.5-0.4-0.7c-0.3-0.9-0.1-1.8,0.8-2.4
						c0.4-0.2,0.9-0.4,1.3-0.4c0.2,0,0.5,0,0.7,0.1C-1,25.4-0.8,27.3-1.4,28z"/>
				</g>
				<g>
					<path class="st1" d="M-5.2,34.5c-2.5,2.4-3.4,5.6-3.5,9C-9.8,40.2-8.4,35.9-5.2,34.5L-5.2,34.5z"/>
				</g>
			</g>
			<g>
				<path class="st8" d="M14.1,31.9c-0.2,0.4-0.4,0.8-0.7,1.1c-1.5,1.9-4.6,3.1-8.5,2.3c-0.7-0.1-1.3-0.3-1.9-0.6
					c-3.1-1.3-5.9-4.3-5.4-7.5c0.1-1,1-1.9,2.3-2.1c1.3-0.3,3,0,5,1.2c2.7,1.5,3.5,3.7,8.7,5.1C14,31.5,14.2,31.5,14.1,31.9z"/>
				<g>
					<path class="st9" d="M11.1,32.6c-2,0.8-4.4,0.3-6-1.1c-1.7-1.2-2.8-3.1-4.8-3.7c1.1,0,2.1,0.5,2.9,1.1
						C5.5,30.9,7.8,32.9,11.1,32.6L11.1,32.6z"/>
				</g>
			</g>
		</g>
		<g>
			<g>
				<path class="st3" d="M12.3,10.9c-1.2,2-3.8,3.4-4.1,5.9c-0.3,2.3-2.5,4.1-5,3.1c-1.5-0.6-1.6-1.5-2.6-2.2
					c-0.1-0.1-0.2-0.1-0.4-0.2c-1.6-0.8-2.9-0.2-5.9-2.2c-5.4-3.5-7.5-11.3-4.6-17.4C-8.8-5.2-6.8-6.3-6.2-7c0.6-0.7,0-1.3,0.9-2.9
					c1.1-2,4-2.5,5.7-0.5C0.6-10.2,0.8-10,1-9.7c0.7,1.2,2.5,0.1,6.1,2.3c1.3,0.8,2.4,1.7,3.3,2.9C14.1-0.2,15,6.2,12.3,10.9z"/>
				<path class="st10" d="M12.3,10.9c-1.2,2-3.8,3.4-4.1,5.9c-0.3,2.3-2.5,4.1-5,3.1c-1.5-0.6-1.6-1.5-2.6-2.2
					c-0.1-0.1-0.2-0.1-0.4-0.2c0.1-1.4,0.7-2.4,1.6-3.3c1.8-2,3.7-2.1,6.3-4.2c2.3-1.8,2.8-5.1,2.4-8c-0.1-0.7-0.2-1.4-0.3-2.1
					c-0.2-1.4-0.2-2.8,0.1-4.2c0,0,0-0.1,0-0.2C14.1-0.2,15,6.2,12.3,10.9z"/>
				<g>
					<path class="st1" d="M2.6,4C2.1,4.2,1.6,4.3,1.2,4.4c-0.5,0.1-1,0.3-1.4,0.4C-0.8,5-1.1,5.4-0.7,5.9c1.3,2.3,4.6,1.3,4.3-1.4
						C3.5,4.2,3.1,3.9,2.6,4z"/>
					<path class="st5" d="M-2.6,4.9C-2.4,5.4-2.8,6-3.3,6.1c-0.5,0.1-1.1-0.2-1.2-0.7c-0.1-0.5,0.1-1.1,0.7-1.2
						C-3.2,4.1-2.7,4.4-2.6,4.9z"/>
					<path class="st5" d="M5.4,1.7c0.5-0.1,1,0.2,1.2,0.7C6.7,3,6.3,3.5,5.8,3.6C5.2,3.7,4.7,3.4,4.6,2.9C4.5,2.4,4.7,1.8,5.4,1.7z"
						/>
					<path class="st6" d="M8.9,5.1c0.2,0.6-0.6,1.4-1.7,1.7C6.2,7.1,5.1,6.8,5,6.2C4.8,5.5,5.5,4.8,6.6,4.5C7.7,4.2,8.8,4.4,8.9,5.1
						z"/>
					<path class="st6" d="M-1.2,7.9C-1,8.5-1.8,9.3-2.9,9.6C-4,9.9-5,9.6-5.2,9c-0.2-0.6,0.6-1.4,1.7-1.7C-2.4,7-1.4,7.2-1.2,7.9z"
						/>
				</g>
				<g>
					<path class="st7" d="M-1.4-10.6c-1,1.2-2.9,1.2-3.5,0.4c-0.2-0.2-0.3-0.5-0.4-0.7c-0.3-0.9-0.1-1.8,0.8-2.4
						c0.4-0.2,0.9-0.4,1.3-0.4c0.2,0,0.5,0,0.7,0.1C-1-13.2-0.8-11.3-1.4-10.6z"/>
				</g>
				<g>
					<path class="st1" d="M-5.2-4.1c-2.5,2.4-3.4,5.6-3.5,9C-9.8,1.6-8.4-2.7-5.2-4.1L-5.2-4.1z"/>
				</g>
			</g>
			<g>
				<path class="st8" d="M14.1-6.7c-0.2,0.4-0.4,0.8-0.7,1.1c-1.5,1.9-4.6,3.1-8.5,2.3C4.2-3.5,3.6-3.7,3-3.9
					c-3.1-1.3-5.9-4.3-5.4-7.5c0.1-1,1-1.9,2.3-2.1c1.3-0.3,3,0,5,1.2c2.7,1.5,3.5,3.7,8.7,5.1C14-7.1,14.2-7.1,14.1-6.7z"/>
				<g>
					<path class="st9" d="M11.1-6c-2,0.8-4.4,0.3-6-1.1c-1.7-1.2-2.8-3.1-4.8-3.7c1.1,0,2.1,0.5,2.9,1.1C5.5-7.7,7.8-5.7,11.1-6
						L11.1-6z"/>
				</g>
			</g>
		</g>
		<g>
			<path class="st3" d="M40.4,33.2c-1.2,2-3.8,3.4-4.1,5.9c-0.3,2.3-2.5,4.1-5,3.1c-1.5-0.6-1.6-1.5-2.6-2.2
				c-0.1-0.1-0.2-0.1-0.4-0.2c-1.6-0.8-2.9-0.2-5.9-2.2C17,34,14.9,26.3,17.8,20.2c1.5-3.1,3.5-4.3,4.1-4.9c0.6-0.7,0-1.3,0.9-2.9
				c1.1-2,4-2.5,5.7-0.5c0.2,0.2,0.4,0.5,0.6,0.7c0.7,1.2,2.5,0.1,6.1,2.3c1.3,0.8,2.4,1.7,3.3,2.9C42.2,22,43.1,28.4,40.4,33.2z"/>
			<path class="st10" d="M40.4,33.2c-1.2,2-3.8,3.4-4.1,5.9c-0.3,2.3-2.5,4.1-5,3.1c-1.5-0.6-1.6-1.5-2.6-2.2
				c-0.1-0.1-0.2-0.1-0.4-0.2c0.1-1.4,0.7-2.4,1.6-3.3c1.8-2,3.7-2.1,6.3-4.2c2.3-1.8,2.8-5.1,2.4-8c-0.1-0.7-0.2-1.4-0.3-2.1
				c-0.2-1.4-0.2-2.8,0.1-4.2c0,0,0-0.1,0-0.2C42.2,22,43.1,28.4,40.4,33.2z"/>
			<g>
				<path class="st7" d="M26.7,11.6c-1,1.2-2.9,1.2-3.5,0.4c-0.2-0.2-0.3-0.5-0.4-0.7c-0.3-0.9-0.1-1.8,0.8-2.4
					c0.4-0.2,0.9-0.4,1.3-0.4c0.2,0,0.5,0,0.7,0.1C27.1,9,27.4,10.9,26.7,11.6z"/>
			</g>
			<g>
				<path class="st1" d="M22.9,18.1c-2.5,2.4-3.4,5.6-3.5,9C18.3,23.9,19.7,19.6,22.9,18.1L22.9,18.1z"/>
			</g>
			<g>
				<path class="st8" d="M42.2,15.5c-0.2,0.4-0.4,0.8-0.7,1.1c-1.5,1.9-4.6,3.1-8.5,2.3c-0.7-0.1-1.3-0.3-1.9-0.6
					C28,17,25.2,14,25.7,10.8c0.1-1,1-1.9,2.3-2.1c1.3-0.3,3,0,5,1.2c2.7,1.5,3.5,3.7,8.7,5.1C42.1,15.1,42.3,15.1,42.2,15.5z"/>
				<g>
					<path class="st9" d="M39.2,16.2c-2,0.8-4.4,0.3-6-1.1c-1.7-1.2-2.8-3.1-4.8-3.7c1.1,0,2.1,0.5,2.9,1.1
						C33.6,14.6,35.9,16.6,39.2,16.2L39.2,16.2z"/>
				</g>
			</g>
		</g>
		<g>
			<g>
				<path class="st3" d="M70.4,49.5c-1.2,2-3.8,3.4-4.1,5.9c-0.3,2.3-2.5,4.1-5,3.1c-1.5-0.6-1.6-1.5-2.6-2.2
					c-0.1-0.1-0.2-0.1-0.4-0.2c-1.6-0.8-2.9-0.2-5.9-2.2c-5.4-3.5-7.5-11.3-4.6-17.4c1.5-3.1,3.5-4.3,4.1-4.9c0.6-0.7,0-1.3,0.9-2.9
					c1.1-2,4-2.5,5.7-0.5c0.2,0.2,0.4,0.5,0.6,0.7c0.7,1.2,2.5,0.1,6.1,2.3c1.3,0.8,2.4,1.7,3.3,2.9C72.1,38.4,73,44.8,70.4,49.5z"
					/>
				<path class="st10" d="M70.4,49.5c-1.2,2-3.8,3.4-4.1,5.9c-0.3,2.3-2.5,4.1-5,3.1c-1.5-0.6-1.6-1.5-2.6-2.2
					c-0.1-0.1-0.2-0.1-0.4-0.2c0.1-1.4,0.7-2.4,1.6-3.3c1.8-2,3.7-2.1,6.3-4.2c2.3-1.8,2.8-5.1,2.4-8c-0.1-0.7-0.2-1.4-0.3-2.1
					c-0.2-1.4-0.2-2.8,0.1-4.2c0,0,0-0.1,0-0.2C72.1,38.4,73,44.8,70.4,49.5z"/>
				<g>
					<path class="st11" d="M56.8,46.5c0.2,0.6-0.6,1.4-1.7,1.7c-1.1,0.3-2.1,0-2.3-0.6c-0.2-0.6,0.6-1.4,1.7-1.7
						C55.6,45.6,56.7,45.8,56.8,46.5z"/>
				</g>
				<g>
					<path class="st7" d="M56.7,28c-1,1.2-2.9,1.2-3.5,0.4c-0.2-0.2-0.3-0.5-0.4-0.7c-0.3-0.9-0.1-1.8,0.8-2.4
						c0.4-0.2,0.9-0.4,1.3-0.4c0.2,0,0.5,0,0.7,0.1C57.1,25.4,57.3,27.3,56.7,28z"/>
				</g>
				<g>
					<path class="st1" d="M52.9,34.5c-2.5,2.4-3.4,5.6-3.5,9C48.3,40.2,49.6,35.9,52.9,34.5L52.9,34.5z"/>
				</g>
			</g>
			<g>
				<path class="st8" d="M72.1,31.9c-0.2,0.4-0.4,0.8-0.7,1.1c-1.5,1.9-4.6,3.1-8.5,2.3c-0.7-0.1-1.3-0.3-1.9-0.6
					c-3.1-1.3-5.9-4.3-5.4-7.5c0.1-1,1-1.9,2.3-2.1c1.3-0.3,3,0,5,1.2c2.7,1.5,3.5,3.7,8.7,5.1C72.1,31.5,72.3,31.5,72.1,31.9z"/>
				<g>
					<path class="st9" d="M69.2,32.6c-2,0.8-4.4,0.3-6-1.1c-1.7-1.2-2.8-3.1-4.8-3.7c1.1,0,2.1,0.5,2.9,1.1
						C63.6,30.9,65.8,32.9,69.2,32.6L69.2,32.6z"/>
				</g>
			</g>
		</g>
		<g>
			<g>
				<path class="st3" d="M70.4,10.9c-1.2,2-3.8,3.4-4.1,5.9c-0.3,2.3-2.5,4.1-5,3.1c-1.5-0.6-1.6-1.5-2.6-2.2
					c-0.1-0.1-0.2-0.1-0.4-0.2c-1.6-0.8-2.9-0.2-5.9-2.2C47,11.8,44.8,4.1,47.8-2.1c1.5-3.1,3.5-4.3,4.1-4.9c0.6-0.7,0-1.3,0.9-2.9
					c1.1-2,4-2.5,5.7-0.5c0.2,0.2,0.4,0.5,0.6,0.7c0.7,1.2,2.5,0.1,6.1,2.3c1.3,0.8,2.4,1.7,3.3,2.9C72.1-0.2,73,6.2,70.4,10.9z"/>
				<path class="st10" d="M70.4,10.9c-1.2,2-3.8,3.4-4.1,5.9c-0.3,2.3-2.5,4.1-5,3.1c-1.5-0.6-1.6-1.5-2.6-2.2
					c-0.1-0.1-0.2-0.1-0.4-0.2c0.1-1.4,0.7-2.4,1.6-3.3c1.8-2,3.7-2.1,6.3-4.2c2.3-1.8,2.8-5.1,2.4-8c-0.1-0.7-0.2-1.4-0.3-2.1
					c-0.2-1.4-0.2-2.8,0.1-4.2c0,0,0-0.1,0-0.2C72.1-0.2,73,6.2,70.4,10.9z"/>
				<g>
					<path class="st1" d="M60.6,4c-0.4,0.1-0.9,0.2-1.4,0.4c-0.5,0.1-1,0.3-1.4,0.4C57.2,5,57,5.4,57.3,5.9c1.3,2.3,4.6,1.3,4.3-1.4
						C61.6,4.2,61.2,3.9,60.6,4z"/>
					<path class="st5" d="M55.5,4.9c0.1,0.5-0.2,1.1-0.7,1.2c-0.5,0.1-1.1-0.2-1.2-0.7c-0.1-0.5,0.1-1.1,0.7-1.2
						C54.8,4.1,55.3,4.4,55.5,4.9z"/>
					<path class="st5" d="M63.4,1.7c0.5-0.1,1,0.2,1.2,0.7c0.1,0.6-0.2,1.1-0.7,1.2c-0.5,0.2-1.1-0.2-1.2-0.7
						C62.5,2.4,62.8,1.8,63.4,1.7z"/>
					<path class="st6" d="M67,5.1c0.2,0.6-0.6,1.4-1.7,1.7c-1.1,0.3-2.1,0-2.3-0.6c-0.2-0.6,0.6-1.4,1.7-1.7
						C65.8,4.2,66.8,4.4,67,5.1z"/>
					<path class="st11" d="M52.9,9c-0.2-0.6,0.6-1.4,1.7-1.7c1.1-0.3,2.1,0,2.3,0.6"/>
				</g>
				<g>
					<path class="st7" d="M56.7-10.6c-1,1.2-2.9,1.2-3.5,0.4c-0.2-0.2-0.3-0.5-0.4-0.7c-0.3-0.9-0.1-1.8,0.8-2.4
						c0.4-0.2,0.9-0.4,1.3-0.4c0.2,0,0.5,0,0.7,0.1C57.1-13.2,57.3-11.3,56.7-10.6z"/>
				</g>
				<g>
					<path class="st1" d="M52.9-4.1c-2.5,2.4-3.4,5.6-3.5,9C48.3,1.6,49.6-2.7,52.9-4.1L52.9-4.1z"/>
				</g>
			</g>
			<g>
				<path class="st8" d="M72.1-6.7c-0.2,0.4-0.4,0.8-0.7,1.1c-1.5,1.9-4.6,3.1-8.5,2.3c-0.7-0.1-1.3-0.3-1.9-0.6
					c-3.1-1.3-5.9-4.3-5.4-7.5c0.1-1,1-1.9,2.3-2.1c1.3-0.3,3,0,5,1.2c2.7,1.5,3.5,3.7,8.7,5.1C72.1-7.1,72.3-7.1,72.1-6.7z"/>
				<g>
					<path class="st9" d="M69.2-6c-2,0.8-4.4,0.3-6-1.1c-1.7-1.2-2.8-3.1-4.8-3.7c1.1,0,2.1,0.5,2.9,1.1C63.6-7.7,65.8-5.7,69.2-6
						L69.2-6z"/>
				</g>
			</g>
		</g>
		<g>
			<g>
				<path class="st3" d="M98.5,33.2c-1.2,2-3.8,3.4-4.1,5.9c-0.3,2.3-2.5,4.1-5,3.1c-1.5-0.6-1.6-1.5-2.6-2.2
					c-0.1-0.1-0.2-0.1-0.4-0.2c-1.6-0.8-2.9-0.2-5.9-2.2C75.1,34,73,26.3,75.9,20.2c1.5-3.1,3.5-4.3,4.1-4.9c0.6-0.7,0-1.3,0.9-2.9
					c1.1-2,4-2.5,5.7-0.5c0.2,0.2,0.4,0.5,0.6,0.7c0.7,1.2,2.5,0.1,6.1,2.3c1.3,0.8,2.4,1.7,3.3,2.9C100.3,22,101.1,28.4,98.5,33.2z
					"/>
				<path class="st10" d="M98.5,33.2c-1.2,2-3.8,3.4-4.1,5.9c-0.3,2.3-2.5,4.1-5,3.1c-1.5-0.6-1.6-1.5-2.6-2.2
					c-0.1-0.1-0.2-0.1-0.4-0.2c0.1-1.4,0.7-2.4,1.6-3.3c1.8-2,3.7-2.1,6.3-4.2c2.3-1.8,2.8-5.1,2.4-8c-0.1-0.7-0.2-1.4-0.3-2.1
					c-0.2-1.4-0.2-2.8,0.1-4.2c0,0,0-0.1,0-0.2C100.3,22,101.1,28.4,98.5,33.2z"/>
				<g>
					<path class="st7" d="M84.8,11.6c-1,1.2-2.9,1.2-3.5,0.4c-0.2-0.2-0.3-0.5-0.4-0.7c-0.3-0.9-0.1-1.8,0.8-2.4
						c0.4-0.2,0.9-0.4,1.3-0.4c0.2,0,0.5,0,0.7,0.1C85.2,9,85.4,10.9,84.8,11.6z"/>
				</g>
				<g>
					<path class="st1" d="M81,18.1c-2.5,2.4-3.4,5.6-3.5,9C76.4,23.9,77.7,19.6,81,18.1L81,18.1z"/>
				</g>
			</g>
			<g>
				<path class="st8" d="M100.2,15.5c-0.2,0.4-0.4,0.8-0.7,1.1c-1.5,1.9-4.6,3.1-8.5,2.3c-0.7-0.1-1.3-0.3-1.9-0.6
					C86,17,83.2,14,83.7,10.8c0.1-1,1-1.9,2.3-2.1c1.3-0.3,3,0,5,1.2c2.7,1.5,3.5,3.7,8.7,5.1C100.2,15.1,100.4,15.1,100.2,15.5z"/>
				<g>
					<path class="st9" d="M97.3,16.2c-2,0.8-4.4,0.3-6-1.1c-1.7-1.2-2.8-3.1-4.8-3.7c1.1,0,2.1,0.5,2.9,1.1
						C91.7,14.6,94,16.6,97.3,16.2L97.3,16.2z"/>
				</g>
			</g>
		</g>
		<g>
			<g>
				<path class="st3" d="M128.4,49.5c-1.2,2-3.8,3.4-4.1,5.9c-0.3,2.3-2.5,4.1-5,3.1c-1.5-0.6-1.6-1.5-2.6-2.2
					c-0.1-0.1-0.2-0.1-0.4-0.2c-1.6-0.8-2.9-0.2-5.9-2.2c-5.4-3.5-7.5-11.3-4.6-17.4c1.5-3.1,3.5-4.3,4.1-4.9c0.6-0.7,0-1.3,0.9-2.9
					c1.1-2,4-2.5,5.7-0.5c0.2,0.2,0.4,0.5,0.6,0.7c0.7,1.2,2.5,0.1,6.1,2.3c1.3,0.8,2.4,1.7,3.3,2.9
					C130.2,38.4,131.1,44.8,128.4,49.5z"/>
				<path class="st10" d="M128.4,49.5c-1.2,2-3.8,3.4-4.1,5.9c-0.3,2.3-2.5,4.1-5,3.1c-1.5-0.6-1.6-1.5-2.6-2.2
					c-0.1-0.1-0.2-0.1-0.4-0.2c0.1-1.4,0.7-2.4,1.6-3.3c1.8-2,3.7-2.1,6.3-4.2c2.3-1.8,2.8-5.1,2.4-8c-0.1-0.7-0.2-1.4-0.3-2.1
					c-0.2-1.4-0.2-2.8,0.1-4.2c0,0,0-0.1,0-0.2C130.2,38.4,131.1,44.8,128.4,49.5z"/>
				<g>
					<path class="st6" d="M114.9,46.5c0.2,0.6-0.6,1.4-1.7,1.7c-1.1,0.3-2.1,0-2.3-0.6c-0.2-0.6,0.6-1.4,1.7-1.7
						C113.7,45.6,114.7,45.8,114.9,46.5z"/>
				</g>
				<g>
					<path class="st7" d="M114.7,28c-1,1.2-2.9,1.2-3.5,0.4c-0.2-0.2-0.3-0.5-0.4-0.7c-0.3-0.9-0.1-1.8,0.8-2.4
						c0.4-0.2,0.9-0.4,1.3-0.4c0.2,0,0.5,0,0.7,0.1C115.1,25.4,115.3,27.3,114.7,28z"/>
				</g>
				<g>
					<path class="st1" d="M110.9,34.5c-2.5,2.4-3.4,5.6-3.5,9C106.3,40.2,107.7,35.9,110.9,34.5L110.9,34.5z"/>
				</g>
			</g>
			<g>
				<path class="st8" d="M130.1,31.9c-0.2,0.4-0.4,0.8-0.7,1.1c-1.5,1.9-4.6,3.1-8.5,2.3c-0.7-0.1-1.3-0.3-1.9-0.6
					c-3.1-1.3-5.9-4.3-5.4-7.5c0.1-1,1-1.9,2.3-2.1c1.3-0.3,3,0,5,1.2c2.7,1.5,3.5,3.7,8.7,5.1C130.1,31.5,130.3,31.5,130.1,31.9z"
					/>
				<g>
					<path class="st9" d="M127.2,32.6c-2,0.8-4.4,0.3-6-1.1c-1.7-1.2-2.8-3.1-4.8-3.7c1.1,0,2.1,0.5,2.9,1.1
						C121.6,30.9,123.9,32.9,127.2,32.6L127.2,32.6z"/>
				</g>
			</g>
		</g>
		<g>
			<g>
				<path class="st3" d="M128.4,10.9c-1.2,2-3.8,3.4-4.1,5.9c-0.3,2.3-2.5,4.1-5,3.1c-1.5-0.6-1.6-1.5-2.6-2.2
					c-0.1-0.1-0.2-0.1-0.4-0.2c-1.6-0.8-2.9-0.2-5.9-2.2c-5.4-3.5-7.5-11.3-4.6-17.4c1.5-3.1,3.5-4.3,4.1-4.9c0.6-0.7,0-1.3,0.9-2.9
					c1.1-2,4-2.5,5.7-0.5c0.2,0.2,0.4,0.5,0.6,0.7c0.7,1.2,2.5,0.1,6.1,2.3c1.3,0.8,2.4,1.7,3.3,2.9C130.2-0.2,131.1,6.2,128.4,10.9
					z"/>
				<path class="st10" d="M128.4,10.9c-1.2,2-3.8,3.4-4.1,5.9c-0.3,2.3-2.5,4.1-5,3.1c-1.5-0.6-1.6-1.5-2.6-2.2
					c-0.1-0.1-0.2-0.1-0.4-0.2c0.1-1.4,0.7-2.4,1.6-3.3c1.8-2,3.7-2.1,6.3-4.2c2.3-1.8,2.8-5.1,2.4-8c-0.1-0.7-0.2-1.4-0.3-2.1
					c-0.2-1.4-0.2-2.8,0.1-4.2c0,0,0-0.1,0-0.2C130.2-0.2,131.1,6.2,128.4,10.9z"/>
				<g>
					<path class="st1" d="M118.6,4c-0.4,0.1-0.9,0.2-1.4,0.4c-0.5,0.1-1,0.3-1.4,0.4c-0.6,0.2-0.8,0.6-0.5,1.1
						c1.3,2.3,4.6,1.3,4.3-1.4C119.6,4.2,119.2,3.9,118.6,4z"/>
					<path class="st5" d="M113.5,4.9c0.1,0.5-0.2,1.1-0.7,1.2c-0.5,0.1-1.1-0.2-1.2-0.7c-0.1-0.5,0.1-1.1,0.7-1.2
						C112.9,4.1,113.4,4.4,113.5,4.9z"/>
					<path class="st5" d="M121.4,1.7c0.5-0.1,1,0.2,1.2,0.7c0.1,0.6-0.2,1.1-0.7,1.2c-0.5,0.2-1.1-0.2-1.2-0.7
						C120.6,2.4,120.8,1.8,121.4,1.7z"/>
					<path class="st6" d="M125,5.1c0.2,0.6-0.6,1.4-1.7,1.7c-1.1,0.3-2.1,0-2.3-0.6s0.6-1.4,1.7-1.7C123.8,4.2,124.8,4.4,125,5.1z"
						/>
				</g>
				<g>
					<path class="st7" d="M114.7-10.6c-1,1.2-2.9,1.2-3.5,0.4c-0.2-0.2-0.3-0.5-0.4-0.7c-0.3-0.9-0.1-1.8,0.8-2.4
						c0.4-0.2,0.9-0.4,1.3-0.4c0.2,0,0.5,0,0.7,0.1C115.1-13.2,115.3-11.3,114.7-10.6z"/>
				</g>
				<g>
					<path class="st1" d="M110.9-4.1c-2.5,2.4-3.4,5.6-3.5,9C106.3,1.6,107.7-2.7,110.9-4.1L110.9-4.1z"/>
				</g>
			</g>
			<g>
				<path class="st8" d="M130.1-6.7c-0.2,0.4-0.4,0.8-0.7,1.1c-1.5,1.9-4.6,3.1-8.5,2.3c-0.7-0.1-1.3-0.3-1.9-0.6
					c-3.1-1.3-5.9-4.3-5.4-7.5c0.1-1,1-1.9,2.3-2.1c1.3-0.3,3,0,5,1.2c2.7,1.5,3.5,3.7,8.7,5.1C130.1-7.1,130.3-7.1,130.1-6.7z"/>
				<g>
					<path class="st9" d="M127.2-6c-2,0.8-4.4,0.3-6-1.1c-1.7-1.2-2.8-3.1-4.8-3.7c1.1,0,2.1,0.5,2.9,1.1
						C121.6-7.7,123.9-5.7,127.2-6L127.2-6z"/>
				</g>
			</g>
		</g>
		<g>
			<g>
				<path class="st3" d="M156.5,33.2c-1.2,2-3.8,3.4-4.1,5.9c-0.3,2.3-2.5,4.1-5,3.1c-1.5-0.6-1.6-1.5-2.6-2.2
					c-0.1-0.1-0.2-0.1-0.4-0.2c-1.6-0.8-2.9-0.2-5.9-2.2c-5.4-3.5-7.5-11.3-4.6-17.4c1.5-3.1,3.5-4.3,4.1-4.9c0.6-0.7,0-1.3,0.9-2.9
					c1.1-2,4-2.5,5.7-0.5c0.2,0.2,0.4,0.5,0.6,0.7c0.7,1.2,2.5,0.1,6.1,2.3c1.3,0.8,2.4,1.7,3.3,2.9C158.3,22,159.2,28.4,156.5,33.2
					z"/>
				<path class="st10" d="M156.5,33.2c-1.2,2-3.8,3.4-4.1,5.9c-0.3,2.3-2.5,4.1-5,3.1c-1.5-0.6-1.6-1.5-2.6-2.2
					c-0.1-0.1-0.2-0.1-0.4-0.2c0.1-1.4,0.7-2.4,1.6-3.3c1.8-2,3.7-2.1,6.3-4.2c2.3-1.8,2.8-5.1,2.4-8c-0.1-0.7-0.2-1.4-0.3-2.1
					c-0.2-1.4-0.2-2.8,0.1-4.2c0,0,0-0.1,0-0.2C158.3,22,159.2,28.4,156.5,33.2z"/>
				<g>
					<path class="st7" d="M142.8,11.6c-1,1.2-2.9,1.2-3.5,0.4c-0.2-0.2-0.3-0.5-0.4-0.7c-0.3-0.9-0.1-1.8,0.8-2.4
						c0.4-0.2,0.9-0.4,1.3-0.4c0.2,0,0.5,0,0.7,0.1C143.2,9,143.4,10.9,142.8,11.6z"/>
				</g>
				<g>
					<path class="st1" d="M139,18.1c-2.5,2.4-3.4,5.6-3.5,9C134.4,23.9,135.8,19.6,139,18.1L139,18.1z"/>
				</g>
			</g>
			<g>
				<path class="st8" d="M158.2,15.5c-0.2,0.4-0.4,0.8-0.7,1.1c-1.5,1.9-4.6,3.1-8.5,2.3c-0.7-0.1-1.3-0.3-1.9-0.6
					c-3.1-1.3-5.9-4.3-5.4-7.5c0.1-1,1-1.9,2.3-2.1c1.3-0.3,3,0,5,1.2c2.7,1.5,3.5,3.7,8.7,5.1C158.2,15.1,158.4,15.1,158.2,15.5z"
					/>
				<g>
					<path class="st9" d="M155.3,16.2c-2,0.8-4.4,0.3-6-1.1c-1.7-1.2-2.8-3.1-4.8-3.7c1.1,0,2.1,0.5,2.9,1.1
						C149.7,14.6,152,16.6,155.3,16.2L155.3,16.2z"/>
				</g>
			</g>
		</g>
		<g>
			<g>
				<path class="st3" d="M186.4,49.5c-1.2,2-3.8,3.4-4.1,5.9c-0.3,2.3-2.5,4.1-5,3.1c-1.5-0.6-1.6-1.5-2.6-2.2
					c-0.1-0.1-0.2-0.1-0.4-0.2c-1.6-0.8-2.9-0.2-5.9-2.2c-5.4-3.5-7.5-11.3-4.6-17.4c1.5-3.1,3.5-4.3,4.1-4.9c0.6-0.7,0-1.3,0.9-2.9
					c1.1-2,4-2.5,5.7-0.5c0.2,0.2,0.4,0.5,0.6,0.7c0.7,1.2,2.5,0.1,6.1,2.3c1.3,0.8,2.4,1.7,3.3,2.9
					C188.2,38.4,189.1,44.8,186.4,49.5z"/>
				<path class="st10" d="M186.4,49.5c-1.2,2-3.8,3.4-4.1,5.9c-0.3,2.3-2.5,4.1-5,3.1c-1.5-0.6-1.6-1.5-2.6-2.2
					c-0.1-0.1-0.2-0.1-0.4-0.2c0.1-1.4,0.7-2.4,1.6-3.3c1.8-2,3.7-2.1,6.3-4.2c2.3-1.8,2.8-5.1,2.4-8c-0.1-0.7-0.2-1.4-0.3-2.1
					c-0.2-1.4-0.2-2.8,0.1-4.2c0,0,0-0.1,0-0.2C188.2,38.4,189.1,44.8,186.4,49.5z"/>
				<g>
					<path class="st5" d="M179.5,40.3c0.5-0.1,1,0.2,1.2,0.7c0.1,0.6-0.2,1.1-0.7,1.2c-0.5,0.2-1.1-0.2-1.2-0.7
						C178.6,41,178.9,40.4,179.5,40.3z"/>
					<path class="st6" d="M183.1,43.7c0.2,0.6-0.6,1.4-1.7,1.7c-1.1,0.3-2.1,0-2.3-0.6s0.6-1.4,1.7-1.7
						C181.9,42.8,182.9,43,183.1,43.7z"/>
					<path class="st6" d="M172.9,46.5c0.2,0.6-0.6,1.4-1.7,1.7c-1.1,0.3-2.1,0-2.3-0.6c-0.2-0.6,0.6-1.4,1.7-1.7
						C171.7,45.6,172.7,45.8,172.9,46.5z"/>
				</g>
				<g>
					<path class="st7" d="M172.8,28c-1,1.2-2.9,1.2-3.5,0.4c-0.2-0.2-0.3-0.5-0.4-0.7c-0.3-0.9-0.1-1.8,0.8-2.4
						c0.4-0.2,0.9-0.4,1.3-0.4c0.2,0,0.5,0,0.7,0.1C173.1,25.4,173.4,27.3,172.8,28z"/>
				</g>
				<g>
					<path class="st1" d="M168.9,34.5c-2.5,2.4-3.4,5.6-3.5,9C164.4,40.2,165.7,35.9,168.9,34.5L168.9,34.5z"/>
				</g>
			</g>
			<g>
				<path class="st8" d="M188.2,31.9c-0.2,0.4-0.4,0.8-0.7,1.1c-1.5,1.9-4.6,3.1-8.5,2.3c-0.7-0.1-1.3-0.3-1.9-0.6
					c-3.1-1.3-5.9-4.3-5.4-7.5c0.1-1,1-1.9,2.3-2.1c1.3-0.3,3,0,5,1.2c2.7,1.5,3.5,3.7,8.7,5.1C188.1,31.5,188.4,31.5,188.2,31.9z"
					/>
				<g>
					<path class="st9" d="M185.2,32.6c-2,0.8-4.4,0.3-6-1.1c-1.7-1.2-2.8-3.1-4.8-3.7c1.1,0,2.1,0.5,2.9,1.1
						C179.6,30.9,181.9,32.9,185.2,32.6L185.2,32.6z"/>
				</g>
			</g>
		</g>
		<g>
			<g>
				<path class="st3" d="M186.4,10.9c-1.2,2-3.8,3.4-4.1,5.9c-0.3,2.3-2.5,4.1-5,3.1c-1.5-0.6-1.6-1.5-2.6-2.2
					c-0.1-0.1-0.2-0.1-0.4-0.2c-1.6-0.8-2.9-0.2-5.9-2.2c-5.4-3.5-7.5-11.3-4.6-17.4c1.5-3.1,3.5-4.3,4.1-4.9c0.6-0.7,0-1.3,0.9-2.9
					c1.1-2,4-2.5,5.7-0.5c0.2,0.2,0.4,0.5,0.6,0.7c0.7,1.2,2.5,0.1,6.1,2.3c1.3,0.8,2.4,1.7,3.3,2.9C188.2-0.2,189.1,6.2,186.4,10.9
					z"/>
				<path class="st10" d="M186.4,10.9c-1.2,2-3.8,3.4-4.1,5.9c-0.3,2.3-2.5,4.1-5,3.1c-1.5-0.6-1.6-1.5-2.6-2.2
					c-0.1-0.1-0.2-0.1-0.4-0.2c0.1-1.4,0.7-2.4,1.6-3.3c1.8-2,3.7-2.1,6.3-4.2c2.3-1.8,2.8-5.1,2.4-8c-0.1-0.7-0.2-1.4-0.3-2.1
					c-0.2-1.4-0.2-2.8,0.1-4.2c0,0,0-0.1,0-0.2C188.2-0.2,189.1,6.2,186.4,10.9z"/>
				<g>
					<path class="st1" d="M176.7,4c-0.4,0.1-0.9,0.2-1.4,0.4c-0.5,0.1-1,0.3-1.4,0.4c-0.6,0.2-0.8,0.6-0.5,1.1
						c1.3,2.3,4.6,1.3,4.3-1.4C177.6,4.2,177.3,3.9,176.7,4z"/>
					<path class="st5" d="M171.6,4.9c0.1,0.5-0.2,1.1-0.7,1.2c-0.5,0.1-1.1-0.2-1.2-0.7c-0.1-0.5,0.1-1.1,0.7-1.2
						C170.9,4.1,171.4,4.4,171.6,4.9z"/>
					<path class="st5" d="M179.5,1.7c0.5-0.1,1,0.2,1.2,0.7c0.1,0.6-0.2,1.1-0.7,1.2c-0.5,0.2-1.1-0.2-1.2-0.7
						C178.6,2.4,178.9,1.8,179.5,1.7z"/>
					<path class="st6" d="M183.1,5.1c0.2,0.6-0.6,1.4-1.7,1.7c-1.1,0.3-2.1,0-2.3-0.6s0.6-1.4,1.7-1.7
						C181.9,4.2,182.9,4.4,183.1,5.1z"/>
				</g>
				<g>
					<path class="st7" d="M172.8-10.6c-1,1.2-2.9,1.2-3.5,0.4c-0.2-0.2-0.3-0.5-0.4-0.7c-0.3-0.9-0.1-1.8,0.8-2.4
						c0.4-0.2,0.9-0.4,1.3-0.4c0.2,0,0.5,0,0.7,0.1C173.1-13.2,173.4-11.3,172.8-10.6z"/>
				</g>
				<g>
					<path class="st1" d="M168.9-4.1c-2.5,2.4-3.4,5.6-3.5,9C164.4,1.6,165.7-2.7,168.9-4.1L168.9-4.1z"/>
				</g>
			</g>
			<g>
				<path class="st8" d="M188.2-6.7c-0.2,0.4-0.4,0.8-0.7,1.1c-1.5,1.9-4.6,3.1-8.5,2.3c-0.7-0.1-1.3-0.3-1.9-0.6
					c-3.1-1.3-5.9-4.3-5.4-7.5c0.1-1,1-1.9,2.3-2.1c1.3-0.3,3,0,5,1.2c2.7,1.5,3.5,3.7,8.7,5.1C188.1-7.1,188.4-7.1,188.2-6.7z"/>
				<g>
					<path class="st9" d="M185.2-6c-2,0.8-4.4,0.3-6-1.1c-1.7-1.2-2.8-3.1-4.8-3.7c1.1,0,2.1,0.5,2.9,1.1
						C179.6-7.7,181.9-5.7,185.2-6L185.2-6z"/>
				</g>
			</g>
		</g>
	</g>
</g>
</svg>
