<?xml version="1.0" encoding="utf-8"?>
<!-- Generator: Adobe Illustrator 26.0.0, SVG Export Plug-In . SVG Version: 6.00 Build 0)  -->
<svg version="1.1" id="Capa_1" xmlns="http://www.w3.org/2000/svg" xmlns:xlink="http://www.w3.org/1999/xlink" x="0px" y="0px"
	 viewBox="0 0 188.9 62.2" style="enable-background:new 0 0 188.9 62.2;" xml:space="preserve">
<style type="text/css">
	.st0{fill:#86849A;}
	.st1{clip-path:url(#SVGID_00000090977026486842758800000002290922210481582982_);}
	.st2{fill:#F9C130;}
	.st3{fill:#FDFFEC;}
	.st4{fill:#FFDBD7;}
	.st5{fill:#6B6B6B;}
	.st6{fill:#B3BBBC;}
</style>
<g>
	<g>
		<path class="st0" d="M1.5,48.2c44.7-0.2,182.4,0.6,186.3-0.3l-13.9-37.7C142.7,9.8,107,11,75.7,11.3c-21.4,0.2-48,0.5-57.8,0.7
			C17.7,13.6,7.9,34.3,1.5,48.2z"/>
	</g>
	<g>
		<defs>
			<path id="SVGID_3_" d="M1.5,48.2c44.7-0.2,182.4,0.6,186.3-0.3l-13.9-37.7C142.7,9.8,107,11,75.7,11.3c-21.4,0.2-48,0.5-57.8,0.7
				C17.7,13.6,7.9,34.3,1.5,48.2z"/>
		</defs>
		<clipPath id="SVGID_00000178180061375305230120000009250020028660121511_">
			<use xlink:href="#SVGID_3_"  style="overflow:visible;"/>
		</clipPath>
		<g style="clip-path:url(#SVGID_00000178180061375305230120000009250020028660121511_);">
			<g>
				<g>
					<g>
						<path class="st2" d="M53.3,32.3c0.3-0.1,1.1-0.1,0.9-0.6c-0.2-0.5-2.4-0.8-1.9-1.4c0.4-0.6,2.5-0.3,2.6-1.2
							c0-0.6-1.9-0.9-2.3-1.2c0.3-0.4,2.1-0.8,1.9-1.5c-0.1-0.3-1-0.4-1.3-0.4c-0.6,0-1.1-0.1-1.7-0.2c0.2,1.7-0.4,3.7-0.5,6.1
							c0,0.2-0.1,0.5-0.3,0.7C51.6,32.5,52.4,32.4,53.3,32.3z"/>
						<path class="st2" d="M67.9,29.6c0,0.6,0.9,1.1,1.4,1.3c0-0.3,0-0.6,0-0.9c0-0.5,0-0.9,0-1.4c-0.1,0-0.3,0.1-0.3,0.1
							C68.6,28.9,67.9,29.1,67.9,29.6z"/>
						<path class="st2" d="M68.5,32.3c-0.5,0.2-0.6,0.3-0.3,0.8c0.2,0.3,0.4,0.6,0.7,0.9c0.1-0.6,0.3-1.3,0.3-1.9
							C68.9,32.2,68.7,32.2,68.5,32.3z"/>
						<path class="st3" d="M52.3,18.5c-0.6,0.4-6.1,2.1-6.3,2.1c0.5,0.7,3.9,2.9,5.4,4.6c0.1,0.2,0.1,0.4,0.1,0.7
							c0.6,0.1,1.1,0.1,1.7,0.2c0.2,0,1.2,0,1.3,0.4c0.2,0.7-1.6,1.1-1.9,1.5c0.4,0.3,2.3,0.6,2.3,1.2c-0.1,0.9-2.2,0.6-2.6,1.2
							c-0.5,0.6,1.8,0.8,1.9,1.4c0.2,0.5-0.5,0.5-0.9,0.6c-0.9,0.2-1.7,0.2-2.6,0.5c-1.1,1.8-5.2,4.8-5.4,5.4c0,0.2,5.7,0.7,5.9,1.1
							c0.3,0.6,1.5,1.5,2.9,2.3c0.4-0.3,0.9-0.5,1.3-0.8c0.7-0.4,2.1-1.1,2.4,0.1c0.2,0.7-0.5,1.7,0.3,2c0,0,0.1,0,0.1,0
							c0.6,0,1.3,0,1.8-0.1c5-0.4,7.7-4.4,8.7-8.8c-0.2-0.3-0.5-0.6-0.7-0.9c-0.3-0.5-0.2-0.6,0.3-0.8c0.2-0.1,0.4-0.1,0.7-0.2
							c0-0.4,0.1-0.8,0.1-1.2c-0.5-0.3-1.4-0.7-1.4-1.3c0-0.5,0.7-0.7,1.1-0.9c0.1,0,0.2-0.1,0.3-0.1c0-0.5-0.1-1-0.1-1.5
							c0,0,0,0,0,0c-0.5-0.2-1-0.4-0.7-0.9c0.1-0.2,0.3-0.4,0.5-0.6c-0.4-2.2-1.2-4.3-2.4-6c-1.6-2.2-3.5-3.7-6.9-3.7
							C56.7,15.8,54.7,17,52.3,18.5z"/>
						<path class="st2" d="M69.1,27.1C69.1,27.1,69.1,27.1,69.1,27.1c0-0.5-0.1-1-0.2-1.5c-0.2,0.2-0.4,0.4-0.5,0.6
							C68.1,26.7,68.6,26.9,69.1,27.1z"/>
						<path class="st2" d="M57.9,40.9c-0.3-1.1-1.8-0.5-2.4-0.1c-0.4,0.3-0.9,0.5-1.3,0.8c0.9,0.5,2,0.9,3.1,1.2
							c0.3,0.1,0.7,0.1,1.1,0.1c0,0-0.1,0-0.1,0C57.4,42.5,58.1,41.6,57.9,40.9z"/>
						<path class="st2" d="M62,25c-0.1,0.9-0.7,1.7-1.8,2.1c-1.6,0.6-2.8-0.9-3-2.4c-0.2-1.3,0.5-3.6,2.1-3.3
							C61.2,21.7,62.3,22.9,62,25z"/>
					</g>
					<g>
						<path class="st4" d="M48,37.5c0.8-0.1,1.6-0.1,2.4-0.1c0.8,0,0.7-0.4,0.6-1.1c0-0.2,0-0.9-0.2-1.1c-0.2-0.2-0.4,0.1-0.7,0.3
							c-0.6,0.5-1.1,0.9-1.7,1.3C48.2,36.9,47.7,37.1,48,37.5z"/>
						<path class="st4" d="M48.8,21.2c1.1,0.6,2.4,1.2,3.6,1.5c0.2-0.4,0.2-0.9,0.3-1.4c0.1-0.3,0.3-0.8,0.1-1
							c-0.2-0.3-0.4-0.1-0.8,0C51.3,20.5,50.4,20.9,48.8,21.2z"/>
					</g>
				</g>
				<g>
					<g>
						<g>
							<path class="st5" d="M60.3,34c0-0.7-1.1-0.8-1.1-0.1C59.2,34.7,60.3,34.8,60.3,34L60.3,34z"/>
						</g>
						<g>
							<path class="st5" d="M60.5,25c0-0.7-1.1-0.8-1.1-0.1C59.3,25.7,60.4,25.7,60.5,25L60.5,25z"/>
						</g>
					</g>
					<g>
						<g>
							<path class="st5" d="M63.8,32.5c1.9-0.7,0.3-2.7-0.9-3.2c0,0.1,0,0.3,0,0.4c1.8-0.4,2.3-2.3,0.3-2.9
								c-0.3-0.1-0.4,0.3-0.1,0.4c1.6,0.5,1,1.8-0.3,2.1c-0.2,0-0.2,0.3,0,0.4c0.8,0.4,2.3,1.9,0.8,2.5
								C63.3,32.3,63.5,32.6,63.8,32.5L63.8,32.5z"/>
						</g>
						<path class="st4" d="M63.2,29.6c0,0.4-0.2,0.7-0.5,1c-0.1,0.1-0.9,0.5-1,0.3c-0.2-0.7-0.2-1.9,0-2.6
							C62.5,28,63.2,28.8,63.2,29.6z"/>
					</g>
					<g>
						<g>
							<g>
								<g>
									<path class="st5" d="M62.8,36.9c0-0.3-0.4-0.3-0.4,0C62.4,37.2,62.8,37.2,62.8,36.9L62.8,36.9z"/>
								</g>
								<g>
									<path class="st5" d="M64.1,36.3C64.1,36.3,64.1,36.3,64.1,36.3c-0.1-0.3-0.5-0.2-0.4,0c0,0,0,0,0,0
										C63.8,36.6,64.2,36.5,64.1,36.3L64.1,36.3z"/>
								</g>
								<g>
									<path class="st5" d="M62.8,35.9c0-0.3-0.4-0.3-0.4,0C62.4,36.1,62.8,36.2,62.8,35.9L62.8,35.9z"/>
								</g>
							</g>
							<g>
								<g>
									<path class="st5" d="M62.8,24.4c0-0.3-0.4-0.3-0.4,0C62.4,24.6,62.8,24.6,62.8,24.4L62.8,24.4z"/>
								</g>
								<g>
									<path class="st5" d="M62.7,23.1c0-0.3-0.4-0.3-0.4,0C62.3,23.3,62.7,23.3,62.7,23.1L62.7,23.1z"/>
								</g>
								<g>
									<path class="st5" d="M63.7,23.9c0-0.3-0.4-0.3-0.4,0C63.3,24.1,63.7,24.2,63.7,23.9L63.7,23.9z"/>
								</g>
							</g>
						</g>
						<g>
							<g>
								<path class="st5" d="M60.1,43.9c0.8-1.6,1.3-3.4,2.1-5c0.1-0.2-0.2-0.5-0.3-0.2c-0.8,1.6-1.4,3.3-2.1,5
									C59.6,43.9,60,44.1,60.1,43.9L60.1,43.9z"/>
							</g>
							<g>
								<path class="st5" d="M63.4,43.3c0-1.4-0.1-2.7-0.2-4.1c0-0.3-0.4-0.3-0.4,0c0.1,1.4,0.2,2.7,0.2,4.1
									C63,43.5,63.4,43.6,63.4,43.3L63.4,43.3z"/>
							</g>
							<g>
								<path class="st5" d="M66.1,41.3c-0.6-0.9-1.3-1.7-1.9-2.7c-0.1-0.2-0.5,0-0.4,0.2c0.6,0.9,1.3,1.8,2,2.7
									C66,41.8,66.3,41.5,66.1,41.3L66.1,41.3z"/>
							</g>
						</g>
						<g>
							<g>
								<path class="st5" d="M59.7,15.2c0.8,1.6,1.3,3.4,2.1,5c0.1,0.2,0.5,0,0.4-0.2c-0.8-1.6-1.3-3.4-2.1-5
									C59.9,14.8,59.6,15,59.7,15.2L59.7,15.2z"/>
							</g>
							<g>
								<path class="st5" d="M62.9,15.6c0,1.4-0.1,2.7-0.2,4.1c0,0.3,0.4,0.3,0.4,0c0.1-1.4,0.2-2.7,0.2-4.1
									C63.3,15.4,62.9,15.4,62.9,15.6L62.9,15.6z"/>
							</g>
							<g>
								<path class="st5" d="M65.7,17.4c-0.7,0.9-1.4,1.8-2,2.7c-0.1,0.2,0.2,0.4,0.3,0.2c0.6-0.9,1.3-1.8,2-2.7
									C66.2,17.4,65.8,17.2,65.7,17.4L65.7,17.4z"/>
							</g>
						</g>
					</g>
				</g>
			</g>
			<g>
				<g>
					<path class="st6" d="M93.6,19.5c2,2.8,2.8,6.8,2.7,10.4c0,5.8-2.7,12.2-9.2,12.8c-0.8,0.1-2.1,0.2-2.9,0
						c-2.8-0.7-5.5-2.6-6-3.5c-0.2-0.4-5.9-0.9-5.9-1.1c0.2-0.6,5.6-4.5,5.7-6.1c0.1-2.7,0.8-4.9,0.4-6.8c-1.5-1.7-4.9-3.9-5.4-4.6
						c0.2,0,5.7-1.7,6.3-2.1c2.4-1.6,4.3-2.7,7.3-2.7C90.1,15.9,92,17.3,93.6,19.5z"/>
					<g>
						<path class="st4" d="M75,37.4c0.8-0.1,1.6-0.1,2.4-0.1c0.8,0,0.7-0.4,0.6-1.1c0-0.2,0-0.9-0.2-1.1c-0.2-0.2-0.4,0.1-0.7,0.3
							c-0.6,0.5-1.1,0.9-1.7,1.3C75.2,36.9,74.8,37.1,75,37.4z"/>
						<path class="st4" d="M75.9,21.1c1.1,0.6,2.4,1.2,3.6,1.5c0.2-0.4,0.2-0.9,0.3-1.4c0.1-0.3,0.3-0.8,0.1-1
							c-0.2-0.3-0.4-0.1-0.8,0C78.3,20.4,77.4,20.9,75.9,21.1z"/>
					</g>
					<g>
						<path class="st3" d="M89,34.3c-1.1-4.4-7-1.4-6,2.5c0.9,3.8,5,2.5,5.9-0.7C89.1,35.4,89.1,34.8,89,34.3z"/>
						<path class="st3" d="M83.3,22.7c0,0.1,0,0.2,0,0.2c-0.2,1.3,0.4,2.6,1.4,3.4c1.2,1,3.1,0.9,4.2-0.2c1.5-1.4,0.6-3-0.6-4.3
							c-0.6-0.7-1.5-1.3-2.5-1.3C84.6,20.6,83.6,21.6,83.3,22.7z"/>
					</g>
				</g>
				<g>
					<g>
						<g>
							<path class="st5" d="M87.4,34c0-0.7-1.1-0.8-1.1-0.1C86.2,34.7,87.3,34.7,87.4,34L87.4,34z"/>
						</g>
						<g>
							<path class="st5" d="M87.5,24.9c0-0.7-1.1-0.8-1.1-0.1C86.3,25.6,87.5,25.7,87.5,24.9L87.5,24.9z"/>
						</g>
					</g>
					<g>
						<g>
							<path class="st5" d="M90.8,32.5c1.9-0.7,0.3-2.7-0.9-3.2c0,0.1,0,0.3,0,0.4c1.8-0.4,2.3-2.3,0.3-2.9
								c-0.3-0.1-0.4,0.3-0.1,0.4c1.6,0.5,1,1.8-0.3,2.1c-0.2,0-0.2,0.3,0,0.4c0.8,0.4,2.3,1.9,0.8,2.5
								C90.4,32.2,90.6,32.6,90.8,32.5L90.8,32.5z"/>
						</g>
						<path class="st4" d="M90.2,29.6c0,0.4-0.2,0.7-0.5,1c-0.1,0.1-0.9,0.5-1,0.3c-0.2-0.7-0.2-1.9,0-2.6
							C89.6,28,90.2,28.8,90.2,29.6z"/>
					</g>
					<g>
						<g>
							<g>
								<g>
									<path class="st5" d="M89.8,36.9c0-0.3-0.4-0.3-0.4,0C89.4,37.1,89.8,37.2,89.8,36.9L89.8,36.9z"/>
								</g>
								<g>
									<path class="st5" d="M91.2,36.2C91.2,36.2,91.2,36.2,91.2,36.2c-0.1-0.3-0.5-0.2-0.4,0c0,0,0,0,0,0
										C90.8,36.6,91.2,36.5,91.2,36.2L91.2,36.2z"/>
								</g>
								<g>
									<path class="st5" d="M89.8,35.8c0-0.3-0.4-0.3-0.4,0C89.4,36.1,89.8,36.1,89.8,35.8L89.8,35.8z"/>
								</g>
							</g>
							<g>
								<g>
									<path class="st5" d="M89.8,24.3c0-0.3-0.4-0.3-0.4,0C89.4,24.6,89.8,24.6,89.8,24.3L89.8,24.3z"/>
								</g>
								<g>
									<path class="st5" d="M89.8,23c0-0.3-0.4-0.3-0.4,0C89.3,23.3,89.8,23.3,89.8,23L89.8,23z"/>
								</g>
								<g>
									<path class="st5" d="M90.8,23.8c0-0.3-0.4-0.3-0.4,0C90.4,24.1,90.8,24.1,90.8,23.8L90.8,23.8z"/>
								</g>
							</g>
						</g>
						<g>
							<g>
								<path class="st5" d="M87.1,43.9c0.8-1.6,1.3-3.4,2.1-5c0.1-0.2-0.2-0.5-0.3-0.2c-0.8,1.6-1.4,3.3-2.1,5
									C86.7,43.9,87,44.1,87.1,43.9L87.1,43.9z"/>
							</g>
							<g>
								<path class="st5" d="M90.5,43.3c0-1.4-0.1-2.7-0.2-4.1c0-0.3-0.4-0.3-0.4,0c0.1,1.4,0.2,2.7,0.2,4.1
									C90,43.5,90.5,43.5,90.5,43.3L90.5,43.3z"/>
							</g>
							<g>
								<path class="st5" d="M93.2,41.3c-0.6-0.9-1.3-1.7-1.9-2.7c-0.1-0.2-0.5,0-0.4,0.2c0.6,0.9,1.3,1.8,2,2.7
									C93,41.8,93.3,41.5,93.2,41.3L93.2,41.3z"/>
							</g>
						</g>
						<g>
							<g>
								<path class="st5" d="M86.7,15.1c0.8,1.6,1.3,3.4,2.1,5c0.1,0.2,0.5,0,0.4-0.2c-0.8-1.6-1.3-3.4-2.1-5
									C87,14.7,86.6,14.9,86.7,15.1L86.7,15.1z"/>
							</g>
							<g>
								<path class="st5" d="M90,15.6c0,1.4-0.1,2.7-0.2,4.1c0,0.3,0.4,0.3,0.4,0c0.1-1.4,0.2-2.7,0.2-4.1
									C90.4,15.3,90,15.3,90,15.6L90,15.6z"/>
							</g>
							<g>
								<path class="st5" d="M92.7,17.3c-0.7,0.9-1.4,1.8-2,2.7c-0.1,0.2,0.2,0.4,0.3,0.2c0.6-0.9,1.3-1.8,2-2.7
									C93.2,17.3,92.9,17.1,92.7,17.3L92.7,17.3z"/>
							</g>
						</g>
					</g>
				</g>
			</g>
			<g>
				<g>
					<g>
						<path class="st2" d="M-0.8,32.4c0.3-0.1,1.1-0.1,0.9-0.6c-0.2-0.5-2.4-0.8-1.9-1.4c0.4-0.6,2.5-0.3,2.6-1.2
							c0-0.6-1.9-0.9-2.3-1.2c0.3-0.4,2.1-0.8,1.9-1.5c-0.1-0.3-1-0.4-1.3-0.4c-0.6,0-1.1-0.1-1.7-0.2c0.2,1.7-0.4,3.7-0.5,6.1
							c0,0.2-0.1,0.5-0.3,0.7C-2.5,32.6-1.7,32.5-0.8,32.4z"/>
						<path class="st2" d="M13.8,29.7c0,0.6,0.9,1.1,1.4,1.3c0-0.3,0-0.6,0-0.9c0-0.5,0-0.9,0-1.4c-0.1,0-0.3,0.1-0.3,0.1
							C14.5,29,13.8,29.2,13.8,29.7z"/>
						<path class="st2" d="M14.4,32.4c-0.5,0.2-0.6,0.3-0.3,0.8c0.2,0.3,0.4,0.6,0.7,0.9c0.1-0.6,0.3-1.3,0.3-1.9
							C14.8,32.3,14.6,32.3,14.4,32.4z"/>
						<path class="st3" d="M-1.8,18.6c-0.6,0.4-6.1,2.1-6.3,2.1c0.5,0.7,3.9,2.9,5.4,4.6c0.1,0.2,0.1,0.4,0.1,0.7
							c0.6,0.1,1.1,0.1,1.7,0.2c0.2,0,1.2,0,1.3,0.4c0.2,0.7-1.6,1.1-1.9,1.5c0.4,0.3,2.3,0.6,2.3,1.2c-0.1,0.9-2.2,0.6-2.6,1.2
							c-0.5,0.6,1.8,0.8,1.9,1.4c0.2,0.5-0.5,0.5-0.9,0.6c-0.9,0.2-1.7,0.2-2.6,0.5c-1.1,1.8-5.2,4.8-5.4,5.4c0,0.2,5.7,0.7,5.9,1.1
							c0.3,0.6,1.5,1.5,2.9,2.3c0.4-0.3,0.9-0.5,1.3-0.8C2,40.5,3.4,39.8,3.8,41c0.2,0.7-0.5,1.7,0.3,2c0,0,0.1,0,0.1,0
							c0.6,0,1.3,0,1.8-0.1c5-0.4,7.7-4.4,8.7-8.8c-0.2-0.3-0.5-0.6-0.7-0.9c-0.3-0.5-0.2-0.6,0.3-0.8c0.2-0.1,0.4-0.1,0.7-0.2
							c0-0.4,0.1-0.8,0.1-1.2c-0.5-0.3-1.4-0.7-1.4-1.3c0-0.5,0.7-0.7,1.1-0.9c0.1,0,0.2-0.1,0.3-0.1c0-0.5-0.1-1-0.1-1.5
							c0,0,0,0,0,0c-0.5-0.2-1-0.4-0.7-0.9c0.1-0.2,0.3-0.4,0.5-0.6c-0.4-2.2-1.2-4.3-2.4-6C10.9,17.4,9,16,5.6,16
							C2.6,15.9,0.6,17.1-1.8,18.6z"/>
						<path class="st2" d="M15,27.2C15,27.2,15,27.2,15,27.2c0-0.5-0.1-1-0.2-1.5c-0.2,0.2-0.4,0.4-0.5,0.6C14,26.8,14.5,27,15,27.2
							z"/>
						<path class="st2" d="M3.8,41c-0.3-1.1-1.8-0.5-2.4-0.1c-0.4,0.3-0.9,0.5-1.3,0.8c0.9,0.5,2,0.9,3.1,1.2C3.5,43,3.8,43,4.2,43
							c0,0-0.1,0-0.1,0C3.3,42.6,4,41.7,3.8,41z"/>
						<path class="st2" d="M7.9,25.1c-0.1,0.9-0.7,1.7-1.8,2.1c-1.6,0.6-2.8-0.9-3-2.4c-0.2-1.3,0.5-3.6,2.1-3.3
							C7.1,21.8,8.2,23,7.9,25.1z"/>
					</g>
					<g>
						<path class="st4" d="M-6.1,37.6c0.8-0.1,1.6-0.1,2.4-0.1c0.8,0,0.7-0.4,0.6-1.1c0-0.2,0-0.9-0.2-1.1c-0.2-0.2-0.4,0.1-0.7,0.3
							C-4.5,36-5,36.4-5.6,36.8C-5.9,37-6.4,37.2-6.1,37.6z"/>
						<path class="st4" d="M-5.3,21.3c1.1,0.6,2.4,1.2,3.6,1.5c0.2-0.4,0.2-0.9,0.3-1.4c0.1-0.3,0.3-0.8,0.1-1
							c-0.2-0.3-0.4-0.1-0.8,0C-2.8,20.6-3.7,21-5.3,21.3z"/>
					</g>
				</g>
				<g>
					<g>
						<g>
							<path class="st5" d="M6.2,34.1c0-0.7-1.1-0.8-1.1-0.1C5.1,34.8,6.2,34.9,6.2,34.1L6.2,34.1z"/>
						</g>
						<g>
							<path class="st5" d="M6.4,25.1c0-0.7-1.1-0.8-1.1-0.1C5.2,25.8,6.4,25.8,6.4,25.1L6.4,25.1z"/>
						</g>
					</g>
					<g>
						<g>
							<path class="st5" d="M9.7,32.6c1.9-0.7,0.3-2.7-0.9-3.2c0,0.1,0,0.3,0,0.4c1.8-0.4,2.3-2.3,0.3-2.9c-0.3-0.1-0.4,0.3-0.1,0.4
								c1.6,0.5,1,1.8-0.3,2.1c-0.2,0-0.2,0.3,0,0.4c0.8,0.4,2.3,1.9,0.8,2.5C9.2,32.4,9.4,32.7,9.7,32.6L9.7,32.6z"/>
						</g>
						<path class="st4" d="M9.1,29.7c0,0.4-0.2,0.7-0.5,1c-0.1,0.1-0.9,0.5-1,0.3c-0.2-0.7-0.2-1.9,0-2.6
							C8.4,28.1,9.1,28.9,9.1,29.7z"/>
					</g>
					<g>
						<g>
							<g>
								<g>
									<path class="st5" d="M8.7,37c0-0.3-0.4-0.3-0.4,0C8.3,37.3,8.7,37.3,8.7,37L8.7,37z"/>
								</g>
								<g>
									<path class="st5" d="M10,36.4C10,36.4,10,36.4,10,36.4c-0.1-0.3-0.5-0.2-0.4,0c0,0,0,0,0,0C9.7,36.7,10.1,36.6,10,36.4
										L10,36.4z"/>
								</g>
								<g>
									<path class="st5" d="M8.7,36c0-0.3-0.4-0.3-0.4,0C8.3,36.2,8.7,36.2,8.7,36L8.7,36z"/>
								</g>
							</g>
							<g>
								<g>
									<path class="st5" d="M8.7,24.5c0-0.3-0.4-0.3-0.4,0C8.3,24.7,8.7,24.7,8.7,24.5L8.7,24.5z"/>
								</g>
								<g>
									<path class="st5" d="M8.6,23.1c0-0.3-0.4-0.3-0.4,0C8.2,23.4,8.6,23.4,8.6,23.1L8.6,23.1z"/>
								</g>
								<g>
									<path class="st5" d="M9.6,24c0-0.3-0.4-0.3-0.4,0C9.2,24.2,9.6,24.2,9.6,24L9.6,24z"/>
								</g>
							</g>
						</g>
						<g>
							<g>
								<path class="st5" d="M6,44c0.8-1.6,1.3-3.4,2.1-5c0.1-0.2-0.2-0.5-0.3-0.2c-0.8,1.6-1.4,3.3-2.1,5C5.6,44,5.9,44.2,6,44
									L6,44z"/>
							</g>
							<g>
								<path class="st5" d="M9.3,43.4c0-1.4-0.1-2.7-0.2-4.1c0-0.3-0.4-0.3-0.4,0c0.1,1.4,0.2,2.7,0.2,4.1
									C8.9,43.6,9.3,43.7,9.3,43.4L9.3,43.4z"/>
							</g>
							<g>
								<path class="st5" d="M12,41.4c-0.6-0.9-1.3-1.7-1.9-2.7c-0.1-0.2-0.5,0-0.4,0.2c0.6,0.9,1.3,1.8,2,2.7
									C11.9,41.9,12.2,41.6,12,41.4L12,41.4z"/>
							</g>
						</g>
						<g>
							<g>
								<path class="st5" d="M5.6,15.3c0.8,1.6,1.3,3.4,2.1,5c0.1,0.2,0.5,0,0.4-0.2c-0.8-1.6-1.3-3.4-2.1-5
									C5.8,14.9,5.5,15,5.6,15.3L5.6,15.3z"/>
							</g>
							<g>
								<path class="st5" d="M8.8,15.7c0,1.4-0.1,2.7-0.2,4.1c0,0.3,0.4,0.3,0.4,0c0.1-1.4,0.2-2.7,0.2-4.1
									C9.2,15.5,8.8,15.4,8.8,15.7L8.8,15.7z"/>
							</g>
							<g>
								<path class="st5" d="M11.6,17.5c-0.7,0.9-1.4,1.8-2,2.7c-0.1,0.2,0.2,0.4,0.3,0.2c0.6-0.9,1.3-1.8,2-2.7
									C12.1,17.5,11.8,17.2,11.6,17.5L11.6,17.5z"/>
							</g>
						</g>
					</g>
				</g>
			</g>
			<g>
				<g>
					<path class="st6" d="M39.5,19.6c2,2.8,2.8,6.8,2.7,10.4c0,5.8-2.7,12.2-9.2,12.8c-0.8,0.1-2.1,0.2-2.9,0
						c-2.8-0.7-5.5-2.6-6-3.5c-0.2-0.4-5.9-0.9-5.9-1.1c0.2-0.6,5.6-4.5,5.7-6.1c0.1-2.7,0.8-4.9,0.4-6.8c-1.5-1.7-4.9-3.9-5.4-4.6
						c0.2,0,5.7-1.7,6.3-2.1c2.4-1.6,4.3-2.7,7.3-2.7C36,16,37.9,17.4,39.5,19.6z"/>
					<g>
						<path class="st4" d="M20.9,37.5c0.8-0.1,1.6-0.1,2.4-0.1c0.8,0,0.7-0.4,0.6-1.1c0-0.2,0-0.9-0.2-1.1c-0.2-0.2-0.4,0.1-0.7,0.3
							c-0.6,0.5-1.1,0.9-1.7,1.3C21.1,37,20.7,37.2,20.9,37.5z"/>
						<path class="st4" d="M21.8,21.2c1.1,0.6,2.4,1.2,3.6,1.5c0.2-0.4,0.2-0.9,0.3-1.4c0.1-0.3,0.3-0.8,0.1-1
							c-0.2-0.3-0.4-0.1-0.8,0C24.2,20.5,23.3,20.9,21.8,21.2z"/>
					</g>
					<g>
						<path class="st3" d="M34.9,34.4c-1.1-4.4-7-1.4-6,2.5c0.9,3.8,5,2.5,5.9-0.7C35,35.5,35,34.9,34.9,34.4z"/>
						<path class="st3" d="M29.2,22.8c0,0.1,0,0.2,0,0.2c-0.2,1.3,0.4,2.6,1.4,3.4c1.2,1,3.1,0.9,4.2-0.2c1.5-1.4,0.6-3-0.6-4.3
							c-0.6-0.7-1.5-1.3-2.5-1.3C30.5,20.7,29.5,21.6,29.2,22.8z"/>
					</g>
				</g>
				<g>
					<g>
						<g>
							<path class="st5" d="M33.3,34.1c0-0.7-1.1-0.8-1.1-0.1C32.1,34.8,33.3,34.8,33.3,34.1L33.3,34.1z"/>
						</g>
						<g>
							<path class="st5" d="M33.4,25c0-0.7-1.1-0.8-1.1-0.1C32.3,25.7,33.4,25.8,33.4,25L33.4,25z"/>
						</g>
					</g>
					<g>
						<g>
							<path class="st5" d="M36.7,32.6c1.9-0.7,0.3-2.7-0.9-3.2c0,0.1,0,0.3,0,0.4c1.8-0.4,2.3-2.3,0.3-2.9
								c-0.3-0.1-0.4,0.3-0.1,0.4c1.6,0.5,1,1.8-0.3,2.1c-0.2,0-0.2,0.3,0,0.4c0.8,0.4,2.3,1.9,0.8,2.5
								C36.3,32.3,36.5,32.7,36.7,32.6L36.7,32.6z"/>
						</g>
						<path class="st4" d="M36.1,29.7c0,0.4-0.2,0.7-0.5,1c-0.1,0.1-0.9,0.5-1,0.3c-0.2-0.7-0.2-1.9,0-2.6
							C35.5,28.1,36.1,28.9,36.1,29.7z"/>
					</g>
					<g>
						<g>
							<g>
								<g>
									<path class="st5" d="M35.7,37c0-0.3-0.4-0.3-0.4,0C35.3,37.2,35.7,37.3,35.7,37L35.7,37z"/>
								</g>
								<g>
									<path class="st5" d="M37.1,36.3C37.1,36.3,37.1,36.3,37.1,36.3c-0.1-0.3-0.5-0.2-0.4,0c0,0,0,0,0,0
										C36.8,36.7,37.2,36.6,37.1,36.3L37.1,36.3z"/>
								</g>
								<g>
									<path class="st5" d="M35.8,35.9c0-0.3-0.4-0.3-0.4,0C35.3,36.2,35.7,36.2,35.8,35.9L35.8,35.9z"/>
								</g>
							</g>
							<g>
								<g>
									<path class="st5" d="M35.7,24.4c0-0.3-0.4-0.3-0.4,0C35.3,24.7,35.7,24.7,35.7,24.4L35.7,24.4z"/>
								</g>
								<g>
									<path class="st5" d="M35.7,23.1c0-0.3-0.4-0.3-0.4,0C35.3,23.3,35.7,23.4,35.7,23.1L35.7,23.1z"/>
								</g>
								<g>
									<path class="st5" d="M36.7,23.9c0-0.3-0.4-0.3-0.4,0C36.3,24.2,36.7,24.2,36.7,23.9L36.7,23.9z"/>
								</g>
							</g>
						</g>
						<g>
							<g>
								<path class="st5" d="M33.1,44c0.8-1.6,1.3-3.4,2.1-5c0.1-0.2-0.2-0.5-0.3-0.2c-0.8,1.6-1.4,3.3-2.1,5
									C32.6,44,32.9,44.2,33.1,44L33.1,44z"/>
							</g>
							<g>
								<path class="st5" d="M36.4,43.3c0-1.4-0.1-2.7-0.2-4.1c0-0.3-0.4-0.3-0.4,0c0.1,1.4,0.2,2.7,0.2,4.1
									C36,43.6,36.4,43.6,36.4,43.3L36.4,43.3z"/>
							</g>
							<g>
								<path class="st5" d="M39.1,41.4c-0.6-0.9-1.3-1.7-1.9-2.7c-0.1-0.2-0.5,0-0.4,0.2c0.6,0.9,1.3,1.8,2,2.7
									C38.9,41.9,39.2,41.6,39.1,41.4L39.1,41.4z"/>
							</g>
						</g>
						<g>
							<g>
								<path class="st5" d="M32.6,15.2c0.8,1.6,1.3,3.4,2.1,5c0.1,0.2,0.5,0,0.4-0.2c-0.8-1.6-1.3-3.4-2.1-5
									C32.9,14.8,32.5,15,32.6,15.2L32.6,15.2z"/>
							</g>
							<g>
								<path class="st5" d="M35.9,15.7c0,1.4-0.1,2.7-0.2,4.1c0,0.3,0.4,0.3,0.4,0c0.1-1.4,0.2-2.7,0.2-4.1
									C36.3,15.4,35.9,15.4,35.9,15.7L35.9,15.7z"/>
							</g>
							<g>
								<path class="st5" d="M38.6,17.4c-0.7,0.9-1.4,1.8-2,2.7c-0.1,0.2,0.2,0.4,0.3,0.2c0.6-0.9,1.3-1.8,2-2.7
									C39.1,17.4,38.8,17.2,38.6,17.4L38.6,17.4z"/>
							</g>
						</g>
					</g>
				</g>
			</g>
			<g>
				<g>
					<g>
						<path class="st2" d="M161.5,33.2c0.3-0.1,1.1-0.1,0.9-0.6c-0.2-0.5-2.4-0.8-1.9-1.4c0.4-0.6,2.5-0.3,2.6-1.2
							c0-0.6-1.9-0.9-2.3-1.2c0.3-0.4,2.1-0.8,1.9-1.5c-0.1-0.3-1-0.4-1.3-0.4c-0.6,0-1.1-0.1-1.7-0.2c0.2,1.7-0.4,3.7-0.5,6.1
							c0,0.2-0.1,0.5-0.3,0.7C159.7,33.4,160.6,33.3,161.5,33.2z"/>
						<path class="st2" d="M176.1,30.5c0,0.6,0.9,1.1,1.4,1.3c0-0.3,0-0.6,0-0.9c0-0.5,0-0.9,0-1.4c-0.1,0-0.3,0.1-0.3,0.1
							C176.8,29.8,176.1,30,176.1,30.5z"/>
						<path class="st2" d="M176.7,33.2c-0.5,0.2-0.6,0.3-0.3,0.8c0.2,0.3,0.4,0.6,0.7,0.9c0.1-0.6,0.3-1.3,0.3-1.9
							C177.1,33,176.9,33.1,176.7,33.2z"/>
						<path class="st3" d="M160.5,19.4c-0.6,0.4-6.1,2.1-6.3,2.1c0.5,0.7,3.9,2.9,5.4,4.6c0.1,0.2,0.1,0.4,0.1,0.7
							c0.6,0.1,1.1,0.1,1.7,0.2c0.2,0,1.2,0,1.3,0.4c0.2,0.7-1.6,1.1-1.9,1.5c0.4,0.3,2.3,0.6,2.3,1.2c-0.1,0.9-2.2,0.6-2.6,1.2
							c-0.5,0.6,1.8,0.8,1.9,1.4c0.2,0.5-0.5,0.5-0.9,0.6c-0.9,0.2-1.7,0.2-2.6,0.5c-1.1,1.8-5.2,4.8-5.4,5.4c0,0.2,5.7,0.7,5.9,1.1
							c0.3,0.6,1.5,1.5,2.9,2.3c0.4-0.3,0.9-0.5,1.3-0.8c0.7-0.4,2.1-1.1,2.4,0.1c0.2,0.7-0.5,1.7,0.3,2c0,0,0.1,0,0.1,0
							c0.6,0,1.3,0,1.8-0.1c5-0.4,7.7-4.4,8.7-8.8c-0.2-0.3-0.5-0.6-0.7-0.9c-0.3-0.5-0.2-0.6,0.3-0.8c0.2-0.1,0.4-0.1,0.7-0.2
							c0-0.4,0.1-0.8,0.1-1.2c-0.5-0.3-1.4-0.7-1.4-1.3c0-0.5,0.7-0.7,1.1-0.9c0.1,0,0.2-0.1,0.3-0.1c0-0.5-0.1-1-0.1-1.5
							c0,0,0,0,0,0c-0.5-0.2-1-0.4-0.7-0.9c0.1-0.2,0.3-0.4,0.5-0.6c-0.4-2.2-1.2-4.3-2.4-6c-1.6-2.2-3.5-3.7-6.9-3.7
							C164.9,16.7,162.9,17.8,160.5,19.4z"/>
						<path class="st2" d="M177.3,27.9C177.3,28,177.3,28,177.3,27.9c0-0.5-0.1-1-0.2-1.5c-0.2,0.2-0.4,0.4-0.5,0.6
							C176.3,27.6,176.8,27.8,177.3,27.9z"/>
						<path class="st2" d="M166.1,41.7c-0.3-1.1-1.8-0.5-2.4-0.1c-0.4,0.3-0.9,0.5-1.3,0.8c0.9,0.5,2,0.9,3.1,1.2
							c0.3,0.1,0.7,0.1,1.1,0.1c0,0-0.1,0-0.1,0C165.6,43.4,166.3,42.4,166.1,41.7z"/>
						<path class="st2" d="M170.2,25.8c-0.1,0.9-0.7,1.7-1.8,2.1c-1.6,0.6-2.8-0.9-3-2.4c-0.2-1.3,0.5-3.6,2.1-3.3
							C169.4,22.5,170.5,23.8,170.2,25.8z"/>
					</g>
					<g>
						<path class="st4" d="M156.2,38.3c0.8-0.1,1.6-0.1,2.4-0.1c0.8,0,0.7-0.4,0.6-1.1c0-0.2,0-0.9-0.2-1.1
							c-0.2-0.2-0.4,0.1-0.7,0.3c-0.6,0.5-1.1,0.9-1.7,1.3C156.3,37.8,155.9,38,156.2,38.3z"/>
						<path class="st4" d="M157,22c1.1,0.6,2.4,1.2,3.6,1.5c0.2-0.4,0.2-0.9,0.3-1.4c0.1-0.3,0.3-0.8,0.1-1c-0.2-0.3-0.4-0.1-0.8,0
							C159.5,21.3,158.5,21.8,157,22z"/>
					</g>
				</g>
				<g>
					<g>
						<g>
							<path class="st5" d="M168.5,34.9c0-0.7-1.1-0.8-1.1-0.1C167.3,35.6,168.5,35.6,168.5,34.9L168.5,34.9z"/>
						</g>
						<g>
							<path class="st5" d="M168.7,25.9c0-0.7-1.1-0.8-1.1-0.1C167.5,26.5,168.6,26.6,168.7,25.9L168.7,25.9z"/>
						</g>
					</g>
					<g>
						<g>
							<path class="st5" d="M172,33.4c1.9-0.7,0.3-2.7-0.9-3.2c0,0.1,0,0.3,0,0.4c1.8-0.4,2.3-2.3,0.3-2.9c-0.3-0.1-0.4,0.3-0.1,0.4
								c1.6,0.5,1,1.8-0.3,2.1c-0.2,0-0.2,0.3,0,0.4c0.8,0.4,2.3,1.9,0.8,2.5C171.5,33.1,171.7,33.5,172,33.4L172,33.4z"/>
						</g>
						<path class="st4" d="M171.3,30.5c0,0.4-0.2,0.7-0.5,1c-0.1,0.1-0.9,0.5-1,0.3c-0.2-0.7-0.2-1.9,0-2.6
							C170.7,28.9,171.4,29.7,171.3,30.5z"/>
					</g>
					<g>
						<g>
							<g>
								<g>
									<path class="st5" d="M171,37.8c0-0.3-0.4-0.3-0.4,0C170.5,38,171,38.1,171,37.8L171,37.8z"/>
								</g>
								<g>
									<path class="st5" d="M172.3,37.2C172.3,37.1,172.3,37.1,172.3,37.2c-0.1-0.3-0.5-0.2-0.4,0c0,0,0,0,0,0
										C172,37.5,172.4,37.4,172.3,37.2L172.3,37.2z"/>
								</g>
								<g>
									<path class="st5" d="M171,36.7c0-0.3-0.4-0.3-0.4,0C170.6,37,171,37,171,36.7L171,36.7z"/>
								</g>
							</g>
							<g>
								<g>
									<path class="st5" d="M171,25.2c0-0.3-0.4-0.3-0.4,0C170.5,25.5,171,25.5,171,25.2L171,25.2z"/>
								</g>
								<g>
									<path class="st5" d="M170.9,23.9c0-0.3-0.4-0.3-0.4,0C170.5,24.2,170.9,24.2,170.9,23.9L170.9,23.9z"/>
								</g>
								<g>
									<path class="st5" d="M171.9,24.8c0-0.3-0.4-0.3-0.4,0C171.5,25,171.9,25,171.9,24.8L171.9,24.8z"/>
								</g>
							</g>
						</g>
						<g>
							<g>
								<path class="st5" d="M168.3,44.8c0.8-1.6,1.3-3.4,2.1-5c0.1-0.2-0.2-0.5-0.3-0.2c-0.8,1.6-1.4,3.3-2.1,5
									C167.8,44.8,168.2,45,168.3,44.8L168.3,44.8z"/>
							</g>
							<g>
								<path class="st5" d="M171.6,44.2c0-1.4-0.1-2.7-0.2-4.1c0-0.3-0.4-0.3-0.4,0c0.1,1.4,0.2,2.7,0.2,4.1
									C171.2,44.4,171.6,44.4,171.6,44.2L171.6,44.2z"/>
							</g>
							<g>
								<path class="st5" d="M174.3,42.2c-0.6-0.9-1.3-1.7-1.9-2.7c-0.1-0.2-0.5,0-0.4,0.2c0.6,0.9,1.3,1.8,2,2.7
									C174.2,42.7,174.5,42.4,174.3,42.2L174.3,42.2z"/>
							</g>
						</g>
						<g>
							<g>
								<path class="st5" d="M167.9,16c0.8,1.6,1.3,3.4,2.1,5c0.1,0.2,0.5,0,0.4-0.2c-0.8-1.6-1.3-3.4-2.1-5
									C168.1,15.6,167.7,15.8,167.9,16L167.9,16z"/>
							</g>
							<g>
								<path class="st5" d="M171.1,16.5c0,1.4-0.1,2.7-0.2,4.1c0,0.3,0.4,0.3,0.4,0c0.1-1.4,0.2-2.7,0.2-4.1
									C171.5,16.2,171.1,16.2,171.1,16.5L171.1,16.5z"/>
							</g>
							<g>
								<path class="st5" d="M173.9,18.2c-0.7,0.9-1.4,1.8-2,2.7c-0.1,0.2,0.2,0.4,0.3,0.2c0.6-0.9,1.3-1.8,2-2.7
									C174.4,18.2,174,18,173.9,18.2L173.9,18.2z"/>
							</g>
						</g>
					</g>
				</g>
			</g>
			<g>
				<g>
					<path class="st6" d="M201.8,20.4c2,2.8,2.8,6.8,2.7,10.4c0,5.8-2.7,12.2-9.2,12.8c-0.8,0.1-2.1,0.2-2.9,0
						c-2.8-0.7-5.5-2.6-6-3.5c-0.2-0.4-5.9-0.9-5.9-1.1c0.2-0.6,5.6-4.5,5.7-6.1c0.1-2.7,0.8-4.9,0.4-6.8c-1.5-1.7-4.9-3.9-5.4-4.6
						c0.2,0,5.7-1.7,6.3-2.1c2.4-1.6,4.3-2.7,7.3-2.7C198.3,16.7,200.2,18.2,201.8,20.4z"/>
					<g>
						<path class="st4" d="M183.2,38.3c0.8-0.1,1.6-0.1,2.4-0.1c0.8,0,0.7-0.4,0.6-1.1c0-0.2,0-0.9-0.2-1.1
							c-0.2-0.2-0.4,0.1-0.7,0.3c-0.6,0.5-1.1,0.9-1.7,1.3C183.4,37.7,183,37.9,183.2,38.3z"/>
						<path class="st4" d="M184.1,22c1.1,0.6,2.4,1.2,3.6,1.5c0.2-0.4,0.2-0.9,0.3-1.4c0.1-0.3,0.3-0.8,0.1-1
							c-0.2-0.3-0.4-0.1-0.8,0C186.5,21.3,185.6,21.7,184.1,22z"/>
					</g>
					<g>
						<path class="st3" d="M197.2,35.2c-1.1-4.4-7-1.4-6,2.5c0.9,3.8,5,2.5,5.9-0.7C197.3,36.3,197.3,35.7,197.2,35.2z"/>
						<path class="st3" d="M191.5,23.6c0,0.1,0,0.2,0,0.2c-0.2,1.3,0.4,2.6,1.4,3.4c1.2,1,3.1,0.9,4.2-0.2c1.5-1.4,0.6-3-0.6-4.3
							c-0.6-0.7-1.5-1.3-2.5-1.3C192.8,21.4,191.7,22.4,191.5,23.6z"/>
					</g>
				</g>
				<g>
					<g>
						<g>
							<path class="st5" d="M195.6,34.8c0-0.7-1.1-0.8-1.1-0.1C194.4,35.5,195.5,35.6,195.6,34.8L195.6,34.8z"/>
						</g>
						<g>
							<path class="st5" d="M195.7,25.8c0-0.7-1.1-0.8-1.1-0.1C194.5,26.5,195.7,26.5,195.7,25.8L195.7,25.8z"/>
						</g>
					</g>
					<g>
						<g>
							<path class="st5" d="M199,33.4c1.9-0.7,0.3-2.7-0.9-3.2c0,0.1,0,0.3,0,0.4c1.8-0.4,2.3-2.3,0.3-2.9c-0.3-0.1-0.4,0.3-0.1,0.4
								c1.6,0.5,1,1.8-0.3,2.1c-0.2,0-0.2,0.3,0,0.4c0.8,0.4,2.3,1.9,0.8,2.5C198.6,33.1,198.8,33.4,199,33.4L199,33.4z"/>
						</g>
						<path class="st4" d="M198.4,30.4c0,0.4-0.2,0.7-0.5,1c-0.1,0.1-0.9,0.5-1,0.3c-0.2-0.7-0.2-1.9,0-2.6
							C197.8,28.8,198.4,29.6,198.4,30.4z"/>
					</g>
					<g>
						<g>
							<g>
								<g>
									<path class="st5" d="M198,37.8c0-0.3-0.4-0.3-0.4,0C197.6,38,198,38,198,37.8L198,37.8z"/>
								</g>
								<g>
									<path class="st5" d="M199.4,37.1C199.4,37.1,199.3,37.1,199.4,37.1c-0.1-0.3-0.5-0.2-0.4,0c0,0,0,0,0,0
										C199,37.4,199.4,37.4,199.4,37.1L199.4,37.1z"/>
								</g>
								<g>
									<path class="st5" d="M198,36.7c0-0.3-0.4-0.3-0.4,0C197.6,36.9,198,37,198,36.7L198,36.7z"/>
								</g>
							</g>
							<g>
								<g>
									<path class="st5" d="M198,25.2c0-0.3-0.4-0.3-0.4,0C197.6,25.4,198,25.4,198,25.2L198,25.2z"/>
								</g>
								<g>
									<path class="st5" d="M198,23.9c0-0.3-0.4-0.3-0.4,0C197.5,24.1,197.9,24.1,198,23.9L198,23.9z"/>
								</g>
								<g>
									<path class="st5" d="M199,24.7c0-0.3-0.4-0.3-0.4,0C198.5,24.9,199,25,199,24.7L199,24.7z"/>
								</g>
							</g>
						</g>
						<g>
							<g>
								<path class="st5" d="M195.3,44.7c0.8-1.6,1.3-3.4,2.1-5c0.1-0.2-0.2-0.5-0.3-0.2c-0.8,1.6-1.4,3.3-2.1,5
									C194.9,44.7,195.2,45,195.3,44.7L195.3,44.7z"/>
							</g>
							<g>
								<path class="st5" d="M198.6,44.1c0-1.4-0.1-2.7-0.2-4.1c0-0.3-0.4-0.3-0.4,0c0.1,1.4,0.2,2.7,0.2,4.1
									C198.2,44.4,198.6,44.4,198.6,44.1L198.6,44.1z"/>
							</g>
							<g>
								<path class="st5" d="M201.3,42.1c-0.6-0.9-1.3-1.7-1.9-2.7c-0.1-0.2-0.5,0-0.4,0.2c0.6,0.9,1.3,1.8,2,2.7
									C201.2,42.6,201.5,42.3,201.3,42.1L201.3,42.1z"/>
							</g>
						</g>
						<g>
							<g>
								<path class="st5" d="M194.9,16c0.8,1.6,1.3,3.4,2.1,5c0.1,0.2,0.5,0,0.4-0.2c-0.8-1.6-1.3-3.4-2.1-5
									C195.2,15.6,194.8,15.8,194.9,16L194.9,16z"/>
							</g>
							<g>
								<path class="st5" d="M198.2,16.4c0,1.4-0.1,2.7-0.2,4.1c0,0.3,0.4,0.3,0.4,0c0.1-1.4,0.2-2.7,0.2-4.1
									C198.6,16.2,198.2,16.2,198.2,16.4L198.2,16.4z"/>
							</g>
							<g>
								<path class="st5" d="M200.9,18.2c-0.7,0.9-1.4,1.8-2,2.7c-0.1,0.2,0.2,0.4,0.3,0.2c0.6-0.9,1.3-1.8,2-2.7
									C201.4,18.2,201.1,18,200.9,18.2L200.9,18.2z"/>
							</g>
						</g>
					</g>
				</g>
			</g>
			<g>
				<g>
					<g>
						<path class="st2" d="M107.4,33.2c0.3-0.1,1.1-0.1,0.9-0.6c-0.2-0.5-2.4-0.8-1.9-1.4c0.4-0.6,2.5-0.3,2.6-1.2
							c0-0.6-1.9-0.9-2.3-1.2c0.3-0.4,2.1-0.8,1.9-1.5c-0.1-0.3-1-0.4-1.3-0.4c-0.6,0-1.1-0.1-1.7-0.2c0.2,1.7-0.4,3.7-0.5,6.1
							c0,0.2-0.1,0.5-0.3,0.7C105.7,33.5,106.5,33.4,107.4,33.2z"/>
						<path class="st2" d="M122,30.6c0,0.6,0.9,1.1,1.4,1.3c0-0.3,0-0.6,0-0.9c0-0.5,0-0.9,0-1.4c-0.1,0-0.3,0.1-0.3,0.1
							C122.7,29.9,122,30.1,122,30.6z"/>
						<path class="st2" d="M122.6,33.2c-0.5,0.2-0.6,0.3-0.3,0.8c0.2,0.3,0.4,0.6,0.7,0.9c0.1-0.6,0.3-1.3,0.3-1.9
							C123,33.1,122.8,33.2,122.6,33.2z"/>
						<path class="st3" d="M106.4,19.5c-0.6,0.4-6.1,2.1-6.3,2.1c0.5,0.7,3.9,2.9,5.4,4.6c0.1,0.2,0.1,0.4,0.1,0.7
							c0.6,0.1,1.1,0.1,1.7,0.2c0.2,0,1.2,0,1.3,0.4c0.2,0.7-1.6,1.1-1.9,1.5c0.4,0.3,2.3,0.6,2.3,1.2c-0.1,0.9-2.2,0.6-2.6,1.2
							c-0.5,0.6,1.8,0.8,1.9,1.4c0.2,0.5-0.5,0.5-0.9,0.6c-0.9,0.2-1.7,0.2-2.6,0.5c-1.1,1.8-5.2,4.8-5.4,5.4c0,0.2,5.7,0.7,5.9,1.1
							c0.3,0.6,1.5,1.5,2.9,2.3c0.4-0.3,0.9-0.5,1.3-0.8c0.7-0.4,2.1-1.1,2.4,0.1c0.2,0.7-0.5,1.7,0.3,2c0,0,0.1,0,0.1,0
							c0.6,0,1.3,0,1.8-0.1c5-0.4,7.7-4.4,8.7-8.8c-0.2-0.3-0.5-0.6-0.7-0.9c-0.3-0.5-0.2-0.6,0.3-0.8c0.2-0.1,0.4-0.1,0.7-0.2
							c0-0.4,0.1-0.8,0.1-1.2c-0.5-0.3-1.4-0.7-1.4-1.3c0-0.5,0.7-0.7,1.1-0.9c0.1,0,0.2-0.1,0.3-0.1c0-0.5-0.1-1-0.1-1.5
							c0,0,0,0,0,0c-0.5-0.2-1-0.4-0.7-0.9c0.1-0.2,0.3-0.4,0.5-0.6c-0.4-2.2-1.2-4.3-2.4-6c-1.6-2.2-3.5-3.7-6.9-3.7
							C110.8,16.8,108.8,17.9,106.4,19.5z"/>
						<path class="st2" d="M123.2,28C123.2,28,123.2,28,123.2,28c0-0.5-0.1-1-0.2-1.5c-0.2,0.2-0.4,0.4-0.5,0.6
							C122.2,27.7,122.7,27.8,123.2,28z"/>
						<path class="st2" d="M112,41.8c-0.3-1.1-1.8-0.5-2.4-0.1c-0.4,0.3-0.9,0.5-1.3,0.8c0.9,0.5,2,0.9,3.1,1.2
							c0.3,0.1,0.7,0.1,1.1,0.1c0,0-0.1,0-0.1,0C111.5,43.5,112.2,42.5,112,41.8z"/>
						<path class="st2" d="M116.1,25.9c-0.1,0.9-0.7,1.7-1.8,2.1c-1.6,0.6-2.8-0.9-3-2.4c-0.2-1.3,0.5-3.6,2.1-3.3
							C115.3,22.6,116.4,23.9,116.1,25.9z"/>
					</g>
					<g>
						<path class="st4" d="M102.1,38.4c0.8-0.1,1.6-0.1,2.4-0.1c0.8,0,0.7-0.4,0.6-1.1c0-0.2,0-0.9-0.2-1.1
							c-0.2-0.2-0.4,0.1-0.7,0.3c-0.6,0.5-1.1,0.9-1.7,1.3C102.3,37.9,101.8,38.1,102.1,38.4z"/>
						<path class="st4" d="M102.9,22.1c1.1,0.6,2.4,1.2,3.6,1.5c0.2-0.4,0.2-0.9,0.3-1.4c0.1-0.3,0.3-0.8,0.1-1
							c-0.2-0.3-0.4-0.1-0.8,0C105.4,21.4,104.5,21.9,102.9,22.1z"/>
					</g>
				</g>
				<g>
					<g>
						<g>
							<path class="st5" d="M114.4,35c0-0.7-1.1-0.8-1.1-0.1C113.3,35.7,114.4,35.7,114.4,35L114.4,35z"/>
						</g>
						<g>
							<path class="st5" d="M114.6,25.9c0-0.7-1.1-0.8-1.1-0.1C113.4,26.6,114.5,26.7,114.6,25.9L114.6,25.9z"/>
						</g>
					</g>
					<g>
						<g>
							<path class="st5" d="M117.9,33.5c1.9-0.7,0.3-2.7-0.9-3.2c0,0.1,0,0.3,0,0.4c1.8-0.4,2.3-2.3,0.3-2.9
								c-0.3-0.1-0.4,0.3-0.1,0.4c1.6,0.5,1,1.8-0.3,2.1c-0.2,0-0.2,0.3,0,0.4c0.8,0.4,2.3,1.9,0.8,2.5
								C117.4,33.2,117.6,33.6,117.9,33.5L117.9,33.5z"/>
						</g>
						<path class="st4" d="M117.3,30.6c0,0.4-0.2,0.7-0.5,1c-0.1,0.1-0.9,0.5-1,0.3c-0.2-0.7-0.2-1.9,0-2.6
							C116.6,29,117.3,29.8,117.3,30.6z"/>
					</g>
					<g>
						<g>
							<g>
								<g>
									<path class="st5" d="M116.9,37.9c0-0.3-0.4-0.3-0.4,0C116.5,38.1,116.9,38.2,116.9,37.9L116.9,37.9z"/>
								</g>
								<g>
									<path class="st5" d="M118.2,37.2C118.2,37.2,118.2,37.2,118.2,37.2c-0.1-0.3-0.5-0.2-0.4,0c0,0,0,0,0,0
										C117.9,37.6,118.3,37.5,118.2,37.2L118.2,37.2z"/>
								</g>
								<g>
									<path class="st5" d="M116.9,36.8c0-0.3-0.4-0.3-0.4,0C116.5,37.1,116.9,37.1,116.9,36.8L116.9,36.8z"/>
								</g>
							</g>
							<g>
								<g>
									<path class="st5" d="M116.9,25.3c0-0.3-0.4-0.3-0.4,0C116.5,25.6,116.9,25.6,116.9,25.3L116.9,25.3z"/>
								</g>
								<g>
									<path class="st5" d="M116.8,24c0-0.3-0.4-0.3-0.4,0C116.4,24.2,116.8,24.3,116.8,24L116.8,24z"/>
								</g>
								<g>
									<path class="st5" d="M117.8,24.8c0-0.3-0.4-0.3-0.4,0C117.4,25.1,117.8,25.1,117.8,24.8L117.8,24.8z"/>
								</g>
							</g>
						</g>
						<g>
							<g>
								<path class="st5" d="M114.2,44.9c0.8-1.6,1.3-3.4,2.1-5c0.1-0.2-0.2-0.5-0.3-0.2c-0.8,1.6-1.4,3.3-2.1,5
									C113.7,44.9,114.1,45.1,114.2,44.9L114.2,44.9z"/>
							</g>
							<g>
								<path class="st5" d="M117.5,44.2c0-1.4-0.1-2.7-0.2-4.1c0-0.3-0.4-0.3-0.4,0c0.1,1.4,0.2,2.7,0.2,4.1
									C117.1,44.5,117.5,44.5,117.5,44.2L117.5,44.2z"/>
							</g>
							<g>
								<path class="st5" d="M120.2,42.3c-0.6-0.9-1.3-1.7-1.9-2.7c-0.1-0.2-0.5,0-0.4,0.2c0.6,0.9,1.3,1.8,2,2.7
									C120.1,42.8,120.4,42.5,120.2,42.3L120.2,42.3z"/>
							</g>
						</g>
						<g>
							<g>
								<path class="st5" d="M113.8,16.1c0.8,1.6,1.3,3.4,2.1,5c0.1,0.2,0.5,0,0.4-0.2c-0.8-1.6-1.3-3.4-2.1-5
									C114,15.7,113.7,15.9,113.8,16.1L113.8,16.1z"/>
							</g>
							<g>
								<path class="st5" d="M117,16.6c0,1.4-0.1,2.7-0.2,4.1c0,0.3,0.4,0.3,0.4,0c0.1-1.4,0.2-2.7,0.2-4.1
									C117.4,16.3,117,16.3,117,16.6L117,16.6z"/>
							</g>
							<g>
								<path class="st5" d="M119.8,18.3c-0.7,0.9-1.4,1.8-2,2.7c-0.1,0.2,0.2,0.4,0.3,0.2c0.6-0.9,1.3-1.8,2-2.7
									C120.3,18.3,119.9,18.1,119.8,18.3L119.8,18.3z"/>
							</g>
						</g>
					</g>
				</g>
			</g>
			<g>
				<g>
					<path class="st6" d="M147.7,20.5c2,2.8,2.8,6.8,2.7,10.4c0,5.8-2.7,12.2-9.2,12.8c-0.8,0.1-2.1,0.2-2.9,0
						c-2.8-0.7-5.5-2.6-6-3.5c-0.2-0.4-5.9-0.9-5.9-1.1c0.2-0.6,5.6-4.5,5.7-6.1c0.1-2.7,0.8-4.9,0.4-6.8c-1.5-1.7-4.9-3.9-5.4-4.6
						c0.2,0,5.7-1.7,6.3-2.1c2.4-1.6,4.3-2.7,7.3-2.7C144.2,16.8,146.1,18.3,147.7,20.5z"/>
					<g>
						<path class="st4" d="M129.1,38.4c0.8-0.1,1.6-0.1,2.4-0.1c0.8,0,0.7-0.4,0.6-1.1c0-0.2,0-0.9-0.2-1.1
							c-0.2-0.2-0.4,0.1-0.7,0.3c-0.6,0.5-1.1,0.9-1.7,1.3C129.3,37.8,128.9,38,129.1,38.4z"/>
						<path class="st4" d="M130,22.1c1.1,0.6,2.4,1.2,3.6,1.5c0.2-0.4,0.2-0.9,0.3-1.4c0.1-0.3,0.3-0.8,0.1-1
							c-0.2-0.3-0.4-0.1-0.8,0C132.4,21.4,131.5,21.8,130,22.1z"/>
					</g>
					<g>
						<path class="st3" d="M143.1,35.3c-1.1-4.4-7-1.4-6,2.5c0.9,3.8,5,2.5,5.9-0.7C143.2,36.4,143.2,35.8,143.1,35.3z"/>
						<path class="st3" d="M137.4,23.7c0,0.1,0,0.2,0,0.2c-0.2,1.3,0.4,2.6,1.4,3.4c1.2,1,3.1,0.9,4.2-0.2c1.5-1.4,0.6-3-0.6-4.3
							c-0.6-0.7-1.5-1.3-2.5-1.3C138.7,21.5,137.7,22.5,137.4,23.7z"/>
					</g>
				</g>
				<g>
					<g>
						<g>
							<path class="st5" d="M141.5,34.9c0-0.7-1.1-0.8-1.1-0.1C140.3,35.6,141.4,35.7,141.5,34.9L141.5,34.9z"/>
						</g>
						<g>
							<path class="st5" d="M141.6,25.9c0-0.7-1.1-0.8-1.1-0.1C140.4,26.6,141.6,26.6,141.6,25.9L141.6,25.9z"/>
						</g>
					</g>
					<g>
						<g>
							<path class="st5" d="M144.9,33.4c1.9-0.7,0.3-2.7-0.9-3.2c0,0.1,0,0.3,0,0.4c1.8-0.4,2.3-2.3,0.3-2.9
								c-0.3-0.1-0.4,0.3-0.1,0.4c1.6,0.5,1,1.8-0.3,2.1c-0.2,0-0.2,0.3,0,0.4c0.8,0.4,2.3,1.9,0.8,2.5
								C144.5,33.2,144.7,33.5,144.9,33.4L144.9,33.4z"/>
						</g>
						<path class="st4" d="M144.3,30.5c0,0.4-0.2,0.7-0.5,1c-0.1,0.1-0.9,0.5-1,0.3c-0.2-0.7-0.2-1.9,0-2.6
							C143.7,28.9,144.3,29.7,144.3,30.5z"/>
					</g>
					<g>
						<g>
							<g>
								<g>
									<path class="st5" d="M143.9,37.8c0-0.3-0.4-0.3-0.4,0C143.5,38.1,143.9,38.1,143.9,37.8L143.9,37.8z"/>
								</g>
								<g>
									<path class="st5" d="M145.3,37.2C145.3,37.2,145.3,37.2,145.3,37.2c-0.1-0.3-0.5-0.2-0.4,0c0,0,0,0,0,0
										C144.9,37.5,145.3,37.5,145.3,37.2L145.3,37.2z"/>
								</g>
								<g>
									<path class="st5" d="M143.9,36.8c0-0.3-0.4-0.3-0.4,0C143.5,37,143.9,37.1,143.9,36.8L143.9,36.8z"/>
								</g>
							</g>
							<g>
								<g>
									<path class="st5" d="M143.9,25.3c0-0.3-0.4-0.3-0.4,0C143.5,25.5,143.9,25.5,143.9,25.3L143.9,25.3z"/>
								</g>
								<g>
									<path class="st5" d="M143.9,24c0-0.3-0.4-0.3-0.4,0C143.4,24.2,143.9,24.2,143.9,24L143.9,24z"/>
								</g>
								<g>
									<path class="st5" d="M144.9,24.8c0-0.3-0.4-0.3-0.4,0C144.5,25,144.9,25.1,144.9,24.8L144.9,24.8z"/>
								</g>
							</g>
						</g>
						<g>
							<g>
								<path class="st5" d="M141.2,44.8c0.8-1.6,1.3-3.4,2.1-5c0.1-0.2-0.2-0.5-0.3-0.2c-0.8,1.6-1.4,3.3-2.1,5
									C140.8,44.8,141.1,45,141.2,44.8L141.2,44.8z"/>
							</g>
							<g>
								<path class="st5" d="M144.6,44.2c0-1.4-0.1-2.7-0.2-4.1c0-0.3-0.4-0.3-0.4,0c0.1,1.4,0.2,2.7,0.2,4.1
									C144.1,44.4,144.6,44.5,144.6,44.2L144.6,44.2z"/>
							</g>
							<g>
								<path class="st5" d="M147.3,42.2c-0.6-0.9-1.3-1.7-1.9-2.7c-0.1-0.2-0.5,0-0.4,0.2c0.6,0.9,1.3,1.8,2,2.7
									C147.1,42.7,147.4,42.4,147.3,42.2L147.3,42.2z"/>
							</g>
						</g>
						<g>
							<g>
								<path class="st5" d="M140.8,16.1c0.8,1.6,1.3,3.4,2.1,5c0.1,0.2,0.5,0,0.4-0.2c-0.8-1.6-1.3-3.4-2.1-5
									C141.1,15.7,140.7,15.9,140.8,16.1L140.8,16.1z"/>
							</g>
							<g>
								<path class="st5" d="M144.1,16.5c0,1.4-0.1,2.7-0.2,4.1c0,0.3,0.4,0.3,0.4,0c0.1-1.4,0.2-2.7,0.2-4.1
									C144.5,16.3,144.1,16.3,144.1,16.5L144.1,16.5z"/>
							</g>
							<g>
								<path class="st5" d="M146.8,18.3c-0.7,0.9-1.4,1.8-2,2.7c-0.1,0.2,0.2,0.4,0.3,0.2c0.6-0.9,1.3-1.8,2-2.7
									C147.3,18.3,147,18.1,146.8,18.3L146.8,18.3z"/>
							</g>
						</g>
					</g>
				</g>
			</g>
		</g>
	</g>
</g>
</svg>
