<?xml version="1.0" encoding="utf-8"?>
<!-- Generator: Adobe Illustrator 26.0.0, SVG Export Plug-In . SVG Version: 6.00 Build 0)  -->
<svg version="1.1" id="Capa_1" xmlns="http://www.w3.org/2000/svg" xmlns:xlink="http://www.w3.org/1999/xlink" x="0px" y="0px"
	 viewBox="0 0 188.9 62.2" style="enable-background:new 0 0 188.9 62.2;" xml:space="preserve">
<style type="text/css">
	.st0{clip-path:url(#SVGID_00000150823265106310181130000000975611254112899228_);fill:#50FA7B;}
</style>
<g>
	<defs>
		<polygon id="SVGID_1_" points="180,49 181.6,47.6 181.8,44.5 179.8,40.4 179.8,37.4 179.1,34.5 179.2,32.8 178.6,31 179.2,29.9 
			179.5,28.3 181.2,26.4 179.9,23.7 177.8,20.7 179.5,19.8 179.2,18.9 180.3,17.6 179.4,16.5 180.4,14.2 180,11.7 180,11.6 
			11.7,11.6 11.6,12.8 8.8,13.8 9.3,15.6 9.9,18.5 8.9,21.1 7.9,27.7 8.5,29.2 6.2,31.3 5.8,32.7 10.7,35.5 9.7,36.9 9.5,40.1 
			10.9,40.9 12.4,42.8 9.4,42.9 9.9,45.9 11.3,48.5 14.3,49.8 12.6,50.6 180.7,50.6 		"/>
	</defs>
	<clipPath id="SVGID_00000165937479155755150530000012539068402157477017_">
		<use xlink:href="#SVGID_1_"  style="overflow:visible;"/>
	</clipPath>
	<polygon style="clip-path:url(#SVGID_00000165937479155755150530000012539068402157477017_);fill:#50FA7B;" points="185.5,49 
		187.2,47.6 187.4,44.5 185.3,40.4 185.3,37.4 184.6,34.5 184.6,32.8 184,31 184.7,29.9 185,28.3 186.8,26.4 185.4,23.7 183.1,20.7 
		185,19.8 184.7,18.9 185.8,17.6 184.9,16.5 185.9,14.2 185.5,11.7 185.5,11.6 6.5,11.6 6.4,12.8 3.4,13.8 3.9,15.6 4.6,18.5 
		3.5,21.1 2.5,27.7 3.1,29.2 0.6,31.3 0.2,32.7 5.4,35.5 4.3,36.9 4.1,40.1 5.6,40.9 7.2,42.8 4,42.9 4.6,45.9 6,48.5 9.2,49.8 
		7.4,50.6 186.2,50.6 	"/>
</g>
</svg>
