<?xml version="1.0" encoding="utf-8"?>
<!-- Generator: Adobe Illustrator 26.0.0, SVG Export Plug-In . SVG Version: 6.00 Build 0)  -->
<svg version="1.1" id="Capa_1" xmlns="http://www.w3.org/2000/svg" xmlns:xlink="http://www.w3.org/1999/xlink" x="0px" y="0px"
	 viewBox="0 0 188.9 62.2" style="enable-background:new 0 0 188.9 62.2;" xml:space="preserve">
<style type="text/css">
	.st0{clip-path:url(#SVGID_00000072259227697119962570000002631720759884641955_);}
	.st1{fill:#563A09;}
	.st2{opacity:0.38;fill-rule:evenodd;clip-rule:evenodd;fill:#FFFFFF;enable-background:new    ;}
	.st3{opacity:0.69;fill-rule:evenodd;clip-rule:evenodd;fill:#FFFFFF;enable-background:new    ;}
</style>
<g>
	<defs>
		<polygon id="SVGID_1_" points="172.2,51.9 172.7,51.4 172.9,49.5 171.6,45.7 172.4,41.4 170.5,36.6 171.5,35.4 173.7,33.2 
			174.4,30.3 174.5,25 176,23.5 172.4,20.4 172.4,16.9 173,15.4 172.8,15.1 8.1,15.1 7,17.2 8,19.6 6.7,26.1 5.2,30 7.1,32.2 
			7,37.3 6,39.6 7.4,46.2 6.5,47.8 5.3,49 9.7,50.3 10.5,52.5 172.3,52.9 		"/>
	</defs>
	<clipPath id="SVGID_00000180325691186377819230000009965961151632692671_">
		<use xlink:href="#SVGID_1_"  style="overflow:visible;"/>
	</clipPath>
	<g style="clip-path:url(#SVGID_00000180325691186377819230000009965961151632692671_);">
		<polygon class="st1" points="172.2,51.9 172.7,51.4 172.9,49.5 171.6,45.7 172.4,41.4 170.5,36.6 171.5,35.4 173.7,33.2 
			174.4,30.3 174.5,25 176,23.5 172.4,20.4 172.4,16.9 173,15.4 172.8,15.1 8.1,15.1 7,17.2 8,19.6 6.7,26.1 5.2,30 7.1,32.1 
			7,37.3 6,39.6 7.4,46.2 6.5,47.8 5.3,49 9.7,50.3 10.5,52.5 172.3,52.9 		"/>
		<polygon class="st2" points="3.1,0 3.1,4.3 7.3,0 		"/>
		<polygon class="st2" points="3.1,29.5 32.6,0 24.6,0 3.1,21.6 		"/>
		<polygon class="st2" points="3.1,54.7 57.8,0 49.8,0 3.1,46.8 		"/>
		<polygon class="st2" points="75.1,0 12.8,62.2 20.8,62.2 83,0 		"/>
		<polygon class="st2" points="100.3,0 38,62.2 46,62.2 108.2,0 		"/>
		<polygon class="st2" points="125.5,0 63.2,62.2 71.2,62.2 133.4,0 		"/>
		<polygon class="st2" points="150.7,0 88.5,62.2 96.4,62.2 158.6,0 		"/>
		<polygon class="st2" points="175.9,0 113.7,62.2 121.6,62.2 183.9,0 		"/>
		<polygon class="st2" points="188.9,12.2 138.9,62.2 146.8,62.2 188.9,20.1 		"/>
		<polygon class="st2" points="188.9,37.4 164.1,62.2 172,62.2 188.9,45.4 		"/>
		<polygon class="st3" points="0,36.1 0,44.7 14.1,58.8 22.7,58.8 		"/>
		<polygon class="st3" points="3.1,11.9 3.1,20.5 44.8,62.2 53.4,62.2 		"/>
		<polygon class="st3" points="9.9,0 72.2,62.2 80.8,62.2 18.5,0 		"/>
		<polygon class="st3" points="37.2,0 99.5,62.2 108.1,62.2 45.8,0 		"/>
		<polygon class="st3" points="64.6,0 126.8,62.2 135.4,62.2 73.2,0 		"/>
		<polygon class="st3" points="91.9,0 154.1,62.2 162.7,62.2 100.5,0 		"/>
		<polygon class="st3" points="119.2,0 181.4,62.2 183.4,62.2 186.7,58.9 127.8,0 		"/>
		<polygon class="st3" points="188.9,33.8 155.1,0 146.5,0 188.9,42.4 		"/>
		<polygon class="st3" points="188.9,6.5 182.4,0 173.8,0 188.9,15.1 		"/>
	</g>
</g>
</svg>
