<?xml version="1.0" encoding="utf-8"?>
<!-- Generator: Adobe Illustrator 26.0.0, SVG Export Plug-In . SVG Version: 6.00 Build 0)  -->
<svg version="1.1" id="Capa_1" xmlns="http://www.w3.org/2000/svg" xmlns:xlink="http://www.w3.org/1999/xlink" x="0px" y="0px"
	 viewBox="0 0 180.4 48.2" style="enable-background:new 0 0 180.4 48.2;" xml:space="preserve">
<style type="text/css">
	.st0{clip-path:url(#SVGID_00000137101669749529152350000015796323279823955895_);fill:#96CFBA;}
	.st1{clip-path:url(#SVGID_00000137101669749529152350000015796323279823955895_);}
	.st2{opacity:0.38;fill-rule:evenodd;clip-rule:evenodd;fill:#FFFFFF;}
	
		.st3{opacity:0.69;clip-path:url(#SVGID_00000137101669749529152350000015796323279823955895_);fill-rule:evenodd;clip-rule:evenodd;fill:#FFFFFF;}
</style>
<g>
	<defs>
		<polygon id="SVGID_1_" points="171.8,42.3 172.2,41.8 172.5,39.8 171.1,36 172,31.7 170.1,27 171.1,25.8 173.3,23.5 174,20.6 
			174.1,15.3 175.6,13.8 172,10.7 172,7.2 172.5,5.7 172.4,5.4 7.7,5.4 6.6,7.5 7.6,10 6.3,16.4 4.8,20.3 6.7,22.5 6.6,27.6 5.5,30 
			6.9,36.5 6.1,38.1 4.9,39.3 9.2,40.7 10.1,42.8 171.9,43.3 		"/>
	</defs>
	<clipPath id="SVGID_00000080918476973681823920000016913314305236530346_">
		<use xlink:href="#SVGID_1_"  style="overflow:visible;"/>
	</clipPath>
	<polygon style="clip-path:url(#SVGID_00000080918476973681823920000016913314305236530346_);fill:#96CFBA;" points="171.8,42.3 
		172.2,41.8 172.5,39.8 171.1,36 172,31.7 170.1,27 171.1,25.8 173.3,23.5 174,20.6 174.1,15.3 175.6,13.8 172,10.7 172,7.2 
		172.5,5.7 172.4,5.4 7.7,5.4 6.6,7.5 7.6,10 6.3,16.4 4.8,20.3 6.7,22.5 6.6,27.6 5.5,30 6.9,36.5 6.1,38.1 4.9,39.3 9.2,40.7 
		10.1,42.8 171.9,43.3 	"/>
	<g style="clip-path:url(#SVGID_00000080918476973681823920000016913314305236530346_);">
		<polygon class="st2" points="2.6,-9.7 2.6,-5.4 6.9,-9.7 		"/>
		<polygon class="st2" points="2.6,19.9 32.1,-9.7 24.2,-9.7 2.6,11.9 		"/>
		<polygon class="st2" points="2.6,45.1 57.4,-9.7 49.4,-9.7 2.6,37.1 		"/>
		<polygon class="st2" points="74.6,-9.7 12.4,52.6 20.3,52.6 82.6,-9.7 		"/>
		<polygon class="st2" points="99.8,-9.7 37.6,52.6 45.6,52.6 107.8,-9.7 		"/>
		<polygon class="st2" points="125.1,-9.7 62.8,52.6 70.8,52.6 133,-9.7 		"/>
		<polygon class="st2" points="150.3,-9.7 88,52.6 96,52.6 158.2,-9.7 		"/>
		<polygon class="st2" points="175.5,-9.7 113.3,52.6 121.2,52.6 183.4,-9.7 		"/>
		<polygon class="st2" points="188.5,2.6 138.5,52.6 146.4,52.6 188.5,10.5 		"/>
		<polygon class="st2" points="188.5,27.8 163.7,52.6 171.6,52.6 188.5,35.7 		"/>
	</g>
	
		<polygon style="opacity:0.69;clip-path:url(#SVGID_00000080918476973681823920000016913314305236530346_);fill-rule:evenodd;clip-rule:evenodd;fill:#FFFFFF;" points="
		-0.4,26.5 -0.4,35.1 13.7,49.2 22.3,49.2 	"/>
	
		<polygon style="opacity:0.69;clip-path:url(#SVGID_00000080918476973681823920000016913314305236530346_);fill-rule:evenodd;clip-rule:evenodd;fill:#FFFFFF;" points="
		2.6,2.2 2.6,10.8 44.4,52.6 53,52.6 	"/>
	
		<polygon style="opacity:0.69;clip-path:url(#SVGID_00000080918476973681823920000016913314305236530346_);fill-rule:evenodd;clip-rule:evenodd;fill:#FFFFFF;" points="
		9.5,-9.7 71.7,52.6 80.3,52.6 18.1,-9.7 	"/>
	
		<polygon style="opacity:0.69;clip-path:url(#SVGID_00000080918476973681823920000016913314305236530346_);fill-rule:evenodd;clip-rule:evenodd;fill:#FFFFFF;" points="
		36.8,-9.7 99.1,52.6 107.7,52.6 45.4,-9.7 	"/>
	
		<polygon style="opacity:0.69;clip-path:url(#SVGID_00000080918476973681823920000016913314305236530346_);fill-rule:evenodd;clip-rule:evenodd;fill:#FFFFFF;" points="
		64.1,-9.7 126.4,52.6 135,52.6 72.7,-9.7 	"/>
	
		<polygon style="opacity:0.69;clip-path:url(#SVGID_00000080918476973681823920000016913314305236530346_);fill-rule:evenodd;clip-rule:evenodd;fill:#FFFFFF;" points="
		91.5,-9.7 153.7,52.6 162.3,52.6 100.1,-9.7 	"/>
	
		<polygon style="opacity:0.69;clip-path:url(#SVGID_00000080918476973681823920000016913314305236530346_);fill-rule:evenodd;clip-rule:evenodd;fill:#FFFFFF;" points="
		118.8,-9.7 181,52.6 183,52.6 186.3,49.3 127.4,-9.7 	"/>
	
		<polygon style="opacity:0.69;clip-path:url(#SVGID_00000080918476973681823920000016913314305236530346_);fill-rule:evenodd;clip-rule:evenodd;fill:#FFFFFF;" points="
		188.5,24.1 154.7,-9.7 146.1,-9.7 188.5,32.7 	"/>
	
		<polygon style="opacity:0.69;clip-path:url(#SVGID_00000080918476973681823920000016913314305236530346_);fill-rule:evenodd;clip-rule:evenodd;fill:#FFFFFF;" points="
		188.5,-3.2 182,-9.7 173.4,-9.7 188.5,5.4 	"/>
</g>
</svg>
