<?xml version="1.0" encoding="utf-8"?>
<!-- Generator: Adobe Illustrator 26.0.0, SVG Export Plug-In . SVG Version: 6.00 Build 0)  -->
<svg version="1.1" id="Capa_1" xmlns="http://www.w3.org/2000/svg" xmlns:xlink="http://www.w3.org/1999/xlink" x="0px" y="0px"
	 viewBox="0 0 188.9 62.2" style="enable-background:new 0 0 188.9 62.2;" xml:space="preserve">
<style type="text/css">
	.st0{clip-path:url(#SVGID_00000132083234511141342070000004796762881742050221_);fill:#858499;}
	.st1{clip-path:url(#SVGID_00000132083234511141342070000004796762881742050221_);fill:#D5CACB;}
</style>
<g>
	<defs>
		<polygon id="SVGID_1_" points="5.9,12.9 5.4,13.4 5.2,15.6 6.6,19.7 5.7,24.4 7.7,29.6 6.7,30.9 4.2,33.3 3.5,36.5 3.4,42.3 
			1.8,43.9 5.7,47.3 5.7,51.2 5.1,52.8 5.2,53.1 184.8,53.1 186.1,50.8 185,48.1 186.4,41.1 188,36.8 185.9,34.5 186.1,28.9 
			187.2,26.3 185.7,19.2 186.6,17.4 187.9,16.1 183.2,14.6 182.2,12.3 5.8,11.8 		"/>
	</defs>
	<clipPath id="SVGID_00000071550541481293829510000016871619273254621623_">
		<use xlink:href="#SVGID_1_"  style="overflow:visible;"/>
	</clipPath>
	<polygon style="clip-path:url(#SVGID_00000071550541481293829510000016871619273254621623_);fill:#858499;" points="5.9,12.9 
		5.4,13.4 5.2,15.6 6.6,19.7 5.7,24.4 7.7,29.6 6.7,30.9 4.2,33.3 3.5,36.5 3.4,42.3 1.8,43.9 5.7,47.3 5.7,51.2 5.1,52.8 5.2,53.1 
		184.8,53.1 186.1,50.8 185,48.1 186.4,41.1 188,36.8 185.9,34.5 186.1,28.9 187.2,26.3 185.7,19.2 186.6,17.4 187.9,16.1 
		183.2,14.6 182.2,12.3 5.8,11.8 	"/>
	<path style="clip-path:url(#SVGID_00000071550541481293829510000016871619273254621623_);fill:#D5CACB;" d="M43.3,16
		c-0.6-0.1-1.3-0.2-2.1-0.2c0.7-0.2,1.4-0.5,1.9-0.6c2.1-0.8,7.5-1.4,7-3.2c-0.5-1.8-5.4,0.2-7.4,0.6c-0.4,0.1-1.1,0.2-1.7,0.4
		c0.5-0.4,0.9-0.7,1.2-1c1.8-1.6,6.9-4.2,5.7-5.8c-1.2-1.7-5.4,2.4-7.4,3.7c-0.5,0.3-1.2,0.8-1.9,1.3c0.2-0.4,0.4-0.8,0.6-1.2
		c1-2.1,5.1-7.5,3.1-8.6c-2-1.1-4.4,5.1-5.7,7c-0.1,0.1-0.2,0.3-0.3,0.4c0.1-0.5,0.1-1,0.1-1.4c0.2-2.1,1.6-7.1-0.2-7.4
		c-2-0.3-2.3,5.5-2.7,7.5c-0.1,0.4-0.2,1-0.3,1.6c-0.2-0.8-0.5-1.6-0.7-2.1c-0.7-1.9-1.6-7.3-3.4-6.8c-1.9,0.5,0.3,6.2,0.6,7.9
		c0,0.2,0.1,0.4,0.1,0.5c-0.1-0.1-0.1-0.1-0.2-0.2c-1.4-1.7-4.7-7.3-6.5-6c-1.6,1.2,2.4,5.6,3.6,7.3c0.3,0.5,0.7,1.1,1.2,1.7
		c-0.7-0.4-1.4-0.8-1.9-1.1c-1.8-0.9-6.7-4.2-7.6-2.4c-1,1.8,4.6,4.3,6.3,5.4c0.2,0.1,0.5,0.3,0.7,0.5c-0.1,0-0.2,0-0.3,0
		c-2.1-0.2-7.9-1.8-8.1,0.2c-0.3,1.9,5.5,2,7.3,2.4c0.9,0.2,2.4,0.6,3.7,0.7c-1.4,0.2-3,0.7-3.9,0.9c-2.1,0.5-7.3,1.3-6.8,3.1
		c0.6,2,6.3-0.2,8.2-0.7c0.6-0.2,1.3-0.4,2.1-0.6c-0.9,0.6-1.7,1.2-2.3,1.6c-1.7,1.2-7,3.9-5.8,5.6c1.2,1.7,5.8-2.5,7.5-3.7
		c0.8-0.6,2-1.4,2.9-2.3c-0.7,1-1.4,2.1-1.9,2.9c-1,1.6-4.8,6.8-3,7.9c1.6,1.1,4.1-3.8,5.3-5.7c0.2-0.3,0.3-0.6,0.5-0.9
		c0,0.1,0,0.2-0.1,0.3c-0.4,2.1-1.6,7.4,0.3,7.8c1.9,0.3,2.6-5,2.9-7c0.2-1.1,0.4-2.8,0.3-4.2c0.3,1.3,0.8,2.9,1,3.9
		c0.5,2.2,1,7.5,2.9,7.2c1.8-0.4,0.2-5.3-0.3-7.3c-0.1-0.4-0.3-0.9-0.4-1.5c0.2,0.3,0.4,0.6,0.6,0.8c1.2,1.7,4.3,7,6.1,5.9
		c1.7-1.1-1.8-5.6-3.1-7.4c-0.5-0.7-1.4-1.8-2.3-2.7c0.9,0.6,1.9,1.2,2.5,1.5c1.7,1,6.5,4.7,7.7,3c1.1-1.7-3.9-4.6-5.8-5.7
		c-0.3-0.2-0.6-0.3-0.9-0.5c0.3,0.1,0.6,0.1,0.8,0.1c2.1,0.4,6.9,1.8,7.3,0C50.7,17.2,45.5,16.4,43.3,16z"/>
	<path style="clip-path:url(#SVGID_00000071550541481293829510000016871619273254621623_);fill:#D5CACB;" d="M87.2,52.5
		c-0.6-0.1-1.3-0.2-2.1-0.2c0.7-0.2,1.4-0.5,1.9-0.6c2.1-0.8,7.5-1.4,7-3.2c-0.5-1.8-5.4,0.2-7.4,0.6c-0.4,0.1-1.1,0.2-1.7,0.4
		c0.5-0.4,0.9-0.7,1.2-1c1.8-1.6,6.9-4.2,5.7-5.8c-1.2-1.7-5.4,2.4-7.4,3.7c-0.5,0.3-1.2,0.8-1.9,1.3c0.2-0.4,0.4-0.8,0.6-1.2
		c1-2.1,5.1-7.5,3.1-8.6c-2-1.1-4.4,5.1-5.7,7c-0.1,0.1-0.2,0.3-0.3,0.4c0.1-0.5,0.1-1,0.1-1.4c0.2-2.1,1.6-7.1-0.2-7.4
		c-2-0.3-2.3,5.5-2.7,7.5c-0.1,0.4-0.2,1-0.3,1.6c-0.2-0.8-0.5-1.6-0.7-2.1c-0.7-1.9-1.6-7.3-3.4-6.8c-1.9,0.5,0.3,6.2,0.6,7.9
		c0,0.2,0.1,0.4,0.1,0.5c-0.1-0.1-0.1-0.1-0.2-0.2c-1.4-1.7-4.7-7.3-6.5-6c-1.6,1.2,2.4,5.6,3.6,7.3c0.3,0.5,0.7,1.1,1.2,1.7
		c-0.7-0.4-1.4-0.8-1.9-1.1c-1.8-0.9-6.7-4.2-7.6-2.4c-1,1.8,4.6,4.3,6.3,5.4c0.2,0.1,0.5,0.3,0.7,0.5c-0.1,0-0.2,0-0.3,0
		c-2.1-0.2-7.9-1.8-8.1,0.2c-0.3,1.9,5.5,2,7.3,2.4c0.9,0.2,2.4,0.6,3.7,0.7c-1.4,0.2-3,0.7-3.9,0.9c-2.1,0.5-7.3,1.3-6.8,3.1
		c0.6,2,6.3-0.2,8.2-0.7c0.6-0.2,1.3-0.4,2.1-0.6c-0.9,0.6-1.7,1.2-2.3,1.6c-1.7,1.2-7,3.9-5.8,5.6c1.2,1.7,5.8-2.5,7.5-3.7
		c0.8-0.6,2-1.4,2.9-2.3c-0.7,1-1.4,2.1-1.9,2.9c-1,1.6-4.8,6.8-3,7.9c1.6,1.1,4.1-3.8,5.3-5.7c0.2-0.3,0.3-0.6,0.5-0.9
		c0,0.1,0,0.2-0.1,0.3c-0.4,2.1-1.6,7.4,0.3,7.8c1.9,0.3,2.6-5,2.9-7c0.2-1.1,0.4-2.8,0.3-4.2c0.3,1.3,0.8,2.9,1,3.9
		c0.5,2.2,1,7.5,2.9,7.2c1.8-0.4,0.2-5.3-0.3-7.3c-0.1-0.4-0.3-0.9-0.4-1.5c0.2,0.3,0.4,0.6,0.6,0.8c1.2,1.7,4.3,7,6.1,5.9
		c1.7-1.1-1.8-5.6-3.1-7.4c-0.5-0.7-1.4-1.8-2.3-2.7c0.9,0.6,1.9,1.2,2.5,1.5c1.7,1,6.5,4.7,7.7,3c1.1-1.7-3.9-4.6-5.8-5.7
		c-0.3-0.2-0.6-0.3-0.9-0.5c0.3,0.1,0.6,0.1,0.8,0.1c2.1,0.4,6.9,1.8,7.3,0C94.6,53.7,89.4,52.9,87.2,52.5z"/>
	<path style="clip-path:url(#SVGID_00000071550541481293829510000016871619273254621623_);fill:#D5CACB;" d="M136,15.3
		c-0.6-0.1-1.3-0.2-2.1-0.2c0.7-0.2,1.4-0.5,1.9-0.6c2.1-0.8,7.5-1.4,7-3.2c-0.5-1.8-5.4,0.2-7.4,0.6c-0.4,0.1-1.1,0.2-1.7,0.4
		c0.5-0.4,0.9-0.7,1.2-1c1.8-1.6,6.9-4.2,5.7-5.8c-1.2-1.7-5.4,2.4-7.4,3.7c-0.5,0.3-1.2,0.8-1.9,1.3c0.2-0.4,0.4-0.8,0.6-1.2
		c1-2.1,5.1-7.5,3.1-8.6c-2-1.1-4.4,5.1-5.7,7c-0.1,0.1-0.2,0.3-0.3,0.4c0.1-0.5,0.1-1,0.1-1.4c0.2-2.1,1.6-7.1-0.2-7.4
		c-2-0.3-2.3,5.5-2.7,7.5c-0.1,0.4-0.2,1-0.3,1.6c-0.2-0.8-0.5-1.6-0.7-2.1c-0.7-1.9-1.6-7.3-3.4-6.8c-1.9,0.5,0.3,6.2,0.6,7.9
		c0,0.2,0.1,0.4,0.1,0.5c-0.1-0.1-0.1-0.1-0.2-0.2c-1.4-1.7-4.7-7.3-6.5-6c-1.6,1.2,2.4,5.6,3.6,7.3c0.3,0.5,0.7,1.1,1.2,1.7
		c-0.7-0.4-1.4-0.8-1.9-1.1c-1.8-0.9-6.7-4.2-7.6-2.4c-1,1.8,4.6,4.3,6.3,5.4c0.2,0.1,0.5,0.3,0.7,0.5c-0.1,0-0.2,0-0.3,0
		c-2.1-0.2-7.9-1.8-8.1,0.2c-0.3,1.9,5.5,2,7.3,2.4c0.9,0.2,2.4,0.6,3.7,0.7c-1.4,0.2-3,0.7-3.9,0.9c-2.1,0.5-7.3,1.3-6.8,3.1
		c0.6,2,6.3-0.2,8.2-0.7c0.6-0.2,1.3-0.4,2.1-0.6c-0.9,0.6-1.7,1.2-2.3,1.6c-1.7,1.2-7,3.9-5.8,5.6c1.2,1.7,5.8-2.5,7.5-3.7
		c0.8-0.6,2-1.4,2.9-2.3c-0.7,1-1.4,2.1-1.9,2.9c-1,1.6-4.8,6.8-3,7.9c1.6,1.1,4.1-3.8,5.3-5.7c0.2-0.3,0.3-0.6,0.5-0.9
		c0,0.1,0,0.2-0.1,0.3c-0.4,2.1-1.6,7.4,0.3,7.8c1.9,0.3,2.6-5,2.9-7c0.2-1.1,0.4-2.8,0.3-4.2c0.3,1.3,0.8,2.9,1,3.9
		c0.5,2.2,1,7.5,2.9,7.2c1.8-0.4,0.2-5.3-0.3-7.3c-0.1-0.4-0.3-0.9-0.4-1.5c0.2,0.3,0.4,0.6,0.6,0.8c1.2,1.7,4.3,7,6.1,5.9
		c1.7-1.1-1.8-5.6-3.1-7.4c-0.5-0.7-1.4-1.8-2.3-2.7c0.9,0.6,1.9,1.2,2.5,1.5c1.7,1,6.5,4.7,7.7,3c1.1-1.7-3.9-4.6-5.8-5.7
		c-0.3-0.2-0.6-0.3-0.9-0.5c0.3,0.1,0.6,0.1,0.8,0.1c2.1,0.4,6.9,1.8,7.3,0C143.3,16.4,138.1,15.6,136,15.3z"/>
	<path style="clip-path:url(#SVGID_00000071550541481293829510000016871619273254621623_);fill:#D5CACB;" d="M177.6,53
		c-0.6-0.1-1.3-0.2-2.1-0.2c0.7-0.2,1.4-0.5,1.9-0.6c2.1-0.8,7.5-1.4,7-3.2c-0.5-1.8-5.4,0.2-7.4,0.6c-0.4,0.1-1.1,0.2-1.7,0.4
		c0.5-0.4,0.9-0.7,1.2-1c1.8-1.6,6.9-4.2,5.7-5.8c-1.2-1.7-5.4,2.4-7.4,3.7c-0.5,0.3-1.2,0.8-1.9,1.3c0.2-0.4,0.4-0.8,0.6-1.2
		c1-2.1,5.1-7.5,3.1-8.6c-2-1.1-4.4,5.1-5.7,7c-0.1,0.1-0.2,0.3-0.3,0.4c0.1-0.5,0.1-1,0.1-1.4c0.2-2.1,1.6-7.1-0.2-7.4
		c-2-0.3-2.3,5.5-2.7,7.5c-0.1,0.4-0.2,1-0.3,1.6c-0.2-0.8-0.5-1.6-0.7-2.1c-0.7-1.9-1.6-7.3-3.4-6.8c-1.9,0.5,0.3,6.2,0.6,7.9
		c0,0.2,0.1,0.4,0.1,0.5c-0.1-0.1-0.1-0.1-0.2-0.2c-1.4-1.7-4.7-7.3-6.5-6c-1.6,1.2,2.4,5.6,3.6,7.3c0.3,0.5,0.7,1.1,1.2,1.7
		c-0.7-0.4-1.4-0.8-1.9-1.1c-1.8-0.9-6.7-4.2-7.6-2.4c-1,1.8,4.6,4.3,6.3,5.4c0.2,0.1,0.5,0.3,0.7,0.5c-0.1,0-0.2,0-0.3,0
		c-2.1-0.2-7.9-1.8-8.1,0.2c-0.3,1.9,5.5,2,7.3,2.4c0.9,0.2,2.4,0.6,3.7,0.7c-1.4,0.2-3,0.7-3.9,0.9c-2.1,0.5-7.3,1.3-6.8,3.1
		c0.6,2,6.3-0.2,8.2-0.7c0.6-0.2,1.3-0.4,2.1-0.6c-0.9,0.6-1.7,1.2-2.3,1.6c-1.7,1.2-7,3.9-5.8,5.6c1.2,1.7,5.8-2.5,7.5-3.7
		c0.8-0.6,2-1.4,2.9-2.3c-0.7,1-1.4,2.1-1.9,2.9c-1,1.6-4.8,6.8-3,7.9c1.6,1.1,4.1-3.8,5.3-5.7c0.2-0.3,0.3-0.6,0.5-0.9
		c0,0.1,0,0.2-0.1,0.3c-0.4,2.1-1.6,7.4,0.3,7.8c1.9,0.3,2.6-5,2.9-7c0.2-1.1,0.4-2.8,0.3-4.2c0.3,1.3,0.8,2.9,1,3.9
		c0.5,2.2,1,7.5,2.9,7.2c1.8-0.4,0.2-5.3-0.3-7.3c-0.1-0.4-0.3-0.9-0.4-1.5c0.2,0.3,0.4,0.6,0.6,0.8c1.2,1.7,4.3,7,6.1,5.9
		c1.7-1.1-1.8-5.6-3.1-7.4c-0.5-0.7-1.4-1.8-2.3-2.7c0.9,0.6,1.9,1.2,2.5,1.5c1.7,1,6.5,4.7,7.7,3c1.1-1.7-3.9-4.6-5.8-5.7
		c-0.3-0.2-0.6-0.3-0.9-0.5c0.3,0.1,0.6,0.1,0.8,0.1c2.1,0.4,6.9,1.8,7.3,0C185,54.1,179.8,53.3,177.6,53z"/>
</g>
</svg>
