<?xml version="1.0" encoding="utf-8"?>
<!-- Generator: Adobe Illustrator 26.0.0, SVG Export Plug-In . SVG Version: 6.00 Build 0)  -->
<svg version="1.1" id="Capa_1" xmlns="http://www.w3.org/2000/svg" xmlns:xlink="http://www.w3.org/1999/xlink" x="0px" y="0px"
	 viewBox="0 0 188.9 62.2" style="enable-background:new 0 0 188.9 62.2;" xml:space="preserve">
<style type="text/css">
	.st0{fill:#F4C9BA;}
	.st1{clip-path:url(#SVGID_00000129916360299616427420000006188526799827671183_);}
	.st2{fill:none;stroke:#514039;stroke-width:3;stroke-linecap:round;stroke-linejoin:round;stroke-miterlimit:10;}
</style>
<g>
	<path class="st0" d="M2.4,9h183.1c-0.6,0.8-1.3,1.6-2,2.4c-0.8,1.1-1.6,2.4-1.8,3.8c-0.1,0.8,0.3,1.3,0.9,1.8c0.5,0.3,1,0.6,1.5,1
		c0.1,0.1,0.9,0.6,0.9,0.7c-0.1,0.2-0.3,0.4-0.4,0.6c-1.2,1.3-2.9,2.1-4.1,3.5c-0.3,0.4-0.8,0.9-0.6,1.5c0.1,0.6,0.6,1,1.1,1.3
		c0.7,0.4,1.4,0.6,2.2,0.9c0.6,0.3,1.4,0.6,1.5,1.3c0.3,1.5-1.8,2.4-2.8,3.1c-0.4,0.3-0.9,0.8-1.1,1.3c-0.2,0.6,0.2,1.1,0.6,1.5
		c0.6,0.6,1.4,1.1,2.2,1.5c0.2,0.1,1.1,0.5,0.9,0.8c-0.3,0.5-0.7,1-1.2,1.3c-0.8,0.7-1.7,1.3-2.5,2.1c-0.4,0.5,0,0.8,0.3,1.2
		c1.6,2,3.3,3.8,4.9,5.7v0.3H2.1v-0.2c0.9-1.2,2-2.3,2.9-3.5c0.4-0.6,0.9-1.2,1.1-1.9c0.1-0.6-0.1-1.1-0.5-1.6
		c-0.5-0.7-1.2-1.1-1.7-1.8c-0.3-0.4-0.6-0.8-0.6-1.3c0-0.5,0.3-0.9,0.5-1.3c0.6-0.8,1.3-1.4,1.7-2.3c0.4-0.8,0.2-1.6-0.3-2.3
		c-0.4-0.5-0.8-1-1.2-1.6c-0.2-0.4-0.5-0.8-0.4-1.2c0.2-0.9,0.9-1.6,1.5-2.3c0.5-0.5,1.2-1.1,1.3-1.9c0.1-0.6-0.5-1.1-0.9-1.4
		c-0.6-0.5-1.4-1-2-1.6c-0.6-0.7-0.7-1.5-0.2-2.3c0.4-0.7,1.1-1.2,1.5-1.9c0.3-0.5,0.6-1.1,0.3-1.6c-0.1-0.3-0.3-0.5-0.7-0.7
		c-0.3-0.1-0.9-0.2-1.1-0.5c-0.3-0.6,0.2-0.9,0.3-1.4c0.1-0.3,0-0.7-0.1-1C3.5,10.2,3,9.6,2.4,9z"/>
	<g>
		<defs>
			<path id="SVGID_1_" d="M3,9h183.1c-0.6,0.8-1.3,1.6-2,2.4c-0.8,1.1-1.6,2.4-1.8,3.8c-0.1,0.8,0.3,1.3,0.9,1.8
				c0.5,0.3,1,0.6,1.5,1c0.1,0.1,0.9,0.6,0.9,0.7c-0.1,0.2-0.3,0.4-0.4,0.6c-1.2,1.3-2.9,2.1-4.1,3.5c-0.3,0.4-0.8,0.9-0.6,1.5
				c0.1,0.6,0.6,1,1.1,1.3c0.7,0.4,1.4,0.6,2.2,0.9c0.6,0.3,1.4,0.6,1.5,1.3c0.3,1.5-1.8,2.4-2.8,3.1c-0.4,0.3-0.9,0.8-1.1,1.3
				c-0.2,0.6,0.2,1.1,0.6,1.5c0.6,0.6,1.4,1.1,2.2,1.5c0.2,0.1,1.1,0.5,0.9,0.8c-0.3,0.5-0.7,1-1.2,1.3c-0.8,0.7-1.7,1.3-2.5,2.1
				c-0.4,0.5,0,0.8,0.3,1.2c1.6,2,3.3,3.8,4.9,5.7v0.3H2.8v-0.2c0.9-1.2,2-2.3,2.9-3.5c0.4-0.6,0.9-1.2,1.1-1.9
				c0.1-0.6-0.1-1.1-0.5-1.6c-0.5-0.7-1.2-1.1-1.7-1.8C4.3,37.3,4,36.8,4,36.3c0-0.5,0.3-0.9,0.5-1.3c0.6-0.8,1.3-1.4,1.7-2.3
				c0.4-0.8,0.2-1.6-0.3-2.3c-0.4-0.5-0.8-1-1.2-1.6c-0.2-0.4-0.5-0.8-0.4-1.2c0.2-0.9,0.9-1.6,1.5-2.3c0.5-0.5,1.2-1.1,1.3-1.9
				c0.1-0.6-0.5-1.1-0.9-1.4c-0.6-0.5-1.4-1-2-1.6C3.5,19.8,3.5,19,4,18.2c0.4-0.7,1.1-1.2,1.5-1.9c0.3-0.5,0.6-1.1,0.3-1.6
				c-0.1-0.3-0.3-0.5-0.7-0.7c-0.3-0.1-0.9-0.2-1.1-0.5c-0.3-0.6,0.2-0.9,0.3-1.4c0.1-0.3,0-0.7-0.1-1C4.1,10.2,3.6,9.6,3,9z"/>
		</defs>
		<clipPath id="SVGID_00000004534726331858626910000014006591421889295037_">
			<use xlink:href="#SVGID_1_"  style="overflow:visible;"/>
		</clipPath>
		<g style="clip-path:url(#SVGID_00000004534726331858626910000014006591421889295037_);">
			<line class="st2" x1="10.7" y1="13.6" x2="17.6" y2="18"/>
			<line class="st2" x1="29.4" y1="13.6" x2="24.8" y2="18.9"/>
			<line class="st2" x1="38.1" y1="16.7" x2="43.4" y2="22.3"/>
			<line class="st2" x1="33.1" y1="22.3" x2="28.4" y2="27.8"/>
			<line class="st2" x1="20.3" y1="22.3" x2="23.3" y2="30.1"/>
			<line class="st2" x1="14.2" y1="22.3" x2="10.7" y2="27.8"/>
			<line class="st2" x1="38.5" y1="26.2" x2="43.4" y2="31.9"/>
			<line class="st2" x1="36.3" y1="31.9" x2="30.8" y2="37.3"/>
			<line class="st2" x1="45" y1="15.8" x2="50.6" y2="9.3"/>
			<line class="st2" x1="51.9" y1="21" x2="47.8" y2="27.8"/>
			<line class="st2" x1="53.7" y1="14.9" x2="60" y2="19"/>
			<line class="st2" x1="56.2" y1="26.2" x2="61.6" y2="31.9"/>
			<line class="st2" x1="64.9" y1="25.1" x2="69.4" y2="18"/>
			<line class="st2" x1="53.1" y1="31.9" x2="49.9" y2="37.3"/>
			<line class="st2" x1="69.4" y1="29.1" x2="67.2" y2="35.7"/>
			<line class="st2" x1="73.5" y1="22.3" x2="78.8" y2="26.2"/>
			<line class="st2" x1="76.2" y1="31.9" x2="81.8" y2="37.3"/>
			<line class="st2" x1="84.4" y1="30.1" x2="90" y2="22.3"/>
			<line class="st2" x1="75.3" y1="37.8" x2="71.2" y2="44"/>
			<line class="st2" x1="57.3" y1="37.3" x2="61.6" y2="42.7"/>
			<line class="st2" x1="41.3" y1="37.3" x2="45" y2="42.7"/>
			<line class="st2" x1="54.6" y1="42.7" x2="50.6" y2="48.5"/>
			<line class="st2" x1="64.9" y1="15.4" x2="61.6" y2="9"/>
			<line class="st2" x1="69.4" y1="6.6" x2="76.2" y2="12.7"/>
			<line class="st2" x1="79" y1="19" x2="83.3" y2="12.7"/>
			<line class="st2" x1="86.2" y1="19" x2="94.5" y2="15.4"/>
			<line class="st2" x1="97.7" y1="19" x2="102.2" y2="25.1"/>
			<line class="st2" x1="95.4" y1="26.2" x2="95.4" y2="34.6"/>
			<line class="st2" x1="87.2" y1="35.7" x2="92.7" y2="41.3"/>
			<line class="st2" x1="106.9" y1="27.8" x2="102.6" y2="34.6"/>
			<line class="st2" x1="20.3" y1="12.7" x2="23.3" y2="6.6"/>
			<line class="st2" x1="38.9" y1="6.6" x2="33.5" y2="12.7"/>
			<line class="st2" x1="79" y1="42.7" x2="81.8" y2="48.5"/>
			<line class="st2" x1="99.1" y1="41.3" x2="96.8" y2="48.5"/>
			<line class="st2" x1="90" y1="12.7" x2="92.7" y2="5"/>
			<line class="st2" x1="8.9" y1="18.9" x2="2.6" y2="22.1"/>
			<line class="st2" x1="15.9" y1="30.4" x2="21.2" y2="37.3"/>
			<line class="st2" x1="26.4" y1="40.9" x2="23.3" y2="47.5"/>
			<line class="st2" x1="34.9" y1="41.3" x2="38.5" y2="48.5"/>
			<line class="st2" x1="10.7" y1="32.4" x2="4.5" y2="37.6"/>
			<line class="st2" x1="12.4" y1="37.6" x2="15.9" y2="43.3"/>
			<line class="st2" x1="9.8" y1="42.7" x2="6.7" y2="48.5"/>
			<line class="st2" x1="12.4" y1="6.6" x2="5.8" y2="11.1"/>
			<line class="st2" x1="115.6" y1="13.6" x2="122.5" y2="18"/>
			<line class="st2" x1="134.3" y1="13.6" x2="129.7" y2="18.9"/>
			<line class="st2" x1="142.9" y1="16.7" x2="149.2" y2="22.3"/>
			<line class="st2" x1="139.8" y1="22.3" x2="135.1" y2="27.8"/>
			<line class="st2" x1="127" y1="23.2" x2="130.8" y2="31"/>
			<line class="st2" x1="119" y1="22.3" x2="115.6" y2="27.8"/>
			<line class="st2" x1="144.3" y1="26.2" x2="149.2" y2="31.9"/>
			<line class="st2" x1="141.1" y1="31.9" x2="135.7" y2="37.3"/>
			<line class="st2" x1="149.9" y1="15.8" x2="155.5" y2="8.4"/>
			<line class="st2" x1="157.7" y1="21" x2="153.6" y2="27.8"/>
			<line class="st2" x1="158.6" y1="14.9" x2="164.9" y2="19"/>
			<line class="st2" x1="161.1" y1="26.2" x2="166.5" y2="31.9"/>
			<line class="st2" x1="169.8" y1="25.1" x2="174.3" y2="18"/>
			<line class="st2" x1="158" y1="31.9" x2="154.8" y2="37.3"/>
			<line class="st2" x1="174.3" y1="29.1" x2="172.1" y2="35.7"/>
			<line class="st2" x1="178.3" y1="22.3" x2="184.6" y2="24.4"/>
			<line class="st2" x1="180.1" y1="32.8" x2="186.6" y2="37.3"/>
			<line class="st2" x1="178.3" y1="38.7" x2="174.3" y2="44"/>
			<line class="st2" x1="162.2" y1="37.3" x2="166.5" y2="42.7"/>
			<line class="st2" x1="146.2" y1="37.3" x2="149.9" y2="42.7"/>
			<line class="st2" x1="159.5" y1="42.7" x2="155.5" y2="48.5"/>
			<line class="st2" x1="169.8" y1="15.4" x2="166.5" y2="9"/>
			<line class="st2" x1="174.3" y1="6.6" x2="181" y2="12.7"/>
			<line class="st2" x1="125.2" y1="12.7" x2="128.1" y2="6.6"/>
			<line class="st2" x1="143.8" y1="6.6" x2="138.4" y2="12.7"/>
			<line class="st2" x1="183.8" y1="42.7" x2="186.6" y2="48.5"/>
			<line class="st2" x1="113.8" y1="18.9" x2="107.5" y2="22.1"/>
			<line class="st2" x1="120.7" y1="30.4" x2="127.9" y2="37.3"/>
			<line class="st2" x1="131.3" y1="40.9" x2="128.1" y2="47.5"/>
			<line class="st2" x1="139.8" y1="41.3" x2="143.4" y2="48.5"/>
			<line class="st2" x1="115.6" y1="32.4" x2="109.3" y2="37.6"/>
			<line class="st2" x1="118.2" y1="37.6" x2="121.6" y2="43.3"/>
			<line class="st2" x1="117.3" y1="6.6" x2="110.7" y2="11.1"/>
			<line class="st2" x1="102.6" y1="6.6" x2="104.7" y2="15.4"/>
			<line class="st2" x1="66.7" y1="44" x2="63.3" y2="50.1"/>
			<line class="st2" x1="103.7" y1="40.5" x2="109.3" y2="47.1"/>
			<line class="st2" x1="115.6" y1="43.8" x2="115.6" y2="50.1"/>
		</g>
	</g>
</g>
</svg>
