<svg id="Capa_1" data-name="Capa 1" xmlns="http://www.w3.org/2000/svg" xmlns:xlink="http://www.w3.org/1999/xlink" viewBox="0 0 188.91 62.23"><defs><style>.cls-1{fill:none;}.cls-2{clip-path:url(#clip-path);}.cls-3{fill:#96cfba;}.cls-4,.cls-5{fill:#fff;fill-rule:evenodd;}.cls-4{opacity:0.38;}.cls-5{opacity:0.69;}</style><clipPath id="clip-path" transform="translate(0.42 9.66)"><polygon class="cls-1" points="171.82 42.25 172.25 41.78 172.46 39.82 171.13 35.99 172 31.74 170.11 26.97 171.05 25.78 173.3 23.52 173.96 20.64 174.05 15.34 175.57 13.84 171.98 10.74 171.99 7.19 172.54 5.72 172.41 5.45 7.69 5.45 6.57 7.55 7.59 9.96 6.27 16.42 4.81 20.31 6.71 22.49 6.57 27.62 5.54 29.96 6.94 36.51 6.11 38.15 4.92 39.32 9.24 40.68 10.1 42.83 171.88 43.27 171.82 42.25"/></clipPath></defs><g class="cls-2"><polygon class="cls-3" points="172.24 51.91 172.67 51.44 172.88 49.47 171.56 45.65 172.43 41.39 170.53 36.63 171.48 35.43 173.72 33.18 174.38 30.29 174.47 24.99 176 23.5 172.4 20.4 172.42 16.85 172.96 15.38 172.83 15.1 8.11 15.1 6.99 17.2 8.01 19.62 6.7 26.07 5.23 29.96 7.13 32.14 6.99 37.28 5.96 39.61 7.36 46.17 6.54 47.8 5.34 48.98 9.66 50.34 10.53 52.48 172.31 52.92 172.24 51.91"/><polygon class="cls-4" points="3.06 0 3.06 4.29 7.35 0 3.06 0"/><polygon class="cls-4" points="3.06 29.51 32.56 0 24.63 0 3.06 21.57 3.06 29.51"/><polygon class="cls-4" points="3.06 54.72 57.78 0 49.84 0 3.06 46.78 3.06 54.72"/><polygon class="cls-4" points="75.06 0 12.83 62.23 20.76 62.23 82.99 0 75.06 0"/><polygon class="cls-4" points="100.27 0 38.04 62.23 45.98 62.23 108.2 0 100.27 0"/><polygon class="cls-4" points="125.48 0 63.25 62.23 71.19 62.23 133.42 0 125.48 0"/><polygon class="cls-4" points="150.7 0 88.47 62.23 96.4 62.23 158.63 0 150.7 0"/><polygon class="cls-4" points="175.91 0 113.68 62.23 121.62 62.23 183.85 0 175.91 0"/><polygon class="cls-4" points="188.91 12.22 138.9 62.23 146.83 62.23 188.91 20.15 188.91 12.22"/><polygon class="cls-4" points="188.91 37.43 164.11 62.23 172.04 62.23 188.91 45.37 188.91 37.43"/><polygon class="cls-5" points="0 36.12 0 44.71 14.13 58.84 22.73 58.84 0 36.12"/><polygon class="cls-5" points="3.06 11.85 3.06 20.45 44.84 62.23 53.43 62.23 3.06 11.85"/><polygon class="cls-5" points="9.93 0 72.16 62.23 80.75 62.23 18.52 0 9.93 0"/><polygon class="cls-5" points="37.25 0 99.48 62.23 108.07 62.23 45.84 0 37.25 0"/><polygon class="cls-5" points="64.57 0 126.8 62.23 135.39 62.23 73.16 0 64.57 0"/><polygon class="cls-5" points="91.89 0 154.12 62.23 162.71 62.23 100.48 0 91.89 0"/><polygon class="cls-5" points="119.21 0 181.44 62.23 183.4 62.23 186.71 58.91 127.8 0 119.21 0"/><polygon class="cls-5" points="188.91 33.78 155.12 0 146.53 0 188.91 42.38 188.91 33.78"/><polygon class="cls-5" points="188.91 6.46 182.44 0 173.84 0 188.91 15.06 188.91 6.46"/></g></svg>