<?xml version="1.0" encoding="utf-8"?>
<!-- Generator: Adobe Illustrator 26.0.0, SVG Export Plug-In . SVG Version: 6.00 Build 0)  -->
<svg version="1.1" id="Capa_1" xmlns="http://www.w3.org/2000/svg" xmlns:xlink="http://www.w3.org/1999/xlink" x="0px" y="0px"
	 viewBox="0 0 179.6 48.8" style="enable-background:new 0 0 179.6 48.8;" xml:space="preserve">
<style type="text/css">
	.st0{clip-path:url(#SVGID_00000154407237249898581820000004738604472844161178_);fill:#BF8677;}
	.st1{clip-path:url(#SVGID_00000046319017824898545260000015409581006552204161_);fill:#BF8677;}
</style>
<g>
	<g>
		<defs>
			<polygon id="SVGID_1_" points="249.4,2461.7 1880.2,2461.7 1893.8,2485.5 1904,2509.3 1904,2519.5 1895.5,2538.2 1915.9,2565.4 
				1904,2593.4 1910.8,2624.1 1896.3,2641.9 1897.2,2658.1 1907.4,2683.6 1911.6,2700.6 1903.1,2719.3 1915.9,2736.3 1933.8,2762.6 
				1941.4,2790.7 1941.4,2805.2 1921,2816.2 1916.7,2827.3 1916.7,2837.5 1921.8,2852.8 1910.8,2874.9 1905.7,2899.5 1907.4,2923.3 
				294.4,2923.3 280.8,2899.5 268.1,2892.7 272.3,2868.1 266.4,2839.2 275.7,2831.5 268.1,2813.7 278.3,2776.3 263.8,2762.6 
				275.7,2746.5 263,2732 268.9,2696.3 257.9,2680.2 269.8,2662.3 263,2645.3 267.2,2605.3 257.9,2586.6 261.3,2560.3 255.3,2533.9 
				249.4,2509.3 237.5,2496.5 			"/>
		</defs>
		<use xlink:href="#SVGID_1_"  style="overflow:visible;fill:#E6B6A7;"/>
		<clipPath id="SVGID_00000016755470909665314610000000015390222720312713_">
			<use xlink:href="#SVGID_1_"  style="overflow:visible;"/>
		</clipPath>
		
			<rect x="-61.8" y="2535.2" transform="matrix(0.68 -0.7332 0.7332 0.68 -1779.9561 1149.4131)" style="clip-path:url(#SVGID_00000016755470909665314610000000015390222720312713_);fill:#BF8677;" width="977.1" height="157.2"/>
		
			<rect x="328" y="2613.9" transform="matrix(0.68 -0.7332 0.7332 0.68 -1712.9171 1460.427)" style="clip-path:url(#SVGID_00000016755470909665314610000000015390222720312713_);fill:#BF8677;" width="977.1" height="157.2"/>
		
			<rect x="777.1" y="2659.8" transform="matrix(0.68 -0.7332 0.7332 0.68 -1602.8838 1804.3774)" style="clip-path:url(#SVGID_00000016755470909665314610000000015390222720312713_);fill:#BF8677;" width="977.1" height="157.2"/>
		
			<rect x="1200.3" y="2689.4" transform="matrix(0.68 -0.7332 0.7332 0.68 -1489.0851 2124.1465)" style="clip-path:url(#SVGID_00000016755470909665314610000000015390222720312713_);fill:#BF8677;" width="977.1" height="157.2"/>
	</g>
</g>
<g>
	<g>
		<defs>
			<polygon id="SVGID_00000183928325966646452070000012977036148890654115_" points="3.2,0.8 171.6,0.8 173,3.3 174.1,5.7 
				174.1,6.8 173.2,8.7 175.3,11.5 174.1,14.4 174.8,17.6 173.3,19.4 173.4,21.1 174.4,23.7 174.9,25.5 174,27.4 175.3,29.1 
				177.1,31.9 177.9,34.8 177.9,36.3 175.8,37.4 175.4,38.5 175.4,39.6 175.9,41.2 174.8,43.5 174.2,46 174.4,48.5 7.9,48.5 6.5,46 
				5.2,45.3 5.6,42.8 5,39.8 6,39 5.2,37.1 6.2,33.3 4.7,31.9 6,30.2 4.7,28.7 5.3,25 4.1,23.4 5.4,21.5 4.7,19.8 5.1,15.6 
				4.1,13.7 4.5,11 3.9,8.3 3.2,5.7 2,4.4 			"/>
		</defs>
		<use xlink:href="#SVGID_00000183928325966646452070000012977036148890654115_"  style="overflow:visible;fill:#E6B6A7;"/>
		<clipPath id="SVGID_00000178187124508976868600000002938317788636840836_">
			<use xlink:href="#SVGID_00000183928325966646452070000012977036148890654115_"  style="overflow:visible;"/>
		</clipPath>
		
			<rect x="-28.9" y="8.4" transform="matrix(0.68 -0.7332 0.7332 0.68 -5.1987 21.089)" style="clip-path:url(#SVGID_00000178187124508976868600000002938317788636840836_);fill:#BF8677;" width="100.9" height="16.2"/>
		
			<rect x="11.4" y="16.5" transform="matrix(0.68 -0.7332 0.7332 0.68 1.7217 53.1969)" style="clip-path:url(#SVGID_00000178187124508976868600000002938317788636840836_);fill:#BF8677;" width="100.9" height="16.2"/>
		
			<rect x="57.7" y="21.3" transform="matrix(0.68 -0.7332 0.7332 0.68 13.0813 88.704)" style="clip-path:url(#SVGID_00000178187124508976868600000002938317788636840836_);fill:#BF8677;" width="100.9" height="16.2"/>
		
			<rect x="101.4" y="24.3" transform="matrix(0.68 -0.7332 0.7332 0.68 24.8293 121.7152)" style="clip-path:url(#SVGID_00000178187124508976868600000002938317788636840836_);fill:#BF8677;" width="100.9" height="16.2"/>
	</g>
</g>
</svg>
