<?xml version="1.0" encoding="utf-8"?>
<!-- Generator: Adobe Illustrator 26.0.0, SVG Export Plug-In . SVG Version: 6.00 Build 0)  -->
<svg version="1.1" id="Capa_1" xmlns="http://www.w3.org/2000/svg" xmlns:xlink="http://www.w3.org/1999/xlink" x="0px" y="0px"
	 viewBox="0 0 215.7 48.8" style="enable-background:new 0 0 215.7 48.8;" xml:space="preserve">
<style type="text/css">
	.st0{clip-path:url(#SVGID_00000114051803805629330240000004594067224464627107_);fill:#603D24;}
	.st1{clip-path:url(#SVGID_00000114051803805629330240000004594067224464627107_);}
	.st2{fill:#AF8023;}
</style>
<g>
	<defs>
		<polygon id="SVGID_1_" points="208.5,46.9 209.1,46.3 209.3,43.9 207.7,39.2 208.8,33.9 206.4,28 207.6,26.5 210.4,23.7 
			211.2,20.1 211.3,13.5 213.2,11.7 208.7,7.8 208.8,3.4 209.4,1.6 209.3,1.3 4.9,1.3 3.5,3.9 4.8,6.9 3.2,14.9 1.4,19.7 3.7,22.4 
			3.5,28.8 2.3,31.7 4,39.8 3,41.8 1.5,43.3 6.9,45 7.9,47.6 208.6,48.2 		"/>
	</defs>
	<clipPath id="SVGID_00000124883913854900138770000000051115495395682957_">
		<use xlink:href="#SVGID_1_"  style="overflow:visible;"/>
	</clipPath>
	<polygon style="clip-path:url(#SVGID_00000124883913854900138770000000051115495395682957_);fill:#603D24;" points="208.5,46.9 
		209.1,46.3 209.3,43.9 207.7,39.2 208.8,33.9 206.4,28 207.6,26.5 210.4,23.7 211.2,20.1 211.3,13.5 213.2,11.7 208.7,7.8 
		208.8,3.4 209.4,1.6 209.3,1.3 4.9,1.3 3.5,3.9 4.8,6.9 3.2,14.9 1.4,19.7 3.7,22.4 3.5,28.8 2.3,31.7 4,39.8 3,41.8 1.5,43.3 
		6.9,45 7.9,47.6 208.6,48.2 	"/>
	<g style="clip-path:url(#SVGID_00000124883913854900138770000000051115495395682957_);">
		<path class="st2" d="M77.1,6.7l-4.4,2.9l-2.4,2.8l3.7,4.4l3.7,0.7c0,0,1-2.8,1.1-5.5C78.8,9.3,77.1,6.7,77.1,6.7z"/>
		<path class="st2" d="M24.3,16.8l-4.4,2.9l-2.4,2.8l3.7,4.4l3.7,0.7c0,0,1-2.8,1.1-5.5C26,19.5,24.3,16.8,24.3,16.8z"/>
		<path class="st2" d="M18,34.2l-0.5,5.3l0.7,3.7l5.8-0.2l2.8-2.4c0,0-1.6-2.5-3.7-4.3C21.2,34.5,18,34.2,18,34.2z"/>
		<path class="st2" d="M3.6,14l-4.4,2.9l-2.4,2.8l3.7,4.4l3.7,0.7c0,0,1-2.8,1.1-5.5C5.3,16.7,3.6,14,3.6,14z"/>
		<path class="st2" d="M172.2,27.4l3.8,0.8l5.4,0.3l1.3-2.9c0,0-1.9-2.2-3.3-2.6c-1.4-0.4-4.6,0.8-5.4,1.5
			C173.3,25.3,172.2,27.4,172.2,27.4z"/>
		<path class="st2" d="M66.8-2.8c0.5,0.3,2.2,1.4,1.6,3.1c-0.6,1.7-0.7,2.4-1.4,3c-0.7,0.6-3.6,2-3.6,2S62.9,3.1,63.2,2
			C63.6,0.9,65-1.3,65-1.3S66.3-3.2,66.8-2.8z"/>
		<path class="st2" d="M92.5,23c-0.8-0.9-4.1-0.1-5.1,0.4C86.4,23.8,86,26,86,26s2.2,3,2.3,3.3c0.1,0.2,2.3-0.7,3.8-1.1
			c1.6-0.4,3.7-1.3,3.7-1.3S94,24.7,92.5,23z"/>
		<path class="st2" d="M98.2,8.8c-1-0.9-2.6,0-3.7,0.1C93.3,9,92.1,9,91.9,10.2c-0.2,1.2,0.4,2.5,0.7,2.7c0.3,0.2,3.7-0.2,4.5,0.1
			C97.9,13.3,99.8,10.3,98.2,8.8z"/>
		<path class="st2" d="M55.9,36.8c0,0-5.5,0.9-8,3c-2.5,2.1-2.8,6-2.8,6l7.1-0.4c0,0,2.5-0.2,4.1-1.9C58,41.8,58.3,38.2,55.9,36.8z"
			/>
		<path class="st2" d="M64.6,48.9c0,0-3.2,0.5-4.6,1.7c-1.4,1.2-1.6,3.5-1.6,3.5l4.1-0.2c0,0,1.4-0.1,2.4-1.1
			C65.7,51.8,65.9,49.7,64.6,48.9z"/>
		<path class="st2" d="M2.2-1.3c0,0-3.2,0.5-4.6,1.7C-3.8,1.6-4,3.9-4,3.9l4.1-0.2c0,0,1.4-0.1,2.4-1.1C3.4,1.6,3.6-0.5,2.2-1.3z"/>
		<path class="st2" d="M68.6,28.3c0,0-1.7-2.4-2.7-2.1c-0.9,0.3-3.4,1.9-3.4,1.9l1.2,2.9c0,0,1.7,0.2,3.2-0.5
			C68.2,29.8,68.6,28.3,68.6,28.3z"/>
		<path class="st2" d="M18.2,0.9c0,0-1.7-2.4-2.7-2.1c-0.9,0.3-3.4,1.9-3.4,1.9l1.2,2.9c0,0,1.7,0.2,3.2-0.5
			C17.9,2.4,18.2,0.9,18.2,0.9z"/>
		<path class="st2" d="M29.7,6.3c-0.9-1.1-2.8,0-3.5,0.5c-0.7,0.5-1.7,2.3-1.7,2.3s2.4,2.4,3.3,2C28.6,10.7,29.7,6.3,29.7,6.3z"/>
		<path class="st2" d="M56.5,10.2c0.9,0.9,1.7,3.2,0.9,4.5c-0.8,1.3-1.6,2.6-1.6,2.6l-1.1,1c0,0-3.5-2.7-3.2-3.8
			C51.8,13.4,56.5,10.2,56.5,10.2z"/>
		<path class="st2" d="M43.6,12.5c-1.3,0.2-3.6-0.5-4.1-1.9c-0.6-1.4-1.1-2.8-1.1-2.8l-0.1-1.5c0,0,4.3-1.2,4.9-0.3
			C43.8,6.9,43.6,12.5,43.6,12.5z"/>
		<path class="st2" d="M45.1,25.2c0.7,0.7,1.2,2.3,0.6,3.3c-0.6,0.9-1.2,1.9-1.2,1.9L43.7,31c0,0-2.6-2-2.3-2.8
			C41.7,27.5,45.1,25.2,45.1,25.2z"/>
		<path class="st2" d="M167,26.5l-4.4,2.9l-2.4,2.9l3.7,4.4l3.7,0.7c0,0,1-2.8,1.1-5.5C168.7,29.1,167,26.5,167,26.5z"/>
		<path class="st2" d="M114.3,36.9l-4.4,2.9l-2.4,2.9l3.7,4.4l3.7,0.7c0,0,1-2.8,1.1-5.5C116,39.6,114.3,36.9,114.3,36.9z"/>
		<path class="st2" d="M177.7,42l-0.4,5.3L178,51l5.8-0.2l2.8-2.5c0,0-1.6-2.5-3.7-4.3C180.9,42.3,177.7,42,177.7,42z"/>
		<path class="st2" d="M158.6,48.2c0,0-1.7-2.4-2.7-2.1c-0.9,0.3-3.4,2-3.4,2l1.2,2.9c0,0,1.7,0.2,3.2-0.5
			C158.3,49.6,158.6,48.2,158.6,48.2z"/>
		<path class="st2" d="M119.6,26.3c-0.9-1.1-2.8,0.1-3.5,0.5c-0.7,0.5-1.7,2.3-1.7,2.3s2.4,2.4,3.3,2
			C118.6,30.7,119.6,26.3,119.6,26.3z"/>
		<path class="st2" d="M146.4,30.1c0.9,0.9,1.7,3.2,0.9,4.5c-0.8,1.3-1.6,2.6-1.6,2.6l-1.1,1c0,0-3.5-2.7-3.2-3.8
			C141.7,33.3,146.4,30.1,146.4,30.1z"/>
		<path class="st2" d="M130.6,40.8c-1.3,0.2-3.6-0.5-4.1-1.9c-0.6-1.4-1.1-2.8-1.1-2.8l-0.1-1.5c0,0,4.3-1.2,4.9-0.3
			C130.8,35.2,130.6,40.8,130.6,40.8z"/>
		<path class="st2" d="M135.1,45.2c0.7,0.7,1.2,2.3,0.7,3.3c-0.6,0.9-1.2,1.9-1.2,1.9l-0.8,0.7c0,0-2.6-2-2.3-2.7
			C131.7,47.5,135.1,45.2,135.1,45.2z"/>
		<path class="st2" d="M147.3-1.2l-4.4,2.9l-2.4,2.8l3.7,4.4l3.7,0.7c0,0,1-2.8,1.1-5.5C149,1.5,147.3-1.2,147.3-1.2z"/>
		<path class="st2" d="M5.2,37.6l-4.4,2.9l-2.4,2.8l3.7,4.4l3.7,0.7c0,0,1-2.8,1.1-5.5C6.9,40.2,5.2,37.6,5.2,37.6z"/>
		<path class="st2" d="M180.8,6.1l-0.5,5.3l0.7,3.7l5.8-0.2l2.8-2.4c0,0-1.6-2.5-3.7-4.3C183.9,6.4,180.8,6.1,180.8,6.1z"/>
		<path class="st2" d="M108.1-2.5c0.5,0.3,2.2,1.4,1.6,3.1c-0.6,1.7-0.7,2.4-1.4,3c-0.7,0.6-3.6,2-3.6,2s-0.4-2.2-0.1-3.3
			c0.3-1.1,1.8-3.3,1.8-3.3S107.6-2.9,108.1-2.5z"/>
		<path class="st2" d="M162.8,15.1c-0.8-0.9-4.1-0.1-5.1,0.4c-1,0.5-1.4,2.7-1.4,2.7s2.2,3,2.3,3.3c0.1,0.2,2.3-0.7,3.8-1.1
			c1.6-0.4,3.7-1.3,3.7-1.3S164.3,16.8,162.8,15.1z"/>
		<path class="st2" d="M165.5,2.6c-1-0.9-2.6,0-3.7,0.1c-1.2,0.1-2.3,0.1-2.5,1.3c-0.2,1.2,0.4,2.5,0.7,2.7c0.3,0.2,3.7-0.2,4.5,0.1
			C165.2,7,167.1,4,165.5,2.6z"/>
		<path class="st2" d="M129.8,2.6c0,0-5.5,0.9-8,3c-2.5,2.1-2.8,6-2.8,6l7.1-0.4c0,0,2.5-0.2,4.1-1.9C131.8,7.7,132.2,4,129.8,2.6z"
			/>
		<path class="st2" d="M138.9,20.5c0,0-1.7-2.4-2.7-2.1c-0.9,0.3-3.4,1.9-3.4,1.9l1.2,2.9c0,0,1.7,0.2,3.2-0.5
			C138.5,21.9,138.9,20.5,138.9,20.5z"/>
		<path class="st2" d="M90.7,40.6c0.9,0.9,1.7,3.2,0.9,4.5c-0.8,1.3-1.6,2.6-1.6,2.6l-1.1,1c0,0-3.5-2.7-3.2-3.8
			C86,43.8,90.7,40.6,90.7,40.6z"/>
		<path class="st2" d="M77.8,42.9c-1.3,0.2-3.6-0.5-4.1-1.9c-0.6-1.4-1.1-2.8-1.1-2.8l-0.1-1.5c0,0,4.3-1.2,4.9-0.3
			C78,37.2,77.8,42.9,77.8,42.9z"/>
		<path class="st2" d="M207.3,11.4l-4.4,2.9l-2.4,2.8l3.7,4.4l3.7,0.7c0,0,1-2.8,1.1-5.5C209,14.1,207.3,11.4,207.3,11.4z"/>
		<path class="st2" d="M204.9-2.5c0.5,0.3,2.2,1.4,1.6,3.1c-0.6,1.7-0.7,2.4-1.4,3c-0.7,0.6-3.6,2-3.6,2s-0.4-2.2-0.1-3.3
			c0.3-1.1,1.8-3.3,1.8-3.3S204.4-2.9,204.9-2.5z"/>
		<path class="st2" d="M222.7,27.7c-0.8-0.9-4.1-0.1-5.1,0.4c-1,0.5-1.4,2.7-1.4,2.7s2.2,3,2.3,3.3c0.1,0.2,2.3-0.7,3.8-1.1
			c1.6-0.4,3.7-1.3,3.7-1.3S224.2,29.4,222.7,27.7z"/>
		<path class="st2" d="M228.4,13.6c-1-0.9-2.6,0-3.7,0.1c-1.2,0.1-2.3,0.1-2.5,1.3c-0.2,1.2,0.4,2.5,0.7,2.7
			c0.3,0.2,3.7-0.2,4.5,0.1C228.1,18,230,15,228.4,13.6z"/>
		<path class="st2" d="M198.8,33.1c0,0-1.7-2.4-2.7-2.1c-0.9,0.3-3.4,1.9-3.4,1.9l1.2,2.9c0,0,1.7,0.2,3.2-0.5
			C198.5,34.5,198.8,33.1,198.8,33.1z"/>
		<path class="st2" d="M208,47.6c-1.3,0.2-3.6-0.5-4.1-1.9c-0.6-1.4-1.1-2.8-1.1-2.8l-0.1-1.5c0,0,4.3-1.2,4.9-0.3
			C208.2,41.9,208,47.6,208,47.6z"/>
		<path class="st2" d="M110.4,20.1c0.7,0.7,1.2,2.3,0.6,3.3c-0.6,0.9-1.2,1.9-1.2,1.9L109,26c0,0-2.6-2-2.3-2.8
			C107,22.5,110.4,20.1,110.4,20.1z"/>
	</g>
</g>
</svg>
