<?xml version="1.0" encoding="utf-8"?>
<!-- Generator: Adobe Illustrator 26.0.0, SVG Export Plug-In . SVG Version: 6.00 Build 0)  -->
<svg version="1.1" id="Capa_1" xmlns="http://www.w3.org/2000/svg" xmlns:xlink="http://www.w3.org/1999/xlink" x="0px" y="0px"
	 viewBox="0 0 173.8 57.1" style="enable-background:new 0 0 173.8 57.1;" xml:space="preserve">
<style type="text/css">
	.st0{fill:#87859B;}
	.st1{clip-path:url(#SVGID_00000095332154210157017980000014340913169128989314_);}
	.st2{fill:#FCE9AC;}
	.st3{fill:#FBDAD8;}
	.st4{fill:#FDD23B;}
	.st5{fill:#D2C5D8;}
	.st6{fill:#9FCAD0;}
	.st7{fill:#FDFCED;}
</style>
<g>
	<g>
		<g>
			<g>
				<path class="st0" d="M168.8,1.5C162.5,0.7,17.7,1.4,3.4,1.7C8,4,9.3,11.9,6.5,17c-0.9,1.6-2.2,3.2-2.1,5.2c0,1,0.5,2,0.7,3
					c0.9,3.3,0.1,7.3-2.1,9.6c0.5-0.5-2,18.3-2.1,20.4c36.1,0.2,95.6,0.1,142.6,0.6c9.8,0.1,19.6,0.2,29.4,0.3
					c-0.5-7.9-5.1-8.4-4.9-13.3c0-0.8,0.5-1.5,1-2.1c1-1.4,2.2-2.7,2.8-4.4c0.6-1.7,0.5-4-0.7-5.2c-0.6-0.6-1.4-0.9-1.6-1.7
					c-0.3-0.8,0.1-1.8,0.4-2.6c0.9-2.3,1.1-5.1,0.6-7.6C169.1,12.7,173.9,2.3,168.8,1.5z"/>
			</g>
		</g>
	</g>
	<g>
		<defs>
			<path id="SVGID_1_" d="M168.8,1.5C162.5,0.7,17.7,1.4,3.4,1.7C8,4,9.3,11.9,6.5,17c-0.9,1.6-2.2,3.2-2.1,5.2c0,1,0.5,2,0.7,3
				c0.9,3.3,0.1,7.3-2.1,9.6c0.5-0.5-2,18.3-2.1,20.4c36.1,0.2,95.6,0.1,142.6,0.6c9.8,0.1,19.6,0.2,29.4,0.3
				c-0.5-7.9-5.1-8.4-4.9-13.3c0-0.8,0.5-1.5,1-2.1c1-1.4,2.2-2.7,2.8-4.4c0.6-1.7,0.5-4-0.7-5.2c-0.6-0.6-1.4-0.9-1.6-1.7
				c-0.3-0.8,0.1-1.8,0.4-2.6c0.9-2.3,1.1-5.1,0.6-7.6C169.1,12.7,173.9,2.3,168.8,1.5z"/>
		</defs>
		<clipPath id="SVGID_00000175292180892624549070000009183927229883259303_">
			<use xlink:href="#SVGID_1_"  style="overflow:visible;"/>
		</clipPath>
		<g style="clip-path:url(#SVGID_00000175292180892624549070000009183927229883259303_);">
			<g>
				<g>
					<path class="st2" d="M167.2,55.5c0.7-0.3,1.2-1,0.4-1.7c-0.6-0.6-1.9-0.3-1.9,0.7C165.8,55.6,166.6,55.7,167.2,55.5"/>
					<path class="st3" d="M184.7,26.7c0,0.2-2.2,0.6-3.3,0.8c-0.1,1.2-0.4,3.4-0.6,3.4c-0.2,0-0.6-2.2-0.8-3.4
						c-1.2-0.2-3.4-0.5-3.4-0.7c0-0.2,2.2-0.6,3.4-0.7c0.2-1.2,0.5-3.4,0.7-3.4c0.2,0,0.6,2.2,0.7,3.3
						C182.5,26.3,184.7,26.5,184.7,26.7z"/>
					<path class="st4" d="M172.6,65.4c0,0.1,1.6,0.4,2.4,0.5c0.1,0.8,0.4,2.4,0.5,2.4c0.1,0,0.4-1.6,0.5-2.4
						c0.8-0.2,2.4-0.5,2.4-0.6c0-0.1-1.6-0.3-2.4-0.4c-0.2-0.8-0.5-2.4-0.6-2.4c-0.1,0-0.3,1.6-0.4,2.4
						C174.2,65,172.6,65.3,172.6,65.4z"/>
					<g>
						<path class="st2" d="M153.9,70c-0.4-0.2-1.5-0.3-2-0.4l0,0c0.5-0.5,1.4-1.2,1.4-1.2s-0.2-1.2,0-1.8c0.3,0.1,1.4,0.8,1.4,0.8
							c0.1,0,1.1-0.6,1.6-0.6c-0.1,0.6-0.4,1.1-0.6,1.6c0.5,0.4,1.1,0.9,1.6,1.4c-0.4,0-1.9,0-1.9,0c0,0.1-0.6,1.3-0.8,1.5L153.9,70
							z"/>
					</g>
					<g>
						<path class="st5" d="M190.2,66.3c-0.5,0.8-1.4,1.5-1.8,2.4l0,0c0.6,0.1,3.2-0.2,3.3-0.2c0,0,1.2,1.8,2,2.5
							c0.2-0.9,0.4-2.8,0.5-3c0,0,2.6-0.9,3-1c-0.6-0.3-2.6-1.5-2.6-1.5c-0.1-0.2,0.2-2.4,0-3.4c-0.5,0.4-2.6,2.1-2.6,2.1
							s-1.9-0.4-2.7-0.6L190.2,66.3z"/>
					</g>
					<g>
						<path class="st3" d="M150,54.6c0.3,0.7,1.5,1.9,2,2.6l0,0c-1,0.1-2.9-0.1-2.9-0.1s-1,1.6-1.8,2.1c-0.2-0.3-0.8-2.4-0.8-2.4
							c-0.1-0.1-1.8-0.4-2.5-0.9c0.7-0.5,1.6-0.9,2.4-1.3c-0.2-1-0.3-2.3-0.4-3.3c0.5,0.5,2.2,2,2.2,2c0.1-0.1,2-0.9,2.5-1L150,54.6
							z"/>
					</g>
					<g>
						<path class="st5" d="M195.6,49.5c-0.4,0.2-1.1,1.1-1.4,1.5l0,0c-0.1-0.6-0.2-1.9-0.2-1.9s-1.1-0.5-1.5-1
							c0.2-0.2,1.5-0.7,1.5-0.7c0.1-0.1,0.1-1.2,0.3-1.7c0.4,0.4,0.7,0.9,1.1,1.4c0.6-0.2,1.4-0.4,2-0.6c-0.2,0.4-1.1,1.6-1.1,1.6
							c0.1,0,0.8,1.2,0.9,1.5L195.6,49.5z"/>
					</g>
					<g>
						<path class="st5" d="M159.6,31.3c0.4-0.2,1.2-1,1.6-1.4l0,0c0.1,0.6,0.1,1.9,0.1,1.9s1,0.6,1.4,1.1c-0.2,0.1-1.5,0.6-1.5,0.6
							c-0.1,0.1-0.2,1.2-0.5,1.6c-0.4-0.5-0.6-1-0.9-1.5c-0.6,0.1-1.4,0.3-2.1,0.4c0.3-0.4,1.2-1.5,1.2-1.5c-0.1,0-0.6-1.3-0.7-1.5
							L159.6,31.3z"/>
					</g>
					<g>
						<path class="st6" d="M171.7,40.8c0.6,0.6,1.2,1.4,1.7,2.1l0,0c-0.4,0.7-0.6,1.1-0.9,1.8l0,0c0.7-0.2,2-0.8,2.1-0.8
							c0,0,2,1.3,2.4,1.8c-0.2-0.5-0.7-2.7-0.7-2.7s1.8-1,2.1-1.3c-0.8-0.3-2.6-0.4-2.6-0.5c0-0.1-0.4-1.6-0.2-2.1
							c-0.4,0.6-1.3,1.6-1.4,1.8L171.7,40.8z"/>
					</g>
					<g>
						<path class="st7" d="M205.3,56.4c10.2,2.6,19.7-6.1,17.2-17.4c-1.9-9-13-18.4-27.9-7.9c10.8,2,17.8,12.1,11.8,22.9L205.3,56.4
							z"/>
					</g>
					<path class="st2" d="M223.7,65.3c0.7-0.3,1.2-1,0.4-1.7c-0.6-0.6-1.9-0.3-1.9,0.7C222.3,65.3,223.1,65.5,223.7,65.3"/>
					<g>
						<path class="st6" d="M145.9,29.4c-0.8,0.3-1.8,0.4-2.7,0.5l0,0c-0.5-0.7-0.7-1-1.2-1.6l0,0c-0.1,0.7-0.2,2.1-0.3,2.2
							c0,0-2.1,1.2-2.7,1.4c0.5,0.1,2.8,0.6,2.8,0.6s0.1,2,0.2,2.5c0.7-0.6,1.5-2.1,1.6-2.1c0.1,0,1.5,0.4,1.9,0.8
							c-0.3-0.6-0.9-1.9-0.9-2L145.9,29.4z"/>
					</g>
					<path class="st2" d="M188.8,35.9c0.5-0.2,0.9-0.8,0.3-1.3c-0.5-0.5-1.5-0.2-1.5,0.6C187.7,36,188.3,36.1,188.8,35.9"/>
					<g>
						<g>
							<path class="st7" d="M160.3,44.7c0.6,0,0.6-1,0-1C159.7,43.7,159.7,44.7,160.3,44.7L160.3,44.7z"/>
						</g>
					</g>
					<g>
						<g>
							<path class="st7" d="M182.8,55.1c0.6,0,0.6-1,0-1C182.2,54.1,182.2,55.1,182.8,55.1L182.8,55.1z"/>
						</g>
					</g>
					<g>
						<g>
							<path class="st7" d="M138.5,63.8c0.6,0,0.6-1,0-1C137.8,62.8,137.8,63.8,138.5,63.8L138.5,63.8z"/>
						</g>
					</g>
					<g>
						<g>
							<path class="st7" d="M131.8,24.4c0.6,0,0.6-1,0-1C131.2,23.4,131.2,24.4,131.8,24.4L131.8,24.4z"/>
						</g>
					</g>
					<g>
						<g>
							<path class="st7" d="M164.8,26.6c0.6,0,0.6-1,0-1C164.1,25.6,164.1,26.6,164.8,26.6L164.8,26.6z"/>
						</g>
					</g>
					<g>
						<g>
							<path class="st7" d="M142.8,47c0.6,0,0.6-1,0-1C142.2,46,142.2,47,142.8,47L142.8,47z"/>
						</g>
					</g>
					<g>
						<g>
							<path class="st7" d="M165.4,63.9c0.6,0,0.6-1,0-1C164.7,62.9,164.7,63.9,165.4,63.9L165.4,63.9z"/>
						</g>
					</g>
					<g>
						<g>
							<path class="st7" d="M201,40.7c0.6,0,0.6-1,0-1C200.3,39.7,200.3,40.7,201,40.7L201,40.7z"/>
						</g>
					</g>
					<g>
						<g>
							<path class="st7" d="M208,65.5c0.6,0,0.6-1,0-1C207.3,64.5,207.3,65.5,208,65.5L208,65.5z"/>
						</g>
					</g>
					<g>
						<g>
							<path class="st5" d="M167.9,30.3c0.6,0,0.6-1,0-1C167.2,29.3,167.2,30.3,167.9,30.3L167.9,30.3z"/>
						</g>
					</g>
					<g>
						<g>
							<path class="st7" d="M194.1,24.4c0.6,0,0.6-1,0-1C193.5,23.4,193.5,24.4,194.1,24.4L194.1,24.4z"/>
						</g>
					</g>
					<g>
						<g>
							<path class="st5" d="M140.8,43.6c0.6,0,0.6-1,0-1C140.1,42.6,140.1,43.6,140.8,43.6L140.8,43.6z"/>
						</g>
					</g>
					<g>
						<g>
							<path class="st7" d="M150.7,41.1c0.6,0,0.6-1,0-1C150,40.1,150,41.1,150.7,41.1L150.7,41.1z"/>
						</g>
					</g>
					<g>
						<g>
							<path class="st7" d="M191.9,58.4c0.6,0,0.6-1,0-1C191.2,57.4,191.2,58.4,191.9,58.4L191.9,58.4z"/>
						</g>
					</g>
				</g>
				<g>
					<path class="st2" d="M79.5,57.5c0.7-0.3,1.2-1,0.4-1.7c-0.6-0.6-1.9-0.3-1.9,0.7C78.2,57.5,78.9,57.7,79.5,57.5"/>
					<path class="st3" d="M97,28.7c0,0.2-2.2,0.6-3.3,0.8c-0.1,1.2-0.4,3.4-0.6,3.4c-0.2,0-0.6-2.2-0.8-3.4
						c-1.2-0.2-3.4-0.5-3.4-0.7c0-0.2,2.2-0.6,3.4-0.7c0.2-1.2,0.5-3.4,0.7-3.4c0.2,0,0.6,2.2,0.7,3.3C94.8,28.2,97,28.5,97,28.7z"
						/>
					<path class="st4" d="M85,67.4c0,0.1,1.6,0.4,2.4,0.5c0.1,0.8,0.4,2.4,0.5,2.4c0.1,0,0.4-1.6,0.5-2.4c0.8-0.2,2.4-0.5,2.4-0.6
						c0-0.1-1.6-0.3-2.4-0.4c-0.2-0.8-0.5-2.4-0.6-2.4c-0.1,0-0.3,1.6-0.4,2.4C86.6,67,85,67.2,85,67.4z"/>
					<g>
						<path class="st2" d="M66.3,72c-0.4-0.2-1.5-0.3-2-0.4l0,0c0.5-0.5,1.4-1.2,1.4-1.2s-0.2-1.2,0-1.8c0.2,0.1,1.4,0.8,1.4,0.8
							c0.1,0,1.1-0.6,1.6-0.6c-0.1,0.6-0.4,1.1-0.6,1.6c0.5,0.4,1.1,0.9,1.6,1.4c-0.4,0-1.9,0-1.9,0c0,0.1-0.6,1.3-0.8,1.5L66.3,72z
							"/>
					</g>
					<g>
						<path class="st5" d="M102.5,68.3c-0.5,0.8-1.4,1.5-1.8,2.4l0,0c0.6,0.1,3.2-0.2,3.3-0.2c0,0,1.2,1.8,2,2.5
							c0.2-0.9,0.4-2.8,0.5-3c0,0,2.6-0.9,3-1c-0.6-0.3-2.6-1.5-2.6-1.5c-0.1-0.2,0.2-2.4,0-3.4c-0.5,0.4-2.6,2.1-2.6,2.1
							s-1.9-0.4-2.7-0.6L102.5,68.3z"/>
					</g>
					<g>
						<path class="st3" d="M62.4,56.6c0.3,0.7,1.5,1.9,2,2.6l0,0c-1,0.1-2.9-0.1-2.9-0.1s-1,1.6-1.8,2.1c-0.2-0.3-0.8-2.4-0.8-2.4
							c-0.1-0.1-1.8-0.4-2.5-0.9c0.7-0.5,1.6-0.9,2.4-1.3c-0.2-1-0.3-2.3-0.4-3.3c0.5,0.5,2.2,2,2.2,2c0.1-0.1,2-0.9,2.5-1
							L62.4,56.6z"/>
					</g>
					<g>
						<path class="st5" d="M108,51.4c-0.4,0.2-1.1,1.1-1.4,1.5l0,0c-0.1-0.6-0.2-1.9-0.2-1.9s-1.1-0.5-1.5-1
							c0.2-0.2,1.5-0.7,1.5-0.7c0.1-0.1,0.1-1.2,0.3-1.7c0.4,0.4,0.7,0.9,1.1,1.4c0.6-0.2,1.4-0.4,2-0.6c-0.2,0.4-1.1,1.6-1.1,1.6
							c0.1,0,0.8,1.2,0.9,1.5L108,51.4z"/>
					</g>
					<g>
						<path class="st5" d="M71.9,33.2c0.4-0.2,1.2-1,1.6-1.4l0,0c0.1,0.6,0.1,1.9,0.1,1.9s1,0.6,1.4,1.1c-0.2,0.1-1.5,0.6-1.5,0.6
							c-0.1,0.1-0.2,1.2-0.5,1.6c-0.4-0.5-0.6-1-0.9-1.5c-0.6,0.1-1.4,0.3-2.1,0.4c0.3-0.4,1.2-1.5,1.2-1.5c-0.1,0-0.6-1.3-0.7-1.5
							L71.9,33.2z"/>
					</g>
					<g>
						<path class="st6" d="M84.1,42.7c0.6,0.6,1.2,1.4,1.7,2.1l0,0c-0.4,0.7-0.6,1.1-0.9,1.8l0,0c0.7-0.2,2-0.8,2.1-0.8
							c0,0,2,1.3,2.4,1.8c-0.2-0.5-0.7-2.7-0.7-2.7s1.8-1,2.1-1.3c-0.8-0.3-2.6-0.4-2.6-0.5c0-0.1-0.4-1.6-0.2-2.1
							c-0.4,0.6-1.3,1.6-1.4,1.8L84.1,42.7z"/>
					</g>
					<g>
						<path class="st7" d="M117.7,58.4c10.2,2.6,19.7-6.1,17.2-17.4c-1.9-9-13-18.4-27.9-7.9c10.8,2,17.8,12.1,11.8,22.9L117.7,58.4
							z"/>
					</g>
					<path class="st2" d="M136,67.2c0.7-0.3,1.2-1,0.4-1.7c-0.6-0.6-1.9-0.3-1.9,0.7C134.7,67.3,135.4,67.5,136,67.2"/>
					<g>
						<path class="st6" d="M58.2,31.3c-0.8,0.3-1.8,0.4-2.7,0.5l0,0c-0.5-0.7-0.7-1-1.2-1.6l0,0c-0.1,0.7-0.2,2.1-0.3,2.2
							c0,0-2.1,1.2-2.7,1.4c0.5,0.1,2.8,0.6,2.8,0.6s0.1,2,0.2,2.5c0.7-0.6,1.5-2.1,1.6-2.1c0.1,0,1.5,0.4,1.9,0.8
							c-0.3-0.6-0.9-1.9-0.9-2L58.2,31.3z"/>
					</g>
					<path class="st2" d="M101.1,37.9c0.5-0.2,0.9-0.8,0.3-1.3c-0.5-0.5-1.5-0.2-1.5,0.6C100,37.9,100.6,38.1,101.1,37.9"/>
					<g>
						<g>
							<path class="st7" d="M72.7,46.7c0.6,0,0.6-1,0-1C72,45.7,72,46.7,72.7,46.7L72.7,46.7z"/>
						</g>
					</g>
					<g>
						<g>
							<path class="st7" d="M95.2,57.1c0.6,0,0.6-1,0-1C94.6,56.1,94.6,57.1,95.2,57.1L95.2,57.1z"/>
						</g>
					</g>
					<g>
						<g>
							<path class="st7" d="M50.8,65.7c0.6,0,0.6-1,0-1C50.2,64.7,50.2,65.7,50.8,65.7L50.8,65.7z"/>
						</g>
					</g>
					<g>
						<g>
							<path class="st7" d="M77.1,28.6c0.6,0,0.6-1,0-1C76.5,27.6,76.5,28.6,77.1,28.6L77.1,28.6z"/>
						</g>
					</g>
					<g>
						<g>
							<path class="st7" d="M55.2,48.9c0.6,0,0.6-1,0-1C54.6,47.9,54.5,48.9,55.2,48.9L55.2,48.9z"/>
						</g>
					</g>
					<g>
						<g>
							<path class="st7" d="M77.7,65.9c0.6,0,0.6-1,0-1C77.1,64.9,77.1,65.9,77.7,65.9L77.7,65.9z"/>
						</g>
					</g>
					<g>
						<g>
							<path class="st7" d="M113.3,42.7c0.6,0,0.6-1,0-1C112.7,41.7,112.7,42.7,113.3,42.7L113.3,42.7z"/>
						</g>
					</g>
					<g>
						<g>
							<path class="st7" d="M120.3,67.4c0.6,0,0.6-1,0-1C119.7,66.4,119.7,67.4,120.3,67.4L120.3,67.4z"/>
						</g>
					</g>
					<g>
						<g>
							<path class="st5" d="M80.2,32.2c0.6,0,0.6-1,0-1C79.6,31.2,79.6,32.2,80.2,32.2L80.2,32.2z"/>
						</g>
					</g>
					<g>
						<g>
							<path class="st7" d="M106.5,26.4c0.6,0,0.6-1,0-1C105.8,25.4,105.8,26.4,106.5,26.4L106.5,26.4z"/>
						</g>
					</g>
					<g>
						<g>
							<path class="st5" d="M53.1,45.5c0.6,0,0.6-1,0-1C52.5,44.5,52.5,45.5,53.1,45.5L53.1,45.5z"/>
						</g>
					</g>
					<g>
						<g>
							<path class="st7" d="M63,43.1c0.6,0,0.6-1,0-1C62.4,42.1,62.4,43.1,63,43.1L63,43.1z"/>
						</g>
					</g>
					<g>
						<g>
							<path class="st7" d="M104.2,60.3c0.6,0,0.6-1,0-1C103.6,59.3,103.6,60.3,104.2,60.3L104.2,60.3z"/>
						</g>
					</g>
				</g>
				<g>
					<g>
						<path class="st2" d="M-8.1,59.4c0.7-0.3,1.2-1,0.4-1.7c-0.6-0.6-1.9-0.3-1.9,0.7C-9.5,59.5-8.7,59.6-8.1,59.4"/>
						<path class="st3" d="M9.4,30.6c0,0.2-2.2,0.6-3.3,0.8c-0.1,1.2-0.4,3.4-0.6,3.4c-0.2,0-0.6-2.2-0.8-3.4
							c-1.2-0.2-3.4-0.5-3.4-0.7c0-0.2,2.2-0.6,3.4-0.7c0.2-1.2,0.5-3.4,0.7-3.4c0.2,0,0.6,2.2,0.7,3.3C7.2,30.2,9.4,30.5,9.4,30.6z
							"/>
						<path class="st4" d="M-2.6,69.3c0,0.1,1.6,0.4,2.4,0.5c0.1,0.8,0.4,2.4,0.5,2.4c0.1,0,0.4-1.6,0.5-2.4
							c0.8-0.2,2.4-0.5,2.4-0.6c0-0.1-1.6-0.3-2.4-0.4c-0.2-0.8-0.5-2.4-0.6-2.4c-0.1,0-0.3,1.6-0.4,2.4
							C-1.1,68.9-2.6,69.2-2.6,69.3z"/>
						<g>
							<path class="st2" d="M-21.4,73.9c-0.4-0.2-1.5-0.3-2-0.4l0,0c0.5-0.5,1.4-1.2,1.4-1.2s-0.2-1.2,0-1.8
								c0.3,0.1,1.4,0.8,1.4,0.8c0.1,0,1.1-0.6,1.6-0.6c-0.1,0.6-0.4,1.1-0.6,1.6c0.5,0.4,1.1,0.9,1.6,1.4c-0.4,0-1.9,0-1.9,0
								c0,0.1-0.6,1.3-0.8,1.5L-21.4,73.9z"/>
						</g>
						<g>
							<path class="st5" d="M14.9,70.2c-0.5,0.8-1.4,1.5-1.8,2.4l0,0c0.6,0.1,3.2-0.2,3.3-0.2c0,0,1.2,1.8,2,2.5
								c0.2-0.9,0.4-2.8,0.5-3c0,0,2.6-0.9,3-1c-0.6-0.3-2.6-1.5-2.6-1.5c-0.1-0.2,0.2-2.4,0-3.4c-0.5,0.4-2.6,2.1-2.6,2.1
								s-1.9-0.4-2.7-0.6L14.9,70.2z"/>
						</g>
						<g>
							<path class="st3" d="M-25.2,58.5c0.3,0.7,1.5,1.9,2,2.6l0,0c-1,0.1-2.9-0.1-2.9-0.1s-1,1.6-1.8,2.1c-0.2-0.3-0.8-2.4-0.8-2.4
								c-0.1-0.1-1.8-0.4-2.5-0.9c0.7-0.5,1.6-0.9,2.4-1.3c-0.2-1-0.3-2.3-0.4-3.3c0.5,0.5,2.2,2,2.2,2c0.1-0.1,2-0.9,2.5-1
								L-25.2,58.5z"/>
						</g>
						<g>
							<path class="st5" d="M20.3,53.4c-0.4,0.2-1.1,1.1-1.4,1.5l0,0c-0.1-0.6-0.2-1.9-0.2-1.9s-1.1-0.5-1.5-1
								c0.2-0.2,1.5-0.7,1.5-0.7c0.1-0.1,0.1-1.2,0.3-1.7c0.4,0.4,0.7,0.9,1.1,1.4c0.6-0.2,1.4-0.4,2-0.6c-0.2,0.4-1.1,1.6-1.1,1.6
								c0.1,0,0.8,1.2,0.9,1.5L20.3,53.4z"/>
						</g>
						<g>
							<path class="st5" d="M-15.7,35.2c0.4-0.2,1.2-1,1.6-1.4l0,0c0.1,0.6,0.1,1.9,0.1,1.9s1,0.6,1.4,1.1c-0.2,0.1-1.5,0.6-1.5,0.6
								c-0.1,0.1-0.2,1.2-0.5,1.6c-0.4-0.5-0.6-1-0.9-1.5c-0.6,0.1-1.4,0.3-2.1,0.4c0.3-0.4,1.2-1.5,1.2-1.5c-0.1,0-0.6-1.3-0.7-1.5
								L-15.7,35.2z"/>
						</g>
						<g>
							<path class="st6" d="M-3.6,44.7c0.6,0.6,1.2,1.4,1.7,2.1l0,0c-0.4,0.7-0.6,1.1-0.9,1.8l0,0c0.7-0.2,2-0.8,2.1-0.8
								c0,0,2,1.3,2.4,1.8C1.5,49.2,1,46.9,1,46.9s1.8-1,2.1-1.3c-0.8-0.3-2.6-0.4-2.6-0.5c0-0.1-0.4-1.6-0.2-2.1
								c-0.4,0.6-1.3,1.6-1.4,1.8L-3.6,44.7z"/>
						</g>
						<g>
							<path class="st7" d="M30,60.3c10.2,2.6,19.7-6.1,17.2-17.4c-1.9-9-13-18.4-27.9-7.9c10.8,2,17.8,12.1,11.8,22.9L30,60.3z"/>
						</g>
						<path class="st2" d="M48.4,69.2c0.7-0.3,1.2-1,0.4-1.7c-0.6-0.6-1.9-0.3-1.9,0.7C47,69.2,47.8,69.4,48.4,69.2"/>
						<g>
							<path class="st6" d="M-29.4,33.3c-0.8,0.3-1.8,0.4-2.7,0.5l0,0c-0.5-0.7-0.7-1-1.2-1.6l0,0c-0.1,0.7-0.2,2.1-0.3,2.2
								c0,0-2.1,1.2-2.7,1.4c0.5,0.1,2.8,0.6,2.8,0.6s0.1,2,0.2,2.5c0.7-0.6,1.5-2.1,1.6-2.1c0.1,0,1.5,0.4,1.9,0.8
								c-0.3-0.6-0.9-1.9-0.9-2L-29.4,33.3z"/>
						</g>
						<path class="st2" d="M13.5,39.9c0.5-0.2,0.9-0.8,0.3-1.3c-0.5-0.5-1.5-0.2-1.5,0.6C12.4,39.9,13,40,13.5,39.9"/>
						<g>
							<g>
								<path class="st7" d="M-15,48.6c0.6,0,0.6-1,0-1C-15.6,47.6-15.6,48.6-15,48.6L-15,48.6z"/>
							</g>
						</g>
						<g>
							<g>
								<path class="st7" d="M7.6,59c0.6,0,0.6-1,0-1C6.9,58,6.9,59,7.6,59L7.6,59z"/>
							</g>
						</g>
						<g>
							<g>
								<path class="st7" d="M-36.8,67.7c0.6,0,0.6-1,0-1C-37.5,66.7-37.5,67.7-36.8,67.7L-36.8,67.7z"/>
							</g>
						</g>
						<g>
							<g>
								<path class="st7" d="M-10.5,30.5c0.6,0,0.6-1,0-1C-11.2,29.5-11.2,30.5-10.5,30.5L-10.5,30.5z"/>
							</g>
						</g>
						<g>
							<g>
								<path class="st7" d="M-32.5,50.9c0.6,0,0.6-1,0-1C-33.1,49.9-33.1,50.9-32.5,50.9L-32.5,50.9z"/>
							</g>
						</g>
						<g>
							<g>
								<path class="st7" d="M-9.9,67.8c0.6,0,0.6-1,0-1C-10.6,66.8-10.6,67.8-9.9,67.8L-9.9,67.8z"/>
							</g>
						</g>
						<g>
							<g>
								<path class="st7" d="M25.7,44.6c0.6,0,0.6-1,0-1C25,43.6,25,44.6,25.7,44.6L25.7,44.6z"/>
							</g>
						</g>
						<g>
							<g>
								<path class="st7" d="M32.7,69.4c0.6,0,0.6-1,0-1C32,68.4,32,69.4,32.7,69.4L32.7,69.4z"/>
							</g>
						</g>
						<g>
							<g>
								<path class="st5" d="M-7.4,34.2c0.6,0,0.6-1,0-1C-8.1,33.2-8.1,34.2-7.4,34.2L-7.4,34.2z"/>
							</g>
						</g>
						<g>
							<g>
								<path class="st7" d="M18.8,28.4c0.6,0,0.6-1,0-1C18.2,27.4,18.2,28.4,18.8,28.4L18.8,28.4z"/>
							</g>
						</g>
						<g>
							<g>
								<path class="st5" d="M-34.5,47.5c0.6,0,0.6-1,0-1C-35.2,46.5-35.2,47.5-34.5,47.5L-34.5,47.5z"/>
							</g>
						</g>
						<g>
							<g>
								<path class="st7" d="M-24.6,45c0.6,0,0.6-1,0-1C-25.3,44-25.3,45-24.6,45L-24.6,45z"/>
							</g>
						</g>
						<g>
							<g>
								<path class="st7" d="M16.6,62.3c0.6,0,0.6-1,0-1C15.9,61.3,15.9,62.3,16.6,62.3L16.6,62.3z"/>
							</g>
						</g>
					</g>
				</g>
			</g>
			<g>
				<g>
					<path class="st2" d="M18.6,1.9c-0.7,0.3-1.2,1-0.4,1.7c0.6,0.6,1.9,0.3,1.9-0.7C19.9,1.9,19.2,1.7,18.6,1.9"/>
					<path class="st4" d="M13.1-8c0-0.1-1.6-0.4-2.4-0.5c-0.1-0.8-0.4-2.4-0.5-2.4c-0.1,0-0.4,1.6-0.5,2.4C8.8-8.3,7.2-8,7.2-7.9
						c0,0.1,1.6,0.3,2.4,0.4c0.2,0.8,0.5,2.4,0.6,2.4c0.1,0,0.3-1.6,0.4-2.4C11.5-7.6,13.1-7.9,13.1-8z"/>
					<g>
						<path class="st2" d="M31.8-12.6c0.4,0.2,1.5,0.3,2,0.4l0,0c-0.5,0.5-1.4,1.2-1.4,1.2s0.2,1.2,0,1.8c-0.2-0.1-1.4-0.8-1.4-0.8
							c-0.1,0-1.1,0.6-1.6,0.6c0.1-0.6,0.4-1.1,0.6-1.6c-0.5-0.4-1.1-0.9-1.6-1.4c0.4,0,1.9,0,1.9,0c0-0.1,0.6-1.3,0.8-1.5
							L31.8-12.6z"/>
					</g>
					<g>
						<path class="st5" d="M-4.4-8.9c0.5-0.8,1.4-1.5,1.8-2.4l0,0c-0.6-0.1-3.2,0.2-3.3,0.2c0,0-1.2-1.8-2-2.5
							c-0.2,0.9-0.4,2.8-0.5,3c0,0-2.6,0.9-3,1c0.6,0.3,2.6,1.5,2.6,1.5c0.1,0.2-0.2,2.4,0,3.4c0.5-0.4,2.6-2.1,2.6-2.1
							s1.9,0.4,2.7,0.6L-4.4-8.9z"/>
					</g>
					<g>
						<path class="st3" d="M35.7,2.8c-0.3-0.7-1.5-1.9-2-2.6l0,0c1-0.1,2.9,0.1,2.9,0.1s1-1.6,1.8-2.1c0.2,0.3,0.8,2.4,0.8,2.4
							c0.1,0.1,1.8,0.4,2.5,0.9c-0.7,0.5-1.6,0.9-2.4,1.3c0.2,1,0.3,2.3,0.4,3.3c-0.5-0.5-2.2-2-2.2-2c-0.1,0.1-2,0.9-2.5,1
							L35.7,2.8z"/>
					</g>
					<g>
						<path class="st5" d="M-9.9,7.9c0.4-0.2,1.1-1.1,1.4-1.5l0,0C-8.3,7-8.2,8.3-8.2,8.3s1.1,0.5,1.5,1c-0.2,0.2-1.5,0.7-1.5,0.7
							c-0.1,0.1-0.1,1.2-0.3,1.7c-0.4-0.4-0.7-0.9-1.1-1.4c-0.6,0.2-1.4,0.4-2,0.6c0.2-0.4,1.1-1.6,1.1-1.6c-0.1,0-0.8-1.2-0.9-1.5
							L-9.9,7.9z"/>
					</g>
					<g>
						<path class="st5" d="M26.2,26.2c-0.4,0.2-1.2,1-1.6,1.4l0,0c-0.1-0.6-0.1-1.9-0.1-1.9s-1-0.6-1.4-1.1c0.2-0.1,1.5-0.6,1.5-0.6
							c0.1-0.1,0.2-1.2,0.5-1.6c0.4,0.5,0.6,1,0.9,1.5c0.6-0.1,1.4-0.3,2.1-0.4c-0.3,0.4-1.2,1.5-1.2,1.5c0.1,0,0.6,1.3,0.7,1.5
							L26.2,26.2z"/>
					</g>
					<g>
						<path class="st6" d="M14.1,16.6c-0.6-0.6-1.2-1.4-1.7-2.1l0,0c0.4-0.7,0.6-1.1,0.9-1.8l0,0c-0.7,0.2-2,0.8-2.1,0.8
							c0,0-2-1.3-2.4-1.8c0.2,0.5,0.7,2.7,0.7,2.7s-1.8,1-2.1,1.3c0.8,0.3,2.6,0.4,2.6,0.5c0,0.1,0.4,1.6,0.2,2.1
							c0.4-0.6,1.3-1.6,1.4-1.8L14.1,16.6z"/>
					</g>
					<g>
						<path class="st7" d="M-19.5,1c-10.2-2.6-19.7,6.1-17.2,17.4c1.9,9,13,18.4,27.9,7.9c-10.8-2-17.8-12.1-11.8-22.9L-19.5,1z"/>
					</g>
					<path class="st2" d="M-37.9-7.9c-0.7,0.3-1.2,1-0.4,1.7c0.6,0.6,1.9,0.3,1.9-0.7C-36.5-7.9-37.3-8.1-37.9-7.9"/>
					<g>
						<path class="st6" d="M39.9,28.1c0.8-0.3,1.8-0.4,2.7-0.5l0,0c0.5,0.7,0.7,1,1.2,1.6l0,0c0.1-0.7,0.2-2.1,0.3-2.2
							c0,0,2.1-1.2,2.7-1.4c-0.5-0.1-2.8-0.6-2.8-0.6s-0.1-2-0.2-2.5c-0.7,0.6-1.5,2.1-1.6,2.1c-0.1,0-1.5-0.4-1.9-0.8
							c0.3,0.6,0.9,1.9,0.9,2L39.9,28.1z"/>
					</g>
					<path class="st2" d="M-3,21.5c-0.5,0.2-0.9,0.8-0.3,1.3c0.5,0.5,1.5,0.2,1.5-0.6C-1.9,21.4-2.5,21.3-3,21.5"/>
					<g>
						<g>
							<path class="st7" d="M25.4,13.7c0.6,0,0.6-1,0-1C24.8,12.7,24.8,13.7,25.4,13.7L25.4,13.7z"/>
						</g>
					</g>
					<g>
						<g>
							<path class="st7" d="M2.9,3.3c0.6,0,0.6-1,0-1C2.3,2.3,2.3,3.3,2.9,3.3L2.9,3.3z"/>
						</g>
					</g>
					<g>
						<g>
							<path class="st7" d="M47.3-5.4c0.6,0,0.6-1,0-1C46.6-6.4,46.6-5.4,47.3-5.4L47.3-5.4z"/>
						</g>
					</g>
					<g>
						<g>
							<path class="st7" d="M42.9,11.4c0.6,0,0.6-1,0-1C42.3,10.4,42.3,11.4,42.9,11.4L42.9,11.4z"/>
						</g>
					</g>
					<g>
						<g>
							<path class="st7" d="M20.4-5.5c0.6,0,0.6-1,0-1C19.7-6.5,19.7-5.5,20.4-5.5L20.4-5.5z"/>
						</g>
					</g>
					<g>
						<g>
							<path class="st7" d="M-15.2,17.7c0.6,0,0.6-1,0-1C-15.8,16.7-15.8,17.7-15.2,17.7L-15.2,17.7z"/>
						</g>
					</g>
					<g>
						<g>
							<path class="st7" d="M-22.2-7.1c0.6,0,0.6-1,0-1C-22.9-8.1-22.9-7.1-22.2-7.1L-22.2-7.1z"/>
						</g>
					</g>
					<g>
						<g>
							<path class="st5" d="M45,14.8c0.6,0,0.6-1,0-1C44.4,13.8,44.3,14.8,45,14.8L45,14.8z"/>
						</g>
					</g>
					<g>
						<g>
							<path class="st7" d="M35.1,17.3c0.6,0,0.6-1,0-1C34.4,16.3,34.4,17.3,35.1,17.3L35.1,17.3z"/>
						</g>
					</g>
					<g>
						<g>
							<path class="st7" d="M-6.1,0c0.6,0,0.6-1,0-1C-6.8-1-6.8,0-6.1,0L-6.1,0z"/>
						</g>
					</g>
				</g>
				<g>
					<path class="st2" d="M106.2,0c-0.7,0.3-1.2,1-0.4,1.7c0.6,0.6,1.9,0.3,1.9-0.7C107.6-0.1,106.8-0.3,106.2,0"/>
					<path class="st4" d="M100.7-10c0-0.1-1.6-0.4-2.4-0.5c-0.1-0.8-0.4-2.4-0.5-2.4c-0.1,0-0.4,1.6-0.5,2.4
						c-0.8,0.2-2.4,0.5-2.4,0.6c0,0.1,1.6,0.3,2.4,0.4C97.5-8.6,97.8-7,97.9-7c0.1,0,0.3-1.6,0.4-2.4C99.2-9.6,100.8-9.8,100.7-10z"
						/>
					<g>
						<path class="st2" d="M119.5-14.6c0.4,0.2,1.5,0.3,2,0.4l0,0c-0.5,0.5-1.4,1.2-1.4,1.2s0.2,1.2,0,1.8c-0.3-0.1-1.4-0.8-1.4-0.8
							c-0.1,0-1.1,0.6-1.6,0.6c0.1-0.6,0.4-1.1,0.6-1.6c-0.5-0.4-1.1-0.9-1.6-1.4c0.4,0,1.9,0,1.9,0c0-0.1,0.6-1.3,0.8-1.5
							L119.5-14.6z"/>
					</g>
					<g>
						<path class="st5" d="M83.2-10.9c0.5-0.8,1.4-1.5,1.8-2.4l0,0c-0.6-0.1-3.2,0.2-3.3,0.2c0,0-1.2-1.8-2-2.5
							c-0.2,0.9-0.4,2.8-0.5,3c0,0-2.6,0.9-3,1c0.6,0.3,2.6,1.5,2.6,1.5c0.1,0.2-0.2,2.4,0,3.4c0.5-0.4,2.6-2.1,2.6-2.1
							s1.9,0.4,2.7,0.6L83.2-10.9z"/>
					</g>
					<g>
						<path class="st3" d="M123.4,0.8c-0.3-0.7-1.5-1.9-2-2.6l0,0c1-0.1,2.9,0.1,2.9,0.1s1-1.6,1.8-2.1c0.2,0.3,0.8,2.4,0.8,2.4
							c0.1,0.1,1.8,0.4,2.5,0.9c-0.7,0.5-1.6,0.9-2.4,1.3c0.2,1,0.3,2.3,0.4,3.3c-0.5-0.5-2.2-2-2.2-2c-0.1,0.1-2,0.9-2.5,1
							L123.4,0.8z"/>
					</g>
					<g>
						<path class="st5" d="M77.8,6c0.4-0.2,1.1-1.1,1.4-1.5l0,0c0.1,0.6,0.2,1.9,0.2,1.9s1.1,0.5,1.5,1C80.7,7.4,79.5,8,79.5,8
							c-0.1,0.1-0.1,1.2-0.3,1.7c-0.4-0.4-0.7-0.9-1.1-1.4c-0.6,0.2-1.4,0.4-2,0.6c0.2-0.4,1.1-1.6,1.1-1.6c-0.1,0-0.8-1.2-0.9-1.5
							L77.8,6z"/>
					</g>
					<g>
						<path class="st5" d="M113.8,24.2c-0.4,0.2-1.2,1-1.6,1.4l0,0c-0.1-0.6-0.1-1.9-0.1-1.9s-1-0.6-1.4-1.1
							c0.2-0.1,1.5-0.6,1.5-0.6c0.1-0.1,0.2-1.2,0.5-1.6c0.4,0.5,0.6,1,0.9,1.5c0.6-0.1,1.4-0.3,2.1-0.4c-0.3,0.4-1.2,1.5-1.2,1.5
							c0.1,0,0.6,1.3,0.7,1.5L113.8,24.2z"/>
					</g>
					<g>
						<path class="st6" d="M101.7,14.7c-0.6-0.6-1.2-1.4-1.7-2.1l0,0c0.4-0.7,0.6-1.1,0.9-1.8l0,0c-0.7,0.2-2,0.8-2.1,0.8
							c0,0-2-1.3-2.4-1.8c0.2,0.5,0.7,2.7,0.7,2.7s-1.8,1-2.1,1.3c0.8,0.3,2.6,0.4,2.6,0.5c0,0.1,0.4,1.6,0.2,2.1
							c0.4-0.6,1.3-1.6,1.4-1.8L101.7,14.7z"/>
					</g>
					<g>
						<path class="st7" d="M68.1-1C57.9-3.6,48.4,5.1,50.9,16.4c1.9,9,13,18.4,27.9,7.9C68.1,22.2,61,12.2,67,1.3L68.1-1z"/>
					</g>
					<path class="st2" d="M49.7-9.8c-0.7,0.3-1.2,1-0.4,1.7c0.6,0.6,1.9,0.3,1.9-0.7C51.1-9.9,50.3-10,49.7-9.8"/>
					<g>
						<path class="st6" d="M127.5,26.1c0.8-0.3,1.8-0.4,2.7-0.5l0,0c0.5,0.7,0.7,1,1.2,1.6l0,0c0.1-0.7,0.2-2.1,0.3-2.2
							c0,0,2.1-1.2,2.7-1.4c-0.5-0.1-2.8-0.6-2.8-0.6s-0.1-2-0.2-2.5c-0.7,0.6-1.5,2.1-1.6,2.1c-0.1,0-1.5-0.4-1.9-0.8
							c0.3,0.6,0.9,1.9,0.9,2L127.5,26.1z"/>
					</g>
					<path class="st2" d="M84.6,19.5c-0.5,0.2-0.9,0.8-0.3,1.3c0.5,0.5,1.5,0.2,1.5-0.6C85.7,19.5,85.1,19.3,84.6,19.5"/>
					<g>
						<g>
							<path class="st7" d="M113.1,11.7c0.6,0,0.6-1,0-1C112.4,10.7,112.4,11.7,113.1,11.7L113.1,11.7z"/>
						</g>
					</g>
					<g>
						<g>
							<path class="st7" d="M90.6,1.3c0.6,0,0.6-1,0-1C89.9,0.3,89.9,1.3,90.6,1.3L90.6,1.3z"/>
						</g>
					</g>
					<g>
						<g>
							<path class="st7" d="M134.9-7.3c0.6,0,0.6-1,0-1C134.3-8.3,134.3-7.3,134.9-7.3L134.9-7.3z"/>
						</g>
					</g>
					<g>
						<g>
							<path class="st7" d="M130.6,9.5c0.6,0,0.6-1,0-1C129.9,8.5,129.9,9.5,130.6,9.5L130.6,9.5z"/>
						</g>
					</g>
					<g>
						<g>
							<path class="st7" d="M108-7.5c0.6,0,0.6-1,0-1C107.4-8.5,107.4-7.5,108-7.5L108-7.5z"/>
						</g>
					</g>
					<g>
						<g>
							<path class="st7" d="M72.4,15.7c0.6,0,0.6-1,0-1C71.8,14.7,71.8,15.7,72.4,15.7L72.4,15.7z"/>
						</g>
					</g>
					<g>
						<g>
							<path class="st7" d="M65.4-9c0.6,0,0.6-1,0-1C64.8-10,64.8-9,65.4-9L65.4-9z"/>
						</g>
					</g>
					<g>
						<g>
							<path class="st5" d="M132.6,12.9c0.6,0,0.6-1,0-1C132,11.9,132,12.9,132.6,12.9L132.6,12.9z"/>
						</g>
					</g>
					<g>
						<g>
							<path class="st7" d="M122.7,15.3c0.6,0,0.6-1,0-1C122.1,14.3,122.1,15.3,122.7,15.3L122.7,15.3z"/>
						</g>
					</g>
					<g>
						<g>
							<path class="st7" d="M81.5-1.9c0.6,0,0.6-1,0-1C80.9-2.9,80.9-1.9,81.5-1.9L81.5-1.9z"/>
						</g>
					</g>
				</g>
				<g>
					<g>
						<path class="st2" d="M193.9-2c-0.7,0.3-1.2,1-0.4,1.7c0.6,0.6,1.9,0.3,1.9-0.7C195.2-2.1,194.5-2.2,193.9-2"/>
						<path class="st4" d="M188.4-11.9c0-0.1-1.6-0.4-2.4-0.5c-0.1-0.8-0.4-2.4-0.5-2.4c-0.1,0-0.4,1.6-0.5,2.4
							c-0.8,0.2-2.4,0.5-2.4,0.6c0,0.1,1.6,0.3,2.4,0.4c0.2,0.8,0.5,2.4,0.6,2.4c0.1,0,0.3-1.6,0.4-2.4
							C186.8-11.5,188.4-11.8,188.4-11.9z"/>
						<g>
							<path class="st2" d="M207.1-16.5c0.4,0.2,1.5,0.3,2,0.4l0,0c-0.5,0.5-1.4,1.2-1.4,1.2s0.2,1.2,0,1.8
								c-0.2-0.1-1.4-0.8-1.4-0.8c-0.1,0-1.1,0.6-1.6,0.6c0.1-0.6,0.4-1.1,0.6-1.6c-0.5-0.4-1.1-0.9-1.6-1.4c0.4,0,1.9,0,1.9,0
								c0-0.1,0.6-1.3,0.8-1.5L207.1-16.5z"/>
						</g>
						<g>
							<path class="st5" d="M170.9-12.8c0.5-0.8,1.4-1.5,1.8-2.4l0,0c-0.6-0.1-3.2,0.2-3.3,0.2c0,0-1.2-1.8-2-2.5
								c-0.2,0.9-0.4,2.8-0.5,3c0,0-2.6,0.9-3,1c0.6,0.3,2.6,1.5,2.6,1.5c0.1,0.2-0.2,2.4,0,3.4c0.5-0.4,2.6-2.1,2.6-2.1
								s1.9,0.4,2.7,0.6L170.9-12.8z"/>
						</g>
						<g>
							<path class="st3" d="M211-1.1c-0.3-0.7-1.5-1.9-2-2.6l0,0c1-0.1,2.9,0.1,2.9,0.1s1-1.6,1.8-2.1c0.2,0.3,0.8,2.4,0.8,2.4
								c0.1,0.1,1.8,0.4,2.5,0.9c-0.7,0.5-1.6,0.9-2.4,1.3c0.2,1,0.3,2.3,0.4,3.3c-0.5-0.5-2.2-2-2.2-2c-0.1,0.1-2,0.9-2.5,1
								L211-1.1z"/>
						</g>
						<g>
							<path class="st5" d="M165.4,4c0.4-0.2,1.1-1.1,1.4-1.5l0,0c0.1,0.6,0.2,1.9,0.2,1.9s1.1,0.5,1.5,1c-0.2,0.2-1.5,0.7-1.5,0.7
								c-0.1,0.1-0.1,1.2-0.3,1.7c-0.4-0.4-0.7-0.9-1.1-1.4c-0.6,0.2-1.4,0.4-2,0.6c0.2-0.4,1.1-1.6,1.1-1.6c-0.1,0-0.8-1.2-0.9-1.5
								L165.4,4z"/>
						</g>
						<g>
							<path class="st5" d="M201.5,22.2c-0.4,0.2-1.2,1-1.6,1.4l0,0c-0.1-0.6-0.1-1.9-0.1-1.9s-1-0.6-1.4-1.1
								c0.2-0.1,1.5-0.6,1.5-0.6c0.1-0.1,0.2-1.2,0.5-1.6c0.4,0.5,0.6,1,0.9,1.5c0.6-0.1,1.4-0.3,2.1-0.4c-0.3,0.4-1.2,1.5-1.2,1.5
								c0.1,0,0.6,1.3,0.7,1.5L201.5,22.2z"/>
						</g>
						<g>
							<path class="st6" d="M189.3,12.7c-0.6-0.6-1.2-1.4-1.7-2.1l0,0c0.4-0.7,0.6-1.1,0.9-1.8l0,0c-0.7,0.2-2,0.8-2.1,0.8
								c0,0-2-1.3-2.4-1.8c0.2,0.5,0.7,2.7,0.7,2.7s-1.8,1-2.1,1.3c0.8,0.3,2.6,0.4,2.6,0.5c0,0.1,0.4,1.6,0.2,2.1
								c0.4-0.6,1.3-1.6,1.4-1.8L189.3,12.7z"/>
						</g>
						<g>
							<path class="st7" d="M155.7-2.9c-10.2-2.6-19.7,6.1-17.2,17.4c1.9,9,13,18.4,27.9,7.9c-10.8-2-17.8-12.1-11.8-22.9L155.7-2.9
								z"/>
						</g>
						<path class="st2" d="M137.4-11.8c-0.7,0.3-1.2,1-0.4,1.7c0.6,0.6,1.9,0.3,1.9-0.7C138.7-11.8,138-12,137.4-11.8"/>
						<g>
							<path class="st6" d="M215.1,24.1c0.8-0.3,1.8-0.4,2.7-0.5l0,0c0.5,0.7,0.7,1,1.2,1.6l0,0c0.1-0.7,0.2-2.1,0.3-2.2
								c0,0,2.1-1.2,2.7-1.4c-0.5-0.1-2.8-0.6-2.8-0.6s-0.1-2-0.2-2.5c-0.7,0.6-1.5,2.1-1.6,2.1c-0.1,0-1.5-0.4-1.9-0.8
								c0.3,0.6,0.9,1.9,0.9,2L215.1,24.1z"/>
						</g>
						<path class="st2" d="M172.3,17.5c-0.5,0.2-0.9,0.8-0.3,1.3c0.5,0.5,1.5,0.2,1.5-0.6C173.4,17.5,172.8,17.4,172.3,17.5"/>
						<g>
							<g>
								<path class="st7" d="M200.7,9.8c0.6,0,0.6-1,0-1C200.1,8.8,200.1,9.8,200.7,9.8L200.7,9.8z"/>
							</g>
						</g>
						<g>
							<g>
								<path class="st7" d="M178.2-0.6c0.6,0,0.6-1,0-1C177.6-1.6,177.6-0.6,178.2-0.6L178.2-0.6z"/>
							</g>
						</g>
						<g>
							<g>
								<path class="st7" d="M222.6-9.3c0.6,0,0.6-1,0-1C221.9-10.3,221.9-9.3,222.6-9.3L222.6-9.3z"/>
							</g>
						</g>
						<g>
							<g>
								<path class="st7" d="M218.2,7.5c0.6,0,0.6-1,0-1C217.6,6.5,217.6,7.5,218.2,7.5L218.2,7.5z"/>
							</g>
						</g>
						<g>
							<g>
								<path class="st7" d="M195.7-9.4c0.6,0,0.6-1,0-1C195-10.4,195-9.4,195.7-9.4L195.7-9.4z"/>
							</g>
						</g>
						<g>
							<g>
								<path class="st7" d="M160.1,13.8c0.6,0,0.6-1,0-1C159.4,12.8,159.4,13.8,160.1,13.8L160.1,13.8z"/>
							</g>
						</g>
						<g>
							<g>
								<path class="st7" d="M153.1-11c0.6,0,0.6-1,0-1C152.4-12,152.4-11,153.1-11L153.1-11z"/>
							</g>
						</g>
						<g>
							<g>
								<path class="st5" d="M220.3,10.9c0.6,0,0.6-1,0-1C219.6,9.9,219.6,10.9,220.3,10.9L220.3,10.9z"/>
							</g>
						</g>
						<g>
							<g>
								<path class="st7" d="M210.4,13.4c0.6,0,0.6-1,0-1C209.7,12.4,209.7,13.4,210.4,13.4L210.4,13.4z"/>
							</g>
						</g>
						<g>
							<g>
								<path class="st7" d="M169.2-3.9c0.6,0,0.6-1,0-1C168.5-4.9,168.5-3.9,169.2-3.9L169.2-3.9z"/>
							</g>
						</g>
					</g>
				</g>
			</g>
		</g>
	</g>
</g>
</svg>
