<?xml version="1.0" encoding="utf-8"?>
<!-- Generator: Adobe Illustrator 26.0.0, SVG Export Plug-In . SVG Version: 6.00 Build 0)  -->
<svg version="1.1" id="Capa_1" xmlns="http://www.w3.org/2000/svg" xmlns:xlink="http://www.w3.org/1999/xlink" x="0px" y="0px"
	 viewBox="0 0 147.2 71.6" style="enable-background:new 0 0 147.2 71.6;" xml:space="preserve">
<style type="text/css">
	.st0{opacity:0;}
	.st1{fill:#FFFFFF;}
	.st2{fill:#FEDB8B;}
	.st3{fill:#F4995F;}
</style>
<g>
	<g class="st0">
		<path class="st1" d="M144.1,63.9c0-32.6-31.7-58.9-70.9-58.9S2.4,31.3,2.4,63.9c0,2.6,0.2,5.2,0.6,7.8h140.5
			C143.9,69.1,144.1,66.5,144.1,63.9z"/>
	</g>
	<g>
		<path class="st2" d="M33.8,69.3c1.1,4.1,76,2,78.1,0c3.9-3.6-1.6-34.4-33.2-38.4S31,58.8,33.8,69.3z"/>
		<path class="st3" d="M68.6,28c0,0,10.1,0,13.2,0s-3.3-15.6-6.6-16.1C72,11.4,65.3,28,68.6,28z"/>
		<path class="st3" d="M87.9,28.1c0,0,8.9,4.8,11.6,6.3c2.8,1.4,4.5-15.4,1.8-17.4S84.9,26.5,87.9,28.1z"/>
		<path class="st3" d="M104.9,37.9c0,0,7,7.3,9.1,9.6s9-13.2,7.1-15.9S102.6,35.4,104.9,37.9z"/>
		<path class="st3" d="M115.9,52.1c0,0,1.9,9.9,2.5,13c0.6,3.1,14.7-6.2,14.6-9.5C132.8,52.3,115.3,48.8,115.9,52.1z"/>
		<path class="st3" d="M61.5,28.1c0,0-8.9,4.8-11.6,6.3c-2.7,1.5-4.4-15.3-1.8-17.3S64.5,26.5,61.5,28.1z"/>
		<path class="st3" d="M44.1,37.9c0,0-7,7.3-9.1,9.6c-2.1,2.3-9-13.2-7.1-15.9S46.5,35.4,44.1,37.9z"/>
		<path class="st3" d="M31.3,52.1c0,0-1.9,9.9-2.5,13c-0.5,3.1-14.6-6.2-14.5-9.5C14.4,52.3,32,48.8,31.3,52.1z"/>
	</g>
</g>
</svg>
