<?xml version="1.0" encoding="utf-8"?>
<!-- Generator: Adobe Illustrator 26.0.0, SVG Export Plug-In . SVG Version: 6.00 Build 0)  -->
<svg version="1.1" id="Capa_1" xmlns="http://www.w3.org/2000/svg" xmlns:xlink="http://www.w3.org/1999/xlink" x="0px" y="0px"
	 viewBox="0 0 118.6 59.7" style="enable-background:new 0 0 118.6 59.7;" xml:space="preserve">
<style type="text/css">
	.st0{fill:#FEDB8B;}
	.st1{fill:#F4995F;}
</style>
<g>
	<path class="st0" d="M19.5,57.4c1.1,4.1,76,2,78.1,0C101.5,53.8,96,23,64.4,19S16.7,46.9,19.5,57.4z"/>
	<path class="st1" d="M54.3,16.1c0,0,10.1,0,13.2,0S64.2,0.5,60.9,0C57.7-0.5,51,16.1,54.3,16.1z"/>
	<path class="st1" d="M73.6,16.2c0,0,8.9,4.8,11.6,6.3C88,23.9,89.7,7.1,87,5.1S70.6,14.6,73.6,16.2z"/>
	<path class="st1" d="M90.6,26c0,0,7,7.3,9.1,9.6c2.1,2.3,9-13.2,7.1-15.9S88.3,23.5,90.6,26z"/>
	<path class="st1" d="M101.6,40.2c0,0,1.9,9.9,2.5,13c0.6,3.1,14.7-6.2,14.6-9.5C118.5,40.4,101,36.9,101.6,40.2z"/>
	<path class="st1" d="M47.2,16.2c0,0-8.9,4.8-11.6,6.3c-2.7,1.5-4.4-15.3-1.8-17.3S50.2,14.6,47.2,16.2z"/>
	<path class="st1" d="M29.8,26c0,0-7,7.3-9.1,9.6c-2.1,2.3-9-13.2-7.1-15.9S32.2,23.5,29.8,26z"/>
	<path class="st1" d="M17,40.2c0,0-1.9,9.9-2.5,13C14,56.3-0.1,47,0,43.7S17.7,36.9,17,40.2z"/>
</g>
</svg>
