<?xml version="1.0" encoding="utf-8"?>
<!-- Generator: Adobe Illustrator 26.0.0, SVG Export Plug-In . SVG Version: 6.00 Build 0)  -->
<svg version="1.1" id="Capa_1" xmlns="http://www.w3.org/2000/svg" xmlns:xlink="http://www.w3.org/1999/xlink" x="0px" y="0px"
	 viewBox="0 0 333 405" style="enable-background:new 0 0 333 405;" xml:space="preserve">
<style type="text/css">
	.st0{opacity:0.31;}
	.st1{fill:#DAD5D1;}
	.st2{fill:#3DA54E;}
	.st3{fill:#B4CEC1;}
	.st4{fill:#50FA7B;}
	.st5{opacity:0.51;}
	.st6{fill:none;stroke:#DAD5D1;stroke-width:1.08;stroke-miterlimit:10;}
	.st7{fill:none;stroke:#DAD5D1;stroke-width:0.81;stroke-miterlimit:10;}
	.st8{fill:none;stroke:#B4CEC1;stroke-width:2.05;stroke-linecap:round;stroke-miterlimit:10;}
	.st9{fill:#F8F8F2;}
	.st10{fill:#79BF86;}
	.st11{fill:#FFB86C;}
	.st12{fill:#FF5555;}
	.st13{opacity:0.63;fill:#FF5555;enable-background:new    ;}
	.st14{fill:none;stroke:#010101;stroke-width:0.54;stroke-linecap:round;stroke-miterlimit:10;}
	.st15{fill:#873226;}
	.st16{fill:#010101;}
	.st17{fill:#FF79C6;}
	.st18{opacity:0.38;}
	.st19{fill:#DDD6BA;}
	.st20{fill:#6D7BBB;}
	.st21{fill:#8BE9FD;}
	.st22{opacity:0.28;}
	.st23{fill:none;stroke:#FFFFFF;stroke-width:1.08;stroke-miterlimit:10;}
</style>
<g class="st0">
	<path class="st1" d="M285.5,227.7c-15-16.4-30.5-33.9-35.5-55.6c-8.7-38.1,17.5-79.8,2.4-115.9c-11.7-27.8-43.8-40.9-71.6-29.2
		c-5.6,2.4-10.8,5.7-15.4,9.8c-13.9,12.5-20.3,31-27.6,48.2c-7.5,17.8-16.4,35-26.6,51.5c-6,9.7-12.7,19.4-21.7,26.5
		c-10.9,8.5-24.4,12.8-36.8,19.1c-26.9,13.6-49,39.1-52.5,69c-3.4,30.1,13,60.2,37.3,78.2s55.5,25,85.8,24.8
		c24.7-0.2,49.6-4.9,71.5-16.2c8.3-4.3,16.2-9.5,25.2-12.3c9.9-3.1,20.4-3.2,30.4-6c31.8-8.6,50.6-41.4,42-73.2
		c-1.4-5.1-3.4-9.9-6-14.5"/>
	<path class="st1" d="M95,58.8c-10.2-14.2-9.9-35.1,0.7-49c4.6-6,11.8-10.9,19.2-9.5c4.8,0.9,8.8,4.3,11.6,8.2
		c7.1,9.9,8.5,22.9,3.5,34.1c-5.2,11-16,18.4-28.2,19.4"/>
	<path class="st1" d="M315.7,233c-8.4-7.3-13.6-17.6-14.4-28.7c-0.3-2.2,0.1-4.5,1.1-6.6c2.2-3.5,7.2-4,11.2-3
		c11.8,2.7,20.5,14.9,19.3,26.9c-0.6,6.2-6.1,13.3-12,11.1"/>
</g>
<path class="st2" d="M41.5,366c-15.9-8.5-24.6-19-30.2-36c-1.4-4-2.1-9.1,1.1-12c3.4-3.1,8.8-1.6,12.8,0.6c7.4,4,13.9,9.6,19,16.3
	c6.5,8.7,11.9,20.1,22.6,22c1,0.3,2,0.2,2.9-0.2c2.6-1.5,0.9-5.4-0.7-7.8c-3-4.6-5-9.8-5.7-15.2c-0.2-1-0.1-2,0.2-2.9
	c0.3-0.6,0.8-1.2,1.4-1.6s1.3-0.7,2-0.8c5.1-1.1,10.1,2.1,14.1,5.4c10.3,8.3,24.8,22.2,31.8,33.4"/>
<path class="st3" d="M147,271.6c-14.8-4.5-27.8-13.5-37.2-25.8c-4.4-5.8-8.1-12.5-8.5-19.8c-0.2-4.1,1.3-9.1,5.4-9.9
	c2.9-0.6,5.7,1.5,7.9,3.4c15.8,14,27.5,32.1,33.7,52.4"/>
<path class="st2" d="M61,290.9c-7.5-1.5-15.2-3.1-22.1-6.6s-12.9-9.2-15.2-16.5c-0.9-2.9-1.1-6.3,0.7-8.8c2.2-3.1,6.7-3.6,10.5-3.1
	c8.1,1.3,15.4,5.7,20.5,12.2c5,6.5,8.2,14.2,9.3,22.2"/>
<path class="st2" d="M72.9,295.5c-2.1-4.2-3.7-8.6-4.5-13.2c-1.3-6.2-1.8-13.2,2-18.3c0.5-0.8,1.2-1.5,2-2s1.7-0.9,2.7-1
	c1.1,0,2.3,0.4,3.2,1c4.1,2.3,6.8,6.5,7.3,11.2c0.4,4.2-1.2,8.4-3.4,12.2s-4.9,7-7,10.7"/>
<path class="st3" d="M84.2,307c-4.8-1.3-9.7-2-14.6-2.2c-5-0.2-9.9,1.2-14,4c-0.8,0.5-1.4,1.2-1.6,2.1c0,0.4,0,0.9,0.2,1.3
	c0.1,0.4,0.4,0.8,0.7,1.1c1,1.2,2.2,2.1,3.6,2.7c1.4,0.6,2.9,0.9,4.4,0.9c3.1-0.1,6.1-0.8,8.9-2c3.9-1.5,7.8-3.5,9.9-7.1"/>
<path class="st3" d="M101.6,319.7c-1.7-4.4-2.9-8.9-3.5-13.6s0.5-9.4,3.1-13.4c0.3-0.5,0.8-1,1.3-1.2c0.7-0.1,1.5,0,2.1,0.4
	c2.5,1.7,4.3,4.2,5,7.2c2.1,7.4,0.1,15.4-5.2,21"/>
<path class="st4" d="M34.5,264.8c2.3,9.4,11.7,15.2,19,20.7c8.1,6,16.4,11.8,24.6,17.7c16.4,11.6,32.7,23.5,47,37.7
	c8,7.9,15.1,16.6,21.2,26c0.6,0.9,2.1,0.1,1.5-0.9c-10.6-16.5-24.7-30.4-39.9-42.8c-15.5-12.5-32-23.6-48.1-35.3
	c-4.6-3.4-9.2-6.7-13.6-10.3s-8.5-7.7-9.9-13.3C36,263.3,34.3,263.8,34.5,264.8L34.5,264.8z"/>
<path class="st4" d="M67.4,346.4c1.8-6.2,6.5-11.2,12.6-13.4c-3.9-3-8.5-5.7-13.3-4.7c-1.4,0.2-2.7,1.1-3.4,2.4
	c-0.3,0.9-0.4,1.9-0.2,2.9C63.7,338.1,65.2,342.5,67.4,346.4z"/>
<path class="st4" d="M40.8,360c-6.1-6.6-11.4-13.8-16-21.4c-2.9-5.1-6-11.7-4.1-17.6c0.4-1.3,1.1-2.6,2-3.6c-3.7-1.5-7.7-2-10.4,0.6
	c-3.1,2.9-2.4,8-1.1,12c5.7,17,14.3,27.6,30.2,36.1l4.7,0.1C44.3,364.1,42.5,362,40.8,360z"/>
<path class="st3" d="M138,252.6c1.9,2.8,3.9,5.4,6,8c-3.6-8.5-8.3-16.5-13.8-23.9C129.4,240.8,136.5,250.4,138,252.6z"/>
<path class="st1" d="M111.3,237.5c-1.7-6.1,1.7-12.4,8.4-15.8c-1-0.7-2-1.4-3-2.1c-2.8-2-6.4-4-10.1-3.4c-5.1,0.7-7.2,5.8-6.9,9.9
	c0.6,7.3,5.3,14,11,19.8c2.9,3,6.1,5.8,9.6,8.3C115.9,249.1,112.8,243.5,111.3,237.5z"/>
<path class="st1" d="M192.4,247.4c-1.7-6.1,1.7-12.4,8.4-15.8c-1-0.7-2-1.4-3-2.1c-2.8-2-6.4-4-10.1-3.4c-5.1,0.7-7.2,5.8-6.9,9.9
	c0.6,7.3,5.3,14,11,19.8c2.9,3,6.1,5.8,9.6,8.3C196.9,259,193.9,253.3,192.4,247.4z"/>
<path class="st4" d="M56.1,289.5c-11-3.1-22.2-15.8-24.7-26.9c-0.5-2.2-0.7-4.6-0.5-6.9c-2.5,0.1-4.9,1.3-6.5,3.2
	c-1.8,2.5-1.6,5.9-0.7,8.8c2.3,7.3,8.4,13,15.2,16.5s14.5,5.1,22.1,6.6l3.7-0.6c0-0.4-0.1-0.7-0.2-1.1
	C61.8,290.3,58.9,290.4,56.1,289.5z"/>
<path class="st4" d="M85.5,273.2c-0.4-4.7-3.1-8.9-7.3-11.2c-0.4-0.2-0.8-0.4-1.2-0.6c3,8.4,4.6,17.7-0.3,25.5
	c-1.3,2.2-3.9,3.3-6.3,2.6c0.7,2.1,1.5,4.1,2.6,6l2.2,0.6c2.2-3.6,4.9-7,7-10.7S85.8,277.5,85.5,273.2z"/>
<path class="st3" d="M62,311.7c-1.6-1.2-3-2.7-3.9-4.5c-0.9,0.4-1.7,0.9-2.4,1.5c-0.8,0.5-1.4,1.3-1.6,2.2c0,0.4,0,0.9,0.2,1.3
	c0.1,0.4,0.4,0.8,0.7,1.1c1,1.2,2.2,2.1,3.6,2.7c1.4,0.6,2.9,0.9,4.4,0.9c2.6,0,5.2-0.5,7.6-1.5C67.4,314.9,64.5,313.6,62,311.7z"/>
<path class="st3" d="M102.2,298c2.3-0.5,4.7-0.5,7,0.1c-0.8-2.5-2.4-4.7-4.6-6.1c-0.3-0.2-0.6-0.3-1-0.4s-0.7-0.1-1.1,0
	c-0.6,0.2-1,0.7-1.3,1.2c-1.5,2.1-2.5,4.4-2.9,6.9C99.5,298.9,100.8,298.3,102.2,298z"/>
<path class="st2" d="M265.8,366c15.9-8.5,24.6-19,30.2-36c1.4-4,2.1-9.1-1-12c-3.4-3.1-8.8-1.6-12.8,0.6c-7.4,4-13.9,9.6-19,16.3
	c-6.5,8.7-11.9,20.1-22.5,22c-1,0.2-2,0.2-2.9-0.2c-2.6-1.5-0.9-5.4,0.7-7.8c3-4.6,5-9.8,5.7-15.2c0.2-1,0.1-2-0.2-2.9
	c-0.3-0.6-0.8-1.2-1.4-1.6c-0.6-0.4-1.3-0.7-2-0.8c-5.1-1.1-10.1,2.1-14.1,5.4c-10.3,8.3-24.7,22.2-31.8,33.4"/>
<path class="st3" d="M177.8,238.4c7.5-4,13.6-10.2,17.4-17.8c2-3.5,2.9-7.6,2.5-11.6c-0.3-2.2-1.7-4.8-3.9-4.8
	c-1.6,0-2.9,1.4-3.9,2.7c-7,9.2-11.4,20.2-12.7,31.7"/>
<path class="st2" d="M246.2,290.9c7.5-1.5,15.2-3.1,22.1-6.6s13-9.2,15.2-16.5c0.9-2.9,1.1-6.3-0.7-8.8c-2.2-3.1-6.7-3.6-10.5-3.1
	c-8.1,1.3-15.4,5.7-20.5,12.2c-5,6.5-8.2,14.2-9.3,22.2"/>
<path class="st2" d="M234.4,295.5c2.1-4.2,3.7-8.6,4.5-13.2c1.3-6.2,1.7-13.2-2-18.3c-0.4-0.7-0.8-1.3-1.4-1.8c-0.6-0.5-1.3-0.8-2-1
	s-1.5-0.2-2.3-0.1s-1.5,0.4-2.1,0.9c-4.1,2.3-6.8,6.5-7.3,11.2c-0.4,4.2,1.2,8.4,3.4,12.2s4.8,7,7,10.7"/>
<path class="st3" d="M223,307c4.8-1.3,9.7-2.1,14.6-2.3c5-0.2,9.9,1.2,14,4c0.8,0.5,1.3,1.3,1.6,2.1c0,0.4,0,0.9-0.1,1.3
	s-0.4,0.8-0.6,1.1c-2,2.4-5,3.7-8.1,3.6s-6.1-0.8-8.9-2c-3.9-1.5-7.8-3.5-9.9-7.1"/>
<path class="st3" d="M205.7,319.7c1.7-4.4,2.9-8.9,3.5-13.6s-0.5-9.4-3.1-13.4c-0.3-0.5-0.8-1-1.4-1.2c-0.7-0.2-1.5,0-2.1,0.4
	c-2.5,1.7-4.3,4.2-5,7.2c-2.1,7.4-0.1,15.4,5.3,20.9"/>
<path class="st4" d="M271,264.3c-1.2,5-4.6,8.8-8.4,12s-7.9,6.2-12,9.2c-8.1,5.9-16.2,11.7-24.4,17.5c-16.1,11.5-32.1,23.2-46,37.3
	c-7.8,7.8-14.8,16.3-20.7,25.6c-0.6,1,0.9,1.8,1.5,0.9c10.8-16.9,25.3-30.9,40.8-43.3c15.8-12.6,32.7-23.8,49-35.8
	c4.4-3.2,8.8-6.4,12.9-9.9s7.7-7.6,9-13C273,263.7,271.3,263.2,271,264.3L271,264.3z"/>
<path class="st3" d="M180.6,227.2c-0.7,1.7-1.5,3.3-2.4,4.9c1.1-5,2.7-9.8,4.9-14.4C184,220,181.2,225.9,180.6,227.2z"/>
<path class="st3" d="M194,216.2c0-3.4-2-6.5-5.2-7.8c0.3-0.5,0.7-0.9,1-1.4c1-1.3,2.3-2.7,3.9-2.7c2.3,0,3.7,2.5,3.9,4.8
	c0.3,4-0.6,8.1-2.5,11.6c-0.9,1.8-2,3.6-3.1,5.3C193.3,222.8,194,219.5,194,216.2z"/>
<path class="st4" d="M239.9,346.4c-1.8-6.2-6.5-11.2-12.6-13.4c3.9-3,8.5-5.7,13.3-4.7c1.4,0.2,2.7,1.1,3.4,2.4
	c0.3,0.9,0.4,1.9,0.2,2.9C243.6,338.1,242.1,342.5,239.9,346.4z"/>
<path class="st4" d="M266.5,360c6.1-6.6,11.4-13.8,16-21.4c2.9-5.1,6-11.7,4.1-17.6c-0.4-1.3-1.1-2.6-2-3.6c3.7-1.5,7.7-2,10.4,0.6
	c3.1,2.9,2.4,8,1,12c-5.6,17-14.3,27.6-30.2,36.1l-4.7,0.1C263,364.1,264.8,362,266.5,360z"/>
<path class="st4" d="M251.2,289.5c11-3.1,22.2-15.8,24.7-26.9c0.5-2.2,0.7-4.6,0.5-6.9c1.3,0,2.5,0.4,3.6,0.9
	c1.1,0.6,2.1,1.4,2.9,2.3c1.8,2.5,1.5,5.9,0.7,8.8c-2.3,7.3-8.4,13-15.2,16.5s-14.5,5.1-22.1,6.6l-3.7-0.6c0.1-0.4,0.1-0.7,0.2-1.1
	C245.5,290.3,248.4,290.4,251.2,289.5z"/>
<path class="st4" d="M221.8,273.2c0.4-4.7,3.1-8.9,7.3-11.2c0.4-0.2,0.8-0.4,1.2-0.6c-3,8.4-4.5,17.7,0.3,25.5
	c0.6,1.1,1.6,1.9,2.7,2.4c1.2,0.5,2.4,0.5,3.6,0.2c-0.7,2.1-1.5,4.1-2.6,6l-2.2,0.6c-2.2-3.6-4.9-7-7-10.7S221.5,277.5,221.8,273.2z
	"/>
<path class="st3" d="M245.3,311.7c1.6-1.2,3-2.7,3.9-4.5c0.9,0.4,1.7,0.9,2.4,1.5c0.8,0.5,1.4,1.2,1.7,2.1c0,0.4,0,0.9-0.1,1.3
	s-0.4,0.8-0.6,1.1c-2,2.4-5,3.7-8.1,3.6c-2.6,0-5.2-0.5-7.6-1.5C239.8,314.9,242.8,313.6,245.3,311.7z"/>
<path class="st3" d="M205,298c-2.3-0.6-4.7-0.5-7,0.1c0.8-2.5,2.4-4.7,4.6-6.1c0.3-0.2,0.6-0.3,1-0.4s0.7-0.1,1.1,0
	c0.6,0.3,1,0.7,1.4,1.2c1.5,2.1,2.5,4.5,2.9,7C207.8,298.9,206.4,298.3,205,298z"/>
<g class="st5">
	<path class="st3" d="M70.9,242.6c0-0.5-0.2-1.1-0.4-1.5c-0.3-0.4-0.7-0.8-1.2-1s-1-0.3-1.6-0.2c-0.5,0.1-1,0.4-1.4,0.7
		c-0.4,0.4-0.6,0.9-0.8,1.4c-0.2,1.1,0.3,2.2,1.2,2.8c0.5,0.3,1,0.4,1.5,0.4C69.7,245.3,70.9,244.1,70.9,242.6L70.9,242.6z"/>
	<path class="st3" d="M8.9,307.2c2.1,0,3.8-1.8,3.8-3.9s-1.8-3.8-3.9-3.8S5,301.2,5,303.4C5,305.5,6.7,307.2,8.9,307.2L8.9,307.2z"
		/>
	<path class="st3" d="M51.5,160.8c3.9,0,7-3.1,7-7s-3.1-7-7-7s-7,3.1-7,7l0,0C44.5,157.6,47.7,160.8,51.5,160.8z"/>
	<path class="st3" d="M194.8,174.3c1.7,0,3.1-1.4,3.1-3.1s-1.4-3.1-3.1-3.1s-3.1,1.4-3.1,3.1l0,0C191.6,172.9,193,174.3,194.8,174.3
		C194.7,174.3,194.7,174.3,194.8,174.3z"/>
	<path class="st3" d="M303.9,297.5c0-2.8-2.2-5-5-5c-0.3,0-0.7,0-1,0.1c-2,0.4-3.6,1.9-4,4c-0.6,2.7,1.2,5.3,3.9,5.9
		c0.3,0.1,0.7,0.1,1,0.1c0.7,0,1.3-0.1,1.9-0.4s1.2-0.6,1.6-1.1c0.5-0.5,0.8-1,1.1-1.6C303.8,298.8,303.9,298.2,303.9,297.5z"/>
	<path class="st3" d="M245.5,235.3c0-0.4-0.1-0.8-0.3-1.1s-0.5-0.6-0.9-0.7c-0.7-0.3-1.6-0.1-2.1,0.4c-0.3,0.3-0.5,0.6-0.5,1
		c-0.1,0.4,0,0.8,0.1,1.1c0.1,0.4,0.4,0.7,0.7,0.9s0.7,0.3,1.1,0.3c0.3,0,0.5-0.1,0.7-0.1c0.2-0.1,0.4-0.2,0.6-0.4
		c0.2-0.2,0.3-0.4,0.4-0.6C245.4,235.9,245.5,235.6,245.5,235.3z"/>
	<path class="st3" d="M159.9,103.6c0-3-2.4-5.4-5.4-5.5c-2.6,0-4.9,1.8-5.4,4.4c-0.2,1.1-0.1,2.1,0.3,3.1c1.2,2.8,4.3,4.1,7.1,2.9
		C158.6,107.7,159.9,105.8,159.9,103.6L159.9,103.6z"/>
</g>
<path class="st6" d="M22.1,197.6c10.9,0,19.6-8.8,19.6-19.7s-8.8-19.6-19.7-19.6c-10.8,0-19.6,8.8-19.6,19.6
	C2.4,188.8,11.2,197.6,22.1,197.6z"/>
<path class="st6" d="M6.3,193.2c-3.5,7.9,0.8,7.3,3,7c1-0.2,1.8-0.7,2.6-1.3c10.9-8.4,17.5-21,22.6-33.7c1.2-3.1,2.4-6.6,1-9.6
	c-0.3-0.6-0.7-1.2-1.3-1.6c-1.8-0.9-3.7,0.8-5,2.3"/>
<path class="st7" d="M267.5,137.4c8.1-1.1,13.8-8.5,12.7-16.6c-1.1-8.1-8.5-13.8-16.6-12.7c-8.1,1.1-13.7,8.5-12.7,16.6
	C251.9,132.8,259.4,138.5,267.5,137.4C267.4,137.4,267.5,137.4,267.5,137.4z"/>
<path class="st7" d="M254.3,110.8c-5.9-2.7-5.5,0.5-5.3,2.1c0.2,0.7,0.5,1.4,1,2c6,8.3,15.5,13.4,25,17.5c2.3,1,4.9,1.9,7.2,0.9
	c0.5-0.2,0.9-0.5,1.2-1c0.7-1.3-0.5-2.8-1.6-3.8"/>
<path class="st1" d="M74.6,217.2c0-0.7-0.2-1.4-0.6-1.9c-1.1-1.6-3.3-2-4.9-0.9c-0.8,0.5-1.3,1.3-1.5,2.2c-0.1,0.7-0.1,1.4,0.2,2
	c0.5,1.3,1.8,2.1,3.2,2.1c0.5,0,0.9-0.1,1.3-0.3s0.8-0.4,1.1-0.8c0.3-0.3,0.6-0.7,0.8-1.1C74.5,218.1,74.6,217.6,74.6,217.2z"/>
<path class="st1" d="M89.5,90.6c0-2.6-1.6-5-4.1-6s-5.3-0.5-7.2,1.4c-1.9,1.9-2.4,4.7-1.4,7.1c1.4,3.3,5.3,4.9,8.6,3.5
	C87.9,95.6,89.5,93.3,89.5,90.6L89.5,90.6z"/>
<path class="st1" d="M239.5,201.5c1.7,0,3.1-1.4,3-3.1s-1.4-3.1-3.1-3c-1.7,0-3,1.4-3,3.1C236.5,200.1,237.8,201.5,239.5,201.5
	L239.5,201.5z"/>
<path class="st1" d="M218.5,85.3c0-0.5-0.2-1-0.5-1.4s-0.7-0.7-1.2-0.9c-1-0.4-2.1-0.1-2.8,0.6c-0.4,0.4-0.6,0.8-0.7,1.3
	c-0.1,0.5,0,1,0.2,1.5s0.6,0.9,1,1.2c0.4,0.3,0.9,0.4,1.4,0.4c0.3,0,0.7-0.1,1-0.2s0.6-0.3,0.9-0.6c0.2-0.2,0.4-0.5,0.6-0.9
	C218.5,86,218.6,85.7,218.5,85.3z"/>
<path class="st8" d="M22,366.7h267"/>
<path class="st9" d="M145,405c45.9,0,83.1-4.7,83.1-10.5S190.9,384,145,384s-83.1,4.7-83.1,10.5S99.1,405,145,405z"/>
<path class="st4" d="M127.4,95.1c7.9-11.4,20.7-18.5,34.6-19.2c2.8-0.2,5.5,0.2,8.1,1.3c3.1,1.5,5.2,4.3,7.3,7.1
	c5.4,7.2,11.1,14.2,17,21c1,1.5,2.5,2.6,4.3,3.1c1.7,0.2,3.5-0.2,5-1.1c8.6-3.8,19.3-6.3,27-0.9c1.6,5.6-3.7,12-9.5,11.6
	c-4.4-0.4-9.3-3.7-12.6-0.8c5.2,1.2,9.9,3.8,13.6,7.6c-10.2,2.7-6.6,21.5-16.4,25.2c-4.2,1.6-9-0.5-13.3,0.8c-3.9,1.2-6.3,5.1-9,8.2
	c-9.4,11-24,16-38.2,13c-1-22.6-4.4-45.1-10-67"/>
<path class="st4" d="M144.2,80c-2.7,0-4.7-2.4-6.1-4.8c-3.2-5.1-6.1-10.8-5.5-16.8s6-11.8,11.9-10.8c1.8,0.3,3.5,1.1,5,2.2
	c5.5,3.7,9.3,10,9.2,16.6s-4.6,13.1-11,14.8"/>
<path class="st10" d="M148,81.5c6.2-4.6,8.4-12.8,5.4-19.9c-1.5-3.4-4.1-6.1-7.3-7.9c-2.6-1.4-7.8-2.6-8.5,1.6
	c-0.1,0.6,0.8,0.9,1,0.2c0.9-4.6,7.3-1.1,9.4,0.5c2.4,1.9,4.3,4.5,5.2,7.5c1.9,6.3-0.3,13.1-5.6,17c-0.5,0.4,0,1.2,0.5,0.8L148,81.5
	z"/>
<path class="st10" d="M144.2,89.9c11.1-3.5,23,1.4,28.5,11.6c2.9,5.4,4.2,11.4,7.3,16.7c2.8,4.8,7.1,8.5,12.2,10.5
	c5.9,2.3,13.4,1.5,18.2,6.2c0.1,0.1,0.2,0.1,0.3,0.1s0.2-0.1,0.3-0.1c0.1-0.1,0.1-0.2,0.1-0.3s0-0.2-0.1-0.3
	c-4.2-4-10.2-4.1-15.5-5.4c-6.3-1.5-11.7-5.6-15-11.2c-3.2-5.5-4.5-11.8-7.6-17.3C170.2,95.7,166,92,161,90
	c-5.5-2.3-11.6-2.6-17.3-0.8C143.4,89.2,143.6,90.2,144.2,89.9z"/>
<path class="st10" d="M145.5,88.3c11.4-4.9,24.6-2.5,33.5,6.1c4.2,4.2,6.5,9.9,10.8,14c4.9,4.6,11.2,4.6,17.3,3.1
	c7.2-1.7,15.9-5.7,22.8-0.8c0.5,0.4,1-0.5,0.5-0.8c-12.4-8.7-28.3,9-39.9-2.1c-4.5-4.3-6.9-10.3-11.4-14.6
	c-4.3-3.9-9.6-6.6-15.3-7.7c-6.3-1.3-12.9-0.6-18.8,2C144.4,87.7,144.9,88.6,145.5,88.3z"/>
<path class="st10" d="M139.5,95c0.3,3.8,1.7,7.4,3.9,10.5c1.9,2.4,4.9,4.2,7.9,2.8c1.4-0.6,2.4-1.9,2.6-3.4c0-0.3-0.2-0.5-0.5-0.5
	s-0.5,0.2-0.5,0.5c-0.1,0.7-0.5,1.4-1,1.9c-0.6,0.5-1.3,0.8-2,0.9c-1.7,0.2-3.5-0.4-4.7-1.7c-2.9-2.8-4.3-7.1-4.7-11
	C140.5,94.4,139.5,94.4,139.5,95L139.5,95z"/>
<path class="st10" d="M144.2,79.5c-0.9,0.6-2,0.9-3.1,0.9s-2.1-0.4-3-1.1c-2.9-2-4.5-5.5-5.2-8.8c-0.7-3.5-0.4-7.2,0.9-10.5
	c1.1-3.7,3.2-6.9,6.1-9.5c1-0.8-0.4-2.2-1.4-1.4c-2.6,2.2-4.5,5-5.7,8.1c-1.3,3-2.1,6.1-2.3,9.4c-0.2,5.6,2.8,12.9,8.2,15.2
	c2.2,1,4.7,0.7,6.6-0.6C146.3,80.4,145.3,78.8,144.2,79.5L144.2,79.5z"/>
<path class="st11" d="M164.5,119.2c0,0.1,0.1,0.3,0.2,0.4c0.1,0.1,0.2,0.2,0.3,0.3c0.1,0.1,0.2,0.1,0.4,0.1c0.1,0,0.3,0,0.4,0
	c2.3-0.6,7.4-2.4,9.7,3.4c2.3,5.8-2.6,10.7-6,11.7c-1,0.3-3.2,1.1-3.7,2c-1.5,2.8-1.2,8-1.2,14.5c0,6.1,0.7,12.1,2.1,18
	c4.5,2.6,9.3,4.7,14.3,6.1c0,0-31.5,82.1-63,0.4c0,0,17.1-4.8,18.4-6.1c0.3-9.7,0.8-24.4,0.6-24.4c-3.5-2.1-15.9-0.8-14.9-25.6
	c0.9-22.9,16.9-25.3,21.1-25.6C146.6,94.2,158.4,92,164.5,119.2z"/>
<path class="st12" d="M173.2,125.8c0,0-5.5-6.6-7.5,4.6L173.2,125.8z"/>
<path class="st13" d="M144.7,124.3c-1.1,0.2-2,0.8-2.8,1.6c-2.1,2.2-2,5.7,0.2,7.8c0.3,0.2,0.5,0.5,0.9,0.7c0.9,0.6,2,0.9,3.1,0.8
	c2.2-0.1,4.2-1.5,5-3.6c0.4-1,0.5-2.1,0.2-3.2c-0.2-0.7-0.5-1.4-0.9-2c-0.8-1.2-2.1-2-3.6-2.2C146.1,124,145.4,124.1,144.7,124.3z"
	/>
<path class="st13" d="M122.9,131.9c2.8-1.3,4-4.5,2.7-7.3c-0.7-1.5-1.9-2.6-3.5-3C122.2,121.6,121.4,128.1,122.9,131.9z"/>
<path class="st14" d="M135.9,129.5c-0.6,0.9-1.5,1.5-2.5,1.9s-2.1,0.5-3.1,0.2c-0.8-0.2-1.6-0.6-2.2-1.1c-0.7-0.5-1.2-1.2-1.6-1.9"
	/>
<path class="st15" d="M131.2,123.9l0.8,4.2h-2.2c-0.1,0-0.2,0-0.3-0.1c-0.1,0-0.2-0.1-0.2-0.2c-0.1-0.2-0.1-0.4,0-0.5L131.2,123.9z"
	/>
<path class="st16" d="M140.6,117c0.9,0.8-0.3-2.5-1.7-3c-0.3-0.1-0.6-0.2-0.9-0.2c-0.6,0-1.3,0.2-1.8,0.7c-0.2,0.2-0.4,0.5-0.6,0.8
	C137.5,115.2,139.3,115.8,140.6,117z"/>
<path class="st16" d="M124.7,115.2c-1.1,0.6,0.8-2.4,2.2-2.7c0.3-0.1,0.7-0.1,1-0.1c0.3,0.1,0.6,0.2,0.9,0.3
	c0.3,0.2,0.5,0.4,0.7,0.7c0.2,0.3,0.3,0.6,0.4,0.9C128.1,114,126.2,114.3,124.7,115.2z"/>
<path class="st12" d="M135.8,145.3c3.9,0.2,7.8-0.1,11.6-1.2C144.6,151.8,138.5,151.3,135.8,145.3z"/>
<path class="st4" d="M132.1,88.4c-16.6-7-11.5,24.9-11.5,24.9c5.1,0.6,7.3-3.5,8.9-8.3c0.4-1.1,1-2.1,1.8-2.9s1.8-1.5,2.9-1.9
	c1.1-0.4,1.7-1.5,1.5-2.7c-0.5,7.3,4.1,14,11,16.3c3.7,1.2,7.7-0.8,8.9-4.5c0.4-1.3,0.5-2.7,0.1-4.1l-0.4-1.7l5.2,15.5
	c1.7,3,6.4,0,9.5-1.3C170.1,117.7,162.4,72.9,132.1,88.4z"/>
<path class="st14" d="M137.7,124.5c-1.2,0.4-2.8,0.9-3.9-0.4"/>
<path class="st14" d="M129.2,123.8c-1.2,0.4-2.8,0.9-3.9-0.4"/>
<path class="st17" d="M127.1,171.8c-3.9,1.9-13.8,2.8-19,4.8c3.1,14.6,0.7,34.1,1.7,45.7c1.3,15.8,0.9,41.2,0.9,41.2
	s53.1,1.1,68.7,2.2c8.5-26.1,17.9-67.2,12.6-87.3l-17.5-6.1C169.9,180.9,127.8,177.2,127.1,171.8z"/>
<g class="st18">
	<path class="st19" d="M184.4,178.5c4.4,21.3,3.1,62.3-5.1,87.1c-7.9-0.5-25.5-1.1-40.9-1.5C160.5,239.8,179.3,211.2,184.4,178.5z"
		/>
</g>
<path class="st20" d="M175.2,264.8c16.8,20.1,28.3,73.2,28.3,73.2l-115.2-2.8c0,0,6.6-52.2,27.8-71.5
	C116.1,263.9,148.7,262.6,175.2,264.8z"/>
<g>
	<path class="st21" d="M175.2,264.8c16.8,20.1,28.3,73.2,28.3,73.2l-115.2-2.8c0,0,6.6-52.2,27.8-71.5
		C116.1,263.9,148.7,262.6,175.2,264.8z"/>
</g>
<path class="st11" d="M66.3,348.3c-2.1-0.4,0-4.3,4.9-5.7c7.8-2.3,20.4-6.7,24-11.2c4.3-5.2,8.2-7.2,11-7.9c2.1-0.6,4.4,0,6.1,1.4
	c1.2,1.1,2.6,1.8,4.2,2.1c1.3,0,2.6-0.1,3.9-0.3l-0.9,23.8C119.5,350.4,75.8,349.9,66.3,348.3z"/>
<path class="st21" d="M116.2,350.2c0,0,146.4-2.1,147.4-39.9c0.9-34.9-57.2-26.6-63.4-25.8c-23,3.3-84.7,31.8-84.7,31.8L116.2,350.2
	z"/>
<g class="st22">
	<path class="st19" d="M155.2,299.3l-38.5,16.2l0.8,34.8c0,0,94.1-5.1,116.2-16.1L155.2,299.3z"/>
</g>
<path class="st23" d="M129.7,349.8l-4.2-38.8"/>
<path class="st21" d="M161.7,348.2c0,0-140.1-4.8-136-42.4c3.1-28,49-22.5,70.9-14.9s66.9,28,66.9,28L161.7,348.2z"/>
<path class="st11" d="M214.6,348.3c2.1-0.2,0.4-4.2-4.4-6.2c-7.6-3.1-19.6-8.7-22.9-13.5c-3.7-5.6-7.5-7.9-10.2-9
	c-1-0.4-2.1-0.5-3.2-0.4c-1.1,0.1-2.1,0.5-3,1.2c-1.3,1-2.8,1.6-4.4,1.7c-1.3-0.1-2.6-0.3-3.8-0.7l-1.4,23.7
	C161.4,345.2,205,349,214.6,348.3z"/>
<path class="st23" d="M155.9,316l-2.9,30.4"/>
<path class="st11" d="M141.3,229.4c0,0,0.9-5,1.7-3.7s3.1,15.5,3.1,15.5L141.3,229.4z"/>
<path class="st11" d="M146.1,268.1c24.1,3.1,65,3.5,66.7-0.2c12-4.6-0.9-52.6-8.7-73.4c-4.3-11.3-9.9-17.1-16-18.4
	c-11.2-1.7-0.3,62.2,3.5,68.2c0,0-7.4-1.7-42.2,7.2c0,0-6.4-20.5-8.1-22.1c0,0-2.4-1.8-1.5,1.5s2.1,33.5,2.8,34.5
	C145.2,268.7,146.1,268.1,146.1,268.1z"/>
<path class="st11" d="M139.9,229.4c0,0-0.9-5-1.7-3.7s-3.1,15.5-3.1,15.5L139.9,229.4z"/>
<path class="st11" d="M135.1,268.1c-24.1,3.1-53.4-7.8-55-11.6c-12-4.6,5.3-43.2,15.5-62.9c6.1-11.8,11.9-18,17.9-19.2
	c16.6-1.3-7.4,58.1-7.9,65.1c0,0,3.5,4.4,26.2,12c0,0,6.5-20.5,8.1-22.1c0,0,2.4-1.8,1.5,1.5s-2.1,33.5-2.9,34.5
	C136,268.7,135.1,268.1,135.1,268.1z"/>
</svg>
