<svg id="Capa_1" data-name="Capa 1" xmlns="http://www.w3.org/2000/svg" viewBox="0 0 333.05 404.97"><defs><style>.cls-1{opacity:0.31;}.cls-2{fill:#dad5d1;}.cls-3{fill:#c6e1c6;}.cls-4{fill:#b4cec1;}.cls-5{opacity:0.51;}.cls-14,.cls-23,.cls-6,.cls-7,.cls-8{fill:none;stroke-miterlimit:10;}.cls-6,.cls-7{stroke:#dad5d1;}.cls-23,.cls-6{stroke-width:1.08px;}.cls-7{stroke-width:0.81px;}.cls-8{stroke:#b4cec1;stroke-width:2.05px;}.cls-14,.cls-8{stroke-linecap:round;}.cls-9{fill:#883d40;}.cls-10{fill:#3d1d1a;}.cls-11{fill:#f8c5c8;}.cls-12,.cls-13{fill:#f089a6;}.cls-13{isolation:isolate;opacity:0.63;}.cls-14{stroke:#010101;stroke-width:0.54px;}.cls-15{fill:#d66955;}.cls-16{fill:#010101;}.cls-17{fill:#fff;}.cls-18{opacity:0.38;}.cls-19{fill:#d8c7bc;}.cls-20{fill:#6d7bbb;}.cls-21{opacity:0.44;}.cls-22{opacity:0.28;}.cls-23{stroke:#fff;}</style></defs><g class="cls-1"><path class="cls-2" d="M288.51,231.55C273.52,215.11,258,197.64,253,176c-8.7-38.14,17.54-79.79,2.44-115.89a54.7,54.7,0,0,0-87-19.48c-13.86,12.47-20.31,31-27.57,48.19a374.34,374.34,0,0,1-26.57,51.47c-6,9.74-12.66,19.37-21.66,26.47-10.88,8.52-24.4,12.84-36.77,19.13C29,199.52,6.84,225,3.42,254.87,0,284.93,16.41,315.1,40.76,333.1s55.51,25,85.82,24.79c24.67-.17,49.57-4.87,71.5-16.17,8.32-4.28,16.25-9.48,25.17-12.33,9.85-3.14,20.42-3.25,30.39-6a59.69,59.69,0,0,0,36-87.67" transform="translate(-2.98 -3.82)"/><path class="cls-2" d="M98,62.61c-10.24-14.21-9.93-35.11.72-49,4.59-6,11.83-10.95,19.25-9.52,4.77.89,8.75,4.29,11.63,8.18a34.4,34.4,0,0,1,3.46,34.1A34.49,34.49,0,0,1,104.8,65.83" transform="translate(-2.98 -3.82)"/><path class="cls-2" d="M318.66,236.82a42.07,42.07,0,0,1-14.39-28.71,10.93,10.93,0,0,1,1.1-6.55c2.18-3.5,7.19-4,11.22-3,11.76,2.73,20.52,14.91,19.33,26.91-.62,6.25-6.1,13.28-12,11.06" transform="translate(-2.98 -3.82)"/></g><path class="cls-3" d="M44.44,369.85c-15.86-8.46-24.56-19-30.22-36.05-1.35-4.05-2.07-9.14,1.06-12.05,3.35-3.12,8.79-1.61,12.83.56a57.83,57.83,0,0,1,19,16.31c6.48,8.67,11.9,20.15,22.56,22.05a4.35,4.35,0,0,0,2.89-.24c2.61-1.45.93-5.37-.73-7.84a36.05,36.05,0,0,1-5.7-15.2,5.54,5.54,0,0,1,.17-2.91,4.59,4.59,0,0,1,1.43-1.57,4.69,4.69,0,0,1,2-.78c5.1-1.09,10.08,2.09,14.14,5.36,10.35,8.34,24.77,22.21,31.84,33.4" transform="translate(-2.98 -3.82)"/><path class="cls-4" d="M150,275.44a74.72,74.72,0,0,1-37.23-25.78c-4.45-5.8-8.11-12.54-8.54-19.84-.25-4.08,1.33-9.11,5.37-9.85,2.92-.55,5.65,1.46,7.87,3.42a115.35,115.35,0,0,1,33.72,52.36" transform="translate(-2.98 -3.82)"/><path class="cls-3" d="M64,294.77c-7.55-1.55-15.2-3.14-22.06-6.65S29,278.94,26.73,271.6c-.9-2.91-1.09-6.31.66-8.81,2.22-3.13,6.69-3.65,10.49-3.15a32.51,32.51,0,0,1,20.45,12.24,47.64,47.64,0,0,1,9.31,22.25" transform="translate(-2.98 -3.82)"/><path class="cls-3" d="M75.88,299.31a49,49,0,0,1-4.53-13.19c-1.31-6.18-1.75-13.17,2-18.26a6.33,6.33,0,0,1,2-2,6.45,6.45,0,0,1,2.65-1,6.36,6.36,0,0,1,3.23,1,14.38,14.38,0,0,1,7.26,11.2c.36,4.25-1.22,8.44-3.36,12.18s-4.88,7-7,10.71" transform="translate(-2.98 -3.82)"/><path class="cls-4" d="M87.21,310.79a69.11,69.11,0,0,0-14.58-2.23,23,23,0,0,0-14,4,3.64,3.64,0,0,0-1.61,2.08,3.37,3.37,0,0,0,.16,1.3,3.41,3.41,0,0,0,.65,1.14,10.29,10.29,0,0,0,3.61,2.72,10.4,10.4,0,0,0,4.43.93,23.75,23.75,0,0,0,8.91-2c3.88-1.5,7.82-3.55,9.92-7.13" transform="translate(-2.98 -3.82)"/><path class="cls-4" d="M104.57,323.51a58.17,58.17,0,0,1-3.5-13.56,19.68,19.68,0,0,1,3.11-13.39,2.86,2.86,0,0,1,1.35-1.22,2.69,2.69,0,0,1,2.08.43,11.88,11.88,0,0,1,5,7.19,21.79,21.79,0,0,1-5.22,21" transform="translate(-2.98 -3.82)"/><path class="cls-4" d="M37.51,268.59c2.3,9.44,11.68,15.24,19,20.7,8.1,6,16.36,11.81,24.57,17.67,16.37,11.63,32.73,23.53,47,37.74a154,154,0,0,1,21.19,26c.61.94,2.12.06,1.51-.89-10.6-16.55-24.72-30.44-39.93-42.75-15.47-12.53-32-23.61-48.13-35.31-4.6-3.35-9.25-6.68-13.65-10.29s-8.54-7.67-9.87-13.27c-.26-1.08-1.94-.62-1.68.46Z" transform="translate(-2.98 -3.82)"/><path class="cls-4" d="M70.39,350.24A20.29,20.29,0,0,1,83,336.85c-3.9-3-8.54-5.71-13.29-4.69a4.62,4.62,0,0,0-3.42,2.35,5.54,5.54,0,0,0-.17,2.91A35.8,35.8,0,0,0,70.39,350.24Z" transform="translate(-2.98 -3.82)"/><path class="cls-4" d="M43.73,363.85a128.51,128.51,0,0,1-16-21.44c-2.87-5.09-6-11.66-4.07-17.62a10.16,10.16,0,0,1,2-3.65c-3.66-1.45-7.72-2-10.44.56-3.13,2.91-2.44,8-1.06,12.05,5.66,17.05,14.3,27.59,30.22,36.06l4.69.07C47.25,367.92,45.46,365.79,43.73,363.85Z" transform="translate(-2.98 -3.82)"/><path class="cls-4" d="M141,256.41c1.87,2.76,3.9,5.4,6,8a115.71,115.71,0,0,0-13.81-23.91C132.4,244.66,139.52,254.2,141,256.41Z" transform="translate(-2.98 -3.82)"/><path class="cls-4" d="M113.22,241.34a15.17,15.17,0,0,1,6.54-15.83c-.78-.72-1.56-1.43-2.36-2.14-2.22-2-5-4-7.86-3.42-4,.74-5.63,5.77-5.37,9.85.46,7.3,4.12,14,8.54,19.83a71.17,71.17,0,0,0,7.48,8.33A44.3,44.3,0,0,1,113.22,241.34Z" transform="translate(-2.98 -3.82)"/><path class="cls-4" d="M59.1,293.33c-11-3.13-22.24-15.83-24.74-26.93a22.58,22.58,0,0,1-.46-6.86,8.78,8.78,0,0,0-6.51,3.25c-1.75,2.5-1.56,5.9-.66,8.81,2.29,7.3,8.37,13,15.24,16.52s14.51,5.1,22.06,6.65l3.66-.64a5.21,5.21,0,0,0-.21-1.1A12.38,12.38,0,0,1,59.1,293.33Z" transform="translate(-2.98 -3.82)"/><path class="cls-4" d="M88.45,277a14.38,14.38,0,0,0-7.26-11.2,7.9,7.9,0,0,0-1.22-.56c3,8.38,4.56,17.7-.31,25.48a5.55,5.55,0,0,1-6.35,2.57,38.59,38.59,0,0,0,2.57,6l2.23.57c2.16-3.65,4.88-7,7-10.71S88.81,281.28,88.45,277Z" transform="translate(-2.98 -3.82)"/><path class="cls-4" d="M65,315.55A12.91,12.91,0,0,1,61.1,311a17.88,17.88,0,0,0-2.44,1.49,3.66,3.66,0,0,0-1.61,2.16,3.37,3.37,0,0,0,.16,1.3,3.41,3.41,0,0,0,.65,1.14,10.29,10.29,0,0,0,3.61,2.72,10.4,10.4,0,0,0,4.43.93,21.59,21.59,0,0,0,7.61-1.48A19.85,19.85,0,0,1,65,315.55Z" transform="translate(-2.98 -3.82)"/><path class="cls-4" d="M105.23,301.78a14.1,14.1,0,0,1,7,.12,11.26,11.26,0,0,0-4.63-6.09,2.77,2.77,0,0,0-1-.42,2.8,2.8,0,0,0-1.08,0,2.86,2.86,0,0,0-1.35,1.22,16.66,16.66,0,0,0-2.9,6.91A12.16,12.16,0,0,1,105.23,301.78Z" transform="translate(-2.98 -3.82)"/><path class="cls-3" d="M268.81,369.85c15.92-8.46,24.56-19,30.2-36.05,1.35-4.05,2.08-9.14-1.05-12.05-3.35-3.12-8.79-1.61-12.83.56a58,58,0,0,0-19,16.31c-6.47,8.67-11.9,20.15-22.55,22.05a4.45,4.45,0,0,1-2.9-.24c-2.61-1.45-.92-5.37.73-7.84a35.93,35.93,0,0,0,5.71-15.2,5.54,5.54,0,0,0-.18-2.91,4.49,4.49,0,0,0-1.43-1.57,4.6,4.6,0,0,0-2-.78c-5.11-1.09-10.07,2.09-14.14,5.36-10.34,8.34-24.71,22.19-31.84,33.4" transform="translate(-2.98 -3.82)"/><path class="cls-4" d="M180.73,242.25a40.88,40.88,0,0,0,17.35-17.81,20.38,20.38,0,0,0,2.54-11.59c-.29-2.24-1.67-4.77-3.93-4.76-1.63,0-2.89,1.39-3.89,2.68a63.3,63.3,0,0,0-12.66,31.74" transform="translate(-2.98 -3.82)"/><path class="cls-3" d="M249.21,294.77c7.54-1.55,15.19-3.14,22.06-6.65s13-9.18,15.24-16.52c.89-2.91,1.1-6.31-.66-8.81-2.22-3.13-6.69-3.65-10.49-3.15a32.58,32.58,0,0,0-20.46,12.24,47.89,47.89,0,0,0-9.31,22.25" transform="translate(-2.98 -3.82)"/><path class="cls-3" d="M237.37,299.31a48.92,48.92,0,0,0,4.52-13.19c1.3-6.18,1.74-13.17-2-18.26a5.52,5.52,0,0,0-1.44-1.78,5.37,5.37,0,0,0-2-1,5.47,5.47,0,0,0-2.28-.08,5.37,5.37,0,0,0-2.11.87,14.38,14.38,0,0,0-7.26,11.2c-.36,4.25,1.22,8.44,3.35,12.18s4.82,7,7,10.71" transform="translate(-2.98 -3.82)"/><path class="cls-4" d="M226,310.79a69.11,69.11,0,0,1,14.64-2.29,22.88,22.88,0,0,1,14,4,3.65,3.65,0,0,1,1.59,2.14,3.19,3.19,0,0,1-.15,1.3,3.41,3.41,0,0,1-.65,1.14,10.35,10.35,0,0,1-8.07,3.65,23.85,23.85,0,0,1-8.93-2c-3.87-1.5-7.81-3.55-9.91-7.13" transform="translate(-2.98 -3.82)"/><path class="cls-4" d="M208.64,323.51a59.32,59.32,0,0,0,3.5-13.56A19.74,19.74,0,0,0,209,296.56a2.93,2.93,0,0,0-1.36-1.22,2.65,2.65,0,0,0-2.07.43,11.77,11.77,0,0,0-5,7.19,21.81,21.81,0,0,0,5.27,20.91" transform="translate(-2.98 -3.82)"/><path class="cls-4" d="M274,268.13c-1.22,4.95-4.61,8.76-8.38,12s-7.92,6.23-12,9.21c-8.05,5.93-16.25,11.68-24.4,17.49-16.08,11.47-32.09,23.24-46,37.28a154.47,154.47,0,0,0-20.74,25.57c-.61,1,.9,1.82,1.5.89,10.8-16.85,25.27-30.86,40.8-43.32,15.75-12.63,32.66-23.84,49-35.76,4.36-3.21,8.82-6.38,12.93-9.91s7.71-7.64,9-13c.27-1.08-1.41-1.55-1.68-.46Z" transform="translate(-2.98 -3.82)"/><path class="cls-4" d="M183.55,231.05c-.73,1.68-1.53,3.33-2.38,4.95a63.78,63.78,0,0,1,4.88-14.35C187,223.81,184.13,229.7,183.55,231.05Z" transform="translate(-2.98 -3.82)"/><path class="cls-4" d="M197,220a8.35,8.35,0,0,0-5.2-7.84c.34-.48.69-.94,1-1.4,1-1.29,2.26-2.66,3.89-2.68,2.26,0,3.66,2.52,3.93,4.76a20.38,20.38,0,0,1-2.54,11.59,39.39,39.39,0,0,1-3.14,5.27A24.68,24.68,0,0,0,197,220Z" transform="translate(-2.98 -3.82)"/><path class="cls-4" d="M242.86,350.24a20.32,20.32,0,0,0-12.61-13.39c3.91-3,8.54-5.71,13.3-4.69a4.62,4.62,0,0,1,3.41,2.35,5.53,5.53,0,0,1,.18,2.91A36,36,0,0,1,242.86,350.24Z" transform="translate(-2.98 -3.82)"/><path class="cls-4" d="M269.51,363.85a128.69,128.69,0,0,0,16-21.44c2.86-5.09,6-11.66,4.08-17.62a10.16,10.16,0,0,0-2-3.65c3.66-1.45,7.71-2,10.44.56,3.12,2.91,2.44,8,1.05,12.05-5.65,17.05-14.29,27.59-30.21,36.06l-4.69.07C266,367.92,267.78,365.79,269.51,363.85Z" transform="translate(-2.98 -3.82)"/><path class="cls-4" d="M254.13,293.33c11-3.13,22.24-15.83,24.74-26.93a22.28,22.28,0,0,0,.47-6.86,8.62,8.62,0,0,1,3.61.92,8.74,8.74,0,0,1,2.9,2.33c1.76,2.5,1.55,5.9.66,8.81-2.28,7.3-8.38,13-15.24,16.52s-14.52,5.1-22.06,6.65l-3.66-.64c.06-.37.15-.74.21-1.1A12.41,12.41,0,0,0,254.13,293.33Z" transform="translate(-2.98 -3.82)"/><path class="cls-4" d="M224.79,277a14.38,14.38,0,0,1,7.26-11.2,7.9,7.9,0,0,1,1.22-.56c-3,8.38-4.54,17.7.33,25.48a5.5,5.5,0,0,0,2.72,2.38,5.62,5.62,0,0,0,3.62.19,41,41,0,0,1-2.56,6l-2.23.57c-2.18-3.65-4.88-7-7-10.71S224.5,281.28,224.79,277Z" transform="translate(-2.98 -3.82)"/><path class="cls-4" d="M248.26,315.55a12.75,12.75,0,0,0,3.87-4.54,17,17,0,0,1,2.44,1.5,3.69,3.69,0,0,1,1.65,2.14,3.19,3.19,0,0,1-.15,1.3,3.41,3.41,0,0,1-.65,1.14,10.35,10.35,0,0,1-8.07,3.65,21.6,21.6,0,0,1-7.62-1.48A19.85,19.85,0,0,0,248.26,315.55Z" transform="translate(-2.98 -3.82)"/><path class="cls-4" d="M208,301.78a14.07,14.07,0,0,0-7,.12,11.22,11.22,0,0,1,4.63-6.09,2.77,2.77,0,0,1,1-.42,2.8,2.8,0,0,1,1.08,0,2.91,2.91,0,0,1,1.35,1.22,16.81,16.81,0,0,1,2.87,7A12.08,12.08,0,0,0,208,301.78Z" transform="translate(-2.98 -3.82)"/><g class="cls-5"><path class="cls-4" d="M73.86,246.47a2.73,2.73,0,0,0-.45-1.52,2.65,2.65,0,0,0-1.22-1,2.76,2.76,0,0,0-1.58-.16,2.7,2.7,0,0,0-1.39.74,2.78,2.78,0,0,0-.75,1.4,2.72,2.72,0,0,0,1.17,2.79,2.81,2.81,0,0,0,1.51.45,2.71,2.71,0,0,0,2.71-2.7Z" transform="translate(-2.98 -3.82)"/><path class="cls-4" d="M11.91,311A3.86,3.86,0,1,0,8,307.14,3.86,3.86,0,0,0,11.91,311Z" transform="translate(-2.98 -3.82)"/><path class="cls-4" d="M54.5,164.57a7,7,0,1,0-7-6.95A7,7,0,0,0,54.5,164.57Z" transform="translate(-2.98 -3.82)"/><path class="cls-4" d="M197.73,178.1a3.1,3.1,0,1,0-3.1-3.09A3.09,3.09,0,0,0,197.73,178.1Z" transform="translate(-2.98 -3.82)"/><path class="cls-4" d="M306.91,301.34a5,5,0,0,0-6-4.93,5.05,5.05,0,0,0-4,3.95,5,5,0,0,0,4.94,6,5.11,5.11,0,0,0,1.93-.38,5,5,0,0,0,1.64-1.09,5.3,5.3,0,0,0,1.09-1.63A5.11,5.11,0,0,0,306.91,301.34Z" transform="translate(-2.98 -3.82)"/><path class="cls-4" d="M248.44,239.16a2,2,0,0,0-.32-1.08,2,2,0,0,0-.88-.71,1.91,1.91,0,0,0-2.11.43,1.88,1.88,0,0,0-.53,1,2,2,0,0,0,.12,1.12,1.91,1.91,0,0,0,.72.87,2,2,0,0,0,1.08.32,1.92,1.92,0,0,0,.74-.15,1.89,1.89,0,0,0,.62-.42,1.79,1.79,0,0,0,.42-.63A1.71,1.71,0,0,0,248.44,239.16Z" transform="translate(-2.98 -3.82)"/><path class="cls-4" d="M162.9,107.4a5.43,5.43,0,0,0-10.76-1.07,5.33,5.33,0,0,0,.32,3.13,5.43,5.43,0,0,0,10.44-2.06Z" transform="translate(-2.98 -3.82)"/></g><path class="cls-6" d="M25.07,201.38A19.65,19.65,0,1,0,5.38,181.73,19.68,19.68,0,0,0,25.07,201.38Z" transform="translate(-2.98 -3.82)"/><path class="cls-6" d="M9.32,197c-3.5,7.86.77,7.3,3,7a6.13,6.13,0,0,0,2.59-1.34c10.89-8.35,17.54-21,22.65-33.74,1.22-3.09,2.44-6.62,1-9.64a3.25,3.25,0,0,0-1.3-1.56c-1.75-.95-3.74.75-5,2.29" transform="translate(-2.98 -3.82)"/><path class="cls-7" d="M270.45,141.26a14.77,14.77,0,1,0-16.62-12.69A14.77,14.77,0,0,0,270.45,141.26Z" transform="translate(-2.98 -3.82)"/><path class="cls-7" d="M257.25,114.58c-5.87-2.74-5.54.46-5.29,2.12a4.58,4.58,0,0,0,1,2C259,127,268.48,132.14,278,136.17c2.31,1,4.88,1.9,7.24.91a2.56,2.56,0,0,0,1.22-1c.74-1.3-.52-2.81-1.65-3.79" transform="translate(-2.98 -3.82)"/><path class="cls-2" d="M77.58,221a3.41,3.41,0,0,0-.6-1.93,3.5,3.5,0,0,0-6.33,1.28,3.41,3.41,0,0,0,.2,2,3.52,3.52,0,0,0,3.23,2.15,3.5,3.5,0,0,0,1.35-.27,3.79,3.79,0,0,0,1.14-.76,3.58,3.58,0,0,0,.75-1.14A3.31,3.31,0,0,0,77.58,221Z" transform="translate(-2.98 -3.82)"/><path class="cls-2" d="M92.46,94.39a6.55,6.55,0,0,0-4.06-6,6.58,6.58,0,0,0-7.15,1.42,6.51,6.51,0,0,0-1.42,7.14,6.57,6.57,0,0,0,12.63-2.51Z" transform="translate(-2.98 -3.82)"/><path class="cls-2" d="M242.52,205.3a3.06,3.06,0,1,0-3.07-3.06A3.06,3.06,0,0,0,242.52,205.3Z" transform="translate(-2.98 -3.82)"/><path class="cls-2" d="M221.52,89.16a2.63,2.63,0,0,0-.47-1.44,2.68,2.68,0,0,0-1.19-.94,2.65,2.65,0,0,0-2.84.61,2.64,2.64,0,0,0-.7,1.34,2.57,2.57,0,0,0,.16,1.5,2.64,2.64,0,0,0,1,1.17,2.74,2.74,0,0,0,1.45.44,2.5,2.5,0,0,0,1-.21,2.56,2.56,0,0,0,.86-.58,2.63,2.63,0,0,0,.57-.87A2.56,2.56,0,0,0,221.52,89.16Z" transform="translate(-2.98 -3.82)"/><path class="cls-8" d="M24.93,370.52H292" transform="translate(-2.98 -3.82)"/><path class="cls-2" d="M148,408.79c45.92,0,83.13-4.69,83.13-10.48S193.93,387.83,148,387.83s-83.13,4.69-83.13,10.48S102.1,408.79,148,408.79Z" transform="translate(-2.98 -3.82)"/><path class="cls-9" d="M130.37,98.9a44.38,44.38,0,0,1,34.55-19.17A17.13,17.13,0,0,1,173,81c3.09,1.49,5.24,4.33,7.32,7.06q8.17,10.74,17,21a8.19,8.19,0,0,0,4.26,3.14,8.54,8.54,0,0,0,5-1.07c8.65-3.75,19.3-6.34,27-.93,1.62,5.64-3.67,12-9.52,11.57-4.37-.37-9.26-3.66-12.6-.84a27.33,27.33,0,0,1,13.59,7.61c-10.17,2.69-6.59,21.48-16.44,25.16-4.17,1.58-9-.54-13.26.81-3.93,1.22-6.33,5.05-9,8.23a39.48,39.48,0,0,1-38.15,13,333,333,0,0,0-10-67" transform="translate(-2.98 -3.82)"/><path class="cls-9" d="M147.14,83.84c-2.71,0-4.69-2.44-6.1-4.77-3.24-5.06-6.1-10.83-5.46-16.81s6-11.82,11.87-10.85a12.57,12.57,0,0,1,5,2.16c5.49,3.65,9.32,10,9.2,16.6S157,83.28,150.64,85" transform="translate(-2.98 -3.82)"/><path class="cls-10" d="M151,85.36a16.59,16.59,0,0,0,5.39-19.87,17.09,17.09,0,0,0-7.32-7.92c-2.63-1.4-7.77-2.59-8.54,1.59-.11.6.83.87,1,.25.89-4.58,7.32-1.12,9.45.52a16.06,16.06,0,0,1,5.24,7.48,15.62,15.62,0,0,1-5.59,17c-.5.37,0,1.21.5.85Z" transform="translate(-2.98 -3.82)"/><path class="cls-10" d="M147.2,93.7a24.14,24.14,0,0,1,28.5,11.64c2.85,5.37,4.19,11.39,7.32,16.65a24.64,24.64,0,0,0,12.2,10.49c5.9,2.31,13.35,1.53,18.19,6.17a.48.48,0,0,0,.33.1.46.46,0,0,0,.32-.15.48.48,0,0,0,.15-.32.53.53,0,0,0-.11-.34c-4.17-4-10.16-4.11-15.48-5.43a23.87,23.87,0,0,1-15-11.23c-3.16-5.48-4.47-11.81-7.62-17.31a24.44,24.44,0,0,0-11.86-10.42,25,25,0,0,0-17.26-.8C146.33,93,146.59,94,147.2,93.7Z" transform="translate(-2.98 -3.82)"/><path class="cls-10" d="M148.49,92.14A30.94,30.94,0,0,1,182,98.23c4.24,4.17,6.52,9.9,10.83,14,4.88,4.62,11.16,4.62,17.33,3.13,7.24-1.74,15.86-5.67,22.78-.85.53.36,1-.49.51-.84-12.42-8.68-28.26,9-39.92-2.13-4.53-4.3-6.85-10.35-11.45-14.61a31.91,31.91,0,0,0-15.32-7.66,31,31,0,0,0-18.8,2C147.4,91.54,147.9,92.4,148.49,92.14Z" transform="translate(-2.98 -3.82)"/><path class="cls-10" d="M142.51,98.81a20.63,20.63,0,0,0,3.91,10.48c1.86,2.44,4.88,4.21,7.89,2.83a4.24,4.24,0,0,0,2.59-3.42.5.5,0,0,0-1,0,3.52,3.52,0,0,1-1,1.92,3.6,3.6,0,0,1-2,.94,5.46,5.46,0,0,1-4.68-1.73c-2.87-2.78-4.32-7.13-4.7-11,0-.62-1.05-.63-1,0Z" transform="translate(-2.98 -3.82)"/><path class="cls-9" d="M147.23,83.31a5.27,5.27,0,0,1-3.08.88,5.34,5.34,0,0,1-3-1.08c-2.92-2-4.47-5.51-5.24-8.81a18.46,18.46,0,0,1,.9-10.55,20.43,20.43,0,0,1,6.1-9.45c1-.78-.4-2.17-1.39-1.39a20.36,20.36,0,0,0-5.72,8.14,26,26,0,0,0-2.3,9.37c-.17,5.57,2.75,12.92,8.24,15.19a6.74,6.74,0,0,0,6.59-.61c1-.74,0-2.43-1-1.69Z" transform="translate(-2.98 -3.82)"/><path class="cls-11" d="M167.45,123a1,1,0,0,0,.16.37.84.84,0,0,0,.29.27,1,1,0,0,0,.37.13.91.91,0,0,0,.4,0c2.28-.58,7.4-2.43,9.66,3.36s-2.6,10.66-6,11.73c-1,.3-3.23,1.1-3.66,2-1.5,2.77-1.22,8-1.22,14.5a76.67,76.67,0,0,0,2.15,18,61.26,61.26,0,0,0,14.34,6.09s-31.5,82.09-63,.43c0,0,17.08-4.8,18.38-6.09.31-9.74.76-24.35.63-24.35-3.49-2.07-15.86-.84-14.92-25.57.88-22.88,16.91-25.33,21.06-25.63C149.55,98.06,161.39,95.84,167.45,123Z" transform="translate(-2.98 -3.82)"/><path class="cls-12" d="M176.17,129.58s-5.5-6.64-7.48,4.63Z" transform="translate(-2.98 -3.82)"/><path class="cls-13" d="M147.64,128.08a5.54,5.54,0,0,0-2.79,1.6,5.52,5.52,0,0,0,1.1,8.46,5.64,5.64,0,0,0,3.1.83,5.56,5.56,0,0,0,5-3.56,5.55,5.55,0,0,0,.21-3.2,5.43,5.43,0,0,0-.88-2,5.48,5.48,0,0,0-3.59-2.24A5.55,5.55,0,0,0,147.64,128.08Z" transform="translate(-2.98 -3.82)"/><path class="cls-13" d="M125.86,135.73a5.51,5.51,0,0,0-.71-10.3S124.36,131.92,125.86,135.73Z" transform="translate(-2.98 -3.82)"/><path class="cls-14" d="M138.85,133.32a5.39,5.39,0,0,1-2.48,1.89,5.45,5.45,0,0,1-3.12.23,5.79,5.79,0,0,1-2.21-1.12,5.7,5.7,0,0,1-1.55-1.93" transform="translate(-2.98 -3.82)"/><path class="cls-15" d="M134.22,127.7l.78,4.21h-2.22a.61.61,0,0,1-.27-.08.52.52,0,0,1-.2-.19.56.56,0,0,1,0-.54Z" transform="translate(-2.98 -3.82)"/><path class="cls-16" d="M143.62,120.8c.95.82-.33-2.53-1.69-3a2.35,2.35,0,0,0-.94-.22,2.38,2.38,0,0,0-1.75.66,2.29,2.29,0,0,0-.56.78A7.75,7.75,0,0,1,143.62,120.8Z" transform="translate(-2.98 -3.82)"/><path class="cls-16" d="M127.64,119.05c-1.09.62.77-2.44,2.2-2.69a2.39,2.39,0,0,1,1-.06,2.67,2.67,0,0,1,.91.32,2.45,2.45,0,0,1,.71.65,2.35,2.35,0,0,1,.4.88A7.68,7.68,0,0,0,127.64,119.05Z" transform="translate(-2.98 -3.82)"/><path class="cls-12" d="M138.74,149.16A36.15,36.15,0,0,0,150.36,148C147.55,155.59,141.46,155.15,138.74,149.16Z" transform="translate(-2.98 -3.82)"/><path class="cls-9" d="M135.11,92.21c-16.62-7-11.47,24.89-11.47,24.89,5.06.62,7.32-3.53,8.87-8.33a8,8,0,0,1,1.81-2.94,8.21,8.21,0,0,1,2.87-1.93,2.42,2.42,0,0,0,1.54-2.7,16.09,16.09,0,0,0,11,16.3,7.06,7.06,0,0,0,9.06-8.52l-.45-1.67,5.21,15.49c1.66,3,6.35,0,9.52-1.31C173.05,121.49,165.4,76.68,135.11,92.21Z" transform="translate(-2.98 -3.82)"/><path class="cls-14" d="M140.69,128.36c-1.22.43-2.77.88-3.86-.42" transform="translate(-2.98 -3.82)"/><path class="cls-14" d="M132.23,127.57c-1.22.43-2.76.89-3.86-.43" transform="translate(-2.98 -3.82)"/><path class="cls-17" d="M130.08,175.62c-3.94,1.93-13.79,2.76-19,4.79,3.06,14.61.66,34.1,1.66,45.67,1.35,15.83.86,41.23.86,41.23s53.09,1.15,68.69,2.18c8.54-26.07,17.88-67.2,12.58-87.32l-17.51-6.09C172.85,184.77,130.8,181,130.08,175.62Z" transform="translate(-2.98 -3.82)"/><g class="cls-18"><path class="cls-19" d="M187.36,182.36c4.45,21.27,3.06,62.33-5.1,87.13-7.92-.52-25.51-1.07-40.91-1.5C163.5,243.58,182.28,215,187.36,182.36Z" transform="translate(-2.98 -3.82)"/></g><path class="cls-20" d="M178.14,268.63c16.77,20.07,28.31,73.21,28.31,73.21L91.22,339.06s6.64-52.17,27.78-71.53C119.11,267.68,151.64,266.43,178.14,268.63Z" transform="translate(-2.98 -3.82)"/><g class="cls-21"><path class="cls-20" d="M178.14,268.63c16.77,20.07,28.31,73.21,28.31,73.21L91.22,339.06s6.64-52.17,27.78-71.53C119.11,267.68,151.64,266.43,178.14,268.63Z" transform="translate(-2.98 -3.82)"/></g><path class="cls-11" d="M69.28,352.11c-2.12-.36,0-4.26,4.88-5.72,7.8-2.34,20.37-6.74,24-11.21,4.26-5.18,8.21-7.19,11-7.93a6.73,6.73,0,0,1,6.1,1.4,8.08,8.08,0,0,0,4.2,2.1,16.91,16.91,0,0,0,3.89-.33l-.9,23.75S78.75,353.76,69.28,352.11Z" transform="translate(-2.98 -3.82)"/><path class="cls-20" d="M119.21,354s146.4-2.14,147.42-39.93c.94-34.92-57.24-26.62-63.36-25.75-23,3.27-84.74,31.83-84.74,31.83Z" transform="translate(-2.98 -3.82)"/><g class="cls-22"><path class="cls-19" d="M158.2,303.12l-38.5,16.16.82,34.78S214.65,349,236.74,338Z" transform="translate(-2.98 -3.82)"/></g><path class="cls-23" d="M132.67,353.62l-4.2-38.81" transform="translate(-2.98 -3.82)"/><path class="cls-20" d="M164.72,352s-140.15-4.78-136-42.35c3.06-28,49-22.5,70.88-14.85s66.94,28,66.94,28Z" transform="translate(-2.98 -3.82)"/><path class="cls-11" d="M217.54,352.09c2.12-.16.36-4.24-4.35-6.16-7.56-3.09-19.63-8.69-22.87-13.5-3.73-5.56-7.46-7.94-10.21-8.95a6.61,6.61,0,0,0-3.18-.36,6.75,6.75,0,0,0-3,1.16,8,8,0,0,1-4.38,1.68,16.67,16.67,0,0,1-3.83-.7L164.33,349S207.94,352.81,217.54,352.09Z" transform="translate(-2.98 -3.82)"/><path class="cls-23" d="M158.92,319.86,156,350.28" transform="translate(-2.98 -3.82)"/><path class="cls-11" d="M144.31,233.26s.86-5,1.74-3.72,3.06,15.5,3.06,15.5Z" transform="translate(-2.98 -3.82)"/><path class="cls-11" d="M149.11,271.9c24.07,3.08,65,3.53,66.72-.22,12-4.6-.87-52.62-8.74-73.36-4.27-11.26-9.91-17.14-16-18.35-11.17-1.74-.27,62.21,3.5,68.19,0,0-7.44-1.74-42.23,7.21,0,0-6.45-20.54-8.08-22.05,0,0-2.44-1.76-1.54,1.52s2.07,33.53,2.84,34.49C148.23,272.55,149.11,271.9,149.11,271.9Z" transform="translate(-2.98 -3.82)"/><path class="cls-11" d="M142.89,233.26s-.88-5-1.74-3.72-3.07,15.5-3.07,15.5Z" transform="translate(-2.98 -3.82)"/><path class="cls-11" d="M138.08,271.9c-24.07,3.08-53.35-7.82-55-11.58-12-4.59,5.29-43.19,15.53-62.87,6.1-11.79,11.88-18,17.93-19.22,16.63-1.31-7.43,58.08-7.87,65.07,0,0,3.51,4.36,26.16,12,0,0,6.46-20.54,8.09-22.05,0,0,2.44-1.76,1.54,1.52s-2.08,33.53-2.85,34.49C139,272.55,138.08,271.9,138.08,271.9Z" transform="translate(-2.98 -3.82)"/></svg>