<svg id="Capa_1" data-name="Capa 1" xmlns="http://www.w3.org/2000/svg" viewBox="0 0 254.55 254.78"><defs><style>.cls-1{fill:#ffed4f;}.cls-2{fill:#f39252;}.cls-3{fill:#f089a6;}.cls-4{fill:#f8c5c8;}.cls-5{fill:#fff;}.cls-6{fill:#594b4e;}</style></defs><path class="cls-1" d="M61.61,140.31a71.09,71.09,0,0,0,19.57,42.37c10.21,10.37,25.86,16.5,40.16,18.37a83.33,83.33,0,0,0,41.69-6c13.95-6,26-16.17,32.5-29.78,7.31-15,8.84-31.65,5.78-48.15-2.38-13.1-7.66-25.52-17.18-34.88-19.74-19.23-51.22-23.82-76.92-15.65C95,70.55,83.56,77.7,75.56,87.9,64,102.54,59.57,121.76,61.61,140.31Z" transform="translate(-4.83 -4.75)"/><path class="cls-2" d="M154.86,11.17c-1-2.72-3.57-3.57-6.13-4.42a40.32,40.32,0,0,0-11.06-1.88c-7.14-.34-16-.17-22.46,3.24-2.55,1.36-3.06,3.06-2.72,5.78.85,4.77,1.87,9.7,2.89,14.46q3.06,14.3,6.64,28.59a.65.65,0,0,0,.85.51,112.92,112.92,0,0,1,21.44,0,1.45,1.45,0,0,0,.85-.51c2-7.83,3.91-15.66,5.61-23.65.86-3.92,1.71-7.66,2.39-11.57.68-3.23,2-6.81,1.7-10Z" transform="translate(-4.83 -4.75)"/><path class="cls-2" d="M75.22,49.11,68.59,38.9c-1.7-2.55-3.4-6.12-5.79-8.16,0-.17-.17-.17-.34-.34-2.89-1.37-5.61.34-8.34,1.7a49.23,49.23,0,0,0-9,6.63C40,43.33,33.54,50,32,56.94c-.68,2.89,1,4.42,3.24,6,3.91,2.73,8,5.28,11.91,7.83,8,5.1,16.16,10.21,24.33,15.14a.8.8,0,0,0,1-.17A115.89,115.89,0,0,1,87.65,70.55c.34-.17.34-.68.17-1C83.9,62.72,79.65,55.92,75.22,49.11Z" transform="translate(-4.83 -4.75)"/><path class="cls-2" d="M57.36,141.33a112.92,112.92,0,0,1,0-21.44,1.45,1.45,0,0,0-.51-.85c-7.83-2-15.66-3.91-23.65-5.61-3.92-.85-7.66-1.7-11.58-2.39-3.23-.68-6.8-2-10-1.7h-.35c-2.72,1-3.57,3.58-4.42,6.13A40.69,40.69,0,0,0,5,126.53c-.34,7.14-.17,16,3.23,22.46,1.36,2.55,3.06,3.06,5.79,2.72,4.76-.85,9.7-1.87,14.46-2.89q14.3-3.06,28.59-6.64C57,142,57.36,141.67,57.36,141.33Z" transform="translate(-4.83 -4.75)"/><path class="cls-2" d="M70.46,176.21c-.17-.34-.68-.34-1-.17-7,4.08-13.78,8.34-20.59,12.76l-10.21,6.64c-2.55,1.7-6.13,3.4-8.17,5.78-.17,0-.17.17-.34.34-1.36,2.89.34,5.62,1.7,8.34a50.18,50.18,0,0,0,6.64,9C43.06,224,49.7,230.49,56.68,232c2.89.68,4.42-1,6-3.23,2.73-3.92,5.28-8,7.83-11.91,5.1-8,10.21-16.17,15.14-24.34a.8.8,0,0,0-.17-1A115.34,115.34,0,0,1,70.46,176.21Z" transform="translate(-4.83 -4.75)"/><path class="cls-2" d="M148.56,236.1q-3.06-14.29-6.63-28.58a.65.65,0,0,0-.85-.51,112.92,112.92,0,0,1-21.44,0,1.47,1.47,0,0,0-.86.51c-2,7.82-3.91,15.65-5.61,23.65-.85,3.91-1.7,7.65-2.38,11.57-.68,3.23-2,6.8-1.7,10v.34c1,2.72,3.57,3.57,6.12,4.42a40.75,40.75,0,0,0,11.06,1.87c7.15.34,16,.17,22.46-3.23,2.56-1.36,3.07-3.06,2.73-5.79C150.6,245.63,149.58,240.87,148.56,236.1Z" transform="translate(-4.83 -4.75)"/><path class="cls-2" d="M228.54,201.39c-3.92-2.72-8-5.27-11.91-7.82-8-5.11-16.17-10.21-24.34-15.15a.8.8,0,0,0-1,.17,115.89,115.89,0,0,1-15.14,15.15c-.34.17-.34.68-.17,1,4.08,7,8.34,13.78,12.76,20.58q3.32,5.11,6.64,10.21c1.7,2.55,3.4,6.13,5.78,8.17,0,.17.17.17.34.34,2.89,1.36,5.62-.34,8.34-1.7a48.9,48.9,0,0,0,9-6.64c5.1-4.59,11.57-11.23,13.1-18.2C232.45,204.45,230.75,202.92,228.54,201.39Z" transform="translate(-4.83 -4.75)"/><path class="cls-2" d="M256.1,115.47c-1.36-2.55-3.06-3.06-5.78-2.72-4.77.85-9.7,1.87-14.47,2.89q-14.28,3.06-28.58,6.63a.66.66,0,0,0-.51.86,112.82,112.82,0,0,1,0,21.43,1.45,1.45,0,0,0,.51.85c7.82,2.05,15.65,3.92,23.65,5.62,3.91.85,7.66,1.7,11.57,2.38,3.23.68,6.81,2,10,1.7h.34c2.72-1,3.57-3.57,4.42-6.12a40.45,40.45,0,0,0,1.88-11.06C259.68,130.61,259.51,121.93,256.1,115.47Z" transform="translate(-4.83 -4.75)"/><path class="cls-2" d="M193.48,88.07c.17.35.69.35,1,.18,7-4.09,13.78-8.34,20.58-12.77l10.21-6.63c2.56-1.7,6.13-3.4,8.17-5.79.17,0,.17-.17.34-.34,1.36-2.89-.34-5.61-1.7-8.33a48.56,48.56,0,0,0-6.64-9c-4.59-5.11-11.23-11.57-18.2-13.1-2.9-.68-4.43,1-6,3.23-2.72,3.91-5.27,8-7.83,11.91-5.1,8-10.21,16.16-15.14,24.33a.8.8,0,0,0,.17,1A141.28,141.28,0,0,1,193.48,88.07Z" transform="translate(-4.83 -4.75)"/><path class="cls-3" d="M175.11,33.29c-3.07-1.19-8.85-3.57-11.91-1.19a.17.17,0,0,0-.17.17v.17a21.23,21.23,0,0,0-1.37,5.61c-.51,2.38-1,4.6-1.36,7-.85,4.76-1.7,9.7-2.55,14.46,0,.34,0,.51.34.51a53.2,53.2,0,0,1,11.57,4.94c.17.17.51,0,.68-.18,3.58-4.76,7.15-9.69,10.72-14.46,1.53-2.21,3.58-4.59,4.94-7a3.09,3.09,0,0,0-.34-3.58C182.93,36.69,178.68,34.65,175.11,33.29Z" transform="translate(-4.83 -4.75)"/><path class="cls-3" d="M107.21,31.59A2.89,2.89,0,0,0,104.83,29c-4.25-.85-9.36,1.37-13.1,2.9-2.72,1.36-8,3.74-8.34,7.14v.34a28.86,28.86,0,0,0,2.89,4.94c1.37,2,2.56,3.91,3.92,5.95,2.72,4.09,5.61,8.17,8.51,12.08.17.17.34.34.68.17a58.37,58.37,0,0,1,11.74-4.76c.17,0,.34-.34.34-.51q-1-8.43-2.55-16.85A89.64,89.64,0,0,0,107.21,31.59Z" transform="translate(-4.83 -4.75)"/><path class="cls-3" d="M50,83.14c-2.21-1.53-4.59-3.57-7-4.93a3.07,3.07,0,0,0-3.57.34c-3.06,2.38-5.1,6.8-6.46,10.38-1.2,3.06-3.58,8.84-1.2,11.91A.17.17,0,0,0,32,101h.17a21,21,0,0,0,5.62,1.36c2.38.51,4.59,1,7,1.36,4.76.85,9.7,1.7,14.46,2.55.34,0,.51,0,.51-.34a53.88,53.88,0,0,1,4.93-11.57c.17-.17,0-.51-.17-.68C59.74,90.29,55,86.71,50,83.14Z" transform="translate(-4.83 -4.75)"/><path class="cls-3" d="M57.87,153.07c0-.17-.34-.34-.51-.34q-8.43,1-16.85,2.55a87.62,87.62,0,0,0-9.19,1.7,2.88,2.88,0,0,0-2.55,2.39c-.85,4.25,1.36,9.35,2.89,13.1,1.37,2.72,3.75,8,7.15,8.33h.34a29.24,29.24,0,0,0,4.94-2.89c2-1.36,3.91-2.55,5.95-3.91,4.08-2.72,8.17-5.62,12.08-8.51.17-.17.34-.34.17-.68A64.42,64.42,0,0,1,57.87,153.07Z" transform="translate(-4.83 -4.75)"/><path class="cls-3" d="M106,204.45a54.09,54.09,0,0,1-11.57-4.93c-.17-.17-.51,0-.68.17-3.57,4.76-7.14,9.7-10.72,14.46-1.53,2.21-3.57,4.6-4.93,7a3.07,3.07,0,0,0,.34,3.57c2.38,3.06,6.8,5.11,10.38,6.47,3.06,1.19,8.85,3.57,11.91,1.19a.17.17,0,0,0,.17-.17V232a20.9,20.9,0,0,0,1.36-5.62c.51-2.38,1-4.59,1.36-7,.85-4.77,1.7-9.7,2.55-14.46A.33.33,0,0,0,106,204.45Z" transform="translate(-4.83 -4.75)"/><path class="cls-3" d="M180.72,225h0v-.34a28.77,28.77,0,0,0-2.89-4.93c-1.36-2-2.55-3.92-3.91-6-2.73-4.08-5.62-8.16-8.51-12.08-.17-.17-.34-.34-.68-.17A58.88,58.88,0,0,1,153,206.33c-.17,0-.34.34-.34.51q1,8.41,2.55,16.84a87.15,87.15,0,0,0,1.7,9.19,2.88,2.88,0,0,0,2.38,2.55c4.26.85,9.36-1.36,13.1-2.89,2.73-1.36,8-3.74,8.34-7.15Z" transform="translate(-4.83 -4.75)"/><path class="cls-3" d="M232.11,163.28l-.17-.17a20.83,20.83,0,0,0-5.61-1.36c-2.39-.51-4.6-1-7-1.36-4.77-.85-9.7-1.7-14.46-2.56-.35,0-.52,0-.52.35a54.09,54.09,0,0,1-4.93,11.57c-.17.17,0,.51.17.68,4.76,3.57,9.7,7.14,14.46,10.71,2.22,1.54,4.6,3.58,7,4.94a3.07,3.07,0,0,0,3.57-.34c3.07-2.38,5.11-6.81,6.47-10.38,1-3.06,3.4-8.85,1-12.08Z" transform="translate(-4.83 -4.75)"/><path class="cls-3" d="M232.11,92c-1.36-2.72-3.74-8-7.15-8.34h-.34a28.77,28.77,0,0,0-4.93,2.89c-2,1.36-3.91,2.56-6,3.92-4.08,2.72-8.16,5.61-12.08,8.5a.52.52,0,0,0-.17.69,58.4,58.4,0,0,1,4.77,11.74c0,.17.34.34.51.34q8.42-1,16.84-2.56a86.68,86.68,0,0,0,9.19-1.7,2.88,2.88,0,0,0,2.55-2.38C235.85,100.84,233.81,95.56,232.11,92Z" transform="translate(-4.83 -4.75)"/><path class="cls-4" d="M90.54,148.65a8,8,0,0,0,4.08-.85,9.8,9.8,0,0,0,5.62-5.62,6.59,6.59,0,0,0,.85-4.08c-.17-1-.17-1.87-.34-2.89a9,9,0,0,0-2.72-4.6c-.68-.51-1.37-1-2.22-1.7a11.78,11.78,0,0,0-5.27-1.53,8,8,0,0,0-4.08.85,9.75,9.75,0,0,0-5.62,5.61,6.63,6.63,0,0,0-.85,4.09c.17,1,.17,1.87.34,2.89a9,9,0,0,0,2.72,4.59c.68.51,1.36,1,2.21,1.71A9.6,9.6,0,0,0,90.54,148.65Z" transform="translate(-4.83 -4.75)"/><path class="cls-4" d="M173.41,148.65a8,8,0,0,0,4.08-.85,9,9,0,0,0,3.4-2.22,9.06,9.06,0,0,0,2.21-3.4,6.52,6.52,0,0,0,.86-4.08c-.17-1-.17-1.87-.34-2.89a9.07,9.07,0,0,0-2.73-4.6c-.68-.51-1.36-1-2.21-1.7a11.78,11.78,0,0,0-5.27-1.53,8,8,0,0,0-4.09.85,9.77,9.77,0,0,0-5.61,5.61,6.63,6.63,0,0,0-.85,4.09c.17,1,.17,1.87.34,2.89a9,9,0,0,0,2.72,4.59c.68.51,1.36,1,2.21,1.71A9.55,9.55,0,0,0,173.41,148.65Z" transform="translate(-4.83 -4.75)"/><path class="cls-5" d="M131.89,127.38a7.23,7.23,0,0,0,1.87-.34,4.69,4.69,0,0,0,2.55-2.55,2.38,2.38,0,0,0,.34-1.88c0-.34-.17-.85-.17-1.19a4.08,4.08,0,0,0-1.19-2c-.34-.17-.68-.51-1-.68a3.9,3.9,0,0,0-2.38-.68,7.23,7.23,0,0,0-1.87.34,4,4,0,0,0-1.54,1,4,4,0,0,0-1,1.53,2.36,2.36,0,0,0-.34,1.87c0,.35.17.86.17,1.2a4.08,4.08,0,0,0,1.19,2c.34.17.68.51,1,.68A4.3,4.3,0,0,0,131.89,127.38Z" transform="translate(-4.83 -4.75)"/><path class="cls-6" d="M150.09,130.78l-.34-.34a.62.62,0,0,0-.51-.17c-2.89-.34-4.93,2.38-7.31,3.91a54,54,0,0,1-5.28,3.24c-3.06,1.53-5.44,2.72-8.85,1-2.21-1-15.14-11.57-15.48-3.92-.17,2.73,2.38,5.62,3.91,7.49a43,43,0,0,0,8.34,7.32c2.89,1.87,6.3,3.57,9.7,2.72,2.72-.68,5.27-3.06,7.15-4.93C144.48,144.39,155.37,135,150.09,130.78Z" transform="translate(-4.83 -4.75)"/><path class="cls-6" d="M101.26,125.51c.68-1.19.68-2.9,1-4.43a14.23,14.23,0,0,1,2.89-6.29c2.55-2.72,6.3-2.21,8.34.85,1.87,2.72,1.87,6,2.38,9,.34,1.87,3.24,1.36,3.24-.51,0-6.47-4.09-17.53-12.6-14.13-3.23,1.2-5.1,4.09-6.29,7.15-.85,2.21-2.21,6.13-1,8.34C99.56,126.36,100.75,126.19,101.26,125.51Z" transform="translate(-4.83 -4.75)"/><path class="cls-6" d="M164.9,125.51c1.19-2.21-.17-6.13-1-8.34a12.48,12.48,0,0,0-6.3-7.15c-8.68-3.4-12.59,7.66-12.59,14.13,0,1.7,2.89,2.21,3.23.51.51-2.9.51-6,2.21-8.68,2-3.23,5.79-4.08,8.51-1.19,1.53,1.53,2.21,3.91,2.72,5.95.35,1.53.35,3.41,1.2,4.77A1.19,1.19,0,0,0,164.9,125.51Z" transform="translate(-4.83 -4.75)"/><path class="cls-5" d="M119.81,16.1c1.7.68,3.57,0,5.27-.34s3.57-.34,5.45-.68c3.57-.68,2.38-5.78-.86-5.95a24.14,24.14,0,0,0-6.12.68c-2,.51-3.74,1-5.11,2.72C117.42,13.89,118.44,15.59,119.81,16.1Z" transform="translate(-4.83 -4.75)"/><path class="cls-5" d="M169.15,37.37a3.5,3.5,0,0,0,.51,2.55,2.29,2.29,0,0,0,1.19,1,4.92,4.92,0,0,0,2.73.69,3,3,0,0,0,2.89-2.56,2.85,2.85,0,0,0-2.21-3.23c-.51,0-.85-.17-1.36-.17a1.53,1.53,0,0,1,.85.17c-.34,0-.85-.17-1.2-.17a2.6,2.6,0,0,0-2.21.34A1.65,1.65,0,0,0,169.15,37.37Z" transform="translate(-4.83 -4.75)"/><path class="cls-5" d="M206.08,42.31c1.36,1.36,3.4,2.38,4.93,3.57,1.7,1.19,3.23,2.72,5.45,2.72A2.68,2.68,0,0,0,219,45.2c-.85-2.21-2.89-3.23-4.77-4.43-1.7-1-3.74-2.38-5.78-2.72A2.53,2.53,0,0,0,206.08,42.31Z" transform="translate(-4.83 -4.75)"/><path class="cls-5" d="M222.92,90.8a5.71,5.71,0,0,0,.85,2.38,2.71,2.71,0,0,0,2.38,1.36,2.75,2.75,0,0,0,2.22-1,3,3,0,0,0,.51-2.38A2.6,2.6,0,0,0,227,89.27c-.17-.17-.51-.17-.68-.34a5.34,5.34,0,0,0-1.71-.17,2,2,0,0,0-1.19.85A1.32,1.32,0,0,0,222.92,90.8Z" transform="translate(-4.83 -4.75)"/><path class="cls-5" d="M228.37,166.17a4.33,4.33,0,0,0-2.39,1,1.7,1.7,0,0,0-.68.85,2.38,2.38,0,0,0-.34,1.88,2.7,2.7,0,0,0,1.37,2.38,2.61,2.61,0,0,0,2.72,0,3.3,3.3,0,0,0,1.53-1.87,3.36,3.36,0,0,0,.17-1.37,3.07,3.07,0,0,0-.34-1.7A2.59,2.59,0,0,0,228.37,166.17Z" transform="translate(-4.83 -4.75)"/><path class="cls-5" d="M222.58,204.28A16.45,16.45,0,0,0,220,206.5c-1,1-2.38,1.7-2.21,3.4a2.71,2.71,0,0,0,2,2.55c1.87.51,3.23-.68,4.42-2,.85-.85,2.05-2,2.22-3.4C227,205,224.79,203.26,222.58,204.28Z" transform="translate(-4.83 -4.75)"/><path class="cls-5" d="M165.75,231.85a4.37,4.37,0,0,0,2.55-.17,3.56,3.56,0,0,0,1.87-1.36,2.89,2.89,0,0,0,.17-2.39,2.65,2.65,0,0,0-1.36-1.36,3.34,3.34,0,0,0-2.55.17,5.24,5.24,0,0,0-1.87,1.54A2.4,2.4,0,0,0,165.75,231.85Z" transform="translate(-4.83 -4.75)"/><path class="cls-5" d="M118.44,252.78c2,1.53,5.79,1,8,.34,3.23-1,1.87-6-1.36-4.94a17.93,17.93,0,0,1-3.23.85,11.11,11.11,0,0,0-3.41.68C117.08,250.22,117.59,252.1,118.44,252.78Z" transform="translate(-4.83 -4.75)"/><path class="cls-5" d="M82.71,223a6.67,6.67,0,0,0,2.38,1.36c.34.17.51.17.85.34a3.51,3.51,0,0,0,1.88,0A2.57,2.57,0,0,0,89,220.45a4.47,4.47,0,0,0-2.55-1.19,7.43,7.43,0,0,0-2.73-.17A2.47,2.47,0,0,0,82.71,223Z" transform="translate(-4.83 -4.75)"/><path class="cls-5" d="M36.43,205.65a10.93,10.93,0,0,0,1.7,4.08A9.78,9.78,0,0,0,41.36,213c2,1.36,4.43-1.36,3.24-3.23a22.68,22.68,0,0,0-2.39-3.23c-.85-1-1.53-2.22-2.55-2.73A2.15,2.15,0,0,0,36.43,205.65Z" transform="translate(-4.83 -4.75)"/><path class="cls-5" d="M32.17,162.09a4.3,4.3,0,0,0,.34,2.89c.17.51.35.85.52,1.36s.68.85,1,1.19a2.35,2.35,0,0,0,2.38.51,2.51,2.51,0,0,0,1.36-1.87,4.71,4.71,0,0,0-.17-1.53c-.17-.51-.51-1-.68-1.53a4.65,4.65,0,0,0-2.21-2.21A1.9,1.9,0,0,0,32.17,162.09Z" transform="translate(-4.83 -4.75)"/><path class="cls-5" d="M11.76,116.83c-1.54,3.23-2.73,9.53.17,12.42,1,1,3.23,1,3.74-.51.85-1.7.51-3.4.51-5.1,0-1.88.17-3.58.34-5.45C16.69,115.64,12.78,114.62,11.76,116.83Z" transform="translate(-4.83 -4.75)"/><path class="cls-5" d="M39.66,91.82a11.17,11.17,0,0,0,2-2.89,28.65,28.65,0,0,0,1.53-3.24,2.68,2.68,0,0,0-4.93-2,27.74,27.74,0,0,0-1.53,3.23,8.45,8.45,0,0,0-.85,3.41C35.75,92.33,38.3,93,39.66,91.82Z" transform="translate(-4.83 -4.75)"/><path class="cls-5" d="M45.62,52.17c1.53-.68,2.72-2.55,4.08-3.74,1.36-1.36,3.06-2.55,3.57-4.59a2.54,2.54,0,0,0-3.06-3.07c-2.21.52-3.4,2.39-4.76,4.09-1.19,1.36-2.73,3.23-3.07,5.1A2.18,2.18,0,0,0,45.62,52.17Z" transform="translate(-4.83 -4.75)"/><path class="cls-5" d="M95,37.88h1.19c-.34,0,.51,0,.68-.17a.64.64,0,0,0,.52-.17A8.29,8.29,0,0,0,98.54,37a4.58,4.58,0,0,0,1.19-1.36,2.18,2.18,0,0,0-1.19-3.06,3.32,3.32,0,0,0-3.58,1,3.38,3.38,0,0,0-1.19,2.72C93.94,37,94.28,37.88,95,37.88Z" transform="translate(-4.83 -4.75)"/><path class="cls-5" d="M92.07,89.27a58.88,58.88,0,0,1,6.64-4.94c2.38-1.36,5.1-2.21,7.48-3.57,2.39-1.19,1.36-5.45-1.36-5.28-6.12.51-13.1,5.11-16.16,10.38C87.48,87.73,90,90.63,92.07,89.27Z" transform="translate(-4.83 -4.75)"/><path class="cls-5" d="M112.66,76.85a7.6,7.6,0,0,0,4.42-.86,2.79,2.79,0,0,0,1.19-3.74,2.92,2.92,0,0,0-3.57-1.7,9,9,0,0,0-3.91,2.21C109.26,74.29,110.62,76.85,112.66,76.85Z" transform="translate(-4.83 -4.75)"/><path class="cls-5" d="M175.11,181a25.89,25.89,0,0,0,9-7,2.89,2.89,0,0,0-4.09-4.08c-2.72,2.21-5.44,4.59-8.17,6.8C169.15,178.76,172.38,182.17,175.11,181Z" transform="translate(-4.83 -4.75)"/><path class="cls-5" d="M188.55,108.66a2.87,2.87,0,0,0,.51,1.7s.34.51.17.17,0,.34,0,.34,0,.34.17.34v0a5.82,5.82,0,0,0,.17,1.71,3,3,0,0,0,2.38,2,2.89,2.89,0,0,0,2.9-1.36,4.7,4.7,0,0,0,.34-3.07,8.29,8.29,0,0,0-.68-1.87,9.43,9.43,0,0,0-1.2-1.53,3.49,3.49,0,0,0-2.89-.85A2.66,2.66,0,0,0,188.55,108.66Z" transform="translate(-4.83 -4.75)"/><path class="cls-5" d="M87,175.53c-.34,1,.34,2,.68,2.89a6.42,6.42,0,0,0,1.53,2,2.58,2.58,0,0,0,3.4.17,2.64,2.64,0,0,0,.68-3.4A6.86,6.86,0,0,0,91.05,175a5.66,5.66,0,0,0-1.7-1A2.21,2.21,0,0,0,87,175.53Z" transform="translate(-4.83 -4.75)"/><path class="cls-5" d="M95.3,182.34a2.78,2.78,0,0,0,0,1.19c0,.17,0,.17.17.34a3.47,3.47,0,0,0,.85,1.53,2.84,2.84,0,0,0,2.05.85,2.2,2.2,0,0,0,2.21-1.7,2.78,2.78,0,0,0-.34-2,5.77,5.77,0,0,0-1-1,4,4,0,0,0-1.36-.35h-.51A1.63,1.63,0,0,0,95.3,182.34Z" transform="translate(-4.83 -4.75)"/></svg>