<?xml version="1.0" encoding="utf-8"?>
<!-- Generator: Adobe Illustrator 26.0.0, SVG Export Plug-In . SVG Version: 6.00 Build 0)  -->
<svg version="1.1" id="Capa_1" xmlns="http://www.w3.org/2000/svg" xmlns:xlink="http://www.w3.org/1999/xlink" x="0px" y="0px"
	 viewBox="0 0 254.6 254.8" style="enable-background:new 0 0 254.6 254.8;" xml:space="preserve">
<style type="text/css">
	.st0{fill:#F1FA8C;}
	.st1{fill:#FFB86C;}
	.st2{fill:#8BE9FD;}
	.st3{fill:#FF5555;}
	.st4{fill:#FFFFFF;}
	.st5{fill:#282A36;}
</style>
<path class="st0" d="M56.8,135.6c1.6,15.9,8.5,30.9,19.6,42.4c10.2,10.4,25.9,16.5,40.2,18.4c14.2,1.6,28.5-0.5,41.7-6
	c13.9-6,26-16.2,32.5-29.8c7.3-15,8.8-31.6,5.8-48.2c-2.4-13.1-7.7-25.5-17.2-34.9c-19.7-19.2-51.2-23.8-76.9-15.7
	c-12.2,4-23.7,11.1-31.7,21.3C59.2,97.8,54.7,117,56.8,135.6z"/>
<path class="st1" d="M150,6.4c-1-2.7-3.6-3.6-6.1-4.4c-3.6-1.1-7.3-1.8-11.1-1.9c-7.1-0.3-16-0.2-22.5,3.2c-2.6,1.4-3.1,3.1-2.7,5.8
	c0.8,4.8,1.9,9.7,2.9,14.5c2,9.5,4.3,19.1,6.6,28.6c0.1,0.4,0.4,0.6,0.7,0.5h0.1c7.1-0.7,14.3-0.7,21.4,0c0.3-0.1,0.6-0.2,0.9-0.5
	c2-7.8,3.9-15.7,5.6-23.6c0.9-3.9,1.7-7.7,2.4-11.6c0.7-3.2,2-6.8,1.7-10V6.4H150z"/>
<path class="st1" d="M70.4,44.4l-6.6-10.2C62.1,31.6,60.4,28,58,26c0-0.2-0.2-0.2-0.3-0.3c-2.9-1.4-5.6,0.3-8.3,1.7
	c-3.2,1.9-6.3,4.1-9,6.6c-5.1,4.6-11.6,11.3-13.1,18.2c-0.7,2.9,1,4.4,3.2,6c3.9,2.7,8,5.3,11.9,7.8c8,5.1,16.2,10.2,24.3,15.1
	c0.3,0.2,0.7,0.1,1-0.2c4.6-5.5,9.7-10.6,15.2-15.2c0.3-0.2,0.3-0.7,0.2-1C79.1,58,74.8,51.2,70.4,44.4z"/>
<path class="st1" d="M52.5,136.6c-0.7-7.1-0.7-14.3,0-21.4c-0.1-0.3-0.2-0.6-0.5-0.8c-7.8-2-15.7-3.9-23.6-5.6
	c-3.9-0.8-7.7-1.7-11.6-2.4c-3.2-0.7-6.8-2-10-1.7H6.4c-2.7,1-3.6,3.6-4.4,6.1c-1.1,3.6-1.7,7.3-1.9,11.1c-0.3,7.1-0.2,16,3.2,22.5
	c1.4,2.6,3.1,3.1,5.8,2.7c4.8-0.9,9.7-1.9,14.5-2.9c9.5-2,19.1-4.3,28.6-6.6C52.2,137.2,52.5,136.9,52.5,136.6z"/>
<path class="st1" d="M65.6,171.5c-0.2-0.3-0.7-0.3-1-0.2c-7,4.1-13.8,8.3-20.6,12.8l-10.2,6.6c-2.6,1.7-6.1,3.4-8.2,5.8
	c-0.2,0-0.2,0.2-0.3,0.3c-1.4,2.9,0.3,5.6,1.7,8.3c1.9,3.2,4.1,6.3,6.6,9c4.6,5.1,11.2,11.6,18.2,13.1c2.9,0.7,4.4-1,6-3.2
	c2.7-3.9,5.3-8,7.8-11.9c5.1-8,10.2-16.2,15.1-24.3c0.2-0.3,0.1-0.7-0.2-1C75.2,182.1,70.2,177,65.6,171.5z"/>
<path class="st1" d="M143.7,231.4c-2-9.5-4.2-19.1-6.6-28.6c-0.1-0.4-0.4-0.6-0.7-0.5h-0.1c-7.1,0.7-14.3,0.7-21.4,0
	c-0.3,0.1-0.6,0.2-0.9,0.5c-2,7.8-3.9,15.6-5.6,23.6c-0.8,3.9-1.7,7.6-2.4,11.6c-0.7,3.2-2,6.8-1.7,10v0.3c1,2.7,3.6,3.6,6.1,4.4
	c3.6,1.1,7.3,1.8,11.1,1.9c7.1,0.3,16,0.2,22.5-3.2c2.6-1.4,3.1-3.1,2.7-5.8C145.8,240.9,144.8,236.1,143.7,231.4z"/>
<path class="st1" d="M223.7,196.6c-3.9-2.7-8-5.3-11.9-7.8c-8-5.1-16.2-10.2-24.3-15.1c-0.3-0.2-0.7-0.1-1,0.2
	c-4.6,5.5-9.6,10.6-15.1,15.1c-0.3,0.2-0.3,0.7-0.2,1c4.1,7,8.3,13.8,12.8,20.6c2.2,3.4,4.4,6.8,6.6,10.2c1.7,2.6,3.4,6.1,5.8,8.2
	c0,0.2,0.2,0.2,0.3,0.3c2.9,1.4,5.6-0.3,8.3-1.7c3.2-1.9,6.3-4.1,9-6.6c5.1-4.6,11.6-11.2,13.1-18.2
	C227.6,199.7,225.9,198.2,223.7,196.6z"/>
<path class="st1" d="M251.3,110.7c-1.4-2.6-3.1-3.1-5.8-2.7c-4.8,0.8-9.7,1.9-14.5,2.9c-9.5,2-19,4.2-28.6,6.6
	c-0.4,0.1-0.6,0.4-0.5,0.8v0.1c0.7,7.1,0.7,14.3,0,21.4c0.1,0.3,0.2,0.6,0.5,0.9c7.8,2.1,15.6,3.9,23.6,5.6
	c3.9,0.9,7.7,1.7,11.6,2.4c3.2,0.7,6.8,2,10,1.7h0.3c2.7-1,3.6-3.6,4.4-6.1c1.1-3.6,1.8-7.3,1.9-11.1
	C254.8,125.9,254.7,117.2,251.3,110.7z"/>
<path class="st1" d="M188.6,83.3c0.2,0.3,0.7,0.3,1,0.2c7-4.1,13.8-8.3,20.6-12.8l10.2-6.6c2.6-1.7,6.1-3.4,8.2-5.8
	c0.2,0,0.2-0.2,0.3-0.3c1.4-2.9-0.3-5.6-1.7-8.3c-1.9-3.2-4.1-6.3-6.6-9c-4.6-5.1-11.2-11.6-18.2-13.1c-2.9-0.7-4.4,1-6,3.2
	c-2.7,3.9-5.3,8-7.8,11.9c-5.1,8-10.2,16.2-15.1,24.3c-0.2,0.3-0.1,0.7,0.2,1C179,72.7,184,77.8,188.6,83.3z"/>
<path class="st2" d="M170.3,28.5c-3.1-1.2-8.9-3.6-11.9-1.2c-0.1,0-0.2,0.1-0.2,0.2v0.2c-0.7,1.8-1.2,3.7-1.4,5.6
	c-0.5,2.4-1,4.6-1.4,7c-0.9,4.8-1.7,9.7-2.6,14.5c0,0.3,0,0.5,0.3,0.5c4,1.2,7.9,2.8,11.6,4.9c0.2,0.2,0.5,0,0.7-0.2
	c3.6-4.8,7.1-9.7,10.7-14.5c1.5-2.2,3.6-4.6,4.9-7c0.7-1.1,0.5-2.6-0.3-3.6C178.1,31.9,173.8,29.9,170.3,28.5z"/>
<path class="st2" d="M102.4,26.8c-0.1-1.3-1.1-2.4-2.4-2.6c-4.2-0.9-9.4,1.4-13.1,2.9c-2.7,1.4-8,3.7-8.3,7.1v0.3
	c0.8,1.7,1.8,3.4,2.9,4.9c1.4,2,2.6,3.9,3.9,6c2.7,4.1,5.6,8.2,8.5,12.1c0.2,0.2,0.3,0.3,0.7,0.2c3.7-2,7.7-3.6,11.7-4.8
	c0.2,0,0.3-0.3,0.3-0.5c-0.7-5.6-1.5-11.2-2.6-16.9C103.7,32.7,103.1,29.7,102.4,26.8z"/>
<path class="st2" d="M45.2,78.4c-2.2-1.5-4.6-3.6-7-4.9c-1.1-0.7-2.6-0.5-3.6,0.3c-3.1,2.4-5.1,6.8-6.5,10.4
	c-1.2,3.1-3.6,8.8-1.2,11.9c0,0.1,0.1,0.2,0.2,0.2c0,0,0,0,0.1,0h0.2c1.8,0.7,3.7,1.2,5.6,1.4c2.4,0.5,4.6,1,7,1.4
	c4.8,0.8,9.7,1.7,14.5,2.6c0.3,0,0.5,0,0.5-0.3c1.2-4,2.8-7.9,4.9-11.6c0.2-0.2,0-0.5-0.2-0.7C54.9,85.5,50.2,82,45.2,78.4z"/>
<path class="st2" d="M53,148.3c0-0.2-0.3-0.3-0.5-0.3c-5.6,0.7-11.2,1.5-16.8,2.6c-3.1,0.4-6.2,1-9.2,1.7c-1.3,0.1-2.3,1.1-2.5,2.4
	c-0.9,4.2,1.4,9.4,2.9,13.1c1.4,2.7,3.8,8,7.1,8.3h0.3c1.7-0.8,3.4-1.8,4.9-2.9c2-1.4,3.9-2.6,6-3.9c4.1-2.7,8.2-5.6,12.1-8.5
	c0.2-0.2,0.3-0.3,0.2-0.7C55.6,156.3,54.1,152.4,53,148.3z"/>
<path class="st2" d="M101.2,199.7c-4-1.2-7.9-2.8-11.6-4.9c-0.2-0.2-0.5,0-0.7,0.2c-3.6,4.8-7.1,9.7-10.7,14.5
	c-1.5,2.2-3.6,4.6-4.9,7c-0.7,1.1-0.5,2.6,0.3,3.6c2.4,3.1,6.8,5.1,10.4,6.5c3.1,1.2,8.8,3.6,11.9,1.2c0.1,0,0.2-0.1,0.2-0.2v-0.2
	c0.7-1.8,1.2-3.7,1.4-5.6c0.5-2.4,1-4.6,1.4-7c0.8-4.8,1.7-9.7,2.6-14.5C101.4,200,101.4,199.8,101.2,199.7L101.2,199.7z"/>
<path class="st2" d="M175.9,220.2L175.9,220.2v-0.3c-0.8-1.7-1.8-3.4-2.9-4.9c-1.4-2-2.6-3.9-3.9-6c-2.7-4.1-5.6-8.2-8.5-12.1
	c-0.2-0.2-0.3-0.3-0.7-0.2c-3.7,2-7.7,3.7-11.7,4.8c-0.2,0-0.3,0.3-0.3,0.5c0.7,5.6,1.5,11.2,2.6,16.8c0.4,3.1,1,6.2,1.7,9.2
	c0.1,1.3,1.1,2.3,2.4,2.6c4.3,0.9,9.4-1.4,13.1-2.9c2.7-1.4,8-3.7,8.3-7.1L175.9,220.2z"/>
<path class="st2" d="M227.3,158.5l-0.2-0.2c-1.8-0.7-3.7-1.2-5.6-1.4c-2.4-0.5-4.6-1-7-1.4c-4.8-0.9-9.7-1.7-14.5-2.6
	c-0.4,0-0.5,0-0.5,0.4c-1.2,4-2.8,7.9-4.9,11.6c-0.2,0.2,0,0.5,0.2,0.7c4.8,3.6,9.7,7.1,14.5,10.7c2.2,1.5,4.6,3.6,7,4.9
	c1.1,0.7,2.6,0.5,3.6-0.3c3.1-2.4,5.1-6.8,6.5-10.4C227.3,167.6,229.7,161.8,227.3,158.5L227.3,158.5z"/>
<path class="st2" d="M227.3,87.2c-1.4-2.7-3.7-8-7.1-8.3h-0.3c-1.7,0.8-3.4,1.8-4.9,2.9c-2,1.4-3.9,2.6-6,3.9
	c-4.1,2.7-8.2,5.6-12.1,8.5c-0.2,0.1-0.3,0.5-0.2,0.7c2,3.7,3.6,7.7,4.8,11.7c0,0.2,0.3,0.3,0.5,0.3c5.6-0.7,11.2-1.5,16.8-2.6
	c3.1-0.4,6.2-1,9.2-1.7c1.3-0.1,2.3-1.1,2.6-2.4C231,96.1,229,90.8,227.3,87.2z"/>
<path class="st3" d="M85.7,143.9c1.4,0.1,2.8-0.2,4.1-0.9c2.6-1,4.6-3,5.6-5.6c0.7-1.2,1-2.7,0.8-4.1c-0.2-1-0.2-1.9-0.3-2.9
	c-0.4-1.8-1.4-3.4-2.7-4.6c-0.7-0.5-1.4-1-2.2-1.7c-1.6-0.9-3.4-1.4-5.3-1.5c-1.4-0.1-2.8,0.2-4.1,0.9c-2.6,1-4.6,3-5.6,5.6
	c-0.7,1.2-1,2.7-0.8,4.1c0.2,1,0.2,1.9,0.3,2.9c0.4,1.8,1.4,3.4,2.7,4.6c0.7,0.5,1.4,1,2.2,1.7C82,143.4,83.8,143.9,85.7,143.9z"/>
<path class="st3" d="M168.6,143.9c1.4,0.1,2.8-0.2,4.1-0.9c1.3-0.5,2.5-1.2,3.4-2.2c1-1,1.7-2.1,2.2-3.4c0.7-1.2,1-2.7,0.9-4.1
	c-0.2-1-0.2-1.9-0.3-2.9c-0.4-1.8-1.4-3.4-2.7-4.6c-0.7-0.5-1.4-1-2.2-1.7c-1.6-0.9-3.4-1.4-5.3-1.5c-1.4-0.1-2.8,0.2-4.1,0.9
	c-2.6,1-4.6,3-5.6,5.6c-0.7,1.2-1,2.7-0.9,4.1c0.2,1,0.2,1.9,0.3,2.9c0.4,1.8,1.4,3.4,2.7,4.6c0.7,0.5,1.4,1,2.2,1.7
	C164.9,143.4,166.7,143.9,168.6,143.9z"/>
<path class="st4" d="M127.1,122.6c0.6,0,1.3-0.1,1.9-0.3c1.2-0.5,2.1-1.4,2.6-2.6c0.4-0.6,0.5-1.2,0.3-1.9c0-0.3-0.2-0.8-0.2-1.2
	c-0.2-0.8-0.6-1.5-1.2-2c-0.3-0.2-0.7-0.5-1-0.7c-0.7-0.5-1.5-0.7-2.4-0.7c-0.6,0-1.3,0.1-1.9,0.3c-0.6,0.2-1.1,0.6-1.5,1
	s-0.8,0.9-1,1.5c-0.4,0.5-0.5,1.2-0.3,1.9c0,0.3,0.2,0.9,0.2,1.2c0.2,0.8,0.6,1.5,1.2,2c0.3,0.2,0.7,0.5,1,0.7
	C125.4,122.4,126.2,122.6,127.1,122.6z"/>
<path class="st5" d="M145.3,126l-0.3-0.3c-0.1-0.1-0.3-0.2-0.5-0.2c-2.9-0.3-4.9,2.4-7.3,3.9c-1.7,1.2-3.5,2.3-5.3,3.2
	c-3.1,1.5-5.4,2.7-8.8,1c-2.2-1-15.1-11.6-15.5-3.9c-0.2,2.7,2.4,5.6,3.9,7.5c2.5,2.8,5.3,5.3,8.3,7.3c2.9,1.9,6.3,3.6,9.7,2.7
	c2.7-0.7,5.3-3.1,7.1-4.9C139.6,139.6,150.5,130.2,145.3,126z"/>
<path class="st5" d="M96.4,120.8c0.7-1.2,0.7-2.9,1-4.4c0.4-2.3,1.4-4.5,2.9-6.3c2.6-2.7,6.3-2.2,8.3,0.8c1.9,2.7,1.9,6,2.4,9
	c0.3,1.9,3.2,1.4,3.2-0.5c0-6.5-4.1-17.5-12.6-14.1c-3.2,1.2-5.1,4.1-6.3,7.2c-0.8,2.2-2.2,6.1-1,8.3
	C94.7,121.6,95.9,121.4,96.4,120.8z"/>
<path class="st5" d="M160.1,120.8c1.2-2.2-0.2-6.1-1-8.3c-1.1-3.1-3.3-5.7-6.3-7.2c-8.7-3.4-12.6,7.7-12.6,14.1
	c0,1.7,2.9,2.2,3.2,0.5c0.5-2.9,0.5-6,2.2-8.7c2-3.2,5.8-4.1,8.5-1.2c1.5,1.5,2.2,3.9,2.7,5.9c0.4,1.5,0.4,3.4,1.2,4.8
	c0.3,0.6,1.1,0.7,1.6,0.4C159.8,121,160,120.9,160.1,120.8z"/>
<path class="st4" d="M115,11.4c1.7,0.7,3.6,0,5.3-0.3s3.6-0.3,5.5-0.7c3.6-0.7,2.4-5.8-0.9-5.9c-2.1,0-4.1,0.2-6.1,0.7
	s-3.7,1-5.1,2.7C112.6,9.1,113.6,10.8,115,11.4z"/>
<path class="st4" d="M164.3,32.6c-0.2,0.9,0,1.8,0.5,2.5c0.3,0.5,0.7,0.8,1.2,1c0.8,0.5,1.8,0.7,2.7,0.7c1.5,0,2.7-1.1,2.9-2.6
	s-0.7-2.9-2.2-3.2c-0.5,0-0.9-0.2-1.4-0.2c0.3,0,0.6,0,0.9,0.2c-0.3,0-0.9-0.2-1.2-0.2c-0.8-0.2-1.6-0.1-2.2,0.3
	C164.9,31.4,164.4,32,164.3,32.6z"/>
<path class="st4" d="M201.2,37.6c1.4,1.4,3.4,2.4,4.9,3.6c1.7,1.2,3.2,2.7,5.4,2.7c1.5,0,2.7-1.2,2.6-2.7c0-0.2,0-0.5-0.1-0.7
	c-0.9-2.2-2.9-3.2-4.8-4.4c-1.7-1-3.7-2.4-5.8-2.7c-1.4-0.3-2.7,0.5-3.1,1.9C200.4,36,200.6,36.9,201.2,37.6z"/>
<path class="st4" d="M218.1,86.1c0.1,0.8,0.4,1.7,0.9,2.4c0.5,0.9,1.4,1.4,2.4,1.4c0.9,0,1.7-0.3,2.2-1s0.7-1.6,0.5-2.4
	c-0.2-0.9-1-1.7-1.9-1.9c-0.2-0.2-0.5-0.2-0.7-0.3c-0.6-0.1-1.1-0.2-1.7-0.2c-0.5,0.1-0.9,0.4-1.2,0.8
	C218.2,85.1,218,85.6,218.1,86.1z"/>
<path class="st4" d="M223.5,161.4c-0.9,0.1-1.7,0.4-2.4,1c-0.3,0.2-0.6,0.5-0.7,0.9c-0.4,0.6-0.5,1.2-0.3,1.9c0,1,0.5,1.9,1.4,2.4
	c0.8,0.5,1.9,0.5,2.7,0c0.7-0.4,1.3-1.1,1.5-1.9c0.2-0.4,0.2-0.9,0.2-1.4c0.1-0.6-0.1-1.2-0.3-1.7
	C225.1,161.9,224.4,161.5,223.5,161.4z"/>
<path class="st4" d="M217.8,199.5c-0.9,0.6-1.8,1.4-2.6,2.2c-1,1-2.4,1.7-2.2,3.4c0,1.2,0.8,2.2,2,2.6c1.9,0.5,3.2-0.7,4.4-2
	c0.9-0.9,2.1-2,2.2-3.4C222.2,200.2,220,198.5,217.8,199.5z"/>
<path class="st4" d="M160.9,227.1c0.8,0.2,1.7,0.1,2.6-0.2c0.8-0.2,1.4-0.7,1.9-1.4c0.4-0.7,0.5-1.6,0.2-2.4
	c-0.3-0.6-0.8-1.1-1.4-1.4c-0.8-0.3-1.8-0.2-2.6,0.2c-0.7,0.4-1.4,0.9-1.9,1.5c-0.7,1.1-0.4,2.6,0.7,3.3
	C160.6,227,160.7,227,160.9,227.1z"/>
<path class="st4" d="M113.6,248c2,1.5,5.8,1,8,0.3c3.2-1,1.9-6-1.4-4.9c-1,0.4-2.1,0.7-3.2,0.9c-1.2,0-2.3,0.3-3.4,0.7
	C112.2,245.5,112.8,247.4,113.6,248z"/>
<path class="st4" d="M77.9,218.2c0.7,0.6,1.5,1.1,2.4,1.4c0.3,0.2,0.5,0.2,0.8,0.3c0.6,0.2,1.3,0.2,1.9,0c1.4-0.4,2.2-1.8,1.8-3.2
	c-0.1-0.4-0.3-0.8-0.6-1.1c-0.7-0.7-1.6-1.1-2.6-1.2c-0.9-0.2-1.8-0.3-2.7-0.2c-1.3,0.5-1.9,1.9-1.4,3.2
	C77.6,217.8,77.7,218,77.9,218.2z"/>
<path class="st4" d="M31.6,200.9c0.3,1.5,0.9,2.8,1.7,4.1s1.9,2.5,3.2,3.3c2,1.4,4.4-1.4,3.2-3.2c-0.7-1.1-1.5-2.2-2.4-3.2
	c-0.8-1-1.5-2.2-2.6-2.7c-1-0.6-2.3-0.2-2.9,0.8C31.7,200.2,31.6,200.5,31.6,200.9z"/>
<path class="st4" d="M27.3,157.3c-0.2,1-0.1,2,0.3,2.9c0.2,0.5,0.3,0.9,0.5,1.4s0.7,0.9,1,1.2c0.6,0.6,1.6,0.8,2.4,0.5
	c0.7-0.4,1.2-1.1,1.4-1.9c0-0.5,0-1-0.2-1.5s-0.5-1-0.7-1.5c-0.5-1-1.2-1.8-2.2-2.2s-2.1,0.1-2.5,1
	C27.4,157.2,27.4,157.3,27.3,157.3z"/>
<path class="st4" d="M6.9,112.1c-1.5,3.2-2.7,9.5,0.2,12.4c1,1,3.2,1,3.7-0.5c0.9-1.7,0.5-3.4,0.5-5.1c0-1.9,0.2-3.6,0.3-5.4
	C11.9,110.9,7.9,109.9,6.9,112.1z"/>
<path class="st4" d="M34.8,87.1c0.8-0.9,1.5-1.8,2-2.9c0.6-1,1.1-2.1,1.5-3.2c0.4-1.4-0.5-2.9-1.9-3.3c-1.2-0.3-2.4,0.2-3,1.3
	c-0.6,1-1.1,2.1-1.5,3.2c-0.5,1.1-0.8,2.2-0.8,3.4C30.9,87.6,33.5,88.2,34.8,87.1z"/>
<path class="st4" d="M40.8,47.4c1.5-0.7,2.7-2.5,4.1-3.7c1.4-1.4,3.1-2.5,3.6-4.6c0.3-1.4-0.5-2.7-1.9-3.1c-0.4-0.1-0.8-0.1-1.2,0
	c-2.2,0.5-3.4,2.4-4.8,4.1c-1.2,1.4-2.7,3.2-3.1,5.1c-0.2,1.2,0.6,2.3,1.8,2.5C39.9,47.8,40.4,47.7,40.8,47.4z"/>
<path class="st4" d="M90.2,33.1h1.2c-0.3,0,0.5,0,0.7-0.2c0.2,0,0.4,0,0.5-0.2c0.4-0.2,0.8-0.3,1.2-0.5c0.5-0.4,0.9-0.8,1.2-1.4
	c0.6-1.1,0.1-2.4-0.9-2.9c-0.1,0-0.2-0.1-0.3-0.1c-1.3-0.4-2.7,0-3.6,1c-0.8,0.7-1.2,1.7-1.2,2.7C89.1,32.2,89.4,33.1,90.2,33.1z"/>
<path class="st4" d="M87.2,84.5c2.1-1.8,4.3-3.5,6.6-4.9c2.4-1.4,5.1-2.2,7.5-3.6c2.4-1.2,1.4-5.4-1.4-5.3
	c-6.1,0.5-13.1,5.1-16.2,10.4C82.7,83,85.2,85.9,87.2,84.5z"/>
<path class="st4" d="M107.8,72.1c1.5,0.2,3.1-0.1,4.4-0.9c1.4-0.7,1.9-2.4,1.2-3.7c-0.6-1.4-2.1-2.1-3.6-1.7S107,67,105.9,68
	C104.4,69.5,105.8,72.1,107.8,72.1z"/>
<path class="st4" d="M170.3,176.2c3.5-1.6,6.6-4,9-7c1.1-1.2,1-3-0.1-4.1c-1.1-1-2.8-1-4,0c-2.7,2.2-5.4,4.6-8.2,6.8
	C164.3,174,167.6,177.4,170.3,176.2z"/>
<path class="st4" d="M183.7,103.9c0,0.6,0.2,1.2,0.5,1.7c0,0,0.3,0.5,0.2,0.2s0,0.3,0,0.3s0,0.3,0.2,0.3l0,0c0,0.6,0,1.2,0.2,1.7
	c0.4,1.1,1.3,1.8,2.4,2c1.2,0.2,2.3-0.4,2.9-1.4c0.5-1,0.6-2,0.3-3.1c-0.2-0.6-0.4-1.3-0.7-1.9c-0.3-0.5-0.7-1.1-1.2-1.5
	c-0.8-0.7-1.8-1-2.9-0.8C184.5,101.8,183.8,102.8,183.7,103.9z"/>
<path class="st4" d="M82.2,170.8c-0.3,1,0.3,2,0.7,2.9c0.4,0.8,0.9,1.4,1.5,2c0.9,0.9,2.4,1,3.4,0.2s1.3-2.3,0.7-3.4
	c-0.6-0.9-1.3-1.6-2.2-2.2c-0.5-0.4-1.1-0.8-1.7-1C83.5,169.1,82.5,169.8,82.2,170.8z"/>
<path class="st4" d="M90.5,177.6c-0.1,0.4-0.1,0.8,0,1.2c0,0.2,0,0.2,0.2,0.3c0.1,0.6,0.4,1.1,0.8,1.5c0.5,0.5,1.3,0.9,2.1,0.9
	c1,0,2-0.7,2.2-1.7c0.1-0.7,0-1.4-0.3-2c-0.3-0.4-0.6-0.7-1-1c-0.4-0.2-0.9-0.3-1.4-0.4h-0.5C91.7,176.2,90.8,176.7,90.5,177.6
	C90.5,177.5,90.5,177.6,90.5,177.6z"/>
</svg>
