<svg id="Capa_1" data-name="Capa 1" xmlns="http://www.w3.org/2000/svg" viewBox="0 0 331.43 294.22"><defs><style>.cls-1{fill:#ffd002;}.cls-2{fill:#c5e1c5;}.cls-3{fill:#fff;}.cls-4{fill:#008157;}.cls-5{fill:#f089a6;}.cls-6{fill:#97c997;}</style></defs><path class="cls-1" d="M274.68,294.57c-7.92-.65-24.09-2.27-29.06-8.51a5.81,5.81,0,0,1,1.77-8.51,10,10,0,0,1,5.56-1.22c-3-2.83-3.88-6.88-.34-9.8,4.21-3.49,17.18.24,22.49,1.21,11.37,2.44,28.39,6.16,34.45-6.56a19.55,19.55,0,0,0-.84-17.18c-2.78-4.94-7.92-8.18-13-10.53a50,50,0,0,0-8.6-2.68c-2.19-.4-2.86-1-2.78-2.1l.09-.09c.08-.16.17-.24.17-.4s.08-.32.08-.41.08-.32.17-.56.17-.57.25-.89c.51-1.87,1-3.81,1.52-5.68v-.16c.59-1.78,1.09-3.56,1.6-5.43.25-.89.5-1.78.76-2.67.16-.65.33-1.3.5-1.87l1.43.25c1.1.16,2.19.32,3.37.56l3.29.49c.25,0,.5.08.76.08l5.81,1.7c12.89,3,25.52,8.19,30.41,21.07a32.51,32.51,0,0,1,1.43,8.43,65.88,65.88,0,0,1-.17,12.24c-1,9-5.31,17.5-11.29,24.39s-11,10.13-20.13,12.32A88.45,88.45,0,0,1,280,294.89C278.3,294.81,276.53,294.73,274.68,294.57Zm15.25-83.06c.08,0,.08-.08.16-.08-.08,0-.08,0-.16-.09Z" transform="translate(-5.71 -4.72)"/><path class="cls-2" d="M316.12,168.4c1.94,2.75.42,6.56-1.93,8.59-2.28,1.78-5.23,1.86-8,2.26-3.79.57-7.58,1.06-11.37,1.71-5.47,1.37-21.14,2.51-27,6.4s-5.56,14.5-.67,17.91,17.6,5.43,22.24,6.07c3.62.17-5.06,17.67-5.06,17.67-4.88-1.13-25.69-4.7-31.16-7.37-11-4.62-13.9-25-11.88-34.53,2.1-11.34,7.75-17.34,19-21a178.17,178.17,0,0,1,41.1-9.65c3.79,0,11.21-2.27,13.82,1,2.61,4.21-.84,7.21-4.72,8.75C312.42,166.45,314.86,166.61,316.12,168.4Z" transform="translate(-5.71 -4.72)"/><path class="cls-3" d="M296.66,227.23a1,1,0,0,1-.67-1.3c.51-1.46.93-2.84,1.35-4.29.42-1.3.76-2.6,1.18-3.89.17-.81.59-1.95,1.68-1.62s.68,1.45.42,2.18c-.42,1.3-.84,2.6-1.17,3.89-.43,1.46-.93,2.84-1.35,4.3A1.28,1.28,0,0,1,296.66,227.23Z" transform="translate(-5.71 -4.72)"/><path class="cls-3" d="M307.11,232.33c-1.35-1.05.59-2.51,1.1-3.56,1.09-1.62,2.27-3.16,3.45-4.7.67-.73,1.09-1.79,2-2.27a1.06,1.06,0,0,1,1.1,1.78c-1.69,2.11-3.2,4.38-4.89,6.65C309.13,230.87,308.54,233.06,307.11,232.33Zm7.33-8.67c.08-.08.25-.08.34-.16A.63.63,0,0,0,314.44,223.66Z" transform="translate(-5.71 -4.72)"/><path class="cls-3" d="M314,237.84a1,1,0,0,1,.42-1.37c1.68-.9,3.37-1.71,5.05-2.52s3.12-1.62,4.72-2.27a1,1,0,0,1,1.26.81c.26,1-.84,1.3-1.43,1.63-1.26.64-2.44,1.21-3.7,1.86-1.6.81-3.29,1.54-4.89,2.43A1.26,1.26,0,0,1,314,237.84Z" transform="translate(-5.71 -4.72)"/><path class="cls-3" d="M317.64,249.11a1.09,1.09,0,0,1,1-1.14l5.73-.73c2-.16,4-.73,6-.48a1,1,0,0,1-.51,1.94c-3.7.24-7.32.89-11,1.3A1,1,0,0,1,317.64,249.11Z" transform="translate(-5.71 -4.72)"/><path class="cls-3" d="M326.15,266c-2.78-.65-5.56-1.38-8.26-2.1a11.08,11.08,0,0,0-1.68-.33,1,1,0,0,1-.93-.32,1.09,1.09,0,0,1,.93-1.79c3.62.57,7.07,1.79,10.61,2.6C328.17,264.34,327.5,266.37,326.15,266Z" transform="translate(-5.71 -4.72)"/><path class="cls-3" d="M315,279.74a1.15,1.15,0,0,1-.84-.41c-1.18-1.05-2.36-2-3.46-3.08s-2.36-2.1-3.54-3.08a1,1,0,0,1-.33-.73,1.13,1.13,0,0,1,2.1-.56c1.18,1.05,2.36,2,3.54,3.08l3.37,3A1.06,1.06,0,0,1,315,279.74Z" transform="translate(-5.71 -4.72)"/><path class="cls-3" d="M295.66,288.41c-.26-2.68-.68-5.27-1-7.94,0-1.06-.75-2.84.17-3.65a1.08,1.08,0,0,1,1.69,1.05c.25,3.49.92,6.89,1.26,10.3A1.06,1.06,0,1,1,295.66,288.41Zm-.43-9.64a.3.3,0,0,1-.25-.09h.09C295.15,278.77,295.15,278.77,295.23,278.77Z" transform="translate(-5.71 -4.72)"/><path class="cls-3" d="M278.3,289.14a1,1,0,0,1-.84-1.22c.84-4.13,1.35-8.34,2.11-12.48a1.12,1.12,0,0,1,2-.16.88.88,0,0,1,.08.81c-.17,1-.34,2-.42,2.92-.42,2.83-.84,5.59-1.43,8.43C279.65,288.25,279.4,289.38,278.3,289.14Z" transform="translate(-5.71 -4.72)"/><path class="cls-3" d="M260.7,288a1,1,0,0,1-.85-1.21c.51-1.87,1.18-3.73,1.69-5.59.84-2.76,1.6-5.51,2.44-8.19a1.13,1.13,0,0,1,2.19-.08c.09.73-.42,1.38-.5,2-.42,1.46-.85,2.91-1.27,4.37-.5,1.87-1.09,3.65-1.68,5.51C262.13,285.82,262.3,288.25,260.7,288Z" transform="translate(-5.71 -4.72)"/><path class="cls-4" d="M285.72,221.47h-.17c-.68-.08-17.44-2.18-24.43-8.18a27.24,27.24,0,0,1-8.26-14c-1.35-5.67-1-10.45,1-14.18,7.84-14.34,38.67-17.67,53.49-19.29a1.31,1.31,0,0,1,1.44,1.06,1.28,1.28,0,0,1-1.1,1.37c-14.4,1.54-44.31,4.78-51.55,18-1.77,3.16-2,7.38-.84,12.48a24.53,24.53,0,0,0,7.41,12.73c6.4,5.51,22.91,7.61,23.08,7.61a1.26,1.26,0,0,1,1.09,1.38A1.16,1.16,0,0,1,285.72,221.47Z" transform="translate(-5.71 -4.72)"/><path class="cls-1" d="M143.27,194.33c1.94,5.91.67,12.23.84,18.31,0,3.49-.17,7-.17,10.45-.16,1.63.43,3.65-.25,5.11-.92,1.38-5.89,1.05-7.66,1.3-5.56.24-11.12,1-16.6,1.13a2.56,2.56,0,0,1-1.77-1.54c-.17-1.78-.17-3.48-.25-5.27-.08-7.69-.42-15.47.08-23.17.34-3.81,1.44-8.11,5-10.29a5.77,5.77,0,0,1,8.6,3.08,8,8,0,0,1,4.46-3.89C139.23,188.17,142.26,191.17,143.27,194.33Z" transform="translate(-5.71 -4.72)"/><path class="cls-2" d="M144.87,227.15c.76,9.07-.34,18.15-.59,27.14-.25,3.89-.5,25.37-.84,29.26-.25,3-.42,6.07-1.52,8.91-1.35,3.81-6.31,7.05-10.11,4.13-1.6-1.54-1.85-3.89-2.44-5.91a12.49,12.49,0,0,1-2.44,6.32c-1.1,1-2.44,2-4,1.94-6.41-.4-5.73-9.88-6.07-14.42-.08-3.73-.17-25.12-.08-28.85.08-6.4.33-12.8.33-19.2,0-1.95-.08-3.89-.16-5.84,0-.73-.26-1.78.58-2.19.51-1.13,2.11-.65,3.12-.89,1.52-.08,3.12-.16,4.63-.32,4.81-.33,9.61-.81,14.41-1.22C141.33,226.09,144.37,225.12,144.87,227.15Z" transform="translate(-5.71 -4.72)"/><path class="cls-4" d="M129.12,286.79c.17-13.13,1-44,.51-57.13a1,1,0,0,1,1.51-.57c.84.41.51,1.46.67,2.19.43,9.32,0,18.64-.25,27.87-.08,3.33-.25,24.23-.17,27.56C131.39,288,129.2,288.17,129.12,286.79Z" transform="translate(-5.71 -4.72)"/><path class="cls-3" d="M123.31,203.48a1.06,1.06,0,0,1-.09-1.94c1.69-.33,3.54-.33,5.23-.49,3.28-.24,6.65-.48,9.94-1a1,1,0,0,1,.42,2C133.58,202.75,128.45,203.24,123.31,203.48Z" transform="translate(-5.71 -4.72)"/><path class="cls-3" d="M122.13,209.64A1,1,0,0,1,122,208a2.87,2.87,0,0,1,1.18-.32c1.27-.16,2.45-.25,3.71-.41,4-.32,8-1,12-1.62a1.06,1.06,0,1,1,.09,2.11c-4.22.73-8.35,1.21-12.56,1.62-1.09.16-2.19.24-3.37.32A1.2,1.2,0,0,1,122.13,209.64Zm.84-1.86h-.25C122.8,207.7,122.89,207.78,123,207.78Z" transform="translate(-5.71 -4.72)"/><path class="cls-3" d="M122.46,216.53a1,1,0,0,1-.25-1.94,40.06,40.06,0,0,1,6.24-.73c3.2-.33,6.4-.73,9.6-.9,1.6-.4,2.1,1.87.5,2-3.45.16-6.9.57-10.36,1-1.77.17-3.54.25-5.22.57h-.51Z" transform="translate(-5.71 -4.72)"/><path class="cls-3" d="M123.22,223.66a1.06,1.06,0,0,1-.17-2.11c4.89-.56,9.78-1.05,14.58-1.7.5,0,1.09-.24,1.6.08,1,.81.25,2-.93,1.95C133.33,222.53,128.28,223,123.22,223.66Z" transform="translate(-5.71 -4.72)"/><path class="cls-2" d="M141.75,174.23c.76,9-8.25,13.94-16.59,11.59-4.21-1.14-6.15-5.43-6-9.32a11.61,11.61,0,0,1,4.13-8,10.93,10.93,0,0,1,10-2.19c2.36.65,4.72,1.78,6,3.89C140.91,170.91,141.5,172.69,141.75,174.23Z" transform="translate(-5.71 -4.72)"/><path class="cls-4" d="M102.92,161.83c2.78,1,5.39,3.81,4.38,6.73-.84,2-3.11,3.16-5,4.21,5.3.49,9.18,6,4.55,10-3,2.27-6.91,2.92-10.53,3.56-6.07,1-12.22,2-18.37,2.92-11.2,1.78-22.82,4.13-32.34,10.37-18.37,13.29-16.43,37-15.08,49.27.67,3-.34,3.65-3.2,4.46a61.92,61.92,0,0,1-17.69,2.11c-2.87-.08-3.46-1.06-3.54-3.73-.42-3.89-.25-21.15,0-30.71,1.26-17.34,8.51-31.12,21.31-41.33,9.77-7.94,22.32-11.43,34.54-14.26A232.37,232.37,0,0,1,87,161.1C92.31,160.78,97.78,160.29,102.92,161.83Z" transform="translate(-5.71 -4.72)"/><path class="cls-3" d="M17.34,251.46c.17-5.84-3.37-29.74,2.19-42.63,4-9.32,11.37-17.1,20.13-22.53,10.7-6.48,23.33-8.91,35.63-10.69,6-.89,12-1.46,17.94-2.35,1.44,0,5.73-1.62,5.82.4a1.17,1.17,0,0,1-1.44,1.06c-.92.08-1.85.24-2.77.4-7.08,1.14-14.33,1.7-21.49,2.92-11,1.78-22.32,4.05-32,9.72-10.53,6.4-19.46,16.53-22,28.45-1.26,12.8.08,32,0,35.25C19.53,252.75,17.34,252.83,17.34,251.46Z" transform="translate(-5.71 -4.72)"/><path class="cls-5" d="M103.09,280.06a4,4,0,0,1,1.43,3.16c-.5,3.89-4,6.4-7.41,8.11a69,69,0,0,1-16.17,5.1,77.08,77.08,0,0,1-21.15,1.78c-20-.89-40.85-7-48.69-26.49A72.17,72.17,0,0,1,5.8,255.1c-.42-2.75.76-4,3.62-4.29,1.85-.41,3.62-.73,5.47-1.06,3.88-.64,7.84-1.21,11.71-2,1.44-.24,2.87-.57,4.3-.73,1.68-.32,2.7.32,3,1.94,2.78,10.46,4.63,17.43,16.34,21.32,11.29,3.48,23.08.73,34.37-.81,4.13-.57,8.34-1.71,12.47-.73,6,1.54,4.29,7.37.16,10C99.3,278.6,101.57,278.6,103.09,280.06Z" transform="translate(-5.71 -4.72)"/><path class="cls-4" d="M27.36,256.72a1.06,1.06,0,1,1,.59,2c-1.68.49-3.37,1-5.14,1.46s-3.53,1.13-5.39,1.62c-1.09.16-2.69,1.46-3.45.16-.42-1,.59-1.54,1.43-1.7l4-1.22C22.05,258.18,24.75,257.45,27.36,256.72Z" transform="translate(-5.71 -4.72)"/><path class="cls-4" d="M33.93,266.53c.17,1.21-1.51,1.38-2.36,1.94-1.6.81-3.2,1.71-4.71,2.6l-4.81,2.67a1.12,1.12,0,0,1-1.51-.32,1,1,0,0,1,.34-1.46c1.68-1,3.36-1.87,5-2.84s3.36-1.94,5-2.75C31.91,266,33.51,265,33.93,266.53Z" transform="translate(-5.71 -4.72)"/><path class="cls-4" d="M40.33,272.77c.43.81-.5,1.38-.92,2.11-.84,1.21-1.77,2.35-2.61,3.48-1.18,1.62-2.36,3.16-3.54,4.78-.84.81-1.52,3.24-2.95,2.59-1.52-1,.76-2.83,1.26-3.89,2.11-3,4.38-5.83,6.49-8.83C38.57,272.12,39.91,271.8,40.33,272.77Z" transform="translate(-5.71 -4.72)"/><path class="cls-4" d="M48.25,276.82c1.43.08,1.1,1.46.84,2.35-.33,1.38-.58,2.84-.92,4.21-.42,1.79-.84,3.65-1.35,5.43a1.08,1.08,0,0,1-1.35.73,1,1,0,0,1-.76-1.29c.43-1.79.93-3.65,1.35-5.43.34-1.38.68-2.84.93-4.22C47.16,277.87,47.24,276.82,48.25,276.82Z" transform="translate(-5.71 -4.72)"/><path class="cls-4" d="M60.47,278.44c.17,3.4.08,6.81-.09,10.29a.86.86,0,0,1-.33.73,1.12,1.12,0,0,1-1.86-.73c.09-2.67.17-5.35.17-8,.08-1-.42-2.11.25-3A1.12,1.12,0,0,1,60.47,278.44Z" transform="translate(-5.71 -4.72)"/><path class="cls-4" d="M72.93,289.46a1.06,1.06,0,0,1-2.1.33c-.26-2.92-.34-5.76-.76-8.67a24.18,24.18,0,0,0-.34-2.52,1.09,1.09,0,0,1,2-.81,6.23,6.23,0,0,1,.26,1.3C72.43,282.49,72.68,286,72.93,289.46Z" transform="translate(-5.71 -4.72)"/><path class="cls-4" d="M84.39,288.73a1.07,1.07,0,0,1-2.11.33c-.42-2.35-.84-4.78-1.34-7.13-.26-1.14-.51-2.19-.85-3.33a1.08,1.08,0,0,1,1.44-1.54c.84.65.84,1.87,1.09,2.76C83.38,282.82,83.88,285.82,84.39,288.73Z" transform="translate(-5.71 -4.72)"/><path class="cls-4" d="M94.25,286.79c.42,1.29-1.69,1.86-2.11.57-.51-2-.93-4.06-1.35-6.08a14.82,14.82,0,0,0-1.43-4.22c-.25-1.86,2-1.94,2.44,0C93.07,280.22,93.4,283.55,94.25,286.79Z" transform="translate(-5.71 -4.72)"/><path class="cls-5" d="M315.45,87.36c.17,3.08,2.78,11.75-1.94,12.4a216.22,216.22,0,0,1-21.73,1.94c-3.71.08-7.41.73-11.12.41a2,2,0,0,1-2-2.11V96a105.73,105.73,0,0,1,.25-11.67,7.17,7.17,0,0,1,.84-3.16,3.09,3.09,0,0,1,2.7-1.13c3.2-.25,6.4-.49,9.69-.65,2.52.08,23.92-2.76,22.32,1A49,49,0,0,1,315.45,87.36Z" transform="translate(-5.71 -4.72)"/><path class="cls-1" d="M296.5,10.46c.59,5.75,1.43,11.59,1.85,17.42-.59,2.59-5.22,4.3-7.08,6.24-8,7.54-7.24,19.12-7.83,29.17s-1.35,20.26-1.18,30.47c-.08,13.7.25,27.47-.76,41.09-.5,3.48,0,7.29-1.93,10.37-1.18,1.62-3.29,3.08-5.48,2.43s-3.12-2.51-3.71-4.54c-1.6,3.24-4.12,5.59-8.08,4.14-5.06-2.6-3.88-13.78-4.13-18.72.08-8.67.42-17.35.42-26,0-15.39.51-30.79,1.77-46.19,1.26-13.37,2.95-28.44,13.14-38.49,4-4,9.52-6.32,14.91-7.94,1.85-.49,3.88-1.38,5.9-1.38a1.18,1.18,0,0,1,1.85.25v.16A1.1,1.1,0,0,1,296.5,10.46Z" transform="translate(-5.71 -4.72)"/><path class="cls-2" d="M335,45.55A368.23,368.23,0,0,1,336.42,108c-.5,8.59-.42,17.18-1.59,25.77-.68,4.22-1.52,8.59-4,12.16-2.95,4.21-8.26,3.24-9.61-1.7-1,2.51-3.54,4.78-6.48,4.37-6.91-.81-5.48-12.31-5.82-17.26-.33-13,.76-25.93,1-38.81.26-15.08,1-30.23.09-45.3-.93-9.65-2.95-14-13.48-15.8-2.78,1.54-2.27-5.76-2.61-7.22-.25-2.1-.51-4.21-.76-6.32-.17-2.75-1.68-8.59-.08-10.61,1.43-1.06,3.45-.81,5.22-.89A47.73,47.73,0,0,1,313.09,9C329.6,13.29,334.07,31.12,335,45.55Z" transform="translate(-5.71 -4.72)"/><path class="cls-3" d="M269.79,140.36c.17-22-.08-43.92-.08-65.88.34-19.13-2.28-45.06,19.21-54.62,4-2.11,4.21,1.13,2.52,1.46a20.87,20.87,0,0,0-3.11,1.21c-17.27,9.08-16.18,30.31-16.26,46.76-.09,15.23.08,30.47,0,45.7.08,6.81.17,13.62,0,20.42v4.87a1.14,1.14,0,0,1-2.28.08Z" transform="translate(-5.71 -4.72)"/><path class="cls-4" d="M304.67,25.53a1.17,1.17,0,0,1-.84-1.38c.42-1.94.75-3.81,1.18-5.75.42-1.38.67-4.86,1.68-5.67.84-.49,2,.32,1.68,1.21a50.49,50.49,0,0,0-1.18,5c-.42,1.94-.75,3.81-1.17,5.75A1.17,1.17,0,0,1,304.67,25.53Z" transform="translate(-5.71 -4.72)"/><path class="cls-4" d="M311.15,30.72c-.25-1.3,1.44-1.79,2.19-2.6,2.28-1.78,4.64-3.48,6.91-5.26,1.18-.9,2.61.81,1.43,1.7L317.13,28c-1.17.89-2.35,1.87-3.53,2.76C312.84,31.61,311.58,31.93,311.15,30.72Z" transform="translate(-5.71 -4.72)"/><path class="cls-4" d="M314.27,40a1.12,1.12,0,0,1,1.1-1.78c1.76-.16,3.53-.57,5.3-.81l5.56-.73a1.11,1.11,0,1,1,.34,2.19l-10.28,1.46C315.62,40.28,314.69,40.52,314.27,40Z" transform="translate(-5.71 -4.72)"/><path class="cls-4" d="M315,52.84a1.11,1.11,0,0,1,1.09-1.14l4.72-.48c1.85-.16,3.79-.41,5.64-.57a1.08,1.08,0,0,1,.85.24,1.13,1.13,0,0,1-.51,2c-2.95.32-5.89.57-8.76.89C317.05,53.81,315.2,54.38,315,52.84Z" transform="translate(-5.71 -4.72)"/><path class="cls-4" d="M314.19,69.13c-.76-1.62,1.09-1.87,2.27-1.79l8.93-.24c.93,0,1.94-.08,2.86-.08a1.1,1.1,0,1,1,.09,2.19l-10.53.24C316.71,69.37,315,70.1,314.19,69.13Z" transform="translate(-5.71 -4.72)"/><path class="cls-4" d="M315.62,83.63a1,1,0,0,1,0-1.7c.67-.49,1.6-.16,2.36-.32,2.36-.08,4.71-.17,7.07-.33,1.27,0,3-.56,4.13-.08a1.12,1.12,0,0,1-.5,2,90.06,90.06,0,0,1-9.27.56C318.4,83.71,316.21,84.2,315.62,83.63Z" transform="translate(-5.71 -4.72)"/><path class="cls-4" d="M314.61,98.22a1.1,1.1,0,0,1-.09-2.19c3.2-.24,6.41-.08,9.61-.4,1.26,0,2.86-.65,4-.09a1.12,1.12,0,0,1-.51,2C323.28,98.06,318.9,98,314.61,98.22Z" transform="translate(-5.71 -4.72)"/><path class="cls-4" d="M313.34,110.78c-1-2.59,3.71-2,5.23-2.19,2.78-.16,5.64-.24,8.42-.48,1.52-.33,2.11,1.94.51,2.18-1.86.17-3.63.25-5.48.33s-3.87.16-5.73.32C315.28,110.86,314.1,111.83,313.34,110.78Z" transform="translate(-5.71 -4.72)"/><path class="cls-4" d="M313.77,121.64c-.09-1.87,2.61-1.22,3.87-1.38,3.12-.08,6.15-.08,9.27-.16,1.85-.49,2.61,1.94.67,2.19-.93,0-1.94.08-2.86.08-3.12.08-6.24,0-9.44.16A1.16,1.16,0,0,1,313.77,121.64Z" transform="translate(-5.71 -4.72)"/><path class="cls-4" d="M314.44,134c-.59-2.35,4.13-1.71,5.56-2,2,0,4.13-.08,6.15-.08a23.26,23.26,0,0,0,2.36-.08,1.1,1.1,0,1,1,.08,2.19c-3.7.16-7.41,0-11,.24C316.38,134.28,314.86,135.33,314.44,134Z" transform="translate(-5.71 -4.72)"/><path class="cls-4" d="M307.45,88.9a1.1,1.1,0,1,1,0,2.19c-4.38.32-8.68.81-13.06,1-2.69.08-5.31.08-8,.08-1.18-.08-3.29.57-3.45-1A1.16,1.16,0,0,1,284,90c1.94,0,4-.08,5.9-.08C295.82,89.87,301.64,89.39,307.45,88.9Z" transform="translate(-5.71 -4.72)"/><path class="cls-2" d="M208.89,237.11c.17,3.08,2.78,11.75-1.94,12.4a216.24,216.24,0,0,1-21.73,2c-3.71.08-7.41.73-11.12.4a2,2,0,0,1-2-2.11v-4a110.63,110.63,0,0,1,.25-11.66,7.35,7.35,0,0,1,.84-3.17,3.09,3.09,0,0,1,2.7-1.13c3.2-.24,6.4-.49,9.69-.65,2.53.08,23.92-2.75,22.32,1C208.55,232.41,208.47,234.84,208.89,237.11Z" transform="translate(-5.71 -4.72)"/><path class="cls-5" d="M189.85,160.29c.59,5.76,1.44,11.59,1.86,17.42-.59,2.6-5.23,4.3-7.08,6.24-8,7.54-7.24,19.13-7.83,29.18s-1.35,20.26-1.18,30.47c-.09,13.69.25,27.47-.76,41.08-.51,3.49,0,7.29-1.94,10.37-1.18,1.62-3.28,3.08-5.47,2.43s-3.12-2.51-3.71-4.53c-1.6,3.24-4.13,5.59-8.09,4.13-5.05-2.59-3.87-13.78-4.12-18.72.08-8.67.42-17.34.42-26,0-15.4.5-30.8,1.77-46.19,1.26-13.37,2.94-28.45,13.14-38.49,4-4,9.52-6.32,14.91-7.95,1.85-.48,3.87-1.37,5.89-1.37a1.18,1.18,0,0,1,1.86.24v.16C190.19,159.32,190.19,159.89,189.85,160.29Z" transform="translate(-5.71 -4.72)"/><path class="cls-4" d="M228.43,195.38a369.39,369.39,0,0,1,1.44,62.48c-.51,8.59-.43,17.18-1.61,25.77-.67,4.21-1.51,8.59-3.95,12.15-2.95,4.22-8.26,3.24-9.61-1.7-1,2.51-3.53,4.78-6.48,4.38-6.91-.81-5.48-12.32-5.82-17.26-.33-13,.76-25.93,1-38.82.25-15.07,1-30.23.08-45.3-.93-9.64-2.95-14-13.48-15.8-2.78,1.54-2.27-5.75-2.61-7.21q-.37-3.16-.76-6.32c-.17-2.76-1.68-8.59-.08-10.62,1.43-1,3.45-.81,5.22-.89a47.63,47.63,0,0,1,14.74,2.59C223,163.13,227.51,181,228.43,195.38Z" transform="translate(-5.71 -4.72)"/><path class="cls-3" d="M163.23,290.11c.17-22-.08-43.92-.08-65.88.34-19.13-2.27-45.06,19.21-54.62,4-2.11,4.21,1.14,2.52,1.46a19.88,19.88,0,0,0-3.11,1.22c-17.27,9.07-16.18,30.3-16.26,46.75-.08,15.24.08,30.47,0,45.71.08,6.8.17,13.61,0,20.42V290a1.16,1.16,0,0,1-1.1,1.13A1,1,0,0,1,163.23,290.11Z" transform="translate(-5.71 -4.72)"/><path class="cls-6" d="M198,175.28a1.17,1.17,0,0,1-.85-1.37c.42-1.95.76-3.81,1.18-5.76.42-1.38.67-4.86,1.69-5.67.84-.49,2,.32,1.68,1.22a51,51,0,0,0-1.18,5c-.42,1.94-.76,3.81-1.18,5.75C199.37,175.12,198.61,175.45,198,175.28Z" transform="translate(-5.71 -4.72)"/><path class="cls-6" d="M204.51,180.55c-.25-1.3,1.43-1.78,2.19-2.59,2.27-1.79,4.63-3.49,6.91-5.27,1.18-.89,2.61.81,1.43,1.7l-4.55,3.41c-1.18.89-2.36,1.86-3.54,2.75C206.28,181.36,204.93,181.77,204.51,180.55Z" transform="translate(-5.71 -4.72)"/><path class="cls-6" d="M207.63,189.71a1.11,1.11,0,0,1,1.09-1.78c1.77-.17,3.54-.57,5.31-.82l5.56-.72a1.1,1.1,0,1,1,.34,2.18L209.65,190C209,190.11,208.13,190.36,207.63,189.71Z" transform="translate(-5.71 -4.72)"/><path class="cls-6" d="M208.47,202.67a1.11,1.11,0,0,1,1.09-1.13l4.72-.49c1.86-.16,3.79-.4,5.65-.56a1.05,1.05,0,0,1,.84.24,1.12,1.12,0,0,1-.51,2c-2.94.33-5.89.57-8.76.9C210.41,203.65,208.55,204.21,208.47,202.67Z" transform="translate(-5.71 -4.72)"/><path class="cls-6" d="M207.54,219c-.75-1.62,1.1-1.86,2.28-1.78l8.93-.24c.92,0,1.93-.09,2.86-.09a1.1,1.1,0,1,1,.08,2.19l-10.52.25C210.15,219.2,208.3,219.93,207.54,219Z" transform="translate(-5.71 -4.72)"/><path class="cls-6" d="M209,233.39a1.06,1.06,0,0,1,0-1.71c.68-.48,1.61-.16,2.36-.32,2.36-.08,4.72-.16,7.08-.32,1.26,0,3-.57,4.13-.09a1.13,1.13,0,0,1-.51,2,90.06,90.06,0,0,1-9.26.57C211.84,233.47,209.65,234,209,233.39Z" transform="translate(-5.71 -4.72)"/><path class="cls-6" d="M208,248a1.1,1.1,0,0,1-.09-2.19c3.2-.24,6.4-.08,9.6-.4,1.27,0,2.87-.65,4.05-.08a1.12,1.12,0,0,1-.51,2C216.73,247.81,212.34,247.81,208,248Z" transform="translate(-5.71 -4.72)"/><path class="cls-6" d="M206.7,260.53c-1-2.59,3.71-1.94,5.22-2.19,2.78-.16,5.65-.24,8.43-.48,1.51-.33,2.1,1.94.5,2.19-1.85.16-3.62.24-5.47.32s-3.88.16-5.73.32C208.64,260.61,207.46,261.59,206.7,260.53Z" transform="translate(-5.71 -4.72)"/><path class="cls-6" d="M207.12,271.47c-.08-1.86,2.61-1.21,3.88-1.38,3.11-.08,6.15-.08,9.26-.16,1.86-.48,2.61,1.95.68,2.19-.93,0-1.94.08-2.87.08-3.11.08-6.23,0-9.43.16A1.17,1.17,0,0,1,207.12,271.47Z" transform="translate(-5.71 -4.72)"/><path class="cls-6" d="M207.8,283.79c-.59-2.35,4.12-1.7,5.56-2,2,0,4.12-.08,6.14-.08a23.16,23.16,0,0,0,2.36-.08,1.1,1.1,0,1,1,.09,2.19c-3.71.16-7.41,0-11,.24C209.82,284.11,208.3,285.09,207.8,283.79Z" transform="translate(-5.71 -4.72)"/><path class="cls-4" d="M200.8,238.65a1.1,1.1,0,1,1,0,2.19c-4.38.33-8.67.81-13.05,1-2.7.08-5.31.08-8,.08-1.17-.08-3.28.57-3.45-1a1.16,1.16,0,0,1,1.1-1.13c1.93,0,4-.08,5.89-.08A157.06,157.06,0,0,0,200.8,238.65Z" transform="translate(-5.71 -4.72)"/><path class="cls-4" d="M242.59,131.12c.33,3.81.67,8.18-2,11.26a5,5,0,0,1-5.64,1.38,8.16,8.16,0,0,1-3.29-3.81c-.75,3.49-3.95,7.46-8.08,6.24-4.8-2-5.06-7.86-6.4-12.07-.59-2.27-1.35-4.62-2.11-6.81-3.62-9.56-9.77-18.64-18.78-24.15-1.35-.81-2.7-1.46-4-2.1-1.09-.65-3.7-1-3-2.52-.75-2,1.77-2.59,3.29-3l5.31-1.45a67.62,67.62,0,0,1,11.37-2.68A13.21,13.21,0,0,1,217.82,93,48.81,48.81,0,0,1,228,102.51C234.41,110.7,240.65,120.75,242.59,131.12Z" transform="translate(-5.71 -4.72)"/><path class="cls-2" d="M230.88,13.7c14.23,8.83,16.59,27.23,13.73,42.06C242.16,69.37,234,82.42,221.27,89.39c-15.66,7.94-33.52,11.34-51,12.23-3.29-.16-3.12-2.43-3.2-4.94a109.87,109.87,0,0,1-.43-11.75c.26-3.32,1.35-3.89,4.64-4l9.09-.73c12.72-.89,27-3.08,36.06-12.64,3.79-4.3,5.64-10.37,6.4-16.29a39.91,39.91,0,0,0-.51-7.78,24.71,24.71,0,0,0-3-6.64c-4.29-6.81-10.86-8.92-18.61-10-5.82-.89-11.71-1.3-17.61-1.62-4.46-.25-8.93,0-13.39,0a2.2,2.2,0,0,1-1.86-.89c-.84.24-1.51,0-1.68-1.14-.09-1-.51-1.86-.67-2.83-.17-1.22-.26-2.35-.43-3.57-.08-1.78-2.69-10.86.51-10.21,8.17-.73,16.34-.32,24.51-.41C203.58,6.57,219.34,5.92,230.88,13.7Z" transform="translate(-5.71 -4.72)"/><path class="cls-5" d="M170.23,111.91c.16,10,.92,19.94.5,29.82-.08,2.44-1.6,5-4.29,5.27-3,.41-4.89-2.43-5.73-4.86-.34,4.3-3.37,7.05-7.92,6.32-7.5-1-6.23-16-6.49-21.47-.33-14.59-.16-29.26-.84-43.84-.17-14.75.84-29.42.42-44.17-.08-8.26-.59-16.61-1.35-24.79a8.94,8.94,0,0,1,.09-3.65c1.52-2.84,6-2.92,8.93-3.49,3.79-.4,7.58-.64,11.37-1,5.14-1,4.8,4,4.88,7.38-.08,11.5-.25,23-.33,34.52a212.53,212.53,0,0,0,0,28.44C169.89,88.25,170.06,100.08,170.23,111.91Z" transform="translate(-5.71 -4.72)"/><path class="cls-3" d="M158.86,136.14c-.17-14.83-1.44-29.57-1.94-44.4-.34-25.61-.26-51.3-2-76.91.08-.73-.17-1.54.25-2.1a1.09,1.09,0,0,1,1.94.73c.25,10.13,1.26,20.17,1.34,30.3.85,20.59,0,41.17,1.27,61.75.59,10.21,1.09,20.42,1.26,30.63C161,137.36,158.94,137.52,158.86,136.14Z" transform="translate(-5.71 -4.72)"/><path class="cls-4" d="M176.88,22.13c-.25-3.41-.5-6.89-.67-10.29,0-.65-.26-1.54.25-2.11a1.11,1.11,0,0,1,1.85.73c0,1.62.17,3.24.17,4.86s.26,3.4.34,5.11c0,.72.34,1.45-.08,2.1A1,1,0,0,1,176.88,22.13Z" transform="translate(-5.71 -4.72)"/><path class="cls-4" d="M188.51,21.56c.08-2.67.25-5.35.33-8.1.09-1.14,0-2.27.09-3.41a1.05,1.05,0,0,1,1.68-.56c.84.72.25,2.26.42,3.24,0,2.75-.17,5.43-.33,8.18,0,.49.08,1-.34,1.3A1.07,1.07,0,0,1,188.51,21.56Z" transform="translate(-5.71 -4.72)"/><path class="cls-4" d="M201.48,23.59a1,1,0,0,1-.93-1.14c.42-4,.93-7.86,1.43-11.75a1.05,1.05,0,0,1,1.77-.49c.68.82,0,2.11.09,3.08-.34,2.6-.68,5.19-.93,7.78C202.74,22,203,23.67,201.48,23.59Z" transform="translate(-5.71 -4.72)"/><path class="cls-4" d="M212.93,24.72a1.07,1.07,0,0,1-.59-1.38c.68-1.62,1.35-3.16,2-4.78s1.43-3.24,2.1-4.86c.34-.57.51-1.38,1.18-1.7a1.08,1.08,0,0,1,1.43.56c.26.49-.08,1-.33,1.38-.76,1.54-1.35,3.16-2.11,4.7s-1.35,3.08-2,4.7C214.45,24.15,214,25.13,212.93,24.72Z" transform="translate(-5.71 -4.72)"/><path class="cls-4" d="M219.84,29.66c-.08-.89,2.7-2.67,3.46-3.48,2.19-1.87,4.29-3.81,6.48-5.67a1.13,1.13,0,0,1,1.77,1c-.34,1.05-1.6,1.54-2.36,2.35-1.85,1.62-3.87,3.4-5.73,4.94-.84.57-1.51,1.78-2.61,1.87A1,1,0,0,1,219.84,29.66Z" transform="translate(-5.71 -4.72)"/><path class="cls-4" d="M225.06,37.69a1,1,0,0,1-.25-1.46c.51-.65,2.61-.65,3.45-1.06,2.53-.64,5.06-1.54,7.59-2.27.42-.16.92-.24,1.35-.4a1.06,1.06,0,0,1,.58,2c-2.94.89-5.81,1.94-8.76,2.67C227.84,37.28,226.08,38.25,225.06,37.69Z" transform="translate(-5.71 -4.72)"/><path class="cls-4" d="M176.63,96c-.09-3.65-.42-7.29-.51-10.94a1.1,1.1,0,0,1,2.19.16c.09,3.57.43,7.13.51,10.7A1.1,1.1,0,0,1,176.63,96Z" transform="translate(-5.71 -4.72)"/><path class="cls-4" d="M189.26,94.33c-.25-2.67-.59-5.43-.92-8.1,0-1.06-.59-2.19-.09-3.16a1.11,1.11,0,0,1,1.94.48c.34,3.49.84,7,1.18,10.46a1.69,1.69,0,0,1-.17.89A1.16,1.16,0,0,1,189.26,94.33Z" transform="translate(-5.71 -4.72)"/><path class="cls-4" d="M200.72,92.14c-.51-2.51-1-4.94-1.52-7.45,0-1.14-1.34-3.25.42-3.65a1.18,1.18,0,0,1,1.27.89c.34,1.7.67,3.4,1,5s.67,3.24,1,4.86A1.11,1.11,0,0,1,200.72,92.14Z" transform="translate(-5.71 -4.72)"/><path class="cls-4" d="M211.59,88.25c-1.52-2.92-3.12-5.67-4.38-8.67a1.07,1.07,0,0,1,2.1-.24c0-.08-.08-.25-.08-.33,1.51,2.76,2.86,5.6,4.38,8.35A1.11,1.11,0,0,1,211.59,88.25Z" transform="translate(-5.71 -4.72)"/><path class="cls-4" d="M223.89,80.72a55,55,0,0,1-6.41-4.38c-.75-.65-1.77-1.13-2.27-2.11a1,1,0,0,1,.84-1.29c.76-.17,1.18.64,1.77,1a82.92,82.92,0,0,0,7.08,4.94A1,1,0,1,1,223.89,80.72Z" transform="translate(-5.71 -4.72)"/><path class="cls-4" d="M233.07,68.56a57.3,57.3,0,0,1-10.36-1.86,1,1,0,0,1-.26-1.87c.85-.4,2,.33,3,.41a65.65,65.65,0,0,0,7.92,1.21A1.06,1.06,0,0,1,233.07,68.56Z" transform="translate(-5.71 -4.72)"/><path class="cls-4" d="M238.12,56.73c-3.45-.16-6.82-.73-10.19-1a1.06,1.06,0,1,1-.17-2.11c3.54.24,7.08,1,10.61,1A1.06,1.06,0,0,1,238.12,56.73Z" transform="translate(-5.71 -4.72)"/><path class="cls-4" d="M228.85,46.84c-1.51-.32-1.09-2.27.51-2.1,3.79-.09,7.58-.25,11.29-.49a1,1,0,0,1,.76,1.78.92.92,0,0,1-.76.33c-2,.08-4,.24-6,.32S230.79,46.76,228.85,46.84Z" transform="translate(-5.71 -4.72)"/><path class="cls-6" d="M229.78,136.22c-2.27-13.85-9.69-26.57-19.79-36.54-.68-.65-2.11-1.38-1.18-2.43,1.18-1.06,2.27.73,3,1.29a75.83,75.83,0,0,1,15.25,21.64,73.75,73.75,0,0,1,4.8,15.72A1.07,1.07,0,0,1,229.78,136.22Z" transform="translate(-5.71 -4.72)"/><path class="cls-4" d="M125.24,16.05c4.89,1.13,8.09,6,3.29,9.48-4,2.92-9.43,2.84-14.24,3.16-12.55.73-25.44.65-37.9,2.19-21.74,1.62-32.6,9.48-38.16,25.61a71.07,71.07,0,0,0-3.12,17.34c-.42,4.62.17,9.4-.5,13.94-1.18,2.18-8.68,2.1-11.21,2.51-3.7.24-9.18,1-13,.81-2-.65-.76-19.37-.67-22.53.75-11.51,2.78-23.26,8.76-33.39,2.86-5,6.31-10,11-13.61C51.79-.64,110,5.6,117.07,5.35c2.78,0,6.83-.24,9.27,1.3C131.31,8.92,129.12,14.1,125.24,16.05Z" transform="translate(-5.71 -4.72)"/><path class="cls-1" d="M128,83.63c-.25,10.86-1.09,21.8-4.12,32.25-3.63,10.94-11.21,21.48-21.9,26.91-11,5.43-26.12,6.16-38.33,5.59C46,147,25.85,140.52,17.08,124.47c-3.28-5.83-5-12.23-6.23-18.71A84.5,84.5,0,0,1,9,92c0-1.78.76-3.49,2.95-3.57,1.51-.24,3.11-.4,4.63-.56,3.62-.41,7.24-.89,11-1.22,17.27-1.86,8.76.81,12.8,19.77a28,28,0,0,0,6.32,12.65c9.69,9.4,25.86,12.39,38.25,6.48,7.41-3.32,10.95-10.86,12.88-18.15.85-3.41,2.78-12,1.35-15.08-7.83.08-15.75,1.3-23.42-.4-3.37-.57-7.41-3.81-4.88-7.21a13.4,13.4,0,0,1,6.23-3.25c-4.8-.89-7.92-5.51-3.79-9.15a15.11,15.11,0,0,1,6.23-2.35c9.52-1.54,19.13-1,28.73-1.06,4.72.25,15.84-1.7,18.78,1.79C128.7,74.8,128,79.42,128,83.63Z" transform="translate(-5.71 -4.72)"/><path class="cls-3" d="M14.39,101.38a1.19,1.19,0,0,1,1.43-1c1.94-.17,3.79-.41,5.73-.65,3.2-.41,6.49-.89,9.69-1.22a1,1,0,1,1,.33,2c-4.71.57-9.35,1.29-14.06,1.78C16.41,102.27,14.47,102.92,14.39,101.38Z" transform="translate(-5.71 -4.72)"/><path class="cls-3" d="M19.19,118.07a1,1,0,0,1-.17-1.94c1.52-.57,3.12-1.06,4.64-1.62,3.45-1.22,6.82-2.51,10.36-3.65a1.07,1.07,0,0,1,1.26,1.54c-.25.49-1.1.57-1.52.81-1.68.57-3.45,1.22-5.13,1.86-2.87,1.14-5.82,2-8.77,3.08.09,0,.17-.08.26-.16A1.77,1.77,0,0,1,19.19,118.07Z" transform="translate(-5.71 -4.72)"/><path class="cls-3" d="M29.47,131a1.07,1.07,0,0,1,.17-1.46c1.43-1.22,2.86-2.35,4.29-3.57s3-2.59,4.64-3.89c.75-.56,1.43-1.46,2.44-1.54a1,1,0,0,1,.76,1.79c-3.2,2.35-6.07,5-9.1,7.45C31.83,130.31,30.65,132.17,29.47,131Z" transform="translate(-5.71 -4.72)"/><path class="cls-3" d="M47.49,141.25a1.07,1.07,0,0,1-.59-1.38c.68-1.62,1.44-3.32,2.11-4.94.84-2,1.77-4,2.44-6v.16a1.1,1.1,0,0,1,2.19.08,35,35,0,0,1-2,5.27c-.67,1.7-1.43,3.41-2.1,5C49.09,140.36,48.67,141.73,47.49,141.25Z" transform="translate(-5.71 -4.72)"/><path class="cls-3" d="M66.11,144.33a1,1,0,0,1-.93-1.14c.17-1.7.34-3.4.43-5.1.08-1.38.08-2.76.08-4.13-.08-.81-.08-2,1-2s1.18,1.05,1.1,1.86c0,1.38,0,2.76-.09,4.22-.08,1.78-.25,3.56-.5,5.35A.93.93,0,0,1,66.11,144.33Z" transform="translate(-5.71 -4.72)"/><path class="cls-3" d="M82,143.52a74.34,74.34,0,0,0-2.27-11.43A1.1,1.1,0,0,1,82,132a.27.27,0,0,0-.09-.24v.08a66.78,66.78,0,0,1,2.36,11.42C84.31,144.57,82.2,144.9,82,143.52Z" transform="translate(-5.71 -4.72)"/><path class="cls-3" d="M96.86,138.49a80,80,0,0,0-5.65-9.23,1.05,1.05,0,1,1,1.43-1.54c1.18,1.54,2.2,3.16,3.21,4.78s1.85,3.08,2.69,4.62a1.34,1.34,0,0,1,.25,1.13A1.06,1.06,0,0,1,96.86,138.49Z" transform="translate(-5.71 -4.72)"/><path class="cls-3" d="M110.92,124.39c-2.69-.89-5.3-2-8-3.08-1.09-.56-4.21-1.21-2.69-2.83a1.44,1.44,0,0,1,1.68.16l2.28,1c2.44,1,4.8,2,7.24,2.84C112.86,122.69,112.27,124.72,110.92,124.39Z" transform="translate(-5.71 -4.72)"/><path class="cls-3" d="M112.27,106.16c-2-.16-4-.24-6-.4-.42,0-.84-.09-1.26-.09a1,1,0,0,1-1.1-1.62c.76-.89,4-.08,5.31-.16,3,.16,5.9.41,8.84.49a1.05,1.05,0,1,1,0,2.1C116.15,106.4,114.21,106.24,112.27,106.16Z" transform="translate(-5.71 -4.72)"/><path class="cls-3" d="M106.71,93a1,1,0,0,1-.76-1.29c.34-1,1.69-.9,2.53-1.22,4-.81,8.17-1.3,12.22-2,1.34-.16,1.68,1.87.33,2C116.23,91.41,111.43,92.14,106.71,93Z" transform="translate(-5.71 -4.72)"/><path class="cls-3" d="M85.06,86.71c-.16-3.73-.42-7.53-.67-11.26.08-1-.51-2.35.59-2.92a1.07,1.07,0,0,1,1.43.65c.09.57,0,1.13.09,1.7.08,1.46.16,3,.25,4.46.17,2.43.25,4.86.42,7.37C87.25,88.09,85.06,88.09,85.06,86.71Z" transform="translate(-5.71 -4.72)"/><path class="cls-3" d="M97.53,86c-.17-3.81-.5-7.53-.93-11.26a11,11,0,0,1-.08-1.62,1.11,1.11,0,0,1,2.11,0c.08,1.13.25,2.27.33,3.32.34,3.16.51,6.32.68,9.56A1.06,1.06,0,0,1,97.53,86Z" transform="translate(-5.71 -4.72)"/><path class="cls-3" d="M108.82,85.74c-.09-3.65-.25-7.37-.51-11-.59-2.43,1.86-2.76,2.11-1a25,25,0,0,0,.17,2.59c.25,3.16.33,6.32.42,9.48C110.92,87,108.82,87.12,108.82,85.74Z" transform="translate(-5.71 -4.72)"/><path class="cls-3" d="M121.37,83.23a77.19,77.19,0,0,0-.59-8.84c-.42-1.13.67-2.35,1.77-1.45.59.81.34,1.86.59,2.83.25,2.43.34,5,.42,7.38A1.1,1.1,0,0,1,121.37,83.23Z" transform="translate(-5.71 -4.72)"/><path class="cls-6" d="M21.3,81.77c.17-11.51,0-23.42,4.29-34.44C30.06,36.23,40.33,28,51.79,24,66,19.13,81.1,17.35,96.1,16.05c8.59-.65,17.27-.41,25.94-.41a1,1,0,0,1,.51,1.87c-.93.48-2.11.08-3.12.24-21.65-.4-43.63,1.3-64.35,7.38-10.37,3.16-19.8,9.56-25.28,18.63-4.12,7.13-5.39,15.72-5.89,23.58-.25,4.79-.34,9.57-.34,14.43C23.49,83.15,21.3,83.15,21.3,81.77Z" transform="translate(-5.71 -4.72)"/></svg>