<?xml version="1.0" encoding="utf-8"?>
<!-- Generator: Adobe Illustrator 26.0.0, SVG Export Plug-In . SVG Version: 6.00 Build 0)  -->
<svg version="1.1" id="Capa_1" xmlns="http://www.w3.org/2000/svg" xmlns:xlink="http://www.w3.org/1999/xlink" x="0px" y="0px"
	 viewBox="0 0 331.4 294.2" style="enable-background:new 0 0 331.4 294.2;" xml:space="preserve">
<style type="text/css">
	.st0{fill:#FF79C6;}
	.st1{fill:#8BE9FD;}
	.st2{fill:#FFFFFF;}
	.st3{fill:#50FA7B;}
	.st4{fill:#FFB86C;}
</style>
<path class="st0" d="M269,289.9c-7.9-0.6-24.1-2.3-29.1-8.5c-1.9-2.6-1.4-6.2,1.2-8.1c0.2-0.1,0.4-0.3,0.6-0.4
	c1.7-0.9,3.6-1.4,5.6-1.2c-3-2.8-3.9-6.9-0.3-9.8c4.2-3.5,17.2,0.2,22.5,1.2c11.4,2.4,28.4,6.2,34.5-6.6c2.4-5.5,2.1-11.9-0.8-17.2
	c-2.8-4.9-7.9-8.2-13-10.5c-2.8-1.2-5.7-2-8.6-2.7c-2.2-0.4-2.9-1-2.8-2.1l0.1-0.1c0.1-0.2,0.2-0.2,0.2-0.4s0.1-0.3,0.1-0.4
	s0.1-0.3,0.2-0.6s0.2-0.6,0.2-0.9c0.5-1.9,1-3.8,1.5-5.7v-0.2c0.6-1.8,1.1-3.6,1.6-5.4c0.2-0.9,0.5-1.8,0.8-2.7
	c0.2-0.6,0.3-1.3,0.5-1.9l1.4,0.2c1.1,0.2,2.2,0.3,3.4,0.6l3.3,0.5c0.2,0,0.5,0.1,0.8,0.1l5.8,1.7c12.9,3,25.5,8.2,30.4,21.1
	c0.8,2.7,1.3,5.6,1.4,8.4c0.3,4.1,0.3,8.2-0.2,12.2c-1,9-5.3,17.5-11.3,24.4s-11,10.1-20.1,12.3c-8,2.1-16.2,3-24.4,2.8
	C272.6,290.1,270.8,290,269,289.9z M284.2,206.8c0.1,0,0.1-0.1,0.2-0.1c-0.1,0-0.1,0-0.2-0.1V206.8z"/>
<path class="st1" d="M310.4,163.7c1.9,2.8,0.4,6.6-1.9,8.6c-2.3,1.8-5.2,1.9-8,2.3c-3.8,0.6-7.6,1.1-11.4,1.7
	c-5.5,1.4-21.1,2.5-27,6.4s-5.6,14.5-0.7,17.9s17.6,5.4,22.2,6.1c3.6,0.2-5.1,17.7-5.1,17.7c-4.9-1.1-25.7-4.7-31.2-7.4
	c-11-4.6-13.9-25-11.9-34.5c2.1-11.3,7.8-17.3,19-21c13.3-4.8,27.1-8.1,41.1-9.6c3.8,0,11.2-2.3,13.8,1c2.6,4.2-0.8,7.2-4.7,8.8
	C306.7,161.7,309.1,161.9,310.4,163.7z"/>
<path class="st2" d="M291,222.5c-0.5-0.1-0.8-0.7-0.7-1.2c0,0,0,0,0-0.1c0.5-1.5,0.9-2.8,1.4-4.3c0.4-1.3,0.8-2.6,1.2-3.9
	c0.2-0.8,0.6-1.9,1.7-1.6s0.7,1.4,0.4,2.2c-0.4,1.3-0.8,2.6-1.2,3.9c-0.4,1.5-0.9,2.8-1.4,4.3C292.1,222.3,291.5,222.6,291,222.5z"
	/>
<path class="st2" d="M301.4,227.6c-1.4-1.1,0.6-2.5,1.1-3.6c1.1-1.6,2.3-3.2,3.5-4.7c0.7-0.7,1.1-1.8,2-2.3c0.5-0.2,1.2,0,1.4,0.6
	c0.2,0.4,0.1,0.9-0.3,1.2c-1.7,2.1-3.2,4.4-4.9,6.6C303.4,226.1,302.8,228.3,301.4,227.6z M308.7,218.9c0.1-0.1,0.2-0.1,0.3-0.2
	C308.9,218.8,308.8,218.9,308.7,218.9L308.7,218.9z"/>
<path class="st2" d="M308.3,233.1c-0.3-0.5-0.1-1.1,0.4-1.4l0,0c1.7-0.9,3.4-1.7,5-2.5s3.1-1.6,4.7-2.3c0.5-0.2,1.1,0.2,1.2,0.7v0.1
	c0.3,1-0.8,1.3-1.4,1.6c-1.3,0.6-2.4,1.2-3.7,1.9c-1.6,0.8-3.3,1.5-4.9,2.4C309.2,233.8,308.6,233.6,308.3,233.1z"/>
<path class="st2" d="M311.9,244.4c0-0.6,0.4-1.1,1-1.1l5.7-0.7c2-0.2,4-0.7,6-0.5c0.5,0.1,0.9,0.7,0.7,1.2s-0.7,0.9-1.2,0.7
	c-3.7,0.2-7.3,0.9-11,1.3C312.6,245.4,312,245.1,311.9,244.4C311.9,244.5,311.9,244.4,311.9,244.4z"/>
<path class="st2" d="M320.4,261.3c-2.8-0.6-5.6-1.4-8.3-2.1c-0.6-0.2-1.1-0.3-1.7-0.3c-0.3,0.1-0.7-0.1-0.9-0.3
	c-0.4-0.5-0.3-1.1,0.1-1.5c0.2-0.2,0.5-0.3,0.8-0.3c3.6,0.6,7.1,1.8,10.6,2.6C322.5,259.6,321.8,261.6,320.4,261.3z"/>
<path class="st2" d="M309.3,275c-0.3,0-0.6-0.2-0.8-0.4c-1.2-1-2.4-2-3.5-3.1s-2.4-2.1-3.5-3.1c-0.2-0.2-0.3-0.5-0.3-0.7
	c0-0.6,0.5-1.1,1.1-1.1c0.4,0,0.8,0.2,1,0.6c1.2,1,2.4,2,3.5,3.1l3.4,3c0.4,0.4,0.4,1.1-0.1,1.5C309.9,274.9,309.6,275,309.3,275z"
	/>
<path class="st2" d="M290,283.7c-0.3-2.7-0.7-5.3-1-7.9c0-1.1-0.8-2.8,0.2-3.6c0.5-0.3,1.2-0.2,1.5,0.3c0.2,0.2,0.2,0.5,0.2,0.8
	c0.2,3.5,0.9,6.9,1.3,10.3c0.1,0.6-0.4,1.1-0.9,1.2S290,284.3,290,283.7z M289.5,274c-0.1,0-0.2,0-0.2-0.1h0.1
	C289.4,274,289.4,274,289.5,274z"/>
<path class="st2" d="M272.6,284.4c-0.5-0.1-0.9-0.6-0.9-1.1v-0.1c0.8-4.1,1.4-8.3,2.1-12.5c0.2-0.6,0.9-0.9,1.5-0.6
	c0.2,0.1,0.4,0.3,0.5,0.5c0.2,0.2,0.2,0.5,0.1,0.8c-0.2,1-0.3,2-0.4,2.9c-0.4,2.8-0.8,5.6-1.4,8.4
	C273.9,283.5,273.7,284.7,272.6,284.4z"/>
<path class="st2" d="M255,283.3c-0.5-0.1-0.9-0.6-0.9-1.1v-0.1c0.5-1.9,1.2-3.7,1.7-5.6c0.8-2.8,1.6-5.5,2.4-8.2
	c0.1-0.6,0.7-1,1.3-0.9c0.4,0.1,0.7,0.4,0.8,0.8c0.1,0.7-0.4,1.4-0.5,2c-0.4,1.5-0.9,2.9-1.3,4.4c-0.5,1.9-1.1,3.6-1.7,5.5
	C256.4,281.1,256.6,283.5,255,283.3z"/>
<path class="st3" d="M280,216.8h-0.2c-0.7-0.1-17.4-2.2-24.4-8.2c-4.1-3.7-7-8.6-8.3-14c-1.4-5.7-1-10.4,1-14.2
	c7.8-14.3,38.7-17.7,53.5-19.3c0.7-0.1,1.3,0.4,1.4,1.1c0.1,0.7-0.4,1.3-1.1,1.4c-14.4,1.5-44.3,4.8-51.6,18
	c-1.8,3.2-2,7.4-0.8,12.5c1.1,4.9,3.7,9.3,7.4,12.7c6.4,5.5,22.9,7.6,23.1,7.6c0.7,0.1,1.2,0.7,1.1,1.4
	C281.1,216.3,280.6,216.8,280,216.8z"/>
<path class="st0" d="M137.6,189.6c1.9,5.9,0.7,12.2,0.8,18.3c0,3.5-0.2,7-0.2,10.4c-0.2,1.6,0.4,3.6-0.2,5.1
	c-0.9,1.4-5.9,1.1-7.7,1.3c-5.6,0.2-11.1,1-16.6,1.1c-0.8-0.2-1.5-0.8-1.8-1.5c-0.2-1.8-0.2-3.5-0.2-5.3c-0.1-7.7-0.4-15.5,0.1-23.2
	c0.3-3.8,1.4-8.1,5-10.3c2.7-1.7,6.3-0.9,8,1.7c0.3,0.4,0.5,0.9,0.6,1.3c0.9-1.8,2.5-3.2,4.5-3.9
	C133.5,183.4,136.5,186.4,137.6,189.6z"/>
<path class="st1" d="M139.2,222.4c0.8,9.1-0.3,18.1-0.6,27.1c-0.2,3.9-0.5,25.4-0.8,29.3c-0.2,3-0.4,6.1-1.5,8.9
	c-1.4,3.8-6.3,7-10.1,4.1c-1.6-1.5-1.9-3.9-2.4-5.9c-0.2,2.3-1.1,4.5-2.4,6.3c-1.1,1-2.4,2-4,1.9c-6.4-0.4-5.7-9.9-6.1-14.4
	c-0.1-3.7-0.2-25.1-0.1-28.9c0.1-6.4,0.3-12.8,0.3-19.2c0-1.9-0.1-3.9-0.2-5.8c0-0.7-0.3-1.8,0.6-2.2c0.5-1.1,2.1-0.6,3.1-0.9
	c1.5-0.1,3.1-0.2,4.6-0.3c4.8-0.3,9.6-0.8,14.4-1.2C135.6,221.4,138.7,220.4,139.2,222.4z"/>
<path class="st3" d="M123.4,282.1c0.2-13.1,1-44,0.5-57.1c0.1-0.5,0.7-0.8,1.2-0.7c0.1,0,0.2,0.1,0.3,0.1c0.8,0.4,0.5,1.5,0.7,2.2
	c0.4,9.3,0,18.6-0.2,27.9c-0.1,3.3-0.2,24.2-0.2,27.6C125.7,283.3,123.5,283.5,123.4,282.1z"/>
<path class="st2" d="M117.6,198.8c-0.5-0.2-0.8-0.8-0.6-1.4c0.1-0.2,0.3-0.5,0.5-0.6c1.7-0.3,3.5-0.3,5.2-0.5c3.3-0.2,6.6-0.5,9.9-1
	c0.6-0.1,1.1,0.2,1.2,0.8c0.1,0.6-0.2,1.1-0.8,1.2C127.9,198,122.7,198.5,117.6,198.8z"/>
<path class="st2" d="M116.4,204.9c-0.5-0.3-0.6-0.9-0.4-1.4c0.1-0.1,0.1-0.2,0.2-0.3c0.4-0.2,0.8-0.3,1.2-0.3
	c1.3-0.2,2.4-0.2,3.7-0.4c4-0.3,8-1,12-1.6c0.6-0.1,1.1,0.3,1.2,0.9c0.1,0.6-0.3,1.1-0.9,1.2c-0.1,0-0.1,0-0.2,0
	c-4.2,0.7-8.3,1.2-12.6,1.6c-1.1,0.2-2.2,0.2-3.4,0.3C117,205.1,116.7,205.1,116.4,204.9z M117.3,203.1H117
	C117.1,203,117.2,203.1,117.3,203.1L117.3,203.1z"/>
<path class="st2" d="M116.8,211.8c-0.6,0-1-0.5-0.9-1.1c0-0.4,0.3-0.7,0.7-0.9c2.1-0.4,4.1-0.7,6.2-0.7c3.2-0.3,6.4-0.7,9.6-0.9
	c1.6-0.4,2.1,1.9,0.5,2c-3.4,0.2-6.9,0.6-10.4,1c-1.8,0.2-3.5,0.2-5.2,0.6L116.8,211.8L116.8,211.8z"/>
<path class="st2" d="M117.5,218.9c-0.6,0-1.1-0.4-1.1-1c0-0.5,0.4-1,0.9-1.1c4.9-0.6,9.8-1.1,14.6-1.7c0.5,0,1.1-0.2,1.6,0.1
	c1,0.8,0.2,2-0.9,1.9C127.6,217.8,122.6,218.3,117.5,218.9z"/>
<path class="st1" d="M136,169.5c0.8,9-8.2,13.9-16.6,11.6c-4.2-1.1-6.2-5.4-6-9.3c0.2-3.1,1.7-6,4.1-8c2.8-2.3,6.5-3.2,10-2.2
	c2.4,0.6,4.7,1.8,6,3.9C135.2,166.2,135.8,168,136,169.5z"/>
<path class="st3" d="M97.2,157.1c2.8,1,5.4,3.8,4.4,6.7c-0.8,2-3.1,3.2-5,4.2c5.3,0.5,9.2,6,4.6,10c-3,2.3-6.9,2.9-10.5,3.6
	c-6.1,1-12.2,2-18.4,2.9c-11.2,1.8-22.8,4.1-32.3,10.4c-18.4,13.3-16.4,37-15.1,49.3c0.7,3-0.3,3.6-3.2,4.5
	C15.9,250.3,10,251,4,250.8c-2.9-0.1-3.5-1.1-3.5-3.7c-0.4-3.9-0.2-21.1,0-30.7C1.6,199,8.9,185.2,21.7,175
	c9.8-7.9,22.3-11.4,34.5-14.3c8.3-1.9,16.6-3.3,25.1-4.3C86.6,156.1,92.1,155.6,97.2,157.1z"/>
<path class="st2" d="M11.6,246.7c0.2-5.8-3.4-29.7,2.2-42.6c4-9.3,11.4-17.1,20.1-22.5c10.7-6.5,23.3-8.9,35.6-10.7
	c6-0.9,12-1.5,17.9-2.4c1.4,0,5.7-1.6,5.8,0.4c0,0.6-0.6,1.1-1.2,1.1c-0.1,0-0.1,0-0.2,0c-0.9,0.1-1.8,0.2-2.8,0.4
	c-7.1,1.1-14.3,1.7-21.5,2.9c-11,1.8-22.3,4.1-32,9.7c-10.5,6.4-19.5,16.5-22,28.4c-1.3,12.8,0.1,32,0,35.2
	C13.8,248,11.6,248.1,11.6,246.7z"/>
<path class="st4" d="M97.4,275.3c0.9,0.8,1.5,1.9,1.4,3.2c-0.5,3.9-4,6.4-7.4,8.1c-5.2,2.4-10.6,4.1-16.2,5.1
	c-6.9,1.6-14.1,2.2-21.2,1.8c-20-0.9-40.8-7-48.7-26.5c-2.4-5.3-4.2-10.9-5.3-16.6c-0.4-2.8,0.8-4,3.6-4.3c1.9-0.4,3.6-0.7,5.5-1.1
	c3.9-0.6,7.8-1.2,11.7-2c1.4-0.2,2.9-0.6,4.3-0.7c1.7-0.3,2.7,0.3,3,1.9c2.8,10.5,4.6,17.4,16.3,21.3c11.3,3.5,23.1,0.7,34.4-0.8
	c4.1-0.6,8.3-1.7,12.5-0.7c6,1.5,4.3,7.4,0.2,10C93.6,273.9,95.9,273.9,97.4,275.3z"/>
<path class="st3" d="M21.7,252c0.5-0.3,1.2-0.1,1.4,0.5c0.3,0.5,0.1,1.2-0.5,1.4c-0.1,0.1-0.2,0.1-0.4,0.1c-1.7,0.5-3.4,1-5.1,1.5
	s-3.5,1.1-5.4,1.6c-1.1,0.2-2.7,1.5-3.4,0.2c-0.4-1,0.6-1.5,1.4-1.7l4-1.2C16.3,253.5,19,252.7,21.7,252z"/>
<path class="st3" d="M28.2,261.8c0.2,1.2-1.5,1.4-2.4,1.9c-1.6,0.8-3.2,1.7-4.7,2.6l-4.8,2.7c-0.5,0.3-1.2,0.2-1.5-0.3
	c-0.3-0.4-0.2-1.1,0.2-1.4c0,0,0.1,0,0.1-0.1c1.7-1,3.4-1.9,5-2.8s3.4-1.9,5-2.8C26.2,261.3,27.8,260.3,28.2,261.8z"/>
<path class="st3" d="M34.6,268c0.4,0.8-0.5,1.4-0.9,2.1c-0.8,1.2-1.8,2.4-2.6,3.5c-1.2,1.6-2.4,3.2-3.5,4.8c-0.8,0.8-1.5,3.2-3,2.6
	c-1.5-1,0.8-2.8,1.3-3.9c2.1-3,4.4-5.8,6.5-8.8C32.9,267.4,34.2,267.1,34.6,268z"/>
<path class="st3" d="M42.5,272.1c1.4,0.1,1.1,1.5,0.8,2.4c-0.3,1.4-0.6,2.8-0.9,4.2c-0.4,1.8-0.8,3.6-1.3,5.4
	c-0.2,0.6-0.8,0.9-1.3,0.7l0,0c-0.5-0.1-0.9-0.6-0.8-1.2v-0.1c0.4-1.8,0.9-3.6,1.3-5.4c0.3-1.4,0.7-2.8,0.9-4.2
	C41.5,273.1,41.5,272.1,42.5,272.1z"/>
<path class="st3" d="M54.8,273.7c0.2,3.4,0.1,6.8-0.1,10.3c0,0.3-0.1,0.6-0.3,0.7c-0.5,0.4-1.2,0.4-1.6-0.1
	c-0.2-0.2-0.3-0.4-0.3-0.6c0.1-2.7,0.2-5.4,0.2-8c0.1-1-0.4-2.1,0.2-3c0.5-0.4,1.2-0.4,1.6,0.1C54.6,273.3,54.7,273.5,54.8,273.7z"
	/>
<path class="st3" d="M67.2,284.7c0.1,0.6-0.3,1.1-0.9,1.2s-1.1-0.3-1.2-0.9c-0.3-2.9-0.3-5.8-0.8-8.7c-0.1-0.8-0.2-1.7-0.3-2.5
	c-0.1-0.6,0.2-1.2,0.8-1.3c0.5-0.1,1,0.1,1.2,0.5c0.1,0.4,0.2,0.9,0.3,1.3C66.7,277.8,67,281.3,67.2,284.7z"/>
<path class="st3" d="M78.7,284c0.1,0.6-0.4,1.1-1,1.2c-0.5,0-1-0.3-1.1-0.8c-0.4-2.4-0.8-4.8-1.3-7.1c-0.3-1.1-0.5-2.2-0.8-3.3
	c-0.3-0.5-0.2-1.2,0.3-1.5c0.3-0.2,0.8-0.3,1.2,0c0.8,0.6,0.8,1.9,1.1,2.8C77.7,278.1,78.2,281.1,78.7,284z"/>
<path class="st3" d="M88.5,282.1c0.4,1.3-1.7,1.9-2.1,0.6c-0.5-2-0.9-4.1-1.3-6.1c-0.3-1.5-0.7-2.9-1.4-4.2c-0.2-1.9,2-1.9,2.4,0
	C87.4,275.5,87.7,278.8,88.5,282.1z"/>
<path class="st4" d="M309.7,82.6c0.2,3.1,2.8,11.8-1.9,12.4c-7.2,1-14.5,1.7-21.7,1.9c-3.7,0.1-7.4,0.7-11.1,0.4c-1.1,0-2-0.9-2-2
	v-0.1v-4c-0.1-3.9,0-7.8,0.2-11.7c0-1.1,0.3-2.2,0.8-3.2c0.7-0.8,1.7-1.2,2.7-1.1c3.2-0.2,6.4-0.5,9.7-0.7c2.5,0.1,23.9-2.8,22.3,1
	C309.2,78,309.6,80.3,309.7,82.6z"/>
<path class="st0" d="M290.8,5.7c0.6,5.7,1.4,11.6,1.9,17.4c-0.6,2.6-5.2,4.3-7.1,6.2c-8,7.5-7.2,19.1-7.8,29.2s-1.4,20.3-1.2,30.5
	c-0.1,13.7,0.2,27.5-0.8,41.1c-0.5,3.5,0,7.3-1.9,10.4c-1.2,1.6-3.3,3.1-5.5,2.4s-3.1-2.5-3.7-4.5c-1.6,3.2-4.1,5.6-8.1,4.1
	c-5.1-2.6-3.9-13.8-4.1-18.7c0.1-8.7,0.4-17.3,0.4-26c0-15.4,0.5-30.8,1.8-46.2c1.3-13.4,3-28.4,13.1-38.5c4-4,9.5-6.3,14.9-7.9
	c1.9-0.5,3.9-1.4,5.9-1.4c0.5-0.5,1.2-0.5,1.7,0c0.1,0.1,0.1,0.2,0.2,0.2v0.2C291,4.5,291.1,5.2,290.8,5.7L290.8,5.7z"/>
<path class="st1" d="M329.3,40.8c2.2,20.7,2.7,41.6,1.4,62.5c-0.5,8.6-0.4,17.2-1.6,25.8c-0.7,4.2-1.5,8.6-4,12.2
	c-3,4.2-8.3,3.2-9.6-1.7c-1,2.5-3.5,4.8-6.5,4.4c-6.9-0.8-5.5-12.3-5.8-17.3c-0.3-13,0.8-25.9,1-38.8c0.3-15.1,1-30.2,0.1-45.3
	c-0.9-9.6-3-14-13.5-15.8c-2.8,1.5-2.3-5.8-2.6-7.2c-0.2-2.1-0.5-4.2-0.8-6.3c-0.2-2.8-1.7-8.6-0.1-10.6c1.4-1.1,3.5-0.8,5.2-0.9
	c5,0.1,10,1,14.8,2.6C323.9,8.6,328.4,26.4,329.3,40.8z"/>
<path class="st2" d="M264.1,135.6c0.2-22-0.1-43.9-0.1-65.9c0.3-19.1-2.3-45.1,19.2-54.6c4-2.1,4.2,1.1,2.5,1.5
	c-1.1,0.3-2.1,0.7-3.1,1.2c-17.3,9.1-16.2,30.3-16.3,46.8c-0.1,15.2,0.1,30.5,0,45.7c0.1,6.8,0.2,13.6,0,20.4v4.9
	c0,0.6-0.5,1.2-1.1,1.2C264.6,136.8,264.1,136.3,264.1,135.6z"/>
<path class="st3" d="M299,20.8c-0.6-0.2-1-0.8-0.8-1.4c0.4-1.9,0.8-3.8,1.2-5.8c0.4-1.4,0.7-4.9,1.7-5.7c0.8-0.5,2,0.3,1.7,1.2
	c-0.5,1.6-0.9,3.3-1.2,5c-0.4,1.9-0.8,3.8-1.2,5.8C300.1,20.6,299.6,20.9,299,20.8z"/>
<path class="st3" d="M305.4,26c-0.2-1.3,1.4-1.8,2.2-2.6c2.3-1.8,4.6-3.5,6.9-5.3c1.2-0.9,2.6,0.8,1.4,1.7l-4.5,3.4
	c-1.2,0.9-2.4,1.9-3.5,2.8C307.1,26.9,305.9,27.2,305.4,26z"/>
<path class="st3" d="M308.6,35.3c-0.4-0.5-0.3-1.2,0.2-1.6c0.3-0.2,0.6-0.3,0.9-0.2c1.8-0.2,3.5-0.6,5.3-0.8l5.6-0.7
	c0.6-0.1,1.2,0.3,1.3,0.9c0.1,0.6-0.3,1.2-0.9,1.3h-0.1l-10.3,1.5C309.9,35.6,309,35.8,308.6,35.3z"/>
<path class="st3" d="M309.3,48.1c0-0.6,0.5-1.1,1.1-1.1l0,0l4.7-0.5c1.9-0.2,3.8-0.4,5.6-0.6c0.3,0,0.6,0,0.9,0.2
	c0.5,0.4,0.6,1.1,0.2,1.6c-0.2,0.2-0.4,0.4-0.7,0.4c-3,0.3-5.9,0.6-8.8,0.9C311.3,49.1,309.5,49.7,309.3,48.1z"/>
<path class="st3" d="M308.5,64.4c-0.8-1.6,1.1-1.9,2.3-1.8l8.9-0.2c0.9,0,1.9-0.1,2.9-0.1c0.6-0.1,1.2,0.3,1.2,1
	c0,0.7-0.3,1.2-1,1.2c-0.1,0-0.1,0-0.2,0l-10.5,0.2C311,64.7,309.3,65.4,308.5,64.4z"/>
<path class="st3" d="M309.9,78.9c-0.5-0.3-0.6-0.9-0.3-1.4c0.1-0.1,0.2-0.2,0.3-0.3c0.7-0.5,1.6-0.2,2.4-0.3
	c2.4-0.1,4.7-0.2,7.1-0.3c1.3,0,3-0.6,4.1-0.1c0.5,0.4,0.6,1.1,0.2,1.6c-0.2,0.2-0.4,0.4-0.7,0.4c-3.1,0.3-6.2,0.5-9.3,0.6
	C312.7,79,310.5,79.5,309.9,78.9z"/>
<path class="st3" d="M308.9,93.5c-0.6,0-1.1-0.5-1-1.1c0-0.5,0.4-1,1-1c3.2-0.2,6.4-0.1,9.6-0.4c1.3,0,2.9-0.7,4-0.1
	c0.5,0.4,0.6,1.1,0.2,1.6c-0.2,0.2-0.4,0.4-0.7,0.4C317.6,93.3,313.2,93.3,308.9,93.5z"/>
<path class="st3" d="M307.6,106.1c-1-2.6,3.7-2,5.2-2.2c2.8-0.2,5.6-0.2,8.4-0.5c1.5-0.3,2.1,1.9,0.5,2.2c-1.9,0.2-3.6,0.2-5.5,0.3
	s-3.9,0.2-5.7,0.3C309.6,106.1,308.4,107.1,307.6,106.1z"/>
<path class="st3" d="M308.1,116.9c-0.1-1.9,2.6-1.2,3.9-1.4c3.1-0.1,6.1-0.1,9.3-0.2c1.9-0.5,2.6,1.9,0.7,2.2
	c-0.9,0-1.9,0.1-2.9,0.1c-3.1,0.1-6.2,0-9.4,0.2c-0.6,0.2-1.3-0.1-1.5-0.7C308.1,117,308.1,117,308.1,116.9z"/>
<path class="st3" d="M308.7,129.3c-0.6-2.4,4.1-1.7,5.6-2c2,0,4.1-0.1,6.1-0.1c0.8,0,1.6,0,2.4-0.1c0.6-0.1,1.2,0.4,1.2,1
	c0,0.6-0.4,1.2-1,1.2c-0.1,0-0.1,0-0.2,0c-3.7,0.2-7.4,0-11,0.2C310.7,129.6,309.1,130.6,308.7,129.3z"/>
<path class="st3" d="M301.7,84.2c0.6-0.1,1.1,0.4,1.2,1s-0.4,1.1-1,1.2c-0.1,0-0.1,0-0.2,0c-4.4,0.3-8.7,0.8-13.1,1
	c-2.7,0.1-5.3,0.1-8,0.1c-1.2-0.1-3.3,0.6-3.5-1c0-0.6,0.5-1.1,1.1-1.2c1.9,0,4-0.1,5.9-0.1C290.1,85.2,295.9,84.7,301.7,84.2z"/>
<path class="st1" d="M203.2,232.4c0.2,3.1,2.8,11.8-1.9,12.4c-7.2,1-14.5,1.7-21.7,2c-3.7,0.1-7.4,0.7-11.1,0.4c-1.1,0-2-0.9-2-2
	v-0.1v-4c-0.1-3.9,0-7.8,0.2-11.7c0-1.1,0.3-2.2,0.8-3.2c0.7-0.8,1.7-1.2,2.7-1.1c3.2-0.2,6.4-0.5,9.7-0.6c2.5,0.1,23.9-2.8,22.3,1
	C202.8,227.7,202.8,230.1,203.2,232.4z"/>
<path class="st4" d="M184.1,155.6c0.6,5.8,1.4,11.6,1.9,17.4c-0.6,2.6-5.2,4.3-7.1,6.2c-8,7.5-7.2,19.1-7.8,29.2s-1.4,20.3-1.2,30.5
	c-0.1,13.7,0.2,27.5-0.8,41.1c-0.5,3.5,0,7.3-1.9,10.4c-1.2,1.6-3.3,3.1-5.5,2.4s-3.1-2.5-3.7-4.5c-1.6,3.2-4.1,5.6-8.1,4.1
	c-5.1-2.6-3.9-13.8-4.1-18.7c0.1-8.7,0.4-17.3,0.4-26c0-15.4,0.5-30.8,1.8-46.2c1.3-13.4,2.9-28.4,13.1-38.5c4-4,9.5-6.3,14.9-7.9
	c1.9-0.5,3.9-1.4,5.9-1.4c0.5-0.5,1.2-0.5,1.7,0c0.1,0.1,0.1,0.2,0.2,0.2v0.2C184.5,154.6,184.5,155.2,184.1,155.6z"/>
<path class="st3" d="M222.7,190.7c2.2,20.7,2.7,41.7,1.4,62.5c-0.5,8.6-0.4,17.2-1.6,25.8c-0.7,4.2-1.5,8.6-3.9,12.1
	c-2.9,4.2-8.3,3.2-9.6-1.7c-1,2.5-3.5,4.8-6.5,4.4c-6.9-0.8-5.5-12.3-5.8-17.3c-0.3-13,0.8-25.9,1-38.8c0.2-15.1,1-30.2,0.1-45.3
	c-0.9-9.6-2.9-14-13.5-15.8c-2.8,1.5-2.3-5.8-2.6-7.2c-0.2-2.1-0.5-4.2-0.8-6.3c-0.2-2.8-1.7-8.6-0.1-10.6c1.4-1,3.4-0.8,5.2-0.9
	c5,0.1,10,1,14.7,2.6C217.3,158.4,221.8,176.3,222.7,190.7z"/>
<path class="st2" d="M157.5,285.4c0.2-22-0.1-43.9-0.1-65.9c0.3-19.1-2.3-45.1,19.2-54.6c4-2.1,4.2,1.1,2.5,1.5
	c-1.1,0.3-2.1,0.7-3.1,1.2c-17.3,9.1-16.2,30.3-16.3,46.8c-0.1,15.2,0.1,30.5,0,45.7c0.1,6.8,0.2,13.6,0,20.4v4.8
	c0,0.6-0.5,1.1-1.1,1.1c-0.5,0.1-1.1-0.3-1.2-0.8C157.5,285.5,157.5,285.5,157.5,285.4z"/>
<path class="st1" d="M192.3,170.6c-0.6-0.2-1-0.8-0.9-1.4c0.4-1.9,0.8-3.8,1.2-5.8c0.4-1.4,0.7-4.9,1.7-5.7c0.8-0.5,2,0.3,1.7,1.2
	c-0.5,1.6-0.9,3.3-1.2,5c-0.4,1.9-0.8,3.8-1.2,5.8C193.7,170.4,192.9,170.7,192.3,170.6z"/>
<path class="st1" d="M198.8,175.8c-0.2-1.3,1.4-1.8,2.2-2.6c2.3-1.8,4.6-3.5,6.9-5.3c1.2-0.9,2.6,0.8,1.4,1.7l-4.6,3.4
	c-1.2,0.9-2.4,1.9-3.5,2.8C200.6,176.6,199.2,177.1,198.8,175.8z"/>
<path class="st1" d="M201.9,185c-0.4-0.5-0.3-1.2,0.2-1.6c0.3-0.2,0.6-0.3,0.9-0.2c1.8-0.2,3.5-0.6,5.3-0.8l5.6-0.7
	c0.6-0.1,1.2,0.3,1.3,0.9s-0.3,1.2-0.9,1.3l0,0l-10.3,1.4C203.3,185.4,202.4,185.6,201.9,185z"/>
<path class="st1" d="M202.8,197.9c0-0.6,0.5-1.1,1.1-1.1l0,0l4.7-0.5c1.9-0.2,3.8-0.4,5.6-0.6c0.3,0,0.6,0,0.8,0.2
	c0.5,0.4,0.6,1.1,0.2,1.6c-0.2,0.2-0.4,0.4-0.7,0.4c-2.9,0.3-5.9,0.6-8.8,0.9C204.7,198.9,202.8,199.5,202.8,197.9z"/>
<path class="st1" d="M201.8,214.3c-0.8-1.6,1.1-1.9,2.3-1.8l8.9-0.2c0.9,0,1.9-0.1,2.9-0.1c0.6-0.1,1.2,0.4,1.2,1
	c0.1,0.6-0.4,1.2-1,1.2c-0.1,0-0.1,0-0.2,0l-10.5,0.2C204.4,214.5,202.6,215.2,201.8,214.3z"/>
<path class="st1" d="M203.3,228.7c-0.5-0.3-0.6-1-0.2-1.5c0.1-0.1,0.1-0.2,0.2-0.2c0.7-0.5,1.6-0.2,2.4-0.3c2.4-0.1,4.7-0.2,7.1-0.3
	c1.3,0,3-0.6,4.1-0.1c0.5,0.4,0.6,1.1,0.2,1.6c-0.2,0.2-0.4,0.4-0.7,0.4c-3.1,0.3-6.2,0.5-9.3,0.6
	C206.1,228.8,203.9,229.3,203.3,228.7z"/>
<path class="st1" d="M202.3,243.3c-0.6,0-1.1-0.5-1-1.1c0-0.5,0.4-1,1-1c3.2-0.2,6.4-0.1,9.6-0.4c1.3,0,2.9-0.6,4.1-0.1
	c0.5,0.4,0.6,1.1,0.2,1.6c-0.2,0.2-0.4,0.4-0.7,0.4C211,243.1,206.6,243.1,202.3,243.3z"/>
<path class="st1" d="M201,255.8c-1-2.6,3.7-1.9,5.2-2.2c2.8-0.2,5.6-0.2,8.4-0.5c1.5-0.3,2.1,1.9,0.5,2.2c-1.9,0.2-3.6,0.2-5.5,0.3
	s-3.9,0.2-5.7,0.3C202.9,255.9,201.8,256.9,201,255.8z"/>
<path class="st1" d="M201.4,266.8c-0.1-1.9,2.6-1.2,3.9-1.4c3.1-0.1,6.1-0.1,9.3-0.2c1.9-0.5,2.6,2,0.7,2.2c-0.9,0-1.9,0.1-2.9,0.1
	c-3.1,0.1-6.2,0-9.4,0.2c-0.6,0.2-1.3-0.1-1.5-0.7C201.4,266.9,201.4,266.8,201.4,266.8z"/>
<path class="st1" d="M202.1,279.1c-0.6-2.4,4.1-1.7,5.6-2c2,0,4.1-0.1,6.1-0.1c0.8,0,1.6,0,2.4-0.1c0.6-0.1,1.2,0.3,1.2,1
	c0.1,0.6-0.3,1.2-1,1.2c-0.1,0-0.1,0-0.2,0c-3.7,0.2-7.4,0-11,0.2C204.1,279.4,202.6,280.4,202.1,279.1z"/>
<path class="st3" d="M195.1,233.9c0.6-0.1,1.1,0.4,1.2,1c0.1,0.6-0.4,1.1-1,1.2c-0.1,0-0.1,0-0.2,0c-4.4,0.3-8.7,0.8-13.1,1
	c-2.7,0.1-5.3,0.1-8,0.1c-1.2-0.1-3.3,0.6-3.4-1c0-0.6,0.5-1.1,1.1-1.1c1.9,0,4-0.1,5.9-0.1C183.4,235,189.3,234.6,195.1,233.9z"/>
<path class="st3" d="M236.9,126.4c0.3,3.8,0.7,8.2-2,11.3c-1.4,1.6-3.7,2.2-5.6,1.4c-1.5-0.9-2.6-2.2-3.3-3.8
	c-0.8,3.5-3.9,7.5-8.1,6.2c-4.8-2-5.1-7.9-6.4-12.1c-0.6-2.3-1.4-4.6-2.1-6.8c-3.6-9.6-9.8-18.6-18.8-24.2c-1.4-0.8-2.7-1.5-4-2.1
	c-1.1-0.7-3.7-1-3-2.5c-0.8-2,1.8-2.6,3.3-3l5.3-1.4c3.7-1.2,7.5-2.1,11.4-2.7c3-0.5,6,0.1,8.6,1.6c3.8,2.7,7.3,5.9,10.2,9.5
	C228.7,106,234.9,116,236.9,126.4z"/>
<path class="st1" d="M225.2,9c14.2,8.8,16.6,27.2,13.7,42.1c-2.4,13.6-10.6,26.7-23.3,33.6c-15.7,7.9-33.5,11.3-51,12.2
	c-3.3-0.2-3.1-2.4-3.2-4.9c-0.4-3.9-0.5-7.8-0.4-11.8c0.3-3.3,1.4-3.9,4.6-4l9.1-0.7c12.7-0.9,27-3.1,36.1-12.6
	c3.8-4.3,5.6-10.4,6.4-16.3c0.1-2.6-0.1-5.2-0.5-7.8c-0.7-2.3-1.7-4.6-3-6.6c-4.3-6.8-10.9-8.9-18.6-10c-5.8-0.9-11.7-1.3-17.6-1.6
	c-4.5-0.2-8.9,0-13.4,0c-0.7,0-1.4-0.3-1.9-0.9c-0.8,0.2-1.5,0-1.7-1.1c-0.1-1-0.5-1.9-0.7-2.8c-0.2-1.2-0.3-2.4-0.4-3.6
	c-0.1-1.8-2.7-10.9,0.5-10.2c8.2-0.7,16.3-0.3,24.5-0.4C197.9,1.9,213.6,1.2,225.2,9z"/>
<path class="st4" d="M164.5,107.2c0.2,10,0.9,19.9,0.5,29.8c-0.1,2.4-1.6,5-4.3,5.3c-3,0.4-4.9-2.4-5.7-4.9
	c-0.3,4.3-3.4,7.1-7.9,6.3c-7.5-1-6.2-16-6.5-21.5c-0.3-14.6-0.2-29.3-0.8-43.8c-0.2-14.8,0.8-29.4,0.4-44.2
	c-0.1-8.3-0.6-16.6-1.4-24.8c-0.2-1.2-0.2-2.5,0.1-3.7c1.5-2.8,6-2.9,8.9-3.5c3.8-0.4,7.6-0.6,11.4-1c5.1-1,4.8,4,4.9,7.4
	c-0.1,11.5-0.2,23-0.3,34.5c-0.6,9.5-0.6,19,0,28.4C164.2,83.5,164.3,95.4,164.5,107.2z"/>
<path class="st2" d="M153.1,131.4c-0.2-14.8-1.4-29.6-1.9-44.4c-0.3-25.6-0.3-51.3-2-76.9c0.1-0.7-0.2-1.5,0.2-2.1
	c0.4-0.5,1.1-0.5,1.5-0.2c0.3,0.2,0.4,0.6,0.4,0.9c0.2,10.1,1.3,20.2,1.3,30.3c0.9,20.6,0,41.2,1.3,61.8c0.6,10.2,1.1,20.4,1.3,30.6
	C155.3,132.6,153.2,132.8,153.1,131.4z"/>
<path class="st3" d="M171.2,17.4c-0.2-3.4-0.5-6.9-0.7-10.3c0-0.6-0.3-1.5,0.2-2.1c0.5-0.4,1.2-0.4,1.6,0.1c0.2,0.2,0.3,0.4,0.3,0.7
	c0,1.6,0.2,3.2,0.2,4.9s0.3,3.4,0.3,5.1c0,0.7,0.3,1.5-0.1,2.1c-0.3,0.5-0.9,0.6-1.4,0.4C171.4,18,171.2,17.7,171.2,17.4z"/>
<path class="st3" d="M182.8,16.8c0.1-2.7,0.2-5.4,0.3-8.1c0.1-1.1,0-2.3,0.1-3.4c0.1-0.6,0.7-0.9,1.3-0.8c0.1,0,0.3,0.1,0.4,0.2
	c0.8,0.7,0.2,2.3,0.4,3.2c0,2.8-0.2,5.4-0.3,8.2c0,0.5,0.1,1-0.3,1.3c-0.4,0.4-1.1,0.5-1.5,0.1C182.9,17.4,182.8,17.1,182.8,16.8z"
	/>
<path class="st3" d="M195.8,18.9c-0.6,0-1-0.5-0.9-1.1v-0.1c0.4-4,0.9-7.9,1.4-11.8c0.1-0.6,0.7-0.9,1.3-0.8c0.2,0,0.4,0.1,0.5,0.3
	c0.7,0.8,0,2.1,0.1,3.1c-0.3,2.6-0.7,5.2-0.9,7.8C197,17.3,197.3,19,195.8,18.9z"/>
<path class="st3" d="M207.2,20c-0.5-0.2-0.8-0.8-0.6-1.4c0.7-1.6,1.4-3.2,2-4.8s1.4-3.2,2.1-4.9c0.3-0.6,0.5-1.4,1.2-1.7
	c0.5-0.2,1.2,0,1.4,0.5l0,0c0.3,0.5-0.1,1-0.3,1.4c-0.8,1.5-1.4,3.2-2.1,4.7s-1.4,3.1-2,4.7C208.7,19.4,208.3,20.4,207.2,20z"/>
<path class="st3" d="M214.1,24.9c-0.1-0.9,2.7-2.7,3.5-3.5c2.2-1.9,4.3-3.8,6.5-5.7c0.5-0.4,1.2-0.2,1.6,0.3
	c0.1,0.2,0.2,0.5,0.2,0.7c-0.3,1-1.6,1.5-2.4,2.4c-1.9,1.6-3.9,3.4-5.7,4.9c-0.8,0.6-1.5,1.8-2.6,1.9
	C214.6,26,214.1,25.5,214.1,24.9C214.1,25,214.1,24.9,214.1,24.9z"/>
<path class="st3" d="M219.3,33c-0.5-0.3-0.6-0.9-0.3-1.4c0,0,0-0.1,0.1-0.1c0.5-0.7,2.6-0.7,3.4-1.1c2.5-0.6,5.1-1.5,7.6-2.3
	c0.4-0.2,0.9-0.2,1.4-0.4c0.6-0.1,1.1,0.4,1.2,1c0,0.4-0.2,0.8-0.6,1c-2.9,0.9-5.8,1.9-8.8,2.7C222.1,32.6,220.4,33.5,219.3,33z"/>
<path class="st3" d="M170.9,91.3c-0.1-3.7-0.4-7.3-0.5-10.9c0.1-0.6,0.6-1,1.2-0.9c0.6,0.1,1,0.5,1,1.1c0.1,3.6,0.4,7.1,0.5,10.7
	c0,0.6-0.5,1.1-1.2,1C171.4,92.2,171,91.8,170.9,91.3z"/>
<path class="st3" d="M183.5,89.6c-0.2-2.7-0.6-5.4-0.9-8.1c0-1.1-0.6-2.2-0.1-3.2c0.4-0.5,1.1-0.5,1.6-0.1c0.2,0.2,0.3,0.4,0.4,0.6
	c0.3,3.5,0.8,7,1.2,10.5c0,0.3,0,0.6-0.2,0.9c-0.5,0.4-1.2,0.4-1.6,0C183.7,90,183.6,89.8,183.5,89.6z"/>
<path class="st3" d="M195,87.4c-0.5-2.5-1-4.9-1.5-7.4c0-1.1-1.3-3.2,0.4-3.7c0.6-0.1,1.1,0.3,1.3,0.9c0.3,1.7,0.7,3.4,1,5
	s0.7,3.2,1,4.9c0,0.6-0.5,1.1-1.1,1.1C195.6,88.2,195.2,87.9,195,87.4z"/>
<path class="st3" d="M205.9,83.5c-1.5-2.9-3.1-5.7-4.4-8.7c0-0.6,0.5-1,1.1-1c0.5,0,0.9,0.3,1,0.8c0-0.1-0.1-0.2-0.1-0.3
	c1.5,2.8,2.9,5.6,4.4,8.3c0.2,0.6-0.1,1.2-0.7,1.4C206.7,84.2,206.1,84,205.9,83.5z"/>
<path class="st3" d="M218.2,76c-2.2-1.3-4.4-2.8-6.4-4.4c-0.8-0.7-1.8-1.1-2.3-2.1c-0.2-0.5,0.1-1.1,0.7-1.3c0.1,0,0.1,0,0.2,0
	c0.8-0.2,1.2,0.6,1.8,1c2.3,1.8,4.6,3.4,7.1,4.9c0.5,0.3,0.7,0.9,0.4,1.4C219.3,76.1,218.7,76.3,218.2,76z"/>
<path class="st3" d="M227.4,63.8c-3.5-0.3-7-0.9-10.4-1.9c-0.5-0.1-0.9-0.6-0.8-1.2c0.1-0.3,0.3-0.6,0.5-0.7c0.9-0.4,2,0.3,3,0.4
	c2.6,0.6,5.3,1,7.9,1.2c0.6,0.1,1,0.6,0.9,1.2S227.9,63.9,227.4,63.8z"/>
<path class="st3" d="M232.4,52c-3.4-0.2-6.8-0.7-10.2-1c-0.6,0.1-1.1-0.3-1.2-0.9s0.3-1.1,0.9-1.2h0.1c3.5,0.2,7.1,1,10.6,1
	c0.6,0.1,1,0.6,0.9,1.2C233.5,51.7,233,52.1,232.4,52L232.4,52z"/>
<path class="st3" d="M223.1,42.1c-1.5-0.3-1.1-2.3,0.5-2.1c3.8-0.1,7.6-0.2,11.3-0.5c0.5-0.1,1.1,0.3,1.1,0.8
	c0.1,0.4-0.1,0.7-0.4,0.9c-0.2,0.2-0.5,0.3-0.8,0.3c-2,0.1-4,0.2-6,0.3S225.1,42,223.1,42.1z"/>
<path class="st1" d="M224.1,131.5c-2.3-13.8-9.7-26.6-19.8-36.5c-0.7-0.7-2.1-1.4-1.2-2.4c1.2-1.1,2.3,0.7,3,1.3
	c6.3,6.3,11.5,13.6,15.2,21.6c2.2,5,3.8,10.3,4.8,15.7c0,0.6-0.5,1.1-1.1,1C224.6,132.2,224.2,131.9,224.1,131.5z"/>
<path class="st3" d="M119.5,11.3c4.9,1.1,8.1,6,3.3,9.5c-4,2.9-9.4,2.8-14.2,3.2c-12.6,0.7-25.4,0.6-37.9,2.2
	C49,27.8,38.1,35.7,32.5,51.8c-1.8,5.6-2.8,11.5-3.1,17.3c-0.4,4.6,0.2,9.4-0.5,13.9c-1.2,2.2-8.7,2.1-11.2,2.5
	c-3.7,0.2-9.2,1-13,0.8C2.7,85.7,3.9,67,4,63.8c0.8-11.5,2.8-23.3,8.8-33.4c2.9-5,6.3-10,11-13.6c22.3-22.2,80.5-16,87.6-16.2
	c2.8,0,6.8-0.2,9.3,1.3C125.6,4.2,123.4,9.4,119.5,11.3z"/>
<path class="st0" d="M122.3,78.9c-0.2,10.9-1.1,21.8-4.1,32.2C114.6,122,107,132.6,96.3,138c-11,5.4-26.1,6.2-38.3,5.6
	c-17.6-1.4-37.8-7.9-46.6-23.9c-3.3-5.8-5-12.2-6.2-18.7c-1-4.5-1.6-9.1-1.9-13.8c0-1.8,0.8-3.5,2.9-3.6c1.5-0.2,3.1-0.4,4.6-0.6
	c3.6-0.4,7.2-0.9,11-1.2c17.3-1.9,8.8,0.8,12.8,19.8c1,4.7,3.2,9,6.3,12.7c9.7,9.4,25.9,12.4,38.2,6.5c7.4-3.3,10.9-10.9,12.9-18.2
	c0.8-3.4,2.8-12,1.3-15.1c-7.8,0.1-15.8,1.3-23.4-0.4c-3.4-0.6-7.4-3.8-4.9-7.2c1.8-1.6,3.9-2.7,6.2-3.2c-4.8-0.9-7.9-5.5-3.8-9.2
	c1.9-1.2,4-2,6.2-2.3c9.5-1.5,19.1-1,28.7-1.1c4.7,0.2,15.8-1.7,18.8,1.8C123,70.1,122.3,74.7,122.3,78.9z"/>
<path class="st2" d="M8.7,96.7c0.1-0.7,0.7-1.1,1.3-1h0.1c1.9-0.2,3.8-0.4,5.7-0.7c3.2-0.4,6.5-0.9,9.7-1.2c0.6-0.1,1.1,0.3,1.2,0.8
	c0.1,0.6-0.3,1.1-0.8,1.2c-4.7,0.6-9.3,1.3-14.1,1.8C10.7,97.5,8.8,98.2,8.7,96.7z"/>
<path class="st2" d="M13.5,113.3c-0.5-0.1-0.9-0.6-0.8-1.1c0.1-0.4,0.3-0.7,0.7-0.8c1.5-0.6,3.1-1.1,4.6-1.6
	c3.5-1.2,6.8-2.5,10.4-3.7c0.6-0.2,1.2,0.1,1.3,0.7c0.1,0.3,0.1,0.6-0.1,0.8c-0.2,0.5-1.1,0.6-1.5,0.8c-1.7,0.6-3.5,1.2-5.1,1.9
	c-2.9,1.1-5.8,2-8.8,3.1c0.1,0,0.2-0.1,0.3-0.2C14.1,113.4,13.8,113.4,13.5,113.3z"/>
<path class="st2" d="M23.8,126.3c-0.3-0.5-0.3-1.1,0.2-1.5c1.4-1.2,2.9-2.3,4.3-3.6s3-2.6,4.6-3.9c0.8-0.6,1.4-1.5,2.4-1.5
	c0.5-0.1,1.1,0.3,1.2,0.8c0.1,0.4-0.1,0.7-0.4,1c-3.2,2.3-6.1,5-9.1,7.5C26.1,125.6,24.9,127.4,23.8,126.3z"/>
<path class="st2" d="M41.8,136.5c-0.5-0.2-0.8-0.8-0.6-1.4c0.7-1.6,1.4-3.3,2.1-4.9c0.8-2,1.8-4,2.4-6v0.2c0.1-0.6,0.6-1,1.2-1
	c0.5,0.1,0.9,0.5,1,1c-0.5,1.8-1.2,3.6-2,5.3c-0.7,1.7-1.4,3.4-2.1,5C43.4,135.6,43,137,41.8,136.5z"/>
<path class="st2" d="M60.4,139.6c-0.6,0-1-0.5-0.9-1.1v-0.1c0.2-1.7,0.3-3.4,0.4-5.1c0.1-1.4,0.1-2.8,0.1-4.1c-0.1-0.8-0.1-2,1-2
	s1.2,1.1,1.1,1.9c0,1.4,0,2.8-0.1,4.2c-0.1,1.8-0.2,3.6-0.5,5.4c0,0.5-0.4,0.9-0.9,1C60.5,139.6,60.5,139.6,60.4,139.6z"/>
<path class="st2" d="M76.3,138.8c-0.5-3.9-1.2-7.7-2.3-11.4c0-0.6,0.5-1.2,1.1-1.2s1.2,0.5,1.2,1.1c0-0.1,0-0.2-0.1-0.2v0.1
	c1.1,3.7,1.9,7.6,2.4,11.4C78.6,139.9,76.5,140.2,76.3,138.8z"/>
<path class="st2" d="M91.2,133.8c-1.7-3.2-3.6-6.3-5.7-9.2c-0.4-0.4-0.4-1.1-0.1-1.5s1.1-0.4,1.5-0.1c1.2,1.5,2.2,3.2,3.2,4.8
	c1,1.6,1.8,3.1,2.7,4.6c0.3,0.3,0.3,0.7,0.2,1.1c-0.2,0.6-0.8,0.9-1.3,0.7C91.5,134.2,91.3,134,91.2,133.8z"/>
<path class="st2" d="M105.2,119.7c-2.7-0.9-5.3-2-8-3.1c-1.1-0.6-4.2-1.2-2.7-2.8c0.5-0.3,1.2-0.3,1.7,0.2l2.3,1
	c2.4,1,4.8,2,7.2,2.8C107.2,118,106.6,120,105.2,119.7z"/>
<path class="st2" d="M106.6,101.4c-2-0.2-4-0.2-6-0.4c-0.4,0-0.8-0.1-1.3-0.1c-0.5,0.2-1.1,0-1.3-0.5c-0.2-0.4-0.1-0.8,0.2-1.1
	c0.8-0.9,4-0.1,5.3-0.2c3,0.2,5.9,0.4,8.8,0.5c0.6,0,1.1,0.5,1.1,1c0,0.6-0.5,1.1-1,1.1l0,0C110.4,101.7,108.5,101.5,106.6,101.4z"
	/>
<path class="st2" d="M101,88.3c-0.5-0.1-0.9-0.6-0.8-1.2V87c0.3-1,1.7-0.9,2.5-1.2c4-0.8,8.2-1.3,12.2-2c1.3-0.2,1.7,1.9,0.3,2
	C110.5,86.7,105.7,87.4,101,88.3z"/>
<path class="st2" d="M79.3,82c-0.2-3.7-0.4-7.5-0.7-11.3c0.1-1-0.5-2.3,0.6-2.9c0.5-0.2,1.2,0,1.4,0.6v0.1c0.1,0.6,0,1.1,0.1,1.7
	c0.1,1.5,0.2,3,0.2,4.5c0.2,2.4,0.2,4.9,0.4,7.4C81.5,83.4,79.3,83.4,79.3,82z"/>
<path class="st2" d="M91.8,81.3c-0.2-3.8-0.5-7.5-0.9-11.3c-0.1-0.5-0.1-1.1-0.1-1.6c0.2-0.6,0.8-0.9,1.4-0.7
	c0.3,0.1,0.6,0.4,0.7,0.7c0.1,1.1,0.2,2.3,0.3,3.3c0.3,3.2,0.5,6.3,0.7,9.6c-0.1,0.6-0.6,1-1.2,1C92.3,82.2,91.9,81.8,91.8,81.3z"/>
<path class="st2" d="M103.1,81c-0.1-3.7-0.2-7.4-0.5-11c-0.6-2.4,1.9-2.8,2.1-1c0,0.9,0.1,1.7,0.2,2.6c0.2,3.2,0.3,6.3,0.4,9.5
	C105.2,82.3,103.1,82.4,103.1,81z"/>
<path class="st2" d="M115.7,78.5c0-3-0.2-5.9-0.6-8.8c-0.4-1.1,0.7-2.3,1.8-1.4c0.6,0.8,0.3,1.9,0.6,2.8c0.2,2.4,0.3,5,0.4,7.4
	c0,0.6-0.5,1.1-1.2,1C116.2,79.4,115.7,79,115.7,78.5z"/>
<path class="st1" d="M15.6,77c0.2-11.5,0-23.4,4.3-34.4c4.5-11.1,14.7-19.3,26.2-23.3c14.2-4.9,29.3-6.6,44.3-8
	c8.6-0.6,17.3-0.4,25.9-0.4c0.6,0,1,0.4,1,1c0,0.4-0.2,0.7-0.5,0.9c-0.9,0.5-2.1,0.1-3.1,0.2c-21.7-0.4-43.6,1.3-64.3,7.4
	C39,23.6,29.6,30,24.1,39c-4.1,7.1-5.4,15.7-5.9,23.6c-0.2,4.8-0.3,9.6-0.3,14.4C17.8,78.4,15.6,78.4,15.6,77z"/>
</svg>
